<?xml version="1.0" standalone="no"?>
<!DOCTYPE svg PUBLIC "-//W3C//DTD SVG 1.1//EN" "http://www.w3.org/Graphics/SVG/1.1/DTD/svg11.dtd" >
<svg>
<metadata>
Created by FontForge 20090622 at Sat Jun 22 10:48:11 2013
 By ffonts
&#194;&#169; 2012 ashinpan. Commercial Use Allowed. 
</metadata>
<defs>
<font id="Mignon-It" horiz-adv-x="400" >
  <font-face 
    font-family="Mignon"
    font-weight="400"
    font-style="italic"
    font-stretch="normal"
    units-per-em="1000"
    panose-1="2 4 5 3 5 2 1 9 2 3"
    ascent="727"
    descent="-273"
    x-height="449"
    cap-height="649"
    bbox="-201 -360 1684 1002"
    underline-thickness="50"
    underline-position="-50"
    slope="-12"
    unicode-range="U+0020-U+FB06"
  />
<missing-glyph horiz-adv-x="500" 
d="M0 700h500v-700h-500v700zM420 650h-340l170 -255zM450 95v510l-170 -255zM420 50l-170 255l-170 -255h340zM50 95l170 255l-170 255v-510z" />
    <glyph glyph-name="uniE0BB" unicode="Th" horiz-adv-x="1033" 
d="M998 83q-85 -95 -144 -95q-39 0 -16 96l53 235q16 68 -8 68q-31 0 -102 -66q-70 -66 -107 -129q-23 -88 -39 -185q-32 -6 -71 -18l-8 7q65 281 128 610q-101 9 -174 9h-67l-101 -485q-14 -67 -1 -83q13 -15 83 -20l-6 -27h-277l6 27q64 5 81 20q16 15 31 83l106 485h-72
q-101 0 -128 -31q-23 -27 -50 -89l-30 1q32 103 47 178h21q10 -25 46 -25h387q101 0 112 18l4 21q50 26 69 26q12 0 4 -34l-89 -417h2q89 115 188 165q39 21 63 21q55 0 30 -110l-55 -241q-9 -36 2 -36q21 0 71 45z" />
    <glyph glyph-name="uniE10C" unicode="fb" horiz-adv-x="757" 
d="M311 400l-100 -10q-37 -211 -51 -278q-44 -220 -125 -307q-58 -62 -112 -62q-21 0 -40 12q-19 13 -19 30q0 21 27 44q10 9 19 0q26 -24 60 -24q23 0 42 19q33 38 70 255l52 313h-81l-4 10l30 29h63q27 137 98 208q71 73 147 73q49 0 79 -25q50 25 65 25q12 0 4 -30
q-55 -233 -86 -377h2q124 144 215 144q71 0 71 -110q0 -83 -43 -167q-44 -85 -109 -128q-83 -56 -153 -56q-54 0 -80 43q-23 36 -5 126l100 463q-32 52 -86 52q-99 0 -143 -241h112zM439 243q-9 -26 -19 -82q-23 -125 62 -125q30 0 55 15q46 28 81 103q36 80 36 168
q0 70 -35 70q-70 0 -180 -149z" />
    <glyph glyph-name="uniFB00" unicode="ff" horiz-adv-x="530" 
d="M141 431q24 113 87 177q78 80 180 80q64 0 97 -42q69 66 132 66q24 0 43 -14q17 -13 16 -28q-2 -24 -25 -42q-15 -11 -27 1q-27 30 -62 30q-33 0 -54 -44q-24 -51 -46 -184h112l-19 -30l-100 -8l-43 -242q-44 -232 -141 -320q-67 -63 -142 -63q-67 0 -112 42
q-63 -67 -117 -67q-22 0 -40 11q-19 11 -19 26q0 19 23 40q18 15 28 8q29 -22 57 -22q26 0 42 21q35 46 68 240q37 215 54 325h-82l-4 11l29 28h65zM405 431q20 108 61 167q-33 49 -97 49q-65 0 -100 -56q-31 -48 -52 -160h188zM210 392q-36 -207 -50 -279
q-33 -171 -83 -250q34 -44 102 -44q64 0 93 37q43 50 76 239q37 220 49 297h-187z" />
    <glyph glyph-name="uniE10D" unicode="ffb" horiz-adv-x="1019" 
d="M571 399l-97 -8l-42 -239q-44 -234 -142 -323q-65 -61 -142 -61q-65 0 -107 46q-65 -70 -122 -70q-21 0 -38 10q-19 11 -19 27q0 17 21 38q19 17 30 10q35 -22 57 -22q27 0 43 21q33 43 66 240l53 323h-83l-3 11l29 29h65q24 111 88 177q76 80 173 80q70 0 101 -47
q71 69 149 71q48 0 78 -25q50 25 65 25q12 0 4 -30q-55 -233 -86 -377h2q124 144 213 144q34 0 53 -30q20 -30 20 -80q0 -82 -44 -167t-109 -129q-82 -55 -153 -55q-53 0 -79 43q-23 37 -5 126l100 462q-32 54 -87 54q-101 0 -142 -242h110zM702 243q-9 -26 -19 -82
q-23 -126 61 -126q29 0 54 15q47 28 82 103q37 81 37 169q0 70 -36 70q-69 0 -179 -149zM405 431q19 103 58 161q-30 55 -100 55q-56 0 -89 -49q-36 -51 -57 -167h188zM209 391q-38 -220 -51 -281q-34 -171 -81 -245q42 -47 102 -47q62 0 91 38q43 47 78 245l49 290h-188z
" />
    <glyph glyph-name="uniE10E" unicode="ffh" horiz-adv-x="1055" 
d="M1021 84q-85 -96 -144 -96q-39 0 -16 96l54 235q16 68 -8 68q-31 0 -101 -66t-108 -129q-30 -132 -39 -185q-34 -6 -72 -18l-7 7q60 262 132 625q-36 52 -90 52q-98 0 -140 -242h110l-20 -32l-97 -8q-38 -218 -43 -242q-44 -230 -143 -321q-64 -61 -140 -61
q-66 0 -107 47q-64 -70 -121 -70q-21 0 -39 10q-20 11 -20 27q0 22 22 40q17 17 30 8q30 -22 57 -22q26 0 42 21q34 44 67 241l53 322h-83l-3 11l29 29h65q23 108 89 178q76 80 171 80q69 0 103 -45q66 68 149 68q48 0 79 -26q49 26 62 26q11 -1 5 -29l-91 -423h2
q88 114 190 169q37 20 63 20q55 0 30 -110l-56 -240q-8 -34 2 -37q21 0 70 47zM405 431q19 103 60 164q-30 53 -99 53q-59 0 -93 -50q-35 -51 -56 -167h188zM209 391l-51 -282q-35 -172 -80 -244q39 -48 102 -48q60 0 89 39q47 58 79 245l49 290h-188z" />
    <glyph glyph-name="uniFB03" unicode="ffi" horiz-adv-x="791" 
d="M756 89q-26 -34 -73 -67q-50 -34 -77 -34q-40 0 -16 104q12 47 56 235q10 44 2 55q-7 10 -47 10h-124l-43 -237q-47 -244 -150 -332q-62 -56 -130 -56q-66 0 -108 46q-59 -70 -123 -70q-22 0 -40 11q-20 11 -19 27q0 21 24 41q14 16 27 6q33 -22 57 -22q27 0 43 21
q32 41 66 242l53 323h-83l-3 9l28 30h65q27 112 93 180q75 77 170 77q70 0 102 -43q69 67 150 67q51 0 80 -26q22 -21 22 -42q0 -29 -33 -43q-35 -14 -41 13q-16 63 -62 63q-99 0 -139 -246h115q76 0 126 16q26 0 7 -73l-64 -264q-11 -47 1 -49q24 0 76 50zM405 431
q22 106 63 166q-32 52 -96 52q-113 0 -154 -218h187zM211 392l-50 -282q-32 -168 -78 -247q35 -45 100 -45q58 0 88 38q45 52 76 232l30 174l22 130h-188z" />
    <glyph glyph-name="uniE10F" unicode="ffj" horiz-adv-x="764" 
d="M138 431q27 114 92 179q73 78 172 78q69 0 101 -43q69 67 149 67q52 0 81 -26q22 -20 22 -41q0 -32 -35 -46q-31 -13 -39 15q-17 61 -62 61q-99 0 -140 -244h117q54 0 127 14q17 -11 5 -70q-8 -38 -27 -137l-30 -148q-37 -184 -118 -260q-64 -63 -108 -63q-16 0 -29 8
q-14 10 -14 23q0 23 25 44q12 10 22 5q23 -15 48 -15q42 0 69 109q18 81 78 390q8 41 2 51q-8 10 -47 10h-127q-30 -173 -43 -238q-43 -239 -141 -327q-66 -60 -135 -60q-66 0 -113 47q-64 -71 -122 -71q-21 0 -38 10q-18 10 -18 24q0 20 22 40q16 16 29 9q33 -20 56 -20
q26 0 42 22q32 41 65 240l54 324h-82l-2 9l28 30h64zM402 431q21 106 63 166q-32 52 -97 52q-113 0 -154 -218h188zM206 392q-10 -53 -25 -146l-24 -136q-34 -176 -81 -247q37 -46 104 -46q60 0 91 39q40 45 73 234l50 302h-188z" />
    <glyph glyph-name="uniE110" unicode="ffk" horiz-adv-x="1006" 
d="M785 327q120 122 175 122q42 0 42 -31q0 -22 -20 -40q-8 -8 -16 -6q-14 8 -38 8q-54 0 -129 -83q29 -95 81 -195q25 -49 40 -49q19 0 57 47l17 -21q-58 -91 -110 -91q-34 0 -65 66q-42 86 -76 186q-45 -47 -57 -67q-28 -137 -33 -166q-41 -8 -71 -19l-7 6l138 631
q-35 47 -89 47q-101 0 -142 -241h110l-20 -32l-97 -8q-37 -214 -42 -239q-46 -236 -141 -321q-67 -63 -142 -63q-65 0 -109 45q-62 -69 -121 -69q-21 0 -38 10q-19 10 -19 25q0 19 23 40q17 15 28 8q31 -21 56 -21q26 0 44 21q34 46 66 240l54 324h-84l-3 11l29 29h65
q26 112 89 179q77 79 173 79q68 0 101 -45q70 68 149 68q48 0 79 -26q49 26 62 26q11 0 5 -27l-100 -450q32 38 86 92zM405 431q21 105 60 165q-33 51 -98 51q-58 0 -92 -49q-36 -51 -57 -167h187zM210 391q-34 -198 -50 -280q-33 -172 -80 -247q38 -47 102 -47q60 0 90 40
q43 45 76 238t49 296h-187z" />
    <glyph glyph-name="uniFB04" unicode="ffl" horiz-adv-x="793" 
d="M574 400l-97 -9l-43 -237q-47 -246 -150 -332q-61 -55 -129 -55t-111 46q-62 -70 -123 -70q-22 0 -40 11q-20 11 -20 27q2 22 25 41q14 15 27 5q33 -22 56 -22q30 0 45 22q34 39 67 242l30 181q15 89 23 142h-82l-4 11l29 28h65q25 112 90 179q74 78 172 78q64 0 104 -44
q70 68 155 68q49 0 75 -24q46 24 57 24q13 0 4 -39q-64 -282 -120 -569q-9 -44 5 -44q24 0 76 54l14 -22q-34 -42 -81 -74q-45 -30 -69 -30q-42 0 -17 119l108 521q-25 43 -85 43q-108 0 -146 -240h110zM407 431q21 107 61 166q-30 51 -99 51q-56 0 -90 -47
q-39 -51 -61 -170h189zM212 392q-55 -301 -51 -282q-32 -174 -78 -246q35 -46 102 -46q61 0 90 39q42 46 74 231q52 307 51 304h-188z" />
    <glyph glyph-name="uniE111" unicode="fft" horiz-adv-x="826" 
d="M832 395l-101 -4l-58 -273q-13 -60 6 -60q34 0 90 58l13 -23q-86 -106 -159 -106q-52 0 -22 133l59 271h-186q-32 -180 -46 -248q-41 -222 -137 -311q-65 -64 -144 -64q-67 0 -107 44q-66 -68 -122 -68q-21 0 -38 11q-19 12 -19 28q2 22 22 40q16 16 29 7q31 -23 57 -23
t44 21q34 44 66 237l30 182q14 91 23 144h-83l-4 10l29 30h66q23 109 87 174q78 83 175 83q66 0 98 -47q66 71 143 71q26 0 45 -15q18 -13 17 -28q0 -25 -27 -44q-13 -10 -22 0q-35 37 -72 37q-65 2 -103 -231h188l19 78l75 63l9 -7l-31 -134h117zM404 431q19 103 57 162
q-32 55 -97 55q-111 0 -147 -217h187zM208 391l-49 -282q-32 -171 -80 -245q34 -47 98 -47q60 0 91 38q43 45 78 238q22 122 50 298h-188z" />
    <glyph glyph-name="uniE112" unicode="fh" horiz-adv-x="789" 
d="M757 84q-85 -96 -144 -96q-39 0 -16 96l53 233q16 70 -8 70q-31 0 -101 -66q-69 -65 -107 -128q-20 -80 -40 -186q-32 -6 -71 -18l-7 7q60 269 131 626q-32 48 -89 48q-51 0 -83 -52q-35 -56 -58 -187h111l-20 -31l-98 -10q-34 -196 -52 -280q-45 -219 -127 -306
q-58 -61 -112 -61q-21 0 -40 12q-20 13 -19 30q0 22 27 44q10 9 19 0q29 -27 60 -27q25 0 42 20q36 37 72 252l29 174q14 89 24 144h-82l-4 10l29 29h65q25 132 99 207q71 74 150 74q47 0 77 -25q50 25 62 25q10 -1 6 -28l-91 -422h2q91 116 189 166q36 21 64 21
q54 0 29 -110l-55 -240q-8 -34 2 -37q19 0 69 46z" />
    <glyph glyph-name="f_i.liga" unicode="fi" horiz-adv-x="531" 
d="M495 91q-25 -32 -72 -66q-51 -37 -79 -37q-41 0 -17 98l56 243q10 43 3 54q-7 10 -44 10h-131q-30 -173 -52 -271q-49 -232 -125 -313q-61 -65 -116 -65q-22 0 -39 11q-19 12 -19 29q0 19 29 44q10 7 21 0q24 -22 56 -22q26 0 43 19q34 32 72 252l29 170l24 146h-78
l-4 10l28 28h61q32 146 108 216q71 65 146 65q50 0 77 -25q20 -19 20 -40q-2 -38 -36 -46q-30 -10 -35 12q-13 60 -61 60q-98 0 -141 -242h111q69 0 133 15q18 -11 3 -72l-63 -268q-11 -43 2 -45q21 0 76 51z" />
    <glyph glyph-name="uniE114" unicode="fj" horiz-adv-x="501" 
d="M137 431q33 147 108 217q70 64 146 64q50 0 77 -25q20 -19 20 -41q0 -37 -34 -45q-32 -12 -37 11q-13 63 -61 63q-97 0 -142 -244h112q75 0 131 15q17 -15 4 -79l-56 -277q-37 -183 -117 -259q-65 -64 -107 -64q-16 0 -29 9q-15 10 -15 23q0 22 25 45q11 9 22 4
q26 -15 49 -15q41 0 67 107q20 83 79 389q8 43 3 52q-7 11 -43 11h-132q-29 -158 -52 -268q-51 -235 -125 -315q-61 -66 -118 -66q-21 0 -38 11q-18 12 -18 29q0 20 29 44q9 8 19 0q26 -22 55 -22q27 0 44 19q32 32 71 253l55 315h-78l-4 11l29 28h61z" />
    <glyph glyph-name="uniE115" unicode="fk" horiz-adv-x="747" 
d="M522 329q120 120 176 120q41 0 41 -31q0 -19 -19 -40q-10 -8 -16 -5q-16 7 -38 7q-58 0 -131 -83q29 -95 82 -196q25 -48 40 -48q18 0 57 47l17 -21q-58 -91 -110 -91q-34 0 -65 66q-46 98 -78 186q-43 -45 -54 -65q-12 -54 -34 -168q-39 -8 -71 -19l-7 6q94 415 138 630
q-34 49 -88 49q-101 0 -144 -242h110l-21 -32l-97 -10q-38 -212 -52 -279q-44 -218 -126 -305q-58 -62 -112 -62q-22 0 -40 12q-20 13 -20 30q0 22 27 44q10 8 19 0q29 -25 60 -25q25 0 41 19q36 42 72 251l54 316h-82l-4 11l30 30h65q27 136 99 208q73 73 149 73
q49 0 79 -25q50 25 62 25q11 0 5 -28l-99 -447q21 26 85 92z" />
    <glyph glyph-name="f_l.liga" unicode="fl" horiz-adv-x="525" 
d="M310 400l-99 -10q-34 -195 -52 -285q-43 -215 -123 -298q-60 -63 -115 -63q-21 0 -38 12q-19 13 -18 29q0 24 27 44q10 7 20 0q25 -23 57 -23q26 0 44 20q33 33 70 255l51 311h-80l-3 10l29 29h62q24 133 97 206q75 75 158 75q49 0 74 -25q43 25 56 25q12 0 5 -29
q-71 -327 -122 -583q-7 -36 5 -39q27 0 77 56l14 -22q-32 -44 -81 -77q-45 -30 -70 -30q-40 0 -14 127l107 513q-26 43 -81 43q-109 0 -148 -240h111z" />
    <glyph glyph-name="uniE117" unicode="ft" horiz-adv-x="567" 
d="M572 395l-101 -4l-58 -273q-12 -59 6 -59q34 0 88 56l15 -22q-90 -106 -160 -106q-49 0 -21 133l59 271h-189q-44 -242 -49 -266q-48 -238 -124 -318q-59 -63 -114 -63q-22 0 -39 11q-19 12 -19 29q0 21 29 46q10 8 19 0q28 -24 58 -24q25 0 42 19q31 31 68 253
q8 45 28 169l24 144h-78l-4 10l29 30h61q26 134 95 206q73 75 142 75q27 0 46 -16q18 -14 17 -29q-2 -25 -27 -44q-14 -10 -23 0q-34 37 -70 37q-65 0 -104 -229h191l19 80l75 62l9 -6l-31 -136h117z" />
    <glyph glyph-name="uniE123" unicode="&#x17f;b" horiz-adv-x="713" 
d="M411 305q124 144 213 144q33 0 52 -30t19 -79q0 -84 -42 -168q-43 -85 -108 -129q-82 -55 -151 -55q-55 0 -81 43q-22 36 -5 127q14 70 46 213l54 253q-29 49 -78 49q-97 0 -145 -314q-29 -182 -47 -274q-40 -199 -120 -281q-60 -61 -114 -61q-22 0 -42 14t-20 30
q0 20 27 43q12 10 21 1q29 -27 62 -27q25 0 43 20q33 30 67 253q39 244 43 266q35 202 111 290q64 79 143 79q46 0 72 -24q41 24 59 24q13 0 6 -29l-87 -378h2zM400 243q-10 -29 -19 -81q-22 -128 63 -128q24 0 51 16q46 28 81 103q36 80 36 168q0 71 -35 71
q-66 0 -177 -149z" />
    <glyph glyph-name="uniE124" unicode="&#x17f;h" horiz-adv-x="751" 
d="M719 84q-85 -96 -145 -96q-38 0 -15 96l53 235q16 68 -8 68q-31 0 -100 -66q-68 -65 -106 -129q-19 -76 -40 -185q-32 -6 -71 -18l-7 7q69 301 132 627q-26 50 -78 50q-102 0 -150 -314q-23 -156 -47 -273q-39 -201 -119 -281q-59 -62 -115 -62q-22 0 -41 14
q-20 14 -20 30q0 21 26 42q11 10 21 2q27 -27 62 -27q24 0 44 20q33 30 67 254q34 225 41 265q35 201 113 290q64 79 147 79q44 0 72 -24q37 24 58 24q11 0 6 -27l-90 -423h2q89 115 186 167q37 20 63 20q55 0 30 -110l-55 -241q-8 -35 2 -36q20 0 70 46z" />
    <glyph glyph-name="uniE125" unicode="&#x17f;i" horiz-adv-x="494" 
d="M433 687q19 -18 19 -40q0 -31 -35 -44q-29 -11 -35 12q-10 58 -57 58q-92 -2 -139 -301q-28 -180 -52 -296q-40 -192 -119 -271q-59 -62 -115 -62q-22 0 -41 14q-20 14 -20 30q0 20 27 42q11 10 20 2q29 -27 62 -27q26 0 44 20q33 31 68 248q33 205 44 267
q37 209 115 297q64 76 140 76q49 0 74 -25zM460 88q-26 -33 -72 -65q-49 -35 -74 -35q-37 0 -13 98l63 256q8 30 0 31q-16 0 -69 -42l-12 23q97 95 150 95q31 0 11 -79l-69 -276q-8 -32 1 -32q18 0 72 47z" />
    <glyph glyph-name="uniE126" unicode="&#x17f;k" horiz-adv-x="711" 
d="M488 328q119 121 174 121q42 0 42 -31q0 -20 -19 -39q-9 -9 -17 -6q-16 8 -36 8q-58 0 -131 -83q27 -92 81 -196q25 -49 39 -49q17 0 57 46l18 -20q-58 -91 -109 -91q-35 0 -66 66q-41 83 -77 186q-40 -40 -56 -67l-33 -166q-37 -7 -72 -19l-6 6l139 632q-25 47 -79 47
q-49 0 -82 -61q-40 -75 -69 -255q-41 -237 -49 -275q-39 -196 -118 -277q-59 -62 -115 -62q-22 0 -42 14t-20 30q0 20 26 42q12 10 21 1q28 -26 61 -26q24 0 45 19q32 32 67 255q27 179 43 263q39 207 115 291q65 80 141 80q48 0 76 -24q39 24 58 24q12 0 7 -26l-100 -448
q31 36 86 90z" />
    <glyph glyph-name="uniE127" unicode="&#x17f;l" horiz-adv-x="492" 
d="M473 95q-88 -107 -153 -107q-41 0 -15 121l108 513q-28 51 -78 51q-102 0 -149 -306q-21 -147 -47 -280q-39 -200 -120 -281q-62 -63 -114 -63q-22 0 -42 14t-20 30q0 20 27 42q12 9 21 1q27 -27 61 -27q26 0 44 20q33 33 67 251q24 163 41 259q35 214 114 301
q66 78 142 78q45 0 74 -25q40 25 59 25q11 0 6 -27l-124 -585q-8 -38 4 -38q26 0 79 55z" />
    <glyph glyph-name="uniE128" unicode="&#x17f;&#x17f;" horiz-adv-x="482" 
d="M645 697q17 -14 16 -28q-2 -25 -26 -42q-14 -11 -25 2q-28 31 -60 31q-33 0 -56 -53q-27 -64 -52 -229q-30 -194 -43 -260q-39 -207 -133 -292q-62 -58 -135 -58q-62 0 -105 46q-65 -70 -125 -70q-21 0 -38 11q-19 11 -19 27q0 19 22 39q16 14 26 8q33 -24 58 -24t44 19
q36 33 68 249l36 236q36 218 127 309q70 70 148 70q72 0 99 -44q70 68 132 68q23 0 41 -15zM247 -147q42 44 75 248l40 248q26 168 74 246q-34 53 -94 53q-56 0 -92 -62q-44 -76 -73 -264q-30 -195 -41 -249q-28 -144 -71 -208q35 -48 98 -48q58 0 84 36z" />
    <glyph glyph-name="uniFB05" unicode="&#x17f;t" horiz-adv-x="530" 
d="M423 692q18 -17 18 -35q-2 -28 -33 -43q-18 -9 -25 6q-19 46 -64 46q-86 -2 -134 -305q-35 -215 -50 -285q-40 -193 -119 -271q-59 -62 -114 -62q-22 0 -42 14q-20 13 -20 29q0 19 26 41q12 10 21 1q29 -25 63 -25q24 0 42 20q34 32 69 249q28 183 41 252q39 221 118 309
q68 79 143 79q38 0 60 -20zM540 398l-101 -5l-58 -274q-13 -60 6 -60q34 0 88 58l15 -23q-90 -106 -161 -106q-48 0 -20 132l58 272h-74l-3 9l25 30h61l16 64l75 62l10 -7l-29 -119h118z" />
    <glyph glyph-name="uniE129" unicode="&#x17f;&#x17f;i" horiz-adv-x="751" 
d="M684 687q20 -19 20 -41q0 -31 -35 -44q-28 -10 -35 12q-13 58 -57 58q-88 -2 -135 -302q-26 -166 -42 -247q-40 -209 -139 -299q-60 -56 -130 -56q-62 0 -105 46q-61 -70 -123 -70q-20 0 -39 12q-20 12 -20 27q0 21 22 39q15 13 25 8q33 -26 60 -26q23 0 42 19
q33 31 69 248l39 237q38 219 128 309q70 70 148 70q64 0 97 -44q67 69 136 69q48 0 74 -25zM244 -147q45 50 79 251l36 228q27 174 80 261q-36 56 -91 56q-56 0 -94 -66q-45 -81 -76 -276q-20 -126 -42 -233q-26 -139 -73 -210q35 -48 99 -48q55 0 82 37zM716 88
q-27 -33 -72 -65q-48 -35 -73 -35q-39 0 -14 98l63 255q8 31 -1 32q-16 0 -68 -43l-12 24q97 95 150 95q32 0 12 -78l-70 -276q-8 -33 1 -33q17 0 71 47z" />
    <glyph glyph-name="uniE12A" unicode="&#x17f;&#x17f;l" horiz-adv-x="755" 
d="M731 95q-86 -107 -153 -107q-41 0 -15 121l108 512q-28 54 -80 52q-51 0 -84 -61q-39 -73 -67 -257q-24 -156 -41 -243q-37 -202 -133 -287q-61 -57 -133 -57q-63 0 -106 46q-61 -70 -124 -70q-22 0 -40 12t-19 28q0 19 22 39q18 14 26 8q32 -26 60 -26q24 0 43 19
q34 32 67 250q33 216 36 232q36 223 127 313q67 69 150 69q67 0 102 -45q62 69 140 69q46 0 74 -26q34 26 59 26q13 0 7 -26l-123 -586q-9 -39 2 -39q28 0 82 56zM252 584q-47 -80 -77 -280q-27 -168 -39 -227q-32 -156 -70 -213q36 -47 99 -47q54 0 83 38q44 51 73 235
l37 232q28 182 81 272q-35 54 -94 54q-57 0 -93 -64z" />
    <glyph glyph-name="uniE0BE" unicode="&#x162;h" horiz-adv-x="1033" 
d="M997 83q-85 -95 -144 -95q-37 0 -16 96l54 234q16 69 -8 69q-31 0 -102 -66q-70 -66 -107 -129q-17 -67 -39 -185q-47 -10 -71 -19l-8 8q60 261 129 610q-103 9 -175 9h-67l-101 -485q-14 -67 -1 -83q13 -15 83 -20l-6 -27h-277l6 27q65 5 81 20q17 16 31 83l106 485h-71
q-101 0 -128 -31q-26 -31 -50 -89l-30 1q27 89 47 178h20q11 -25 46 -25h387q101 0 112 18l4 21q50 26 69 26q12 0 4 -34l-89 -417h2q89 115 188 165q39 21 63 21q55 0 30 -110l-55 -241q-9 -36 2 -36q22 0 70 45zM320 -47q17 -19 17 -47q1 -88 -117 -114l-9 27q68 24 68 58
q0 23 -35 35q-12 2 -12 19q0 39 47 39q24 0 41 -17z" />
    <glyph glyph-name="uniE0BC" unicode="&#x164;h" horiz-adv-x="1033" 
d="M998 83q-85 -95 -144 -95q-39 0 -16 96l53 235q16 68 -8 68q-31 0 -102 -66q-70 -66 -107 -129q-23 -88 -39 -185q-32 -6 -71 -18l-8 7q65 281 128 610q-101 9 -174 9h-67l-101 -485q-14 -67 -1 -83q13 -15 83 -20l-6 -27h-277l6 27q64 5 81 20q16 15 31 83l106 485h-72
q-101 0 -128 -31q-23 -27 -50 -89l-30 1q32 103 47 178h21q10 -25 46 -25h387q101 0 112 18l4 21q50 26 69 26q12 0 4 -34l-89 -417h2q89 115 188 165q39 21 63 21q55 0 30 -110l-55 -241q-9 -36 2 -36q21 0 71 45zM563 792q-83 -55 -135 -105h-25q-37 46 -104 105l19 22
q48 -21 107 -59q67 38 125 59z" />
    <glyph glyph-name=".notdef" horiz-adv-x="500" 
d="M0 700h500v-700h-500v700zM420 650h-340l170 -255zM450 95v510l-170 -255zM420 50l-170 255l-170 -255h340zM50 95l170 255l-170 255v-510z" />
    <glyph glyph-name="space" unicode=" " horiz-adv-x="229" 
 />
    <glyph glyph-name="exclam" unicode="!" horiz-adv-x="259" 
d="M248 555l-50 -179l-50 -180q-4 -5 -17 -5q-12 0 -14 5l19 180q12 111 18 179q6 65 9 80q5 29 58 29h1q53 0 47 -30q-5 -23 -21 -79zM141 5q-17 -17 -41 -17h-1q-51 0 -51 55q0 29 17 47q17 19 44 19q51 0 51 -58q0 -29 -19 -46z" />
    <glyph glyph-name="quotedbl" unicode="&#x22;" horiz-adv-x="345" 
d="M242 703q-35 -119 -84 -213l-30 -13q29 158 31 211l75 22zM397 703q-34 -115 -84 -213l-30 -13q31 172 31 211l74 22z" />
    <glyph glyph-name="numbersign" unicode="#" horiz-adv-x="477" 
d="M472 396h-91l-41 -138h82l-11 -59h-88l-53 -178h-39l51 178h-110l-52 -178h-40l51 178h-95l13 59h100l41 138h-92l12 59h97l46 157h41l-47 -157h110l46 157h40l-46 -157h87zM231 396l-41 -138h109l41 138h-109z" />
    <glyph glyph-name="dollar" unicode="$" horiz-adv-x="477" 
d="M429 450q-4 118 -90 137l-44 -229l22 -15q113 -72 113 -161q0 -79 -62 -129q-57 -46 -142 -49l-16 -85h-35l16 85q-106 7 -150 59q0 69 -2 137l28 3q21 -154 131 -167l48 253l-22 14q-110 67 -110 152q0 75 59 122q55 42 137 43l15 77h36l-15 -78q49 -1 118 -38
q-2 -26 -6 -128zM304 589q-58 -1 -89 -35q-28 -29 -28 -72q0 -60 76 -107zM233 35q56 4 87 39q30 33 30 81q0 65 -73 117z" />
    <glyph glyph-name="percent" unicode="%" horiz-adv-x="751" 
d="M167 -27l-28 24l493 657l28 -23zM331 348q-53 -75 -129 -75q-54 0 -83 42q-27 37 -27 95q0 82 48 150q53 75 129 75q55 0 84 -42q26 -37 26 -96q0 -81 -48 -149zM264 605q-49 0 -80 -83q-24 -66 -24 -130q0 -89 47 -89q51 0 82 90q23 69 23 134q0 78 -48 78zM659 63
q-53 -75 -129 -75q-54 0 -83 41q-27 37 -27 95q0 82 48 151q53 75 129 75q55 0 84 -42q26 -37 26 -96q0 -81 -48 -149zM592 320q-49 0 -80 -83q-24 -66 -24 -131q0 -89 47 -89q51 0 82 90q23 69 23 134q0 79 -48 79z" />
    <glyph glyph-name="ampersand" unicode="&#x26;" horiz-adv-x="762" 
d="M754 405q3 -25 3 -59q0 -117 -55 -117q-18 0 -48 22l-31 23q-22 16 -33 23q-33 -125 -95 -199q-94 -110 -221 -110q-90 0 -148 59q-61 62 -61 167q0 115 82 198q66 68 118 68q26 0 43 -20q15 -20 15 -50q0 -11 -3 -26h2q127 118 127 208q0 12 -6 36q-2 14 9 27
q13 14 30 14q40 0 40 -55q0 -84 -117 -198q-123 -120 -266 -205q12 -73 61 -114q47 -40 114 -40q87 0 154 72q64 70 92 189q-54 34 -80 34q-44 0 -44 -45q0 -28 10 -46q7 -12 7 -17q-3 -20 -36 -20q-18 0 -30 16q-12 15 -12 36q0 44 60 90q49 36 84 36q52 0 157 -84
q18 -15 28 -15q18 0 19 102h31zM166 383q-31 -50 -31 -120q0 -11 1 -17q86 50 125 91q5 18 5 35q2 57 -39 57q-32 0 -61 -46z" />
    <glyph glyph-name="quoteright" unicode="&#x2019;" horiz-adv-x="214" 
d="M104 508q85 32 88 88q3 43 -49 57q-12 2 -11 17q1 18 15 30q13 10 29 10q29 0 52 -25q26 -28 25 -70q-4 -97 -139 -135z" />
    <glyph glyph-name="parenleft" unicode="(" horiz-adv-x="338" 
d="M389 688q-110 -72 -177 -218q-67 -145 -67 -311q0 -202 86 -308l-23 -20q-131 105 -131 340q0 182 82 329q80 144 214 212z" />
    <glyph glyph-name="parenright" unicode=")" horiz-adv-x="333" 
d="M163 712q71 -56 105 -164q33 -104 22 -223q-8 -160 -84 -292q-79 -136 -208 -202l-16 23q106 71 170 207q61 128 69 278q25 234 -81 353z" />
    <glyph glyph-name="asterisk" unicode="*" horiz-adv-x="391" 
d="M431 483l-134 -15l31 -139l-24 -10l-61 135l-126 -69l-15 24l110 85l-99 109l18 21l114 -90l66 130l26 -8l-38 -137l133 -9z" />
    <glyph glyph-name="plus" unicode="+" horiz-adv-x="596" 
d="M340 230v-230h-57v230h-210v50h210v207h57v-207h210v-50h-210z" />
    <glyph glyph-name="comma" unicode="," horiz-adv-x="235" 
d="M-3 -84q85 36 86 89q1 45 -46 62q-8 2 -8 13q1 20 16 35q14 13 33 13q31 0 52 -30q22 -30 19 -69q-5 -98 -142 -142z" />
    <glyph glyph-name="hyphen" unicode="-" horiz-adv-x="334" 
d="M280 198h-230l18 55h230z" />
    <glyph glyph-name="period" unicode="." horiz-adv-x="235" 
d="M39 40q0 27 16 45q17 17 42 17q21 0 35 -15q13 -15 13 -38q0 -29 -18 -45q-16 -16 -40 -16q-48 0 -48 52z" />
    <glyph glyph-name="slash" unicode="/" horiz-adv-x="322" 
d="M35 -45h-53l322 709h53z" />
    <glyph glyph-name="zero" unicode="0" horiz-adv-x="477" 
d="M441 564q33 -60 30 -155q-3 -146 -66 -270q-77 -151 -201 -151q-81 0 -121 71q-35 61 -33 162q2 141 69 266q79 148 201 148q81 0 121 -71zM179 452q-43 -123 -45 -257q-4 -174 77 -174q80 0 133 161q41 127 44 257q6 163 -75 163q-82 0 -134 -150z" />
    <glyph glyph-name="one" unicode="1" horiz-adv-x="477" 
d="M274 121q-12 -62 1 -76q12 -14 85 -19l-6 -26h-276l6 26q69 6 84 19q16 13 28 76l73 371q9 45 0 56q-9 10 -54 10h-33l5 25q104 16 187 52z" />
    <glyph glyph-name="two" unicode="2" horiz-adv-x="477" 
d="M176 581q59 54 131 54t114 -42q41 -42 41 -114q0 -70 -52 -136q-36 -46 -137 -132l-159 -139h179q43 0 62 10q21 11 50 53l24 -12q-12 -24 -29 -62l-27 -61h-370l1 21q134 113 200 177q173 168 173 266q0 107 -105 107q-67 0 -139 -91l-21 21z" />
    <glyph glyph-name="three" unicode="3" horiz-adv-x="477" 
d="M178 582q53 53 127 53q61 0 98 -37q33 -34 33 -84q0 -54 -47 -92q-28 -22 -75 -52v-2q117 -31 117 -143q0 -99 -110 -176q-87 -61 -177 -61q-61 0 -96 35q-22 21 -19 41q3 19 27 34q11 8 20 -1q55 -59 121 -59q64 0 103 39q43 43 43 124q0 58 -34 90q-32 29 -80 29
q-21 0 -60 -9l-6 26q191 54 191 157q0 84 -84 84q-58 0 -120 -77l-20 21z" />
    <glyph glyph-name="four" unicode="4" horiz-adv-x="477" 
d="M452 179h-95l-12 -66q-10 -55 1 -69q10 -13 68 -18l-6 -26h-253l6 26q65 5 81 18q15 12 26 69l13 66h-259l6 27q221 271 373 423h43l-78 -407h95zM351 533q-129 -141 -260 -311h197l66 311h-3z" />
    <glyph glyph-name="five" unicode="5" horiz-adv-x="477" 
d="M440 551h-230l-56 -183q80 24 104 24q80 0 128 -50q43 -45 43 -110q0 -118 -126 -195q-75 -49 -152 -49q-71 0 -109 40q-19 20 -15 37q2 21 27 35q11 7 21 -3q54 -59 127 -59q64 0 101 41q40 43 40 122q0 138 -139 138q-39 0 -91 -16l-7 8l81 292h283z" />
    <glyph glyph-name="six" unicode="6" horiz-adv-x="477" 
d="M503 610q-61 -12 -111 -33q-168 -69 -230 -225l1 -2l65 31q34 18 61 18q72 0 115 -48t43 -124q0 -100 -68 -170q-66 -69 -155 -69q-81 0 -130 59q-47 57 -47 149q0 148 91 262q88 107 232 153q57 18 127 29zM150 313q-18 -48 -18 -118q0 -73 25 -120q29 -54 82 -54
q54 0 89 55q34 54 34 135q0 135 -116 135q-42 0 -96 -33z" />
    <glyph glyph-name="seven" unicode="7" horiz-adv-x="477" 
d="M525 611l-191 -306l-192 -307l-79 -10l-7 12q232 288 390 551h-210q-46 0 -64 -13t-45 -64l-27 8q18 45 43 141h374z" />
    <glyph glyph-name="eight" unicode="8" horiz-adv-x="477" 
d="M415 599q45 -39 45 -101q0 -58 -44 -95q-36 -29 -92 -65q111 -83 111 -162q0 -77 -64 -132q-65 -56 -155 -56q-72 0 -122 40q-53 43 -53 115q0 60 54 106q20 17 111 76q-82 64 -82 141q0 69 56 119t134 50q59 0 101 -36zM226 569q-27 -31 -27 -76q0 -68 99 -137
q87 57 87 143q0 46 -24 75q-24 28 -63 28q-43 0 -72 -33zM317 57q34 36 34 95q0 70 -118 153q-110 -66 -110 -162q0 -53 29 -87q29 -35 79 -35q52 0 86 36z" />
    <glyph glyph-name="nine" unicode="9" horiz-adv-x="477" 
d="M438 569q40 -57 40 -141q0 -147 -90 -262q-82 -105 -211 -152q-81 -29 -131 -29l-4 29q104 19 190 88q94 75 136 187l-73 -35q-29 -14 -57 -14q-62 0 -104 46q-44 48 -44 121q0 92 65 160t152 68q85 0 131 -66zM208 551q-34 -50 -34 -121q0 -61 28 -96q30 -38 85 -38
q53 0 89 29q18 50 18 118q0 159 -100 159q-51 0 -86 -51z" />
    <glyph glyph-name="colon" unicode=":" horiz-adv-x="235" 
d="M98 313q-14 15 -14 37q0 27 16 45q16 17 41 17q21 0 35 -15t14 -38q0 -27 -18 -45q-16 -16 -40 -16q-21 0 -34 15zM39 40q0 27 16 45q17 17 42 17q21 0 35 -15q13 -15 13 -38q0 -28 -18 -45q-16 -16 -40 -16q-48 0 -48 52z" />
    <glyph glyph-name="semicolon" unicode=";" horiz-adv-x="235" 
d="M95 313q-13 15 -13 37q0 27 16 45q16 17 41 17q21 0 35 -15t14 -38q0 -27 -18 -45q-17 -16 -41 -16q-20 0 -34 15zM-4 -85q86 35 86 89q0 48 -45 62q-10 2 -8 14q1 20 16 34q14 13 33 13q31 0 52 -29q19 -28 19 -63q0 -103 -141 -149z" />
    <glyph glyph-name="less" unicode="&#x3c;" horiz-adv-x="597" 
d="M65 230v47l452 230v-55l-393 -198v-2l393 -197v-55z" />
    <glyph glyph-name="equal" unicode="=" horiz-adv-x="596" 
d="M66 321v50h486v-50h-486zM66 138v50h486v-50h-486z" />
    <glyph glyph-name="greater" unicode="&#x3e;" horiz-adv-x="597" 
d="M101 0v55l393 197v2l-393 198v55l451 -230v-47z" />
    <glyph glyph-name="question" unicode="?" horiz-adv-x="354" 
d="M181 191q-86 46 -86 115q0 62 105 128q123 74 123 117q0 51 -56 51q-39 1 -77 -25q-39 -26 -38 -26q-11 0 -22 12q-12 13 -12 29q2 20 28 38q46 34 91 34h1q53 0 92 -44q40 -44 40 -102q0 -66 -66 -109q-89 -58 -105 -72q-33 -27 -33 -55q0 -37 35 -70zM81 43q0 29 17 47
q17 19 44 19q22 0 37 -16q14 -16 14 -41q0 -29 -19 -47q-17 -17 -42 -17q-51 0 -51 55z" />
    <glyph glyph-name="at" unicode="@" horiz-adv-x="738" 
d="M552 -48q-95 -52 -200 -52q-124 0 -208 78q-90 83 -90 221q0 171 121 279q111 100 263 100q129 0 205 -76q71 -71 71 -181q0 -103 -71 -176q-71 -74 -173 -74q-34 0 -42 21q-7 16 1 52l13 54l-2 1q-27 -40 -80 -82q-57 -46 -87 -46q-19 0 -33 22q-15 24 -15 62
q0 114 84 192q70 68 159 71q3 0 52 -8q13 -4 31 -4q-36 -144 -54 -234q-12 -60 16 -59q56 1 101 52q53 59 53 157q0 101 -69 161q-65 57 -168 57q-138 0 -225 -93q-86 -93 -86 -238q0 -107 59 -178q70 -86 207 -86q88 0 156 35zM360 348q-61 -68 -61 -174q0 -41 20 -41
q50 0 134 127q12 35 28 108q-19 12 -54 12q-37 0 -67 -32z" />
    <glyph glyph-name="A" unicode="A" horiz-adv-x="664" 
d="M614 0h-236l7 27q50 5 62 17q10 10 5 44q-2 18 -25 148h-209q-40 -75 -69 -136q-22 -45 -12 -57q9 -11 66 -16l-6 -27h-215l7 27q48 6 65 20q19 15 54 76l300 533l31 8l28 -178q26 -167 64 -372q9 -54 23 -68t67 -19zM381 536h-2l-139 -258h181z" />
    <glyph glyph-name="B" unicode="B" horiz-adv-x="579" 
d="M365 649q188 0 188 -138q0 -124 -162 -157v-2q146 -30 146 -156q0 -107 -115 -162q-72 -34 -201 -34h-214l7 27q58 5 73 19q16 14 27 74l82 418q11 54 0 66q-10 13 -71 18l6 27h234zM293 367q81 0 126 39q44 38 44 104q0 107 -118 107q-32 0 -46 -9t-20 -44l-37 -197h51z
M196 122q-10 -53 9 -72q17 -16 69 -16q73 0 120 46t47 121q0 133 -157 133h-49z" />
    <glyph glyph-name="C" unicode="C" horiz-adv-x="635" 
d="M608 160q-37 -89 -79 -151q-106 -24 -172 -24q-129 0 -208 74q-83 78 -83 214q0 174 121 284q117 107 293 107q91 0 172 -32l-4 -78q-2 -47 -4 -75l-30 -3q-4 86 -43 122q-36 32 -114 32q-128 0 -213 -108q-81 -103 -81 -246q0 -112 52 -182q55 -75 152 -75
q115 0 215 155z" />
    <glyph glyph-name="D" unicode="D" horiz-adv-x="708" 
d="M379 649q318 0 318 -271q0 -198 -165 -303q-117 -75 -307 -75h-216l7 27q57 6 72 20t26 73l79 408q10 59 0 73q-10 13 -70 21l6 27h250zM199 129q-12 -67 11 -79q24 -14 72 -14q148 0 236 103q83 97 83 244q0 113 -62 174q-61 59 -172 59q-48 0 -65 -11q-14 -7 -22 -49z
" />
    <glyph glyph-name="E" unicode="E" horiz-adv-x="559" 
d="M563 649q-3 -18 -19 -153l-29 -2q0 64 -13 88q-14 33 -97 33h-78q-25 0 -32 -6q-6 -6 -11 -35l-43 -216h97q61 0 79 12q17 11 35 61h29l-38 -190h-29q2 55 -9 66q-12 12 -76 12h-95l-33 -175q-15 -80 4 -96q18 -14 101 -14q95 0 132 34q27 26 68 96l28 -10
q-56 -138 -64 -154h-468l6 27q62 5 78 19t27 74l80 410q11 60 0 73q-10 14 -72 19l8 27h434z" />
    <glyph glyph-name="F" unicode="F" horiz-adv-x="527" 
d="M563 649q-5 -49 -18 -153l-29 -2q-2 63 -11 86q-11 35 -97 35h-81q-25 0 -32 -7q-6 -6 -11 -32l-44 -229h105q63 0 81 12q15 10 36 60h28l-38 -192h-28q0 56 -12 68q-13 13 -76 13h-104l-34 -183q-12 -63 1 -78t82 -20l-7 -27h-263l6 27q57 5 72 20t27 78l76 398
q13 65 3 80q-9 13 -70 19l7 27h431z" />
    <glyph glyph-name="G" unicode="G" horiz-adv-x="681" 
d="M625 474q1 156 -160 156q-134 0 -220 -106q-81 -101 -81 -245q0 -116 56 -186q58 -74 161 -74q101 0 114 71l20 94q11 55 -2 67q-12 12 -87 19l6 27h244l-6 -26q-42 -7 -52 -19q-11 -12 -22 -68l-16 -84q-9 -47 -5 -79q-162 -36 -212 -36q-133 0 -213 74q-83 78 -83 212
q0 172 118 282q119 111 305 111q83 0 176 -31q-7 -70 -12 -156z" />
    <glyph glyph-name="H" unicode="H" horiz-adv-x="742" 
d="M780 622q-57 -5 -72 -19q-14 -14 -26 -76l-77 -406q-11 -60 -1 -74q11 -15 71 -20l-6 -27h-254l7 27q59 5 75 20q15 14 26 74l38 202h-327l-38 -202q-11 -61 0 -75q10 -14 71 -19l-6 -27h-248l6 27q56 5 70 20q14 13 25 74l78 406q12 61 1 76q-10 14 -72 19l7 27h247
l-6 -27q-54 -5 -69 -20t-27 -75l-30 -162h326l31 162q12 61 2 75t-69 20l6 27h248z" />
    <glyph glyph-name="I" unicode="I" horiz-adv-x="335" 
d="M374 622q-59 -5 -73 -18t-25 -68l-80 -420q-11 -58 0 -71t73 -18l-6 -27h-256l7 27q58 4 74 18q14 14 25 71l82 420q10 55 -2 68q-11 13 -74 18l6 27h255z" />
    <glyph glyph-name="J" unicode="J" horiz-adv-x="321" 
d="M369 622q-55 -7 -68 -19q-14 -13 -25 -72l-74 -401q-34 -184 -141 -245q-42 -25 -77 -30l-10 30q79 23 110 107q22 55 40 158l71 381q11 59 -1 73q-10 12 -71 18l6 27h246z" />
    <glyph glyph-name="K" unicode="K" horiz-adv-x="653" 
d="M708 623q-84 -12 -154 -68q-47 -37 -219 -186q89 -149 182 -275q44 -59 110 -67l-7 -27h-144q-161 247 -187 290t-58 29l-34 -191q-13 -67 -3 -81q10 -15 69 -20l-5 -27h-246l7 27q55 5 69 20q15 15 28 81l76 397q12 63 2 77t-68 20l6 27h242l-6 -27q-57 -6 -70 -20
q-14 -14 -26 -77l-35 -177q34 11 75 45q100 82 202 183q22 21 21 30q-2 8 -28 12l-29 4l6 27h231z" />
    <glyph glyph-name="L" unicode="L" horiz-adv-x="532" 
d="M512 156q-31 -85 -64 -156h-441l6 26q58 5 73 19t26 71l82 418q11 57 1 70q-11 13 -72 18l6 27h250l-6 -27q-60 -5 -74 -18q-13 -13 -24 -70l-79 -415q-11 -56 11 -72q17 -13 90 -13q86 0 117 31q35 33 70 101z" />
    <glyph glyph-name="M" unicode="M" horiz-adv-x="876" 
d="M903 622q-65 -5 -79 -18q-13 -13 -23 -76q-22 -141 -54 -393q-10 -72 2 -88q11 -15 72 -20l-7 -27h-253l7 27q58 5 72 21q15 15 25 87l33 213l33 208h-2l-331 -552h-23q-50 279 -102 541h-2l-72 -263q-43 -159 -47 -193q-5 -33 8 -44q14 -13 68 -18l-6 -27h-226l7 27
q73 6 94 61q22 57 72 229l56 190q22 74 11 92q-11 16 -82 23l7 27h166l109 -501l312 501h162z" />
    <glyph glyph-name="N" unicode="N" horiz-adv-x="705" 
d="M760 622q-43 -2 -61 -16q-16 -12 -26 -47q-16 -50 -38 -170l-76 -397h-30l-296 530h-3l-52 -266q-23 -115 -26 -168q-1 -34 16 -46q16 -11 69 -15l-6 -27h-229l7 27q72 4 88 58q16 53 41 173l52 247q12 56 -6 87q-15 26 -84 30l6 27h143l295 -509h4l46 249q23 120 27 172
q2 34 -15 46q-16 11 -72 15l7 27h225z" />
    <glyph glyph-name="O" unicode="O" horiz-adv-x="708" 
d="M623 584q73 -79 73 -206q0 -162 -103 -276q-105 -117 -262 -117q-118 0 -191 79q-74 78 -74 205q0 160 104 276q106 119 260 119q119 0 193 -80zM233 511q-72 -111 -72 -251q0 -107 43 -171q48 -70 136 -70q117 0 193 123q68 109 68 246q0 108 -40 171q-46 71 -139 71
q-112 0 -189 -119z" />
    <glyph glyph-name="P" unicode="P" horiz-adv-x="554" 
d="M359 649q211 0 211 -169q0 -98 -79 -159q-67 -52 -160 -58q-13 -1 -38 -1l-67 21l-31 -159q-12 -62 1 -77q12 -14 81 -20l-5 -27h-266l7 27q58 6 73 20t28 77l81 406q11 59 1 72q-10 14 -71 20l7 27h227zM233 315q34 -13 73 -13q65 0 114 40q60 50 60 142q0 134 -134 134
q-24 0 -42 -8q-17 -7 -25 -48z" />
    <glyph glyph-name="Q" unicode="Q" horiz-adv-x="709" 
d="M655 -161q-63 1 -118 17q-68 18 -214 121l-14 10q-110 8 -176 84q-67 77 -67 196q0 161 104 278q106 119 260 119q119 0 193 -80q73 -80 73 -207q0 -132 -75 -238q-75 -105 -193 -139l13 -9q104 -76 222 -130zM371 40q8 -5 24 -17q92 25 151 140q55 105 55 224
q0 108 -41 171q-46 72 -138 72q-111 0 -189 -120q-72 -111 -72 -252q0 -92 36 -155q37 -65 104 -80z" />
    <glyph glyph-name="R" unicode="R" horiz-adv-x="599" 
d="M576 -8h-10q-69 4 -105 26q-32 20 -60 72q-32 59 -68 148q-19 46 -65 46h-42l-29 -157q-13 -65 -2 -80t72 -20l-6 -27h-251l6 27q58 6 73 20q14 15 27 80l77 402q12 61 2 75q-10 13 -70 18l7 27h217q97 0 141 -31q60 -39 60 -123q0 -137 -155 -191q28 -72 60 -134
q36 -70 62 -105q26 -34 68 -48zM279 316q69 0 107 25q75 50 75 146q0 131 -118 131q-32 0 -45 -10q-12 -8 -19 -44l-47 -248h47z" />
    <glyph glyph-name="S" unicode="S" horiz-adv-x="468" 
d="M65 198q9 -71 43 -118q44 -62 118 -62q54 0 88 35t34 94q0 69 -94 142l-29 22q-111 89 -111 174q0 78 56 129q57 50 147 50q50 0 95 -16l43 -16q-2 -24 -2 -69v-72l-29 -3q-15 143 -120 143q-51 0 -82 -35q-30 -33 -30 -81q0 -64 93 -134l30 -23q116 -86 116 -183
q0 -84 -65 -138q-63 -52 -153 -52q-118 0 -172 61l-3 149z" />
    <glyph glyph-name="T" unicode="T" horiz-adv-x="603" 
d="M657 674q-9 -52 -23 -176l-31 -2q2 60 -11 89q-12 30 -107 30h-61l-93 -495q-11 -60 2 -75q13 -13 81 -18l-6 -27h-272l6 27q63 4 79 19q16 14 27 74l95 495h-52q-98 0 -122 -29q-21 -25 -50 -91l-30 1q31 99 48 178h21q11 -25 48 -25h376q29 0 53 25h22z" />
    <glyph glyph-name="U" unicode="U" horiz-adv-x="707" 
d="M767 622q-47 -2 -65 -15q-15 -10 -23 -39q-16 -56 -40 -180l-16 -77q-36 -185 -118 -261q-71 -65 -170 -65q-96 0 -154 54q-76 73 -45 242l48 252q11 57 1 71q-10 13 -70 18l7 27h247l-6 -27q-58 -5 -71 -17q-15 -13 -26 -72l-46 -245q-25 -129 19 -194q37 -57 118 -57
q90 0 144 68q54 67 83 213l14 70q24 127 26 180q2 30 -15 41q-17 10 -72 13l6 27h230z" />
    <glyph glyph-name="V" unicode="V" horiz-adv-x="675" 
d="M742 623q-49 -6 -67 -19q-21 -15 -58 -75q-74 -116 -304 -540h-30q-49 304 -97 546q-11 56 -26 70q-13 13 -61 18l7 26h229l-7 -26l-27 -4q-29 -4 -35 -14q-7 -8 -3 -35q-2 15 80 -450h2q195 349 233 430q19 40 14 53q-5 11 -39 15l-30 5l7 26h219z" />
    <glyph glyph-name="W" unicode="W" horiz-adv-x="949" 
d="M1003 622q-50 -7 -66 -20t-47 -73q-49 -93 -255 -540h-31l-81 497h-3l-239 -497h-30l-61 537q-7 64 -18 77q-12 14 -63 19l6 27h226l-7 -27l-24 -3q-31 -5 -38 -15q-7 -11 -3 -51l43 -418h3l236 502h29l83 -503h2q155 338 186 419q14 38 8 49t-44 16l-26 4l6 27h214z" />
    <glyph glyph-name="X" unicode="X" horiz-adv-x="642" 
d="M674 622q-54 -6 -72 -15q-21 -11 -60 -53l-162 -193l111 -246q25 -57 43 -70q17 -13 75 -18l-6 -27h-252l6 27l31 4q27 4 33 13q5 9 -5 35l-93 214q-119 -151 -161 -214q-16 -24 -12 -33q4 -11 35 -16l24 -3l-6 -27h-227l7 27q73 7 128 65q60 65 195 235l-96 217
q-22 49 -39 62q-16 11 -67 16l6 27h232l-6 -27l-26 -4q-25 -5 -30 -11q-5 -7 2 -28q11 -29 82 -185q72 88 138 179q16 23 13 32q-4 8 -29 13l-29 4l6 27h217z" />
    <glyph glyph-name="Y" unicode="Y" horiz-adv-x="611" 
d="M678 622q-48 -5 -67 -16q-21 -13 -58 -59q-67 -84 -165 -226q-17 -23 -24 -56l-28 -141q-13 -63 0 -77q12 -14 80 -20l-7 -27h-266l7 27q61 5 77 19q15 14 28 78l26 135q7 28 -5 59l-88 234q-17 44 -31 54q-13 11 -61 16l7 27h231l-6 -27l-35 -4q-25 -4 -30 -12
q-5 -7 2 -30q55 -154 92 -242q131 187 160 236q15 26 10 35q-4 8 -33 13l-31 4l7 27h216z" />
    <glyph glyph-name="Z" unicode="Z" horiz-adv-x="588" 
d="M617 636l-491 -596q60 -6 155 -6q148 0 184 31q32 27 74 111l28 -12q-42 -125 -60 -164h-499l-7 15l496 600h-158q-110 0 -138 -35q-24 -30 -50 -95l-29 2q25 92 41 187h21q13 -25 50 -25h377z" />
    <glyph glyph-name="bracketleft" unicode="[" horiz-adv-x="338" 
d="M377 677q-78 -8 -94 -20q-17 -13 -29 -75l-119 -622q-12 -62 1 -75q12 -12 91 -20l-7 -27h-171l166 866h169z" />
    <glyph glyph-name="backslash" unicode="\" horiz-adv-x="375" 
d="M272 -45l-192 709h53l192 -709h-53z" />
    <glyph glyph-name="bracketright" unicode="]" horiz-adv-x="338" 
d="M154 -162h-169l7 27q79 7 95 20t28 75l120 622q11 62 -2 75q-12 12 -91 20l7 27h171z" />
    <glyph glyph-name="asciicircum" unicode="^" horiz-adv-x="552" 
d="M444 211l-156 347l-156 -347h-55l192 412h42l192 -412h-59z" />
    <glyph glyph-name="underscore" unicode="_" horiz-adv-x="500" 
d="M0 -125v50h500v-50h-500z" />
    <glyph glyph-name="quoteleft" unicode="&#x2018;" horiz-adv-x="217" 
d="M265 687q-85 -33 -88 -89q-3 -42 50 -56q11 -2 10 -17q-1 -18 -15 -30q-13 -10 -29 -10q-29 0 -53 25q-26 27 -25 69q4 99 139 136z" />
    <glyph glyph-name="a" unicode="a" horiz-adv-x="490" 
d="M466 92q-85 -104 -147 -104q-35 0 -17 88l20 95h-3q-52 -75 -129 -138q-55 -45 -93 -45q-22 0 -39 26q-19 31 -19 86q0 172 120 272q94 77 187 77q27 0 62 -8q26 -6 38 -6l2 -4q-34 -132 -69 -325q-8 -43 2 -43q18 0 73 53zM244 124q65 70 91 124q16 51 33 143
q-28 14 -66 14q-43 0 -72 -21q-49 -36 -79 -115q-29 -73 -29 -151q0 -66 27 -66q28 0 95 72z" />
    <glyph glyph-name="b" unicode="b" horiz-adv-x="486" 
d="M107 679q45 5 97 20q48 13 52 13q12 0 4 -30l-88 -383h2q123 150 217 150q33 0 52 -30t19 -80q0 -83 -44 -167q-44 -85 -110 -129q-82 -55 -151 -55q-54 0 -80 43q-22 38 -5 125q13 64 46 215l49 234q7 34 1 41q-5 7 -34 8h-29zM259 49q47 28 82 104q38 81 38 169
q0 71 -34 71q-28 0 -80 -43q-56 -46 -102 -111q-8 -25 -18 -78q-22 -127 61 -127q28 0 53 15z" />
    <glyph glyph-name="c" unicode="c" horiz-adv-x="382" 
d="M351 99q-95 -111 -200 -111q-49 0 -77 37q-30 39 -30 109q0 147 104 240q81 75 159 75q31 0 54 -16q21 -15 22 -34q2 -28 -32 -46q-13 -7 -22 6q-31 43 -76 43q-47 0 -83 -67q-43 -79 -43 -180q0 -108 70 -108q68 0 139 74z" />
    <glyph glyph-name="d" unicode="d" horiz-adv-x="508" 
d="M484 89q-85 -101 -147 -101q-37 0 -18 93l18 85l-2 -1q-52 -69 -132 -131q-57 -46 -97 -46q-27 0 -45 30q-20 33 -20 90q0 164 116 264q88 77 177 77q33 0 59 -11l33 164q7 35 1 42q-6 8 -39 8h-32l3 25q50 5 102 21q48 14 51 14q13 0 7 -28q-77 -329 -124 -589
q-6 -32 4 -32q22 0 71 49zM259 123q61 62 90 114l32 143q-28 26 -81 26q-42 0 -69 -21q-47 -34 -79 -115q-28 -75 -28 -143q0 -74 31 -74q35 0 104 70z" />
    <glyph glyph-name="e" unicode="e" 
d="M365 101q-105 -113 -210 -113q-111 0 -111 146q0 166 121 258q73 57 138 57q39 0 63 -24q24 -23 24 -56q0 -112 -264 -177q-1 -13 -1 -32q0 -113 77 -113q67 0 147 77zM224 396q-73 -45 -94 -174q186 51 186 131q0 54 -50 54q-25 0 -42 -11z" />
    <glyph glyph-name="f" unicode="f" horiz-adv-x="271" 
d="M142 431q27 136 85 201q72 80 143 80q25 0 44 -15q17 -13 16 -27q0 -22 -25 -42q-15 -10 -25 1q-32 35 -63 35q-60 0 -98 -233h113l-20 -32l-100 -10q-29 -169 -52 -279q-44 -218 -127 -304q-59 -63 -112 -63q-22 0 -42 13q-21 14 -21 30q0 20 28 42q10 9 19 0
q25 -25 63 -25q25 0 43 20q33 38 70 251l53 317h-82l-3 12l30 28h63z" />
    <glyph glyph-name="g" unicode="g" horiz-adv-x="420" 
d="M476 426q-36 -38 -71 -47l-26 -3q8 -26 8 -55q0 -91 -76 -154q-53 -43 -129 -58q-20 -15 -20 -31q0 -21 72 -59q135 -70 135 -133q0 -58 -82 -102q-75 -41 -154 -41q-73 0 -127 33q-53 33 -52 79q3 60 168 144q-39 26 -37 50q0 25 62 61q-88 20 -88 122q0 101 84 167
q62 50 128 50q53 0 85 -28q74 1 113 23zM276 193q37 48 37 124q0 97 -67 97q-44 0 -72 -45q-38 -54 -38 -130q0 -90 64 -90q43 0 76 44zM263 -193q33 22 33 52q0 37 -73 80q-59 34 -75 42q-110 -53 -110 -109q0 -37 41 -62q40 -25 94 -25q55 0 90 22z" />
    <glyph glyph-name="h" unicode="h" horiz-adv-x="511" 
d="M478 84q-83 -96 -144 -96q-39 0 -17 97l53 231q17 72 -8 72q-34 0 -105 -67q-70 -66 -106 -132q-17 -68 -38 -182q-47 -10 -71 -19l-7 8q80 357 127 599q7 39 1 48q-5 8 -35 8l-29 1l4 25q46 5 97 21q46 14 48 14q12 0 4 -35l-89 -415h2q83 111 185 166q39 21 68 21
q56 0 27 -127l-52 -223q-7 -36 3 -37q22 0 70 46z" />
    <glyph glyph-name="i" unicode="i" horiz-adv-x="273" 
d="M261 595q1 -23 -14 -40q-16 -17 -39 -17q-40 0 -40 43q-1 21 13 39q16 20 40 20q40 0 40 -45zM236 87q-84 -99 -145 -99q-38 0 -14 98l63 255q7 32 -1 32q-17 0 -69 -42l-12 22q97 95 151 95q30 0 10 -79l-68 -275q-8 -32 2 -32q16 0 70 47z" />
    <glyph glyph-name="j" unicode="j" horiz-adv-x="266" 
d="M256 603q0 -24 -15 -41t-38 -17q-42 0 -42 44q0 21 14 38q17 20 41 20q40 0 40 -44zM55 344q100 105 158 105q29 0 8 -104l-56 -279q-37 -183 -118 -260q-66 -63 -107 -63q-15 0 -29 9q-14 10 -14 23q0 24 24 44q11 11 22 5q26 -17 49 -17q42 0 67 108q12 51 81 398
q12 57 1 57q-18 0 -73 -49z" />
    <glyph glyph-name="k" unicode="k" horiz-adv-x="470" 
d="M454 79q-58 -91 -110 -91q-35 0 -66 66q-37 76 -76 186q-47 -49 -56 -64l-34 -169q-34 -6 -73 -19l-6 6q76 322 136 613q6 30 0 37t-36 8h-31l5 25q48 5 99 21q46 14 48 14q11 0 5 -30l-101 -444h2q30 35 86 89q118 122 175 122q41 0 41 -31q0 -21 -19 -40q-9 -9 -16 -6
q-18 8 -38 8q-56 0 -131 -83q29 -95 82 -196q25 -48 40 -48q17 0 57 46z" />
    <glyph glyph-name="l" unicode="l" horiz-adv-x="249" 
d="M230 95q-88 -107 -153 -107q-41 0 -15 121l104 492q7 33 0 42q-7 8 -41 9h-28l4 25q46 5 98 21q48 14 50 14q12 0 6 -30l-123 -585q-7 -35 4 -35q26 0 79 55z" />
    <glyph glyph-name="m" unicode="m" horiz-adv-x="787" 
d="M748 84q-85 -96 -141 -96q-40 0 -15 102l53 231q16 65 -9 65q-33 0 -107 -79q-67 -72 -97 -129q-26 -101 -39 -172q-33 -4 -73 -17l-6 6q56 227 72 300q19 91 -8 91q-34 0 -107 -80q-68 -73 -95 -128q-18 -59 -41 -172q-32 -4 -72 -17l-7 6q46 173 83 339q9 41 -1 43
q-18 0 -69 -49l-12 25q90 96 141 96q38 0 8 -124l-18 -70h2q84 117 180 174q35 20 61 20q59 0 24 -152l-9 -41h2q86 121 184 174q37 19 60 19q56 0 22 -145l-49 -209q-8 -32 2 -32q20 0 68 46z" />
    <glyph glyph-name="n" unicode="n" horiz-adv-x="532" 
d="M495 85q-88 -97 -141 -97q-41 0 -15 104l52 222q17 71 -7 71q-32 0 -103 -72q-68 -69 -107 -136q-29 -119 -39 -169q-43 -8 -72 -19l-6 7q46 178 82 339q9 40 -2 40q-17 0 -64 -45l-14 24q90 95 141 95q34 0 8 -111l-21 -87h2q88 120 184 175q37 23 66 23q57 0 23 -143
l-49 -207q-8 -36 2 -36q19 0 65 46z" />
    <glyph glyph-name="o" unicode="o" horiz-adv-x="470" 
d="M76 36q-30 41 -30 107q0 93 45 169q41 70 107 104q59 33 109 33q62 0 97 -41t35 -115q0 -153 -107 -242q-75 -63 -154 -63q-67 0 -102 48zM247 34q42 18 74 89q35 76 34 168q0 119 -81 119q-20 0 -38 -8q-37 -17 -68 -76q-38 -74 -38 -177q0 -56 22 -88q23 -33 62 -33
q17 0 33 6z" />
    <glyph glyph-name="p" unicode="p" horiz-adv-x="486" 
d="M221 436q40 13 93 13q144 0 144 -139q0 -111 -85 -206q-80 -89 -186 -116q-35 0 -59 10l-28 -140q-8 -43 -1 -55t44 -16l25 -2l-4 -26l-231 -11l5 25q47 9 62 23t25 59l56 262q45 206 56 260q-44 -15 -81 -37l-7 26q38 27 96 49l11 46q22 27 73 58l9 -6zM143 66
q26 -34 63 -34q55 0 111 83q57 86 57 179q0 112 -105 112q-24 0 -57 -7z" />
    <glyph glyph-name="q" unicode="q" horiz-adv-x="484" 
d="M412 -240l-232 -12l5 25l17 3q36 9 48 21q13 15 22 59l64 308h-2q-50 -64 -127 -126q-64 -50 -105 -50q-27 0 -45 31q-19 32 -19 81q0 164 117 267q67 58 151 76q28 6 53 6q32 0 86 -15l16 -4q-27 -111 -47 -219l-65 -348q-9 -47 -1 -60q8 -11 44 -15l24 -4zM232 383
q-50 -36 -81 -114q-29 -72 -29 -143t30 -71q34 0 97 60q57 54 94 112q18 66 35 163q-28 15 -71 15q-44 0 -75 -22z" />
    <glyph glyph-name="r" unicode="r" horiz-adv-x="366" 
d="M192 283q88 166 151 166q26 0 43 -26q12 -21 -1 -42q-11 -19 -27 -30q-12 -9 -22 0q-17 17 -33 17q-20 0 -51 -43q-50 -70 -72 -123q-13 -59 -40 -195q-32 -6 -71 -18l-7 7q55 235 73 336q8 44 -2 44q-19 0 -71 -48l-14 23q89 98 140 98q37 0 12 -116l-11 -50h3z" />
    <glyph glyph-name="s" unicode="s" horiz-adv-x="337" 
d="M45 11q-33 23 -33 49q-1 24 29 42q17 8 25 -3q41 -61 96 -61q29 0 49 18q18 17 18 42q0 39 -59 84q-87 66 -87 122q0 52 52 96q56 49 112 49q31 0 55 -18q22 -18 22 -38q0 -25 -25 -42q-13 -9 -22 5q-36 45 -78 45q-22 0 -38 -15q-16 -16 -16 -41q0 -39 66 -89
q83 -63 83 -117q0 -56 -60 -104q-59 -47 -121 -47q-36 0 -68 23z" />
    <glyph glyph-name="t" unicode="t" horiz-adv-x="307" 
d="M312 396l-100 -4l-58 -274q-13 -60 6 -60q33 0 89 58l15 -21q-88 -107 -162 -107q-49 0 -20 132l58 271h-74l-3 9l25 31h61l23 94l75 63l10 -6l-36 -151h117z" />
    <glyph glyph-name="u" unicode="u" horiz-adv-x="533" 
d="M505 90q-84 -102 -145 -102q-39 0 -15 106q7 30 19 88h-2q-78 -105 -161 -163q-43 -31 -81 -31q-63 0 -34 127l55 230q8 31 -2 33q-14 0 -70 -48l-12 25q96 94 148 94q17 0 19 -18q3 -20 -8 -69l-56 -240q-15 -66 12 -66q38 0 109 76q63 68 98 131q20 83 36 160l69 26h11
q-49 -194 -79 -348q-6 -40 4 -40q20 0 72 52z" />
    <glyph glyph-name="v" unicode="v" horiz-adv-x="447" 
d="M221 87q155 193 155 264q0 28 -10 44q-6 11 0 24q11 30 42 30q41 0 43 -57q0 -49 -61 -134l-208 -270h-27q-4 131 -19 311q-5 77 -18 77q-14 0 -58 -53l-17 22q72 104 120 104q35 0 43 -111q11 -189 13 -251h2z" />
    <glyph glyph-name="w" unicode="w" horiz-adv-x="670" 
d="M459 91q141 193 142 257q0 27 -11 47q-5 9 0 25q14 29 41 29q43 0 43 -57q0 -39 -41 -105q-52 -85 -211 -299h-28q-10 126 -28 311h-2l-191 -311h-26q-1 109 -10 322q-3 66 -15 66t-60 -51l-16 20q79 104 127 104q33 0 36 -99q4 -164 3 -237h2l186 320h25l16 -170
q9 -108 16 -172h2z" />
    <glyph glyph-name="x" unicode="x" horiz-adv-x="473" 
d="M69 344q73 105 119 105q29 0 64 -110l18 -55q114 165 170 165q19 0 31 -14q11 -12 11 -29q-1 -17 -14 -31t-25 -14q-7 0 -15 9q-10 12 -22 12q-22 0 -61 -50q-44 -52 -64 -82l32 -100q28 -92 50 -92q23 0 72 58l17 -20q-70 -108 -127 -108q-38 0 -66 91l-31 98
q-120 -189 -182 -189q-20 0 -33 14q-14 14 -13 34q0 18 13 33q13 14 27 14q9 0 16 -10q10 -10 23 -10q36 0 139 150l-34 105q-20 63 -34 63q-18 0 -63 -57z" />
    <glyph glyph-name="y" unicode="y" horiz-adv-x="442" 
d="M241 75q135 207 135 275q-1 21 -12 47q-5 12 2 24q12 28 42 28q38 0 40 -55q0 -43 -36 -106q-75 -136 -181 -283q-107 -154 -180 -235l-104 -27l-8 22q135 90 235 224q-2 136 -31 326q-7 62 -21 62q-17 0 -58 -58l-17 22q69 108 118 108q39 0 52 -118q11 -95 22 -256h2z
" />
    <glyph glyph-name="z" unicode="z" horiz-adv-x="418" 
d="M441 442q-17 -21 -58 -68q-14 -16 -270 -282q27 3 76 -16q68 -24 90 -24q46 0 102 86l22 -19q-69 -139 -138 -139q-37 0 -133 49q-43 20 -63 5q-17 -11 -31 -35q-5 -8 -12 -8q-24 37 35 100l130 133q99 99 148 152q-27 -5 -61 -2q-78 6 -95 6q-50 0 -99 -86l-25 13
q19 44 40 80q37 59 74 59q33 0 106 -12q51 -9 80 -9q27 0 61 38z" />
    <glyph glyph-name="braceleft" unicode="{" horiz-adv-x="338" 
d="M381 683q-85 -10 -99 -91q-6 -31 -10 -95q-7 -93 -10 -109q-17 -97 -101 -115l-1 -4q62 -15 62 -82q0 -16 -36 -142q-27 -108 -27 -123q0 -54 67 -63l-7 -27q-122 0 -122 95q0 43 32 152q27 95 27 117q0 55 -73 60l6 29q86 6 103 89q4 18 10 89q6 66 16 123
q24 124 165 124z" />
    <glyph glyph-name="bar" unicode="|" horiz-adv-x="239" 
d="M101 -250v1000h63v-1000h-63z" />
    <glyph glyph-name="braceright" unicode="}" horiz-adv-x="338" 
d="M286 257q-57 -4 -81 -34q-13 -17 -21 -55q-3 -17 -10 -89q-7 -75 -17 -123q-23 -124 -166 -124l4 27q84 12 98 90q7 42 11 96q3 72 9 108q19 98 100 116l1 4q-67 15 -60 97q1 13 34 127q23 83 25 107q6 69 -65 79l7 27q131 0 122 -108q-1 -37 -31 -139q-25 -86 -26 -105
q-6 -68 72 -73z" />
    <glyph glyph-name="asciitilde" unicode="~" horiz-adv-x="563" 
d="M541 274q-33 -113 -127 -113q-49 0 -127 46q-54 31 -90 31q-59 0 -91 -84l-35 25q44 108 130 108q51 0 114 -36q70 -40 105 -40q55 0 84 83z" />
    <glyph glyph-name="exclamdown" unicode="&#xa1;" horiz-adv-x="258" 
d="M205 345q-18 -18 -43 -18q-22 0 -37 16t-15 40q0 29 18 48q17 17 43 17h1q22 0 36 -16q15 -16 15 -41q0 -28 -18 -46zM116 -121q-6 -67 -9 -80q-5 -29 -58 -29h-1q-52 0 -48 29q3 13 22 80l101 359q4 5 16 5q13 0 15 -4q-9 -91 -38 -360z" />
    <glyph glyph-name="cent" unicode="&#xa2;" horiz-adv-x="477" 
d="M353 540q66 0 104 -32q13 -10 13 -26q0 -14 -13 -27q-12 -13 -24 -13q-7 0 -15 9q-31 40 -74 46l-66 -348l13 -1q66 0 131 54l15 -22q-77 -81 -170 -88l-19 -97h-35l19 98q-69 6 -113 52q-47 50 -47 131q0 99 75 175q71 72 170 86l16 83h36zM309 499q-73 -1 -116 -61
q-39 -56 -39 -139q0 -120 89 -143z" />
    <glyph glyph-name="sterling" unicode="&#xa3;" horiz-adv-x="477" 
d="M216 297q-16 -117 -115 -198q42 0 105 -30q72 -35 118 -35q57 0 63 44q3 19 -2 34q-3 11 6 23q24 26 39 26q10 0 15 -14t1 -34q-12 -65 -83 -108q-51 -32 -93 -32t-135 53q-42 24 -64 24q-25 0 -49 -42q-7 -12 -14 -12q-30 15 -5 46q13 19 57 59q65 62 71 196h-89l8 35
h82q2 48 7 82q16 110 105 178q59 44 109 44q64 0 89 -41q9 -16 0 -31q-5 -8 -20 -21q-14 -10 -27 3q-42 42 -83 42q-70 0 -86 -100q-6 -37 -8 -156h169l-7 -35h-164z" />
    <glyph glyph-name="fraction" unicode="&#x2044;" horiz-adv-x="165" 
d="M-130 -27l-30 27l502 654l31 -25z" />
    <glyph glyph-name="yen" unicode="&#xa5;" horiz-adv-x="477" 
d="M542 597q-38 -4 -56 -16q-16 -11 -45 -51q-58 -78 -138 -204h120l-8 -34h-128l-16 -76h132l-8 -34h-131l-15 -79q-9 -49 3 -60q11 -11 75 -16l-6 -27h-252l6 27q60 4 75 16q14 12 24 60l16 79h-132l8 34h130l14 76h-130l8 34h120q-10 53 -54 220q-8 29 -22 39
q-13 9 -50 12l5 26h206l-6 -26l-32 -5q-19 -2 -24 -9q-6 -7 -2 -27l47 -212q87 131 129 207q12 22 7 31q-4 8 -26 11l-31 4l7 26h186z" />
    <glyph glyph-name="florin" unicode="&#x192;" horiz-adv-x="477" 
d="M223 423q25 110 101 174q67 55 119 55q21 0 39 -13q17 -13 17 -28q0 -23 -21 -38q-11 -10 -21 0q-34 29 -64 29q-25 0 -45 -27q-23 -32 -56 -205h121l-11 -36h-117l-41 -191q-37 -176 -130 -243q-53 -38 -91 -38q-20 0 -37 13q-16 13 -16 27q0 20 24 40q9 9 19 0
q29 -27 60 -27q29 0 45 37q22 54 44 171l39 211h-96l10 36h95z" />
    <glyph glyph-name="section" unicode="&#xa7;" horiz-adv-x="467" 
d="M295 -14q-82 -72 -163 -88q-42 0 -70 24q-16 13 -16 30q1 22 30 36q10 6 18 -1q38 -32 82 -32q31 0 55 17q27 19 28 49q2 43 -51 101q-16 17 -41 48q-26 33 -32 39q-62 72 -62 143q0 102 111 204q78 73 162 88q48 0 70 -25q13 -12 11 -25q0 -19 -25 -35q-9 -5 -17 1
q-42 34 -82 34q-33 0 -54 -20q-19 -18 -19 -42q0 -33 31 -68l82 -89q80 -82 80 -161q0 -114 -128 -228zM180 510q-52 -49 -52 -119v-1q0 -65 50 -121l49 -55q56 -63 71 -98q16 -34 10 -74l2 -2q52 58 52 127q0 73 -53 134l-94 108q-40 46 -33 100z" />
    <glyph glyph-name="currency" unicode="&#xa4;" horiz-adv-x="477" 
d="M432 95l-65 74q-47 -38 -108 -38t-108 38l-65 -74l-40 40l70 67q-44 52 -44 123q0 74 45 123l-71 68l40 39l65 -74q48 38 108 38h1q60 0 107 -38l65 74l42 -39l-71 -68q44 -52 44 -123q0 -70 -44 -123l71 -67zM170 430q-37 -41 -37 -105t37 -105q36 -40 90 -40t90 40
q36 41 36 105t-36 105q-36 40 -91 40q-53 0 -89 -40z" />
    <glyph glyph-name="quotesingle" unicode="'" horiz-adv-x="192" 
d="M242 703q-32 -107 -84 -213l-30 -13q29 163 31 211l74 22z" />
    <glyph glyph-name="quotedblleft" unicode="&#x201c;" horiz-adv-x="386" 
d="M266 688q-85 -34 -88 -90q-3 -43 49 -56q12 -2 10 -17q-1 -18 -15 -30q-13 -10 -29 -10q-29 0 -53 25q-26 27 -25 69q4 99 140 136zM434 688q-85 -35 -88 -91q-3 -42 48 -56q14 -2 12 -17q-1 -18 -15 -30q-13 -10 -29 -10q-30 0 -53 25q-27 27 -25 69q4 101 140 137z" />
    <glyph glyph-name="guillemotleft" unicode="&#xab;" horiz-adv-x="446" 
d="M140 221l73 -167l-23 -15q-86 125 -134 182q55 50 170 182l21 -16zM302 221l74 -167l-24 -15q-93 135 -134 182q51 47 171 182l21 -16z" />
    <glyph glyph-name="guilsinglleft" unicode="&#x2039;" horiz-adv-x="283" 
d="M139 221l74 -168l-24 -14q-86 125 -134 182q60 55 171 182l21 -16z" />
    <glyph glyph-name="guilsinglright" unicode="&#x203a;" horiz-adv-x="283" 
d="M118 403q98 -141 134 -182q-68 -64 -171 -182l-21 16l109 166l-75 167z" />
    <glyph glyph-name="uniFB01" unicode="&#xfb01;" horiz-adv-x="531" 
d="M495 91q-25 -32 -72 -66q-51 -37 -79 -37q-41 0 -17 98l56 243q10 43 3 54q-7 10 -44 10h-131q-30 -173 -52 -271q-49 -232 -125 -313q-61 -65 -116 -65q-22 0 -39 11q-19 12 -19 29q0 19 29 44q10 7 21 0q24 -22 56 -22q26 0 43 19q34 32 72 252l29 170l24 146h-78
l-4 10l28 28h61q32 146 108 216q71 65 146 65q50 0 77 -25q20 -19 20 -40q-2 -38 -36 -46q-30 -10 -35 12q-13 60 -61 60q-98 0 -141 -242h111q69 0 133 15q18 -11 3 -72l-63 -268q-11 -43 2 -45q21 0 76 51z" />
    <glyph glyph-name="uniFB02" unicode="&#xfb02;" horiz-adv-x="525" 
d="M310 400l-99 -10q-34 -195 -52 -285q-43 -215 -123 -298q-60 -63 -115 -63q-21 0 -38 12q-19 13 -18 29q0 24 27 44q10 7 20 0q25 -23 57 -23q26 0 44 20q33 33 70 255l51 311h-80l-3 10l29 29h62q24 133 97 206q75 75 158 75q49 0 74 -25q43 25 56 25q12 0 5 -29
q-71 -327 -122 -583q-7 -36 5 -39q27 0 77 56l14 -22q-32 -44 -81 -77q-45 -30 -70 -30q-40 0 -14 127l107 513q-26 43 -81 43q-109 0 -148 -240h111z" />
    <glyph glyph-name="endash" unicode="&#x2013;" horiz-adv-x="500" 
d="M452 200h-399l12 52h399z" />
    <glyph glyph-name="dagger" unicode="&#x2020;" horiz-adv-x="453" 
d="M145 -97q15 59 24 112q37 200 22 268q43 63 55 124q-82 -3 -130 -33q-33 15 -42 48q25 36 58 46q40 -31 120 -32q13 85 -9 144q26 42 64 62q29 -20 44 -62q-45 -58 -64 -144q76 1 130 32q29 -11 42 -46q-26 -38 -58 -48q-39 30 -121 33q-9 -65 9 -124q-44 -73 -82 -268
q-15 -78 -19 -112h-43z" />
    <glyph glyph-name="daggerdbl" unicode="&#x2021;" horiz-adv-x="455" 
d="M407 389q-44 32 -122 33q-17 -104 10 -138q-40 -31 -62 -136l-2 -5q75 0 131 32q32 -13 43 -47q-27 -36 -58 -46q-44 32 -122 33q-12 -86 10 -148q-28 -44 -64 -61q-28 17 -44 61q46 60 66 148q-76 -1 -132 -33q-30 11 -42 46q26 38 57 47q43 -32 122 -32q19 111 -9 141
q41 34 64 138q-76 -1 -132 -33q-30 11 -42 46q24 35 56 48q42 -32 123 -33q10 68 -12 131q26 43 64 61q25 -15 43 -61q-47 -64 -62 -131q79 1 129 33q31 -12 44 -48q-24 -34 -57 -46z" />
    <glyph glyph-name="periodcentered" unicode="&#xb7;" horiz-adv-x="235" 
d="M71 225q0 27 17 45t42 18q49 0 49 -54q0 -29 -18 -46q-17 -16 -41 -16q-49 0 -49 53z" />
    <glyph glyph-name="paragraph" unicode="&#xb6;" horiz-adv-x="488" 
d="M497 511l-82 -10l-92 -473q-23 -123 -100 -191q-53 -45 -93 -45t-62 24q-14 14 -7 29q4 16 22 27q9 9 20 1q31 -23 63 -23q36 0 57 29q28 39 49 143l25 131l-65 -27q-6 -3 -18 -3q-52 0 -92 51q-41 53 -41 125q0 109 81 182q77 68 182 68h186l2 -13z" />
    <glyph glyph-name="bullet" unicode="&#x2022;" horiz-adv-x="377" 
d="M201 350q50 0 87 -38q36 -39 36 -93q0 -55 -36 -93q-37 -38 -89 -38q-53 0 -90 38q-36 38 -36 93q0 54 36 93q37 38 90 38h2z" />
    <glyph glyph-name="quotesinglbase" unicode="&#x201a;" horiz-adv-x="228" 
d="M-2 -82q84 34 87 90q3 43 -48 57q-12 4 -11 18q1 18 15 29t30 11q29 0 53 -25q26 -28 25 -71q-4 -100 -140 -136z" />
    <glyph glyph-name="quotedblbase" unicode="&#x201e;" 
d="M-2 -82q84 33 87 90q3 43 -48 57q-12 4 -11 18q1 18 15 29q13 11 29 11q30 0 54 -25q26 -28 25 -71q-4 -99 -140 -136zM171 -82q84 34 87 90q3 43 -48 57q-12 3 -12 18q1 18 16 29q13 11 29 11q29 0 53 -25q27 -28 25 -71q-4 -100 -140 -136z" />
    <glyph glyph-name="quotedblright" unicode="&#x201d;" horiz-adv-x="384" 
d="M104 507q85 34 88 89q3 43 -49 57q-12 2 -11 17q1 18 15 30q13 10 29 10q29 0 52 -25q26 -28 25 -70q-4 -98 -139 -135zM273 507q86 35 89 89q3 43 -50 57q-11 2 -11 17q1 18 15 30q13 10 29 10q29 0 53 -25q27 -28 25 -70q-4 -99 -140 -135z" />
    <glyph glyph-name="guillemotright" unicode="&#xbb;" horiz-adv-x="446" 
d="M119 403q97 -139 133 -182q-62 -58 -170 -182l-21 16l108 166l-74 167zM281 403q92 -133 134 -182q-55 -50 -170 -182l-22 16l109 166l-74 167z" />
    <glyph glyph-name="ellipsis" unicode="&#x2026;" horiz-adv-x="900" 
d="M67 41q0 28 17 45q16 18 42 18q22 0 36 -15q14 -16 14 -39q0 -29 -18 -46q-17 -16 -42 -16q-49 0 -49 53zM382 3q-14 15 -14 38q0 28 17 45q16 18 42 18q22 0 36 -15q14 -16 14 -39q0 -29 -18 -46q-17 -16 -42 -16q-21 0 -35 15zM665 41q0 28 17 45q16 18 42 18
q22 0 36 -15q14 -16 14 -39q0 -29 -18 -46q-17 -16 -42 -16q-49 0 -49 53z" />
    <glyph glyph-name="perthousand" unicode="&#x2030;" horiz-adv-x="1044" 
d="M155 -27l-29 26l494 655l30 -24zM324 356q-52 -73 -126 -73q-53 0 -82 40q-26 36 -26 93q0 79 47 146q52 73 127 73q54 0 83 -40q25 -36 25 -94q0 -79 -48 -145zM259 605q-48 0 -78 -80q-24 -64 -24 -127q0 -85 47 -85q49 0 78 86q23 66 23 128q0 78 -46 78zM637 61
q-52 -73 -126 -73q-53 0 -82 40q-26 36 -26 93q0 79 47 146q52 73 127 73q54 0 83 -41q25 -36 25 -93q0 -79 -48 -145zM953 61q-52 -73 -126 -73q-53 0 -82 40q-26 36 -26 93q0 79 47 146q52 73 127 73q54 0 83 -41q25 -36 25 -93q0 -79 -48 -145zM572 310q-48 0 -78 -81
q-24 -64 -24 -127q0 -84 47 -84q49 0 78 86q23 66 23 127q0 79 -46 79zM888 310q-48 0 -78 -81q-24 -65 -24 -127q0 -84 47 -84q49 0 78 86q23 66 23 127q0 79 -46 79z" />
    <glyph glyph-name="questiondown" unicode="&#xbf;" horiz-adv-x="358" 
d="M269 432q14 -16 14 -40q0 -29 -18 -47t-43 -18q-23 0 -37 16q-15 15 -15 40q0 29 18 48q18 17 44 17q22 0 37 -16zM183 243q89 -48 89 -115q0 -61 -107 -128q-122 -72 -122 -116q0 -50 56 -50q40 -1 78 25q38 25 37 25q11 0 22 -12q12 -14 12 -28q-1 -21 -28 -40
q-47 -33 -92 -33h-1q-53 0 -93 44t-40 102q0 64 67 107q88 58 101 69q38 31 38 61q0 35 -35 68z" />
    <glyph glyph-name="grave" unicode="`" 
d="M293 490q-63 120 -89 164l3 9q34 17 73 12l42 -176z" />
    <glyph glyph-name="acute" unicode="&#xb4;" 
d="M227 491l-23 16q58 91 92 156q54 15 83 9l3 -11z" />
    <glyph glyph-name="circumflex" unicode="&#x2c6;" 
d="M350 488q-32 37 -71 96q-59 -59 -108 -96l-20 17q85 98 130 163h22q25 -77 70 -163z" />
    <glyph glyph-name="tilde" unicode="&#x2dc;" 
d="M394 608q-33 -85 -80 -85q-12 0 -68 23q-24 12 -42 12q-25 0 -47 -43l-23 15q33 84 80 84q19 0 58 -18q36 -17 53 -17q20 0 46 41z" />
    <glyph glyph-name="macron" unicode="&#xaf;" 
d="M366 547h-224l13 51h223z" />
    <glyph glyph-name="breve" unicode="&#x2d8;" 
d="M387 641q-21 -131 -132 -131t-89 131h25q2 -74 72 -74q71 0 99 74h25z" />
    <glyph glyph-name="dotaccent" unicode="&#x2d9;" 
d="M318 591q0 -24 -15 -41q-16 -17 -38 -17q-41 0 -41 44q0 21 14 39q16 20 40 20q40 0 40 -45z" />
    <glyph glyph-name="dieresis" unicode="&#xa8;" 
d="M227 589q0 -23 -14 -39q-15 -16 -36 -16q-39 0 -39 41q0 21 13 37q14 19 38 19q38 0 38 -42zM403 589q0 -23 -14 -39q-15 -16 -36 -16q-39 0 -39 41q0 21 13 37q14 19 38 19q38 0 38 -42z" />
    <glyph glyph-name="ring" unicode="&#x2da;" 
d="M337 642q24 -24 23 -62q-1 -39 -31 -64q-28 -23 -66 -23q-37 0 -60 23q-23 22 -21 57q1 41 31 67q28 24 67 24q34 0 57 -22zM242 616q-13 -16 -14 -40q-2 -50 39 -50q19 0 33 16q13 15 14 39q2 51 -40 51q-19 0 -32 -16z" />
    <glyph glyph-name="cedilla" unicode="&#xb8;" 
d="M182 -25q-11 -14 -11 -21t11 -20q31 -37 30 -66q-5 -64 -121 -99l-12 27q68 31 69 60q1 13 -18 37q-28 30 -6 58l41 49h38z" />
    <glyph glyph-name="hungarumlaut" unicode="&#x2dd;" 
d="M139 490l-26 16q57 131 63 149q45 10 75 3l3 -10zM272 490l-24 16q46 104 62 149q45 10 75 3l2 -10z" />
    <glyph glyph-name="ogonek" unicode="&#x2db;" 
d="M265 -178l-51 -27q-17 -10 -38 -10q-29 0 -47 17q-20 17 -20 46q0 60 125 153h41q-98 -83 -98 -130q0 -32 35 -32q19 0 45 10z" />
    <glyph glyph-name="caron" unicode="&#x2c7;" 
d="M399 654q-82 -92 -130 -162h-22q-24 76 -71 163l25 17q39 -47 69 -96q67 65 107 96z" />
    <glyph glyph-name="emdash" unicode="&#x2014;" horiz-adv-x="907" 
d="M858 200h-804l14 52h804z" />
    <glyph glyph-name="AE" unicode="&#xc6;" horiz-adv-x="864" 
d="M821 496q0 63 -14 88q-13 31 -102 31h-75q-25 0 -31 -5q-5 -6 -10 -33l-47 -242h97q63 0 82 12q17 11 35 62h29l-38 -191h-29q1 55 -11 66q-13 12 -78 12h-94l-28 -156q-15 -75 5 -92q18 -14 102 -14q96 0 130 33q30 28 67 94l28 -9q-68 -168 -61 -152h-470l6 26
q63 6 78 20q17 14 30 76l34 174h-174q-105 -154 -135 -207q-19 -31 -14 -42q4 -10 36 -15l31 -5l-6 -27h-231l6 27q49 6 69 18q24 14 59 62l174 243l159 225q16 22 11 30q-5 7 -37 10l-53 6l9 28h507l-17 -150zM463 335l56 279q-13 0 -29 -15l-182 -264h155z" />
    <glyph glyph-name="ordfeminine" unicode="&#xaa;" horiz-adv-x="331" 
d="M348 335q-57 -64 -96 -64q-27 0 -17 51l12 54h-3q-36 -44 -81 -76q-38 -29 -61 -29q-36 0 -36 67q0 100 70 162q60 52 129 52h1q14 0 34 -4q12 -4 34 -4q-29 -132 -39 -190q-4 -28 2 -28q12 0 43 29zM199 510q-25 -12 -46 -54q-23 -51 -23 -99q0 -33 14 -33q21 0 58 40
q25 25 46 58q18 29 24 88q-13 8 -40 8q-19 0 -33 -8z" />
    <glyph glyph-name="Lslash" unicode="&#x141;" horiz-adv-x="550" 
d="M531 155q-34 -93 -63 -155h-443l7 27q58 5 73 17q15 14 26 74l32 164l-106 -70l9 49l106 70l40 205q11 56 -1 69q-11 12 -71 17l8 27h249l-7 -27q-58 -5 -71 -17q-14 -12 -25 -69l-30 -148l135 90l-14 -52l-131 -88l-39 -218q-11 -56 12 -72q16 -14 87 -14q89 0 120 30
q27 24 69 101z" />
    <glyph glyph-name="Oslash" unicode="&#xd8;" horiz-adv-x="708" 
d="M658 671l-51 -70q89 -81 89 -223q0 -164 -104 -277q-106 -116 -264 -116q-80 0 -142 40l-51 -68l-26 25l48 65q-91 81 -91 221q0 160 105 277q106 119 260 119q86 0 148 -41l51 70zM545 576q-38 53 -121 53q-115 0 -193 -119q-71 -109 -71 -247q0 -103 39 -160zM221 72
q43 -53 118 -53q117 0 194 122q69 108 69 244q0 101 -36 159z" />
    <glyph glyph-name="OE" unicode="&#x152;" horiz-adv-x="947" 
d="M554 0q-34 0 -90 -6q-47 -5 -83 -5q-167 0 -249 98q-63 75 -63 187q0 184 127 289q118 98 298 97q43 0 101 -5q58 -6 82 -6h272q-1 -4 -18 -150l-29 -2q0 60 -13 86q-15 32 -103 32h-74q-25 0 -31 -5t-11 -33l-42 -220h94q62 0 81 13q18 11 36 61h28l-37 -189h-29
q1 55 -11 66q-14 13 -77 13h-92l-34 -179q-15 -79 5 -94q18 -14 100 -14q97 0 132 34t69 96l27 -10q-61 -151 -63 -154h-303zM585 556q8 45 -17 55q-32 15 -90 15q-132 0 -218 -87q-95 -96 -95 -264q0 -97 44 -164q60 -91 185 -88q40 2 65 13q28 12 38 64z" />
    <glyph glyph-name="ordmasculine" unicode="&#xba;" horiz-adv-x="314" 
d="M304 525q25 -27 25 -75q0 -89 -65 -142q-48 -37 -95 -37q-46 0 -71 30q-24 28 -24 72q0 108 89 158q36 21 74 21q42 0 67 -27zM197 518q-59 -25 -59 -141q0 -75 49 -75q12 0 20 4q22 8 40 48q21 45 20 102q-2 67 -50 67q-10 0 -20 -5z" />
    <glyph glyph-name="ae" unicode="&#xe6;" horiz-adv-x="664" 
d="M629 106q-110 -117 -218 -117q-41 0 -67 28q-36 36 -35 113q0 15 1 23l-2 1q-45 -62 -118 -120q-56 -45 -96 -45q-20 0 -36 23q-20 30 -20 87q0 173 113 271q90 79 190 79q22 0 43 -6q15 -2 39 -2l4 -4l-14 -58l2 -1q71 71 153 71q39 0 63 -23q23 -23 23 -56
q0 -64 -90 -116q-72 -41 -179 -66q-1 -6 -1 -36q0 -103 73 -103q76 0 156 79zM231 390q-43 -28 -72 -96q-38 -83 -38 -174q0 -64 26 -64q35 0 92 62q61 69 82 113q29 82 39 160q-24 14 -64 14q-42 0 -65 -15zM479 391q-68 -44 -90 -170q188 50 190 133q0 51 -50 51
q-27 0 -50 -14z" />
    <glyph glyph-name="dotlessi" unicode="&#x131;" horiz-adv-x="274" 
d="M237 88q-83 -100 -146 -100q-37 0 -13 98l63 256q7 29 -1 32q-16 0 -69 -43l-12 23q97 95 152 95q30 0 10 -79l-69 -276q-9 -32 1 -32q17 0 71 47z" />
    <glyph glyph-name="lslash" unicode="&#x142;" horiz-adv-x="277" 
d="M303 444l-97 -75l-55 -267q-9 -42 3 -42q23 0 79 56l15 -23q-87 -105 -151 -105q-41 0 -17 109l44 209l-88 -68l10 50l88 68l53 246q7 33 0 41q-8 8 -43 9l-29 1l5 25q46 5 98 20q48 14 51 14q13 0 7 -29l-59 -265l96 75z" />
    <glyph glyph-name="oslash" unicode="&#xf8;" horiz-adv-x="472" 
d="M442 463l-38 -51q37 -40 37 -120q0 -149 -107 -240q-73 -64 -159 -64q-42 0 -68 18l-38 -52l-23 21l37 51q-37 41 -37 116q0 191 146 271q66 36 117 36q44 0 70 -18l38 52zM341 375q-20 35 -65 35q-20 0 -38 -8q-38 -15 -71 -72q-42 -74 -43 -177q0 -26 9 -60zM148 62
q21 -35 60 -35q18 0 37 7q44 17 80 87q39 77 38 169q0 30 -7 53z" />
    <glyph glyph-name="oe" unicode="&#x153;" horiz-adv-x="688" 
d="M410 189q-2 -14 -2 -28q0 -114 78 -114q69 0 151 81l16 -23q-106 -117 -210 -117q-81 0 -101 90h-1q-67 -90 -169 -90q-64 0 -97 50q-29 43 -29 107q0 92 43 167q39 68 101 103q63 34 111 34q88 0 112 -91h1q84 91 177 91q39 0 63 -23q23 -22 23 -57q0 -116 -267 -180z
M554 406h-1q-28 0 -49 -14q-70 -41 -90 -170q184 48 186 133q2 51 -46 51zM271 411h-1q-16 0 -36 -8q-37 -15 -66 -71q-38 -72 -38 -177q0 -126 78 -126q18 0 33 8q39 17 72 86q37 78 37 171q0 117 -79 117z" />
    <glyph glyph-name="germandbls" unicode="&#xdf;" horiz-adv-x="512" 
d="M140 431q31 148 115 222q72 61 147 61q57 0 91 -34q32 -34 32 -88q0 -36 -15 -62q-119 -84 -119 -154q0 -31 33 -84q46 -74 46 -125q0 -68 -65 -125q-63 -54 -131 -54q-31 0 -58 18q-28 18 -28 39q0 20 24 35q11 8 22 -1q44 -42 86 -42q37 0 61 27q21 24 21 59
q0 43 -32 96q-53 86 -53 121q0 62 130 179q9 23 9 52q0 47 -23 76q-23 28 -63 28q-79 1 -122 -119q-20 -58 -44 -211l-35 -212q-42 -237 -125 -325q-61 -66 -113 -66q-20 0 -38 12q-19 12 -19 28q0 22 27 44q12 8 20 1q26 -21 57 -21q26 0 41 20q33 39 66 251q30 186 48 313
h-76l-4 13l29 28h58z" />
    <glyph glyph-name="uni00B9" unicode="&#xb9;" horiz-adv-x="326" 
d="M281 396h-190l6 23q39 3 51 11q13 10 20 46l35 180q6 29 1 36q-4 6 -29 9l-28 2l5 21q64 9 133 31l-54 -279q-6 -36 4 -45q9 -8 52 -12z" />
    <glyph glyph-name="logicalnot" unicode="&#xac;" horiz-adv-x="596" 
d="M482 97v221h-420v50h477v-271h-57z" />
    <glyph glyph-name="uni00B5" unicode="&#xb5;" horiz-adv-x="511" 
d="M481 90q-86 -102 -145 -102q-39 0 -15 106q3 12 9 43q6 24 9 42h-2q-77 -108 -139 -159q-38 -32 -70 -32q-30 0 -42 44h-2q-22 -78 -19 -147q3 -78 32 -105l1 -7q-19 -31 -58 -31q-41 0 -38 72q2 45 36 200l93 413l72 21l7 -5q-47 -195 -71 -306q-17 -83 23 -83
q35 0 101 77q57 66 91 130q20 83 36 162l69 26h11q-45 -178 -78 -349q-6 -39 4 -39q19 0 71 52z" />
    <glyph glyph-name="trademark" unicode="&#x2122;" horiz-adv-x="461" 
d="M235 589q-7 22 -12 25q-4 7 -24 7h-15v-97q0 -20 4 -25q4 -4 23 -5v-16h-86v16q19 1 22 5q4 5 4 25v97h-13q-19 0 -25 -8q-6 -4 -11 -25h-14l3 57l12 -1q2 -3 5 -5q2 -1 8 -1h107q7 0 13 7h11l3 -56h-15zM417 478v16q17 1 20 5t3 23l1 90h-2l-59 -131h-13l-53 123h-2
l-3 -57q-1 -10 -1 -39q1 -13 24 -14v-16h-71v16q19 0 22 13q5 14 7 43l3 39q1 21 -2 26q-4 4 -23 6v17h64l50 -101l50 101h63v-17q-16 -2 -19 -6q-4 -4 -4 -21l1 -68q0 -22 4 -26q3 -5 19 -6v-16h-79z" />
    <glyph glyph-name="Eth" unicode="&#xd0;" horiz-adv-x="719" 
d="M387 649q319 0 319 -268q0 -197 -166 -306q-119 -75 -308 -75h-215l8 27q58 6 72 19q15 13 27 72l39 203h-110l9 37h108l33 168q12 63 1 77q-10 12 -72 19l6 27h249zM210 136q-13 -73 12 -87q23 -13 68 -13q158 1 246 113q75 97 75 239q0 228 -226 228q-53 0 -71 -9
q-17 -9 -22 -39l-40 -210h155l-8 -37h-155z" />
    <glyph glyph-name="onehalf" unicode="&#xbd;" horiz-adv-x="740" 
d="M146 -26l-27 24l502 656l28 -23zM261 277h-191l6 23q40 4 51 12q14 10 20 45l35 181q6 29 1 36q-4 6 -29 8l-28 2l6 22q54 6 133 29l-54 -278q-7 -36 4 -45q8 -7 52 -12zM677 83l-39 -83h-242l4 18q61 45 117 94q94 85 94 138q0 60 -60 60q-36 0 -85 -56l-17 16l39 49
q37 40 96 40q39 0 66 -25q30 -28 30 -73q0 -44 -44 -89q-15 -15 -84 -69l-61 -49v-2h92q42 0 74 40z" />
    <glyph glyph-name="plusminus" unicode="&#xb1;" horiz-adv-x="596" 
d="M331 311v-204h-57v204h-215v50h215v191h57v-191h214v-50h-214zM59 0v50h486v-50h-486z" />
    <glyph glyph-name="Thorn" unicode="&#xde;" horiz-adv-x="541" 
d="M340 501q196 0 196 -154q0 -92 -75 -147q-66 -48 -163 -49q-16 0 -36 5l-57 16l-12 -61q-10 -54 3 -66q12 -13 78 -19l-6 -26h-257l6 26q58 6 72 18t25 67l81 423q11 56 2 69q-10 14 -68 20l6 26h237l-6 -26q-57 -6 -69 -22q-13 -15 -28 -100h71zM212 204q40 -14 78 -14
q58 0 101 33q55 43 55 126q0 120 -134 121q-24 0 -42 -6q-10 -4 -16 -31z" />
    <glyph glyph-name="onequarter" unicode="&#xbc;" horiz-adv-x="747" 
d="M159 -27l-27 25l503 656l28 -23zM268 277h-192l6 23q39 4 51 12q13 10 20 45l35 181q6 29 1 36q-4 6 -29 8l-28 2l5 22q55 6 134 29l-54 -278q-7 -36 4 -45q8 -7 52 -12zM656 98h-58l-5 -25q-6 -31 3 -40q7 -7 43 -11l-4 -22h-177l5 22q41 4 52 11q12 8 18 40l5 25h-162
l5 23q114 127 225 238h42l-44 -226h58zM574 289l-139 -156h110l31 156h-2z" />
    <glyph glyph-name="divide" unicode="&#xf7;" horiz-adv-x="596" 
d="M276 369q-15 15 -15 34q0 20 15 35q15 14 34 14q21 0 36 -14q14 -15 14 -35t-15 -34q-14 -14 -36 -14q-18 0 -33 14zM66 230v50h485v-50h-485zM343 141q15 -14 15 -34q0 -19 -15 -34q-16 -15 -34 -15q-21 0 -35 15q-15 14 -15 34t15 34q14 14 36 14q18 0 33 -14z" />
    <glyph glyph-name="brokenbar" unicode="&#xa6;" horiz-adv-x="239" 
d="M101 325v350h63v-350h-63zM101 -175v350h63v-350h-63z" />
    <glyph glyph-name="degree" unicode="&#xb0;" horiz-adv-x="350" 
d="M331 629q38 -36 38 -96q0 -64 -44 -104q-42 -39 -106 -39q-57 0 -94 35q-38 35 -38 94q0 62 45 104q43 41 105 41q57 0 94 -35zM170 595q-26 -30 -26 -76q0 -38 21 -63q22 -26 58 -26q41 0 66 30q24 28 24 70t-21 67q-22 27 -59 27q-38 0 -63 -29z" />
    <glyph glyph-name="thorn" unicode="&#xfe;" horiz-adv-x="494" 
d="M180 298q123 151 218 151q30 0 49 -28q22 -32 22 -86q0 -86 -42 -167q-41 -80 -106 -126q-76 -54 -137 -54q-38 0 -66 18l-13 -68q-10 -56 -14 -74q-9 -46 0 -60q9 -13 50 -17l24 -3l-3 -25l-235 -12l3 27q47 9 61 23q15 15 26 68l148 720q9 46 1 57q-8 10 -48 10h-23
l2 26q46 5 100 21q52 14 54 14q15 2 9 -27l-82 -388h2zM272 351q-56 -45 -103 -116q-19 -80 -37 -169q29 -34 79 -34q39 0 67 20q36 24 69 96q39 83 39 170q0 73 -35 73q-29 0 -79 -40z" />
    <glyph glyph-name="threequarters" unicode="&#xbe;" horiz-adv-x="740" 
d="M171 -27l-27 25l502 656l28 -23zM127 561l31 37q31 37 87 37h1q35 0 59 -19q27 -20 27 -55q0 -40 -66 -72v-2q69 -17 69 -78q0 -70 -83 -113q-49 -26 -92 -26q-46 0 -70 24q-13 14 -7 26q4 15 20 26q11 6 21 -4q40 -35 74 -35q28 0 48 20q21 22 21 56q0 69 -68 69
q-23 0 -37 -7l-6 24q110 23 110 81q0 42 -47 42q-41 0 -74 -47zM665 98h-58l-5 -25q-6 -31 3 -40q7 -7 43 -11l-4 -22h-176l4 22q42 4 52 11q12 8 18 40l5 25h-162l5 23q105 117 225 237h42l-44 -225h58zM583 288l-138 -155h109l31 155h-2z" />
    <glyph glyph-name="uni00B2" unicode="&#xb2;" horiz-adv-x="326" 
d="M330 479l-39 -83h-242l4 18q61 45 117 94q94 83 94 138q0 60 -59 60q-40 0 -86 -57l-17 17l39 49q37 40 93 40q41 0 69 -25q30 -27 30 -72t-44 -90q-15 -16 -84 -69l-61 -49v-2h92q42 0 73 40z" />
    <glyph glyph-name="registered" unicode="&#xae;" horiz-adv-x="313" 
d="M292 622q37 -37 37 -90q0 -52 -37 -89q-38 -39 -93 -39t-92 37q-37 36 -37 91q0 52 38 90q38 39 92 39q55 0 92 -39zM127 607q-28 -30 -28 -75t29 -75t72 -30t72 30t29 75q0 44 -29 75q-30 31 -73 31t-72 -31zM270 463q-34 0 -49 21l-19 30q-5 7 -12 7h-4v-23
q0 -13 3 -16q2 -2 15 -3v-15h-67v15q14 1 16 3q3 3 3 16v69q0 13 -3 16q-2 2 -15 3v15h68q48 0 48 -36q0 -24 -27 -34q13 -23 33 -46q7 -7 13 -10zM186 538h8q9 0 17 4q11 8 11 20q0 24 -24 24q-12 0 -12 -12v-36z" />
    <glyph glyph-name="minus" unicode="&#x2212;" horiz-adv-x="596" 
d="M67 230v50h486v-50h-486z" />
    <glyph glyph-name="eth" unicode="&#xf0;" horiz-adv-x="466" 
d="M359 590q84 -111 84 -252q0 -186 -112 -285q-75 -65 -157 -65q-62 0 -96 49q-29 42 -29 104q0 95 46 171q39 65 98 98q69 40 125 38q15 0 38 -7q-2 52 -49 122l-144 -77l-15 31l138 73q-46 68 -130 95q0 18 13 27q92 -18 164 -95l125 66l17 -29zM239 34q42 16 80 90
q44 89 43 208q0 44 -18 57q-24 20 -64 20q-26 0 -49 -13q-32 -15 -61 -68q-38 -71 -38 -171q0 -129 81 -129q13 0 26 6z" />
    <glyph glyph-name="multiply" unicode="&#xd7;" horiz-adv-x="596" 
d="M499 9l-195 199l-194 -199l-36 38l193 199l-193 197l36 38l194 -198l195 200l37 -37l-195 -200l195 -199z" />
    <glyph glyph-name="uni00B3" unicode="&#xb3;" horiz-adv-x="326" 
d="M255 607q69 -17 69 -78q0 -70 -85 -113q-48 -26 -90 -26q-48 0 -71 25q-12 12 -6 26q5 15 20 24q11 8 21 -3q39 -34 74 -34q29 0 48 20q21 21 21 55q0 68 -67 68q-20 0 -38 -6l-6 24q110 23 110 81q0 42 -47 42q-40 0 -75 -47l-17 16l31 37q31 37 87 37h1q35 0 60 -19
q26 -20 26 -55q0 -40 -66 -72v-2z" />
    <glyph glyph-name="copyright" unicode="&#xa9;" horiz-adv-x="693" 
d="M587 538q85 -88 85 -216q0 -127 -86 -214q-86 -88 -215 -88t-215 88q-85 87 -85 214q0 128 86 216t215 88q128 0 215 -88zM189 515q-72 -77 -72 -192t72 -192q73 -78 183 -78t182 78q72 77 72 192t-72 192q-73 78 -183 78q-109 0 -182 -78zM524 258q-19 -77 -25 -90
q-57 -19 -106 -19q-91 0 -144 54q-46 48 -46 117q0 80 58 130q55 46 136 46q61 0 105 -17q7 -44 11 -91l-21 -3q-34 82 -101 82q-54 0 -85 -40q-30 -38 -30 -100q0 -66 34 -107q33 -41 83 -41q70 0 109 84z" />
    <glyph glyph-name="Aacute" unicode="&#xc1;" horiz-adv-x="664" 
d="M614 0h-236l7 27q50 5 62 17q10 10 5 44q-2 18 -25 148h-209q-40 -75 -69 -136q-22 -45 -12 -57q9 -11 66 -16l-6 -27h-215l7 27q48 6 65 20q19 15 54 76l300 533l31 8l28 -178q26 -167 64 -372q9 -54 23 -68t67 -19zM381 536h-2l-139 -258h181zM568 747l-187 -63l-13 25
l161 101q9 -2 24 -23q15 -20 17 -32z" />
    <glyph glyph-name="Acircumflex" unicode="&#xc2;" horiz-adv-x="664" 
d="M614 0h-236l7 27q50 5 62 17q10 10 5 44q-2 18 -25 148h-209q-40 -75 -69 -136q-22 -45 -12 -57q9 -11 66 -16l-6 -27h-215l7 27q48 6 65 20q19 15 54 76l300 533l31 8l28 -178q26 -167 64 -372q9 -54 23 -68t67 -19zM381 536h-2l-139 -258h181zM540 684q-47 19 -107 58
q-77 -41 -126 -58l-13 22q71 45 136 104h25q41 -51 103 -104z" />
    <glyph glyph-name="Adieresis" unicode="&#xc4;" horiz-adv-x="664" 
d="M614 0h-236l7 27q50 5 62 17q10 10 5 44q-2 18 -25 148h-209q-40 -75 -69 -136q-22 -45 -12 -57q9 -11 66 -16l-6 -27h-215l7 27q48 6 65 20q19 15 54 76l300 533l31 8l28 -178q26 -167 64 -372q9 -54 23 -68t67 -19zM381 536h-2l-139 -258h181zM378 747q0 -23 -14 -39
q-15 -16 -36 -16q-39 0 -39 41q0 21 13 37q15 19 38 19q38 0 38 -42zM563 747q0 -23 -14 -39q-15 -16 -36 -16q-39 0 -39 41q0 21 13 37q15 19 38 19q38 0 38 -42z" />
    <glyph glyph-name="Agrave" unicode="&#xc0;" horiz-adv-x="664" 
d="M614 0h-236l7 27q50 5 62 17q10 10 5 44q-2 18 -25 148h-209q-40 -75 -69 -136q-22 -45 -12 -57q9 -11 66 -16l-6 -27h-215l7 27q48 6 65 20q19 15 54 76l300 533l31 8l28 -178q26 -167 64 -372q9 -54 23 -68t67 -19zM381 536h-2l-139 -258h181zM457 684l-188 63l-2 8
q13 45 42 56l82 -51l80 -51z" />
    <glyph glyph-name="Aring" unicode="&#xc5;" horiz-adv-x="664" 
d="M613 0h-236l7 27q50 5 62 17q10 10 5 44q-3 23 -11 68l-13 80h-209q-50 -94 -70 -136q-22 -45 -12 -57q9 -11 67 -16l-6 -27h-216l8 27q47 6 64 20q19 15 54 76l300 533l31 8l29 -178q20 -131 63 -372q10 -55 23 -68q14 -14 67 -19zM380 536h-2l-138 -258h180zM490 711
q-27 -23 -65 -23q-35 0 -57 22q-23 22 -22 56q1 41 30 66q26 24 64 24q34 0 57 -22q24 -23 23 -60q-1 -38 -30 -63zM437 824q-44 0 -46 -55q-2 -47 38 -47q44 0 46 54q2 48 -38 48z" />
    <glyph glyph-name="Atilde" unicode="&#xc3;" horiz-adv-x="664" 
d="M614 0h-236l7 27q50 5 62 17q10 10 5 44q-2 18 -25 148h-209q-40 -75 -69 -136q-22 -45 -12 -57q9 -11 66 -16l-6 -27h-215l7 27q48 6 65 20q19 15 54 76l300 533l31 8l28 -178q26 -167 64 -372q9 -54 23 -68t67 -19zM381 536h-2l-139 -258h181zM562 776q-29 -80 -80 -80
q-17 0 -69 23q-28 12 -41 12q-25 0 -47 -44l-24 19q31 78 79 80q21 0 60 -19q34 -16 51 -16q23 0 46 41z" />
    <glyph glyph-name="Ccedilla" unicode="&#xc7;" horiz-adv-x="637" 
d="M338 -14q-119 3 -193 77q-77 77 -77 207q0 172 117 283t300 111q71 0 169 -28l-4 -80q-2 -49 -4 -77l-30 -3q-5 87 -46 123q-36 31 -108 31q-131 0 -216 -107q-81 -102 -81 -247q0 -116 51 -185q52 -71 143 -71q122 0 224 159l26 -12q-35 -94 -76 -157q-101 -22 -159 -24
l-11 -12q-11 -15 -11 -22q0 -8 12 -21q32 -38 31 -68q-3 -67 -125 -101l-10 26q71 31 72 61q1 15 -19 39q-17 19 -18 31q-2 12 13 30z" />
    <glyph glyph-name="Eacute" unicode="&#xc9;" horiz-adv-x="559" 
d="M563 649q-3 -18 -19 -153l-29 -2q0 64 -13 88q-14 33 -97 33h-78q-25 0 -32 -6q-6 -6 -11 -35l-42 -216h97q61 0 79 12q16 11 34 61h29l-37 -190h-29q2 55 -9 66q-12 12 -76 12h-95l-33 -175q-15 -80 4 -96q18 -14 101 -14q95 0 132 34q25 24 67 96l28 -10
q-61 -151 -63 -154h-468l6 27q62 5 77 19q17 14 28 74l80 410q11 60 0 73q-10 14 -72 19l6 27h435zM511 747l-188 -63l-13 25l161 101q9 -2 25 -23q15 -20 17 -32z" />
    <glyph glyph-name="Ecircumflex" unicode="&#xca;" horiz-adv-x="559" 
d="M563 649q-3 -18 -19 -153l-29 -2q0 64 -13 88q-14 33 -97 33h-78q-25 0 -32 -6q-6 -6 -11 -35l-42 -216h97q61 0 79 12q16 11 34 61h29l-37 -190h-29q2 55 -9 66q-12 12 -76 12h-95l-33 -175q-15 -80 4 -96q18 -14 101 -14q95 0 132 34q25 24 67 96l28 -10
q-61 -151 -63 -154h-468l6 27q62 5 77 19q17 14 28 74l80 410q11 60 0 73q-10 14 -72 19l6 27h435zM486 684q-43 18 -107 57q-74 -40 -126 -57l-13 22q80 50 136 104h25q43 -51 104 -104z" />
    <glyph glyph-name="Edieresis" unicode="&#xcb;" horiz-adv-x="559" 
d="M563 649q-3 -18 -19 -153l-29 -2q-2 65 -13 88q-16 33 -97 33h-78q-25 0 -32 -6q-6 -6 -11 -35l-42 -216h96q62 0 80 12q16 11 34 61h29l-37 -190h-29q2 55 -9 66q-12 12 -76 12h-95l-34 -175q-14 -80 5 -96q18 -14 101 -14q95 0 132 34q25 24 67 96l28 -10
q-60 -148 -63 -154h-468l6 27q62 5 77 19q17 14 28 74l80 410q11 60 0 73q-10 14 -72 19l6 27h435zM331 747q0 -23 -14 -39t-36 -16q-39 0 -39 41q0 21 13 37q15 19 39 19q37 0 37 -42zM517 747q0 -23 -14 -39q-15 -16 -36 -16q-40 0 -40 41q0 21 13 37q15 19 39 19
q38 0 38 -42z" />
    <glyph glyph-name="Egrave" unicode="&#xc8;" horiz-adv-x="559" 
d="M563 649q-3 -18 -19 -153l-29 -2q0 64 -13 88q-14 33 -97 33h-78q-25 0 -32 -6q-6 -6 -11 -35l-42 -216h97q61 0 79 12q16 11 34 61h29l-37 -190h-29q2 55 -9 66q-12 12 -76 12h-95l-33 -175q-15 -80 4 -96q18 -14 101 -14q95 0 132 34q25 24 67 96l28 -10
q-61 -151 -63 -154h-468l6 27q62 5 77 19q17 14 28 74l80 410q11 60 0 73q-10 14 -72 19l6 27h435zM425 684l-189 63l-2 8q12 44 42 56l163 -102z" />
    <glyph glyph-name="Iacute" unicode="&#xcd;" horiz-adv-x="335" 
d="M374 622q-59 -5 -73 -18t-25 -68l-80 -420q-11 -58 0 -71t73 -18l-6 -27h-256l7 27q58 4 74 18q14 14 25 71l82 420q10 55 -2 68q-11 13 -74 18l6 27h255zM396 747l-187 -63l-13 25l161 101q9 -2 24 -23q15 -20 17 -32z" />
    <glyph glyph-name="Icircumflex" unicode="&#xce;" horiz-adv-x="335" 
d="M374 622q-59 -5 -73 -18t-25 -68l-80 -420q-11 -58 0 -71t73 -18l-6 -27h-256l7 27q58 4 74 18q14 14 25 71l82 420q10 55 -2 68q-11 13 -74 18l6 27h255zM372 684q-47 19 -107 58q-77 -41 -126 -58l-13 22q71 45 136 104h25q41 -51 103 -104z" />
    <glyph glyph-name="Idieresis" unicode="&#xcf;" horiz-adv-x="335" 
d="M374 622q-59 -5 -73 -18t-25 -68l-80 -420q-11 -58 0 -71t73 -18l-6 -27h-256l7 27q58 4 74 18q14 14 25 71l82 420q10 55 -2 68q-11 13 -74 18l6 27h255zM214 747q0 -23 -14 -39q-15 -16 -36 -16q-39 0 -39 41q0 21 13 37q15 19 38 19q38 0 38 -42zM400 747
q0 -23 -14 -39q-15 -16 -36 -16q-39 0 -39 41q0 21 13 37q15 19 38 19q38 0 38 -42z" />
    <glyph glyph-name="Igrave" unicode="&#xcc;" horiz-adv-x="335" 
d="M374 622q-59 -5 -73 -18t-25 -68l-80 -420q-11 -58 0 -71t73 -18l-6 -27h-256l7 27q58 4 74 18q14 14 25 71l82 420q10 55 -2 68q-11 13 -74 18l6 27h255zM315 684l-188 63l-2 8q13 45 42 56l82 -51l80 -51z" />
    <glyph glyph-name="Ntilde" unicode="&#xd1;" horiz-adv-x="705" 
d="M760 622q-43 -2 -61 -16q-16 -12 -26 -47q-16 -50 -38 -170l-76 -397h-30l-296 530h-3l-52 -266q-23 -115 -26 -169q-1 -34 16 -45q16 -11 69 -16l-6 -26h-229l7 26q72 6 88 59t41 173l52 247q12 56 -6 87q-15 26 -84 30l6 27h143l295 -509h4l46 249q23 120 27 172
q2 34 -15 46q-16 11 -72 15l7 27h225zM576 771q-29 -80 -80 -80q-18 0 -68 23q-28 12 -41 12q-25 0 -48 -44l-24 18q31 80 80 80q19 0 59 -18q37 -16 51 -16q23 0 46 41z" />
    <glyph glyph-name="Oacute" unicode="&#xd3;" horiz-adv-x="708" 
d="M623 584q73 -79 73 -206q0 -162 -103 -276q-105 -117 -262 -117q-118 0 -191 79q-74 78 -74 205q0 160 104 276q106 119 260 119q119 0 193 -80zM233 511q-72 -111 -72 -251q0 -107 43 -171q48 -70 136 -70q117 0 193 123q68 109 68 246q0 108 -40 171q-46 71 -139 71
q-112 0 -189 -119zM556 756l-187 -63l-13 25l161 101q9 -2 24 -23q15 -20 17 -32z" />
    <glyph glyph-name="Ocircumflex" unicode="&#xd4;" horiz-adv-x="708" 
d="M623 584q73 -79 73 -206q0 -162 -103 -276q-105 -117 -262 -117q-118 0 -191 79q-74 78 -74 205q0 160 104 276q106 119 260 119q119 0 193 -80zM233 511q-72 -111 -72 -251q0 -107 43 -171q48 -70 136 -70q117 0 193 123q68 109 68 246q0 108 -40 171q-46 71 -139 71
q-112 0 -189 -119zM546 693q-47 19 -107 58q-77 -41 -126 -58l-13 22q71 45 136 104h25q41 -51 103 -104z" />
    <glyph glyph-name="Odieresis" unicode="&#xd6;" horiz-adv-x="708" 
d="M623 584q73 -79 73 -206q0 -162 -103 -276q-105 -117 -262 -117q-118 0 -191 79q-74 78 -74 205q0 160 104 276q106 119 259 119q120 0 194 -80zM233 511q-72 -111 -72 -251q0 -107 43 -171q48 -70 136 -70q117 0 193 123q68 109 68 246q0 108 -40 171q-46 71 -139 71
q-112 0 -189 -119zM388 756q0 -23 -14 -39q-15 -16 -36 -16q-39 0 -39 41q0 21 13 37q14 19 38 19q38 0 38 -42zM574 756q0 -23 -14 -39q-15 -16 -36 -16q-39 0 -39 41q0 21 13 37q15 19 38 19q38 0 38 -42z" />
    <glyph glyph-name="Ograve" unicode="&#xd2;" horiz-adv-x="708" 
d="M623 584q73 -79 73 -206q0 -162 -103 -276q-105 -117 -262 -117q-118 0 -191 79q-74 78 -74 205q0 160 104 276q106 119 260 119q119 0 193 -80zM233 511q-72 -111 -72 -251q0 -107 43 -171q48 -70 136 -70q117 0 193 123q68 109 68 246q0 108 -40 171q-46 71 -139 71
q-112 0 -189 -119zM502 693l-188 63l-2 8q13 45 42 56l82 -51l80 -51z" />
    <glyph glyph-name="Otilde" unicode="&#xd5;" horiz-adv-x="708" 
d="M623 584q73 -79 73 -206q0 -162 -103 -276q-105 -117 -262 -117q-118 0 -191 79q-74 78 -74 205q0 160 104 276q106 119 260 119q119 0 193 -80zM233 511q-72 -111 -72 -251q0 -107 43 -171q48 -70 136 -70q117 0 193 123q68 109 68 246q0 108 -40 171q-46 71 -139 71
q-112 0 -189 -119zM571 785q-29 -80 -80 -80q-18 0 -68 23q-28 12 -41 12q-26 0 -48 -44l-24 18q33 81 80 79q19 0 60 -17q37 -16 51 -16q23 0 46 41z" />
    <glyph glyph-name="Scaron" unicode="&#x160;" horiz-adv-x="468" 
d="M65 198q9 -71 43 -118q44 -62 118 -62q54 0 88 35t34 94q0 69 -94 142l-29 22q-111 89 -111 174q0 78 56 129q57 50 147 50q51 0 96 -17q-9 4 43 -16l-3 -139l-29 -3q-15 143 -120 142q-51 0 -82 -35q-30 -33 -30 -81q0 -66 93 -134l30 -23q116 -87 116 -183
q0 -84 -66 -138q-62 -52 -152 -52q-118 0 -172 61l-3 149zM456 806q-81 -54 -136 -104h-24q-40 49 -104 105l19 21q48 -20 106 -58q73 39 126 58z" />
    <glyph glyph-name="Uacute" unicode="&#xda;" horiz-adv-x="707" 
d="M767 622q-47 -2 -65 -15q-15 -10 -23 -39q-16 -56 -40 -180l-16 -77q-36 -185 -118 -261q-71 -65 -170 -65q-96 0 -154 54q-76 73 -45 242l48 252q11 57 1 71q-10 13 -70 18l7 27h247l-6 -27q-58 -5 -71 -17q-15 -13 -26 -72l-46 -245q-25 -129 19 -194q37 -57 118 -57
q90 0 144 68q54 67 83 213l14 70q24 127 26 180q2 30 -15 41q-17 10 -72 13l6 27h230zM595 747l-187 -63l-13 25l161 101q9 -2 24 -23q15 -20 17 -32z" />
    <glyph glyph-name="Ucircumflex" unicode="&#xdb;" horiz-adv-x="707" 
d="M767 622q-47 -2 -65 -15q-15 -10 -23 -39q-16 -56 -40 -180l-16 -77q-36 -185 -118 -261q-71 -65 -170 -65q-96 0 -154 54q-76 73 -45 242l48 252q11 57 1 71q-10 13 -70 18l7 27h247l-6 -27q-58 -5 -71 -17q-15 -13 -26 -72l-46 -245q-25 -129 19 -194q37 -57 118 -57
q90 0 144 68q54 67 83 213l14 70q24 127 26 180q2 30 -15 41q-17 10 -72 13l6 27h230zM571 687q-47 19 -107 58q-77 -41 -126 -58l-13 22q71 45 136 104h25q41 -51 103 -104z" />
    <glyph glyph-name="Udieresis" unicode="&#xdc;" horiz-adv-x="707" 
d="M767 622q-47 -2 -65 -15q-15 -10 -23 -39q-16 -56 -40 -180l-16 -77q-36 -185 -118 -261q-71 -65 -170 -65q-96 0 -154 54q-76 73 -45 242l48 252q11 57 1 71q-10 13 -70 18l7 27h247l-6 -27q-58 -5 -71 -17q-15 -13 -26 -72l-46 -245q-25 -129 19 -194q37 -57 118 -57
q90 0 144 68q54 67 83 213l14 70q24 127 26 180q2 30 -15 41q-17 10 -72 13l6 27h230zM409 747q0 -23 -14 -39q-15 -16 -36 -16q-39 0 -39 41q0 21 13 37q15 19 38 19q38 0 38 -42zM595 747q0 -23 -14 -39q-15 -16 -36 -16q-39 0 -39 41q0 21 13 37q15 19 38 19q38 0 38 -42
z" />
    <glyph glyph-name="Ugrave" unicode="&#xd9;" horiz-adv-x="707" 
d="M767 622q-47 -2 -65 -15q-15 -10 -23 -39q-16 -56 -40 -180l-16 -77q-36 -185 -118 -261q-71 -65 -170 -65q-96 0 -154 54q-76 73 -45 242l48 252q11 57 1 71q-10 13 -70 18l7 27h247l-6 -27q-58 -5 -71 -17q-15 -13 -26 -72l-46 -245q-25 -129 19 -194q37 -57 118 -57
q90 0 144 68q54 67 83 213l14 70q24 127 26 180q2 30 -15 41q-17 10 -72 13l6 27h230zM509 684l-188 63l-2 8q13 45 42 56l82 -51l80 -51z" />
    <glyph glyph-name="Yacute" unicode="&#xdd;" horiz-adv-x="611" 
d="M679 622q-49 -5 -68 -16q-20 -12 -58 -59q-58 -74 -164 -226q-19 -25 -24 -56l-28 -141q-13 -63 0 -77q12 -14 80 -20l-7 -27h-267l7 27q62 5 77 19q16 14 28 78l27 135q6 30 -5 59l-89 234q-17 44 -31 54q-14 11 -62 16l7 27h231l-5 -27l-35 -5q-25 -3 -30 -11
q-5 -7 2 -30q56 -155 92 -241q125 176 160 235q15 26 10 35t-33 13l-31 4l7 27h216zM535 746l-187 -63l-13 25l161 101q9 -2 24 -23q15 -20 18 -32z" />
    <glyph glyph-name="Ydieresis" unicode="&#x178;" horiz-adv-x="611" 
d="M679 622q-49 -5 -68 -16q-21 -13 -58 -59q-58 -74 -164 -226q-18 -22 -25 -56l-28 -141q-12 -63 1 -77q12 -14 80 -20l-7 -27h-267l7 27q62 5 77 19t28 78l27 135q5 28 -5 59l-89 234q-17 44 -31 54q-14 11 -62 16l7 27h231l-6 -27l-35 -5q-26 -3 -30 -11q-5 -8 3 -30
q54 -151 91 -241q119 164 161 235q15 25 10 35q-5 9 -33 13l-31 4l7 27h216zM359 747q0 -22 -14 -38q-15 -16 -36 -16q-39 0 -39 41q0 21 13 37q14 19 38 19q38 0 38 -43zM545 747q0 -22 -14 -38q-15 -16 -36 -16q-39 0 -39 41q0 21 13 37q14 19 38 19q38 0 38 -43z" />
    <glyph glyph-name="Zcaron" unicode="&#x17d;" horiz-adv-x="588" 
d="M617 636l-491 -596q60 -6 155 -6q148 0 184 31q32 27 74 111l28 -12q-42 -125 -60 -164h-499l-7 15l496 600h-158q-110 0 -138 -35q-24 -30 -50 -95l-29 3q24 87 41 186h21q13 -25 50 -25h377zM524 791q-75 -48 -136 -104h-25q-43 52 -103 105l19 21q46 -20 106 -58
q75 40 125 58z" />
    <glyph glyph-name="aacute" unicode="&#xe1;" horiz-adv-x="490" 
d="M466 92q-85 -104 -147 -104q-35 0 -17 88l20 95h-3q-52 -75 -129 -138q-55 -45 -93 -45q-22 0 -39 26q-19 31 -19 86q0 172 120 272q94 77 187 77q27 0 62 -8q26 -6 38 -6l2 -4q-34 -132 -69 -325q-8 -43 2 -43q18 0 73 53zM244 124q65 70 91 124q16 51 33 143
q-28 14 -66 14q-43 0 -72 -21q-49 -36 -79 -115q-29 -73 -29 -151q0 -66 27 -66q28 0 95 72zM296 491l-23 15q61 97 92 157q54 15 83 9l3 -11z" />
    <glyph glyph-name="acircumflex" unicode="&#xe2;" horiz-adv-x="490" 
d="M466 92q-85 -104 -147 -104q-35 0 -17 88l20 95h-3q-52 -75 -129 -138q-55 -45 -93 -45q-22 0 -39 26q-19 31 -19 86q0 172 120 272q94 77 187 77q27 0 62 -8q26 -6 38 -6l2 -4q-34 -132 -69 -325q-8 -43 2 -43q18 0 73 53zM244 124q65 70 91 124q16 51 33 143
q-28 14 -66 14q-43 0 -72 -21q-49 -36 -79 -115q-29 -73 -29 -151q0 -66 27 -66q28 0 95 72zM397 488q-32 37 -71 96q-59 -59 -108 -96l-20 17q85 98 130 163h22q25 -77 70 -163z" />
    <glyph glyph-name="adieresis" unicode="&#xe4;" horiz-adv-x="490" 
d="M466 92q-85 -104 -147 -104q-35 0 -17 88l20 95h-3q-52 -75 -129 -138q-55 -45 -93 -45q-22 0 -39 26q-19 31 -19 86q0 172 120 272q94 77 187 77q27 0 62 -8q26 -6 38 -6l2 -4q-34 -132 -69 -325q-8 -43 2 -43q18 0 73 53zM244 124q65 70 91 124q16 51 33 143
q-28 14 -66 14q-43 0 -72 -21q-49 -36 -79 -115q-29 -73 -29 -151q0 -66 27 -66q28 0 95 72zM284 588q0 -23 -14 -39t-36 -16q-39 0 -39 41q0 21 13 37q15 19 39 19q37 0 37 -42zM460 588q0 -23 -14 -39q-15 -16 -36 -16q-39 0 -39 41q0 21 13 37q15 19 38 19q38 0 38 -42z
" />
    <glyph glyph-name="agrave" unicode="&#xe0;" horiz-adv-x="490" 
d="M466 92q-85 -104 -147 -104q-35 0 -17 88l20 95h-3q-52 -75 -129 -138q-55 -45 -93 -45q-22 0 -39 26q-19 31 -19 86q0 172 120 272q94 77 187 77q27 0 62 -8q26 -6 38 -6l2 -4q-34 -132 -69 -325q-8 -43 2 -43q18 0 73 53zM244 124q65 70 91 124q16 51 33 143
q-28 14 -66 14q-43 0 -72 -21q-49 -36 -79 -115q-29 -73 -29 -151q0 -66 27 -66q28 0 95 72zM334 490q-58 113 -89 165l3 9q42 16 73 12l42 -176z" />
    <glyph glyph-name="aring" unicode="&#xe5;" horiz-adv-x="490" 
d="M466 92q-85 -104 -147 -104q-35 0 -17 88l20 95h-3q-52 -75 -129 -138q-55 -45 -93 -45q-22 0 -39 26q-19 31 -19 86q0 172 120 272q94 77 187 77q27 0 62 -8q26 -6 38 -6l2 -4q-34 -132 -69 -325q-8 -43 2 -43q18 0 73 53zM244 124q65 70 91 124q16 51 33 143
q-28 14 -66 14q-43 0 -72 -21q-49 -36 -79 -115q-29 -73 -29 -151q0 -66 27 -66q28 0 95 72zM390 642q24 -24 23 -63t-31 -63q-28 -23 -67 -23q-37 0 -60 22q-22 23 -21 58q1 41 31 67q28 24 67 24q35 0 58 -22zM294 616q-13 -16 -14 -40q-2 -50 39 -50q20 0 33 16
q14 15 15 39q2 50 -41 50q-18 0 -32 -15z" />
    <glyph glyph-name="atilde" unicode="&#xe3;" horiz-adv-x="490" 
d="M466 92q-85 -104 -147 -104q-35 0 -17 88l20 95h-3q-52 -75 -129 -138q-55 -45 -93 -45q-22 0 -39 26q-19 31 -19 86q0 172 120 272q94 77 187 77q27 0 62 -8q26 -6 38 -6l2 -4q-34 -132 -69 -325q-8 -43 2 -43q18 0 73 53zM244 124q65 70 91 124q16 51 33 143
q-28 14 -66 14q-43 0 -72 -21q-49 -36 -79 -115q-29 -73 -29 -151q0 -66 27 -66q28 0 95 72zM452 608q-32 -85 -80 -85q-16 0 -68 23q-24 12 -42 12q-24 0 -47 -44l-23 15q33 84 80 84q19 0 58 -18q37 -16 53 -16q22 0 46 41z" />
    <glyph glyph-name="ccedilla" unicode="&#xe7;" horiz-adv-x="381" 
d="M351 99q-66 -73 -143 -99l-20 -25q-16 -22 2 -44q33 -38 32 -68q-3 -65 -125 -102l-10 25q71 32 72 63q1 16 -20 39q-17 19 -18 31t13 30l32 41q-57 -7 -90 31t-33 109q0 154 105 246q85 73 166 73q30 0 52 -16q22 -15 22 -33q0 -23 -28 -43q-18 -12 -30 4q-27 40 -72 40
q-52 0 -86 -63q-46 -84 -46 -184q-2 -106 70 -106q58 0 139 73z" />
    <glyph glyph-name="eacute" unicode="&#xe9;" 
d="M365 101q-105 -113 -210 -113q-111 0 -111 146q0 166 121 258q73 57 138 57q39 0 63 -24q24 -23 24 -56q0 -112 -264 -177q-1 -13 -1 -32q0 -113 77 -113q67 0 147 77zM224 396q-73 -45 -94 -174q186 51 186 131q0 54 -50 54q-25 0 -42 -11zM258 491l-23 16q58 91 92 156
q54 15 83 9l3 -11z" />
    <glyph glyph-name="ecircumflex" unicode="&#xea;" 
d="M365 101q-105 -113 -210 -113q-111 0 -111 146q0 166 121 258q73 57 138 57q39 0 63 -24q24 -23 24 -56q0 -112 -264 -177q-1 -13 -1 -32q0 -113 77 -113q67 0 147 77zM224 396q-73 -45 -94 -174q186 51 186 131q0 54 -50 54q-25 0 -42 -11zM354 488q-32 37 -71 96
q-59 -59 -108 -96l-20 17q85 98 130 163h22q25 -77 70 -163z" />
    <glyph glyph-name="edieresis" unicode="&#xeb;" 
d="M365 101q-106 -113 -210 -113q-111 0 -111 146q0 166 120 258q73 57 139 57q39 0 63 -24q24 -23 24 -56q0 -111 -264 -177q-1 -13 -1 -32q0 -113 76 -113q68 0 147 77zM223 396q-73 -45 -93 -174q186 51 186 131q0 54 -51 54q-25 0 -42 -11zM238 588q0 -23 -14 -39
t-36 -16q-39 0 -39 41q0 21 13 37q15 19 39 19q37 0 37 -42zM415 588q0 -23 -14 -39q-15 -16 -36 -16q-39 0 -39 41q0 21 13 37q15 19 38 19q38 0 38 -42z" />
    <glyph glyph-name="egrave" unicode="&#xe8;" 
d="M365 101q-105 -113 -210 -113q-111 0 -111 146q0 166 121 258q73 57 138 57q39 0 63 -24q24 -23 24 -56q0 -112 -264 -177q-1 -13 -1 -32q0 -113 77 -113q67 0 147 77zM224 396q-73 -45 -94 -174q186 51 186 131q0 54 -50 54q-25 0 -42 -11zM287 490q-63 120 -89 164l3 9
q34 17 73 12l42 -176z" />
    <glyph glyph-name="iacute" unicode="&#xed;" horiz-adv-x="274" 
d="M237 88q-83 -100 -146 -100q-37 0 -13 98l62 256q8 29 -1 32q-16 0 -68 -43l-12 23q97 95 151 95q30 0 10 -79l-68 -276q-8 -32 2 -32q17 0 71 47zM180 490l-23 16q58 91 92 156q42 15 83 10l3 -12z" />
    <glyph glyph-name="icircumflex" unicode="&#xee;" horiz-adv-x="274" 
d="M237 88q-83 -100 -146 -100q-37 0 -13 98l62 256q8 29 -1 32q-16 0 -68 -43l-12 23q97 95 151 95q30 0 10 -79l-68 -276q-8 -32 2 -32q17 0 71 47zM277 488q-26 30 -71 96q-63 -61 -109 -96l-19 18q84 97 130 162h22q25 -77 70 -163z" />
    <glyph glyph-name="idieresis" unicode="&#xef;" horiz-adv-x="274" 
d="M237 88q-27 -33 -73 -65q-49 -35 -73 -35q-37 0 -13 98l62 256q8 29 -1 32q-16 0 -68 -43l-12 23q97 95 151 95q30 0 10 -79l-68 -276q-8 -32 2 -32q17 0 71 47zM167 588q0 -23 -14 -39q-15 -16 -36 -16q-39 0 -39 41q0 21 13 37q14 19 38 19q38 0 38 -42zM342 588
q0 -23 -14 -39t-36 -16q-39 0 -39 41q0 21 13 37q15 19 39 19q37 0 37 -42z" />
    <glyph glyph-name="igrave" unicode="&#xec;" horiz-adv-x="274" 
d="M237 88q-83 -100 -146 -100q-37 0 -13 98l62 256q8 29 -1 32q-16 0 -68 -43l-12 23q97 95 151 95q30 0 10 -79l-68 -276q-8 -32 2 -32q17 0 71 47zM200 490q-63 120 -89 165l3 8q37 19 73 12l42 -176z" />
    <glyph glyph-name="ntilde" unicode="&#xf1;" horiz-adv-x="532" 
d="M495 85q-88 -97 -141 -97q-41 0 -15 104l52 222q17 71 -7 71q-32 0 -103 -72q-68 -69 -107 -136q-29 -119 -39 -169q-43 -8 -72 -19l-6 7q46 178 82 339q9 40 -2 40q-17 0 -64 -45l-14 24q90 95 141 95q34 0 8 -111l-21 -87h2q88 120 184 175q37 23 66 23q57 0 23 -143
l-49 -207q-8 -36 2 -36q19 0 65 46zM463 607q-34 -85 -81 -85q-15 0 -67 24q-26 12 -42 12q-24 0 -48 -44l-22 15q32 84 80 84q17 0 58 -17q36 -17 52 -17q21 0 46 41z" />
    <glyph glyph-name="oacute" unicode="&#xf3;" horiz-adv-x="470" 
d="M76 36q-30 41 -30 107q0 93 45 169q41 70 107 104q59 33 109 33q62 0 97 -41t35 -115q0 -153 -107 -242q-75 -63 -154 -63q-67 0 -102 48zM247 34q42 18 74 89q35 76 34 168q0 119 -81 119q-20 0 -38 -8q-37 -17 -68 -76q-38 -74 -38 -177q0 -56 22 -88q23 -33 62 -33
q17 0 33 6zM268 491l-23 16q58 91 92 156q54 15 83 9l3 -11z" />
    <glyph glyph-name="ocircumflex" unicode="&#xf4;" horiz-adv-x="470" 
d="M76 36q-30 41 -30 107q0 93 45 169q41 70 107 104q59 33 109 33q62 0 97 -41t35 -115q0 -153 -107 -242q-75 -63 -154 -63q-67 0 -102 48zM247 34q42 18 74 89q35 76 34 168q0 119 -81 119q-20 0 -38 -8q-37 -17 -68 -76q-38 -74 -38 -177q0 -56 22 -88q23 -33 62 -33
q17 0 33 6zM383 488q-32 37 -71 96q-59 -59 -108 -96l-20 17q85 98 130 163h22q25 -77 70 -163z" />
    <glyph glyph-name="odieresis" unicode="&#xf6;" horiz-adv-x="470" 
d="M76 36q-30 41 -30 107q0 93 45 169q41 70 106 104q61 33 109 33q63 0 98 -41t35 -115q0 -153 -107 -242q-75 -63 -154 -63q-67 0 -102 48zM246 34q43 18 75 89q35 76 34 168q0 119 -81 119q-20 0 -38 -8q-37 -17 -68 -76q-38 -74 -38 -177q0 -56 22 -88q23 -33 62 -33
q17 0 32 6zM266 588q0 -23 -14 -39q-15 -16 -36 -16q-39 0 -39 41q0 21 13 37q15 19 39 19q37 0 37 -42zM443 588q0 -23 -14 -39q-15 -16 -37 -16q-39 0 -39 41q0 21 13 37q15 19 39 19q38 0 38 -42z" />
    <glyph glyph-name="ograve" unicode="&#xf2;" horiz-adv-x="470" 
d="M76 36q-30 41 -30 107q0 93 45 169q41 70 107 104q59 33 109 33q62 0 97 -41t35 -115q0 -153 -107 -242q-75 -63 -154 -63q-67 0 -102 48zM247 34q42 18 74 89q35 76 34 168q0 119 -81 119q-20 0 -38 -8q-37 -17 -68 -76q-38 -74 -38 -177q0 -56 22 -88q23 -33 62 -33
q17 0 33 6zM307 490q-63 120 -89 164l3 9q34 17 73 12l42 -176z" />
    <glyph glyph-name="otilde" unicode="&#xf5;" horiz-adv-x="470" 
d="M76 36q-30 41 -30 107q0 93 45 169q41 70 107 104q59 33 109 33q62 0 97 -41t35 -115q0 -153 -107 -242q-75 -63 -154 -63q-67 0 -102 48zM247 34q42 18 74 89q35 76 34 168q0 119 -81 119q-20 0 -38 -8q-37 -17 -68 -76q-38 -74 -38 -177q0 -56 22 -88q23 -33 62 -33
q17 0 33 6zM436 608q-33 -85 -80 -85q-12 0 -68 23q-24 11 -42 11q-24 0 -48 -43l-22 16q32 83 80 83q18 0 58 -18q36 -17 53 -17q20 0 45 41z" />
    <glyph glyph-name="scaron" unicode="&#x161;" horiz-adv-x="337" 
d="M45 11q-33 23 -33 49q-1 24 29 42q17 8 25 -3q41 -61 96 -61q29 0 49 18q18 17 18 42q0 39 -59 84q-87 66 -87 122q0 52 52 96q56 49 112 49q31 0 55 -18q22 -18 22 -38q0 -25 -25 -42q-13 -9 -22 5q-36 45 -78 45q-22 0 -38 -15q-16 -16 -16 -41q0 -39 66 -89
q83 -63 83 -117q0 -56 -60 -104q-59 -47 -121 -47q-36 0 -68 23zM371 654q-82 -92 -130 -162h-22q-24 76 -71 163l25 17q39 -47 69 -96q67 65 107 96z" />
    <glyph glyph-name="uacute" unicode="&#xfa;" horiz-adv-x="533" 
d="M505 90q-84 -102 -145 -102q-39 0 -15 106q7 30 19 88h-2q-78 -105 -161 -163q-43 -31 -81 -31q-63 0 -34 127l55 230q8 31 -3 33q-14 0 -70 -48l-11 25q94 94 147 94q18 0 20 -18q3 -20 -9 -69l-55 -240q-15 -66 13 -66q38 0 109 76q62 67 97 131q20 83 36 160l69 26h11
q-49 -194 -79 -348q-6 -40 4 -40q20 0 72 52zM311 490l-23 16q58 91 92 156q42 15 82 10l3 -12z" />
    <glyph glyph-name="ucircumflex" unicode="&#xfb;" horiz-adv-x="533" 
d="M505 90q-84 -102 -145 -102q-39 0 -15 106q7 30 19 88h-2q-78 -105 -161 -163q-43 -31 -81 -31q-63 0 -34 127l55 230q8 31 -3 33q-14 0 -70 -48l-11 25q94 94 147 94q18 0 20 -18q3 -20 -9 -69l-55 -240q-15 -66 13 -66q38 0 109 76q62 67 97 131q20 83 36 160l69 26h11
q-49 -194 -79 -348q-6 -40 4 -40q20 0 72 52zM413 488q-26 30 -71 96q-63 -61 -108 -96l-20 18q84 97 130 162h22q25 -77 70 -163z" />
    <glyph glyph-name="udieresis" unicode="&#xfc;" horiz-adv-x="533" 
d="M505 90q-86 -102 -145 -102q-39 0 -15 106q7 30 19 88h-2q-78 -105 -161 -163q-42 -31 -81 -31q-63 0 -34 127l55 230q8 31 -3 33q-14 0 -70 -48l-11 25q94 94 148 94q17 0 19 -18q3 -20 -8 -69l-56 -240q-15 -66 13 -66q38 0 109 76q62 67 97 131q20 83 36 160l69 26h11
q-49 -194 -79 -348q-6 -40 4 -40q20 0 72 52zM298 588q0 -22 -14 -38t-35 -16q-40 0 -40 41q0 20 13 37q15 18 39 18q37 0 37 -42zM473 588q0 -22 -14 -38t-35 -16q-39 0 -39 41q0 20 13 37q14 18 38 18q37 0 37 -42z" />
    <glyph glyph-name="ugrave" unicode="&#xf9;" horiz-adv-x="533" 
d="M505 90q-84 -102 -145 -102q-39 0 -15 106q7 30 19 88h-2q-78 -105 -161 -163q-43 -31 -81 -31q-63 0 -34 127l55 230q8 31 -3 33q-14 0 -70 -48l-11 25q94 94 147 94q18 0 20 -18q3 -20 -9 -69l-55 -240q-15 -66 13 -66q38 0 109 76q62 67 97 131q20 83 36 160l69 26h11
q-49 -194 -79 -348q-6 -40 4 -40q20 0 72 52zM333 490q-63 120 -89 165l4 8q34 19 72 12l42 -176z" />
    <glyph glyph-name="yacute" unicode="&#xfd;" horiz-adv-x="442" 
d="M241 75q135 207 135 275q-1 21 -12 47q-5 12 2 24q12 28 42 28q38 0 40 -55q0 -43 -36 -106q-75 -136 -181 -283q-107 -154 -180 -235l-104 -27l-8 22q134 87 235 224q-2 133 -31 326q-7 62 -21 62q-17 0 -58 -58l-17 23q70 107 118 107q39 0 52 -118q11 -95 22 -256h2z
M277 490l-23 16q58 91 92 156q42 15 83 10l3 -12z" />
    <glyph glyph-name="ydieresis" unicode="&#xff;" horiz-adv-x="442" 
d="M241 75q135 207 135 275q-1 21 -12 47q-5 12 2 24q12 28 42 28q38 0 40 -55q0 -43 -36 -106q-75 -136 -181 -283q-107 -154 -180 -235l-104 -27l-8 22q135 90 235 224q-2 136 -31 326q-7 62 -21 62q-17 0 -58 -58l-17 22q69 108 118 108q39 0 52 -118q11 -95 22 -256h2z
M256 588q0 -23 -14 -39q-15 -16 -36 -16q-39 0 -39 41q0 21 13 37q15 19 39 19q37 0 37 -42zM431 588q0 -23 -14 -39q-15 -16 -36 -16q-39 0 -39 41q0 21 13 37q15 19 39 19q37 0 37 -42z" />
    <glyph glyph-name="zcaron" unicode="&#x17e;" horiz-adv-x="418" 
d="M441 442q-17 -21 -58 -68q-14 -16 -270 -282q27 3 76 -16q68 -24 90 -24q46 0 102 86l22 -19q-69 -139 -138 -139q-37 0 -133 49q-43 20 -63 5q-17 -11 -31 -35q-5 -8 -12 -8q-24 37 35 100l130 133q99 99 148 152q-27 -5 -61 -2q-78 6 -95 6q-50 0 -99 -86l-25 13
q19 44 40 80q37 59 74 59q33 0 106 -12q51 -9 80 -9q27 0 61 38zM406 653q-76 -84 -130 -161h-22q-25 72 -71 162l25 17q31 -37 69 -95q67 65 106 95z" />
    <glyph glyph-name="twodotenleader" unicode="&#x2025;" horiz-adv-x="500" 
d="M39 41q0 28 17 45q16 18 42 18q22 0 36 -15q14 -16 14 -39q0 -28 -18 -46q-17 -16 -41 -16q-50 0 -50 53zM288 41q0 28 17 45q16 18 42 18q22 0 36 -15q14 -16 14 -39q0 -28 -18 -46q-17 -16 -41 -16q-50 0 -50 53z" />
    <glyph glyph-name="onedotenleader" unicode="&#x2024;" horiz-adv-x="500" 
d="M164 41q0 28 17 45q16 18 42 18q22 0 36 -15q14 -16 14 -39q0 -29 -18 -46q-16 -16 -41 -16q-50 0 -50 53z" />
    <glyph glyph-name="colonmonetary" unicode="&#x20a1;" horiz-adv-x="477" 
d="M454 615q12 -3 52 -16q-6 -79 -14 -123l-26 -2q2 76 -27 99l-189 -538q5 -1 10 -1q66 1 146 115l23 -13q-32 -75 -61 -113q-60 -22 -116 -22h-14l-24 -67h-31l25 70q-19 3 -43 15l-31 -85h-30l35 99q-86 57 -84 199q1 154 90 266q84 106 201 121l25 68h30l-22 -65
q20 1 46 -2l24 67h30zM413 585q-19 6 -34 6q-8 0 -12 -1l-187 -529q19 -17 40 -22zM335 585q-67 -15 -125 -105q-74 -113 -73 -277q0 -64 22 -116z" />
    <glyph glyph-name="figuredash" unicode="&#x2012;" horiz-adv-x="477" 
d="M423 289h-341l12 56h340z" />
    <glyph glyph-name="oneeighth" unicode="&#x215b;" horiz-adv-x="740" 
d="M143 -27l-27 24l502 657l28 -23zM261 277h-191l6 23q39 4 51 12q13 10 20 45l35 181q6 29 1 36q-4 6 -29 8l-28 2l5 22q55 6 134 29l-54 -278q-7 -36 4 -45q8 -7 51 -12zM454 15q-37 26 -37 69q0 37 38 65q12 10 54 32q-49 31 -49 75q0 42 39 72q37 29 84 29q40 0 68 -21
q32 -24 32 -64q0 -31 -26 -51q-12 -10 -45 -31q60 -40 60 -89t-45 -80q-41 -29 -97 -29q-44 0 -76 23zM532 313q-15 -16 -15 -38q0 -31 71 -74q40 27 40 69q0 60 -56 60q-24 0 -40 -17zM587 36q21 19 21 48q0 37 -77 84q-58 -31 -58 -81q0 -30 21 -50q19 -18 46 -18t47 17z
" />
    <glyph glyph-name="threeeighths" unicode="&#x215c;" horiz-adv-x="740" 
d="M143 -27l-27 24l503 657l27 -23zM118 561l30 37q33 37 88 37h1q35 0 59 -19q27 -20 27 -55q0 -40 -66 -72v-2q69 -17 69 -78q0 -68 -83 -111q-51 -27 -93 -27q-49 0 -71 24q-11 10 -6 26q6 16 21 25q11 7 21 -4q38 -33 73 -33q29 0 49 20q21 21 21 55q0 68 -68 68
q-18 0 -37 -7l-6 24q110 23 110 81q0 42 -47 42q-40 0 -75 -47zM450 15q-37 26 -37 69q0 36 38 65q10 8 53 32q-48 32 -48 75t39 73q37 28 85 28q39 0 68 -21q31 -24 31 -63q0 -32 -26 -53l-45 -31q60 -40 60 -88q0 -49 -44 -80q-42 -29 -98 -29q-44 0 -76 23zM528 314
q-15 -16 -15 -38q0 -35 72 -74q39 25 39 68q0 60 -56 60q-24 0 -40 -16zM583 37q21 18 21 47q0 38 -77 83q-58 -30 -58 -80q0 -30 21 -49q20 -18 46 -18q27 0 47 17z" />
    <glyph glyph-name="fiveeighths" unicode="&#x215d;" horiz-adv-x="740" 
d="M146 -27l-27 24l502 657l28 -23zM326 578h-145l-29 -86q44 14 69 14q42 0 72 -23q32 -26 32 -71q0 -65 -77 -110q-51 -31 -101 -31q-47 0 -68 23q-13 13 -8 26q6 16 19 23q11 8 21 0q35 -33 78 -33q28 0 48 20q24 22 24 62q0 73 -80 73q-36 0 -71 -13l51 177h186zM452 15
q-37 26 -37 69q0 37 38 65q12 10 54 32q-49 31 -49 75q0 43 39 73q36 28 84 28q40 0 68 -21q32 -23 32 -63q0 -32 -26 -52q-17 -14 -45 -31q60 -40 60 -89t-45 -80q-41 -29 -97 -29q-44 0 -76 23zM530 314q-15 -16 -15 -38q0 -35 72 -74q39 25 39 68q0 60 -56 60
q-24 0 -40 -16zM585 37q21 18 21 47q0 39 -77 84q-58 -31 -58 -80q0 -31 21 -50q20 -18 46 -18q27 0 47 17z" />
    <glyph glyph-name="seveneighths" unicode="&#x215e;" horiz-adv-x="740" 
d="M121 -27l-27 24l503 657l27 -23zM132 541q7 19 16 49l13 39h234l6 -8q-186 -289 -220 -346l-57 -5l-4 10q115 143 219 299h-128q-30 0 -43 -20l-12 -20zM444 15q-37 26 -37 69q0 37 38 65q10 8 53 32q-48 32 -48 75t38 73q37 28 86 28q39 0 68 -21q31 -24 31 -63
q0 -32 -26 -53q-26 -19 -45 -30q60 -42 60 -89q0 -49 -44 -80q-42 -29 -98 -29q-44 0 -76 23zM522 314q-15 -16 -15 -38q0 -35 72 -74q39 25 39 68q0 60 -56 60q-24 0 -40 -16zM531 20q27 0 46 17q21 18 21 47q0 40 -77 83q-58 -30 -58 -80q0 -30 21 -49q19 -18 45 -18h2z
" />
    <glyph glyph-name="onethird" unicode="&#x2153;" horiz-adv-x="740" 
d="M149 -26l-26 24l502 656l28 -23zM264 277h-191l6 23q40 4 51 12q14 10 20 45l35 181q6 29 1 36q-4 6 -29 8l-28 2l6 22q54 6 133 29l-54 -278q-7 -36 4 -45q8 -7 52 -12zM467 284l30 37q34 36 88 36h1q35 0 59 -18q27 -21 27 -55q0 -42 -67 -73v-2q69 -15 69 -77
q0 -71 -82 -113q-49 -26 -93 -26q-49 0 -71 24q-11 13 -7 26q7 17 21 25q11 8 21 -3q40 -35 75 -35q28 0 48 20q20 21 20 56q0 68 -67 68q-22 0 -38 -7l-5 24q110 24 110 82q0 42 -47 42q-40 0 -75 -48z" />
    <glyph glyph-name="twothirds" unicode="&#x2154;" horiz-adv-x="740" 
d="M171 -26l-27 24l503 656l27 -23zM339 360q-21 -41 -40 -83h-241l3 18q59 43 117 93q94 85 94 139q0 59 -59 59q-38 0 -85 -56l-18 16l39 49q35 40 96 40q39 0 67 -25q30 -27 30 -71q0 -45 -44 -90q-15 -16 -84 -69l-62 -49v-2h93q42 0 73 40zM476 284l31 37q34 36 87 36
h1q35 0 59 -18q27 -21 27 -55q0 -41 -67 -73v-2q70 -17 70 -78q0 -69 -83 -112q-49 -26 -92 -26q-49 0 -71 24q-11 13 -7 26q7 17 21 25q11 8 21 -4q39 -34 74 -34q28 0 48 20q21 21 21 56q0 68 -68 68q-21 0 -37 -7l-6 24q110 23 110 82q0 42 -47 42q-41 0 -74 -48z" />
    <glyph glyph-name="Aringacute" unicode="&#x1fa;" horiz-adv-x="664" 
d="M614 0h-236l7 27q50 5 62 17q10 10 5 44q-2 18 -25 148h-209q-40 -75 -69 -136q-22 -45 -12 -57q9 -11 66 -16l-6 -27h-215l7 27q48 6 65 20q19 15 54 76l300 533l31 8l28 -178q26 -167 64 -372q9 -54 23 -68t67 -19zM381 536h-2l-139 -258h181zM491 706q-28 -23 -66 -23
q-35 0 -57 22q-23 23 -22 57q1 40 30 66q27 24 65 24q34 0 57 -22q24 -23 23 -61t-30 -63zM437 819q-44 0 -46 -55q-2 -47 38 -47q45 0 47 54q2 48 -39 48zM587 939l-187 -63l-13 25l161 101q9 -2 24 -23q15 -20 17 -32z" />
    <glyph glyph-name="uniF6DD" unicode="&#xf6dd;" horiz-adv-x="874" 
d="M653 418q36 12 71 12q129 0 127 -131q-2 -105 -80 -200q-71 -85 -164 -111q-23 0 -42 9l-23 -122q-7 -36 -4 -47q4 -12 26 -15l41 -5l-2 -25l-213 -12l3 26q41 8 54 20q11 11 19 48l26 127h-12q-95 2 -133 89l-57 160q-10 32 -46 32h-33l-29 -147q-13 -66 -3 -81
q8 -14 61 -19l-6 -26h-224l6 26q51 5 64 19q15 15 28 81l73 370q13 66 4 81q-9 14 -60 20l5 26h193q82 0 124 -29q54 -37 53 -122q-1 -124 -146 -178q43 -121 48 -133q31 -76 48 -102q18 -28 47 -40l72 343q-30 -7 -72 -26l-5 25q41 23 85 38l10 41q29 32 73 56l10 -3z
M249 304q58 0 96 26q72 47 73 139q2 122 -104 122q-22 0 -32 -5t-14 -29l-51 -253h32zM579 60q16 -27 47 -27q48 0 94 76q48 78 49 171q2 107 -80 107q-24 0 -44 -7z" />
    <glyph glyph-name="uniE070" unicode="&#xe070;" horiz-adv-x="653" 
d="M709 622q-86 -11 -155 -66q-53 -42 -213 -186q76 -133 189 -291q59 -83 89 -121l-14 -13q-84 8 -150 96q-69 89 -162 245q-16 28 -28 33q-12 4 -34 -6l-34 -187q-11 -65 -1 -79q10 -15 69 -20l-6 -27h-246l7 27q55 5 70 20q14 14 27 79l77 401q12 61 1 76q-10 13 -69 19
l7 27h243l-6 -27q-58 -6 -71 -19q-14 -13 -26 -76l-36 -186q36 13 76 48q71 60 204 189q20 21 19 28q-2 8 -27 12l-34 4l7 27h234z" />
    <glyph glyph-name="uniE0A7" unicode="&#xe0a7;" horiz-adv-x="601" 
d="M564 -55q-84 10 -143 116q-44 79 -92 174q-22 46 -66 46h-37l-28 -153q-12 -66 -1 -80q10 -15 71 -21l-6 -27h-252l7 27q58 6 72 20q15 14 28 80l77 402q12 61 2 75q-10 13 -70 18l6 27h218q96 0 141 -31q60 -41 60 -124q0 -135 -161 -192q48 -104 123 -234
q52 -89 66 -110zM280 314q66 0 106 26q76 50 76 146q0 131 -119 131q-31 0 -45 -10q-11 -7 -18 -42l-47 -251h47z" />
    <glyph glyph-name="Dcroat" unicode="&#x110;" horiz-adv-x="719" 
d="M387 649q319 0 319 -268q0 -197 -166 -306q-119 -75 -308 -75h-215l8 27q58 6 72 19q15 13 27 72l39 203h-110l9 37h108l33 168q12 63 1 77q-11 13 -72 19l6 27h249zM210 136q-13 -73 12 -87q23 -13 68 -13q158 1 246 113q75 97 75 239q0 228 -226 228q-53 0 -71 -9
q-17 -9 -22 -39l-40 -210h155l-8 -37h-155z" />
    <glyph glyph-name="Eng" unicode="&#x14a;" horiz-adv-x="705" 
d="M760 623q-42 -2 -60 -14q-18 -13 -27 -46q-19 -70 -39 -174l-60 -320q-31 -160 -68 -218q-43 -67 -101 -67q-42 0 -42 31q0 15 12 32q11 17 20 17q5 0 16 -5q12 -6 24 -6q57 0 86 154l-288 515h-3l-51 -264q-19 -98 -26 -171q-3 -34 15 -46q16 -11 70 -15l-6 -26h-230
l6 26q72 6 89 59q15 49 41 173l51 247q13 57 -5 86q-15 28 -85 32l6 26h144l295 -509h3l46 249q24 129 27 175q3 34 -16 46q-17 10 -70 13l6 26h226z" />
    <glyph glyph-name="Hbar" unicode="&#x126;" horiz-adv-x="743" 
d="M767 472h-94l-68 -353q-12 -59 -1 -73q10 -14 72 -19l-7 -27h-253l6 27q59 5 74 19t26 73l39 201h-327l-38 -201q-11 -59 0 -73t72 -19l-6 -27h-249l7 27q55 5 69 19q14 13 25 73l69 353h-98l10 36h95l5 28q11 55 -1 68q-11 13 -73 18l7 27h247l-6 -27q-54 -5 -69 -19
q-14 -13 -24 -67l-6 -28h327l5 28q10 55 0 68q-11 12 -69 18l6 27h248l-6 -27q-57 -5 -72 -18q-13 -13 -24 -68l-5 -28h96zM264 472l-21 -111h326l21 111h-326z" />
    <glyph glyph-name="Tbar" unicode="&#x166;" horiz-adv-x="599" 
d="M656 674q-9 -52 -23 -176l-31 -3q0 62 -13 91q-8 19 -31 24q-19 5 -77 5h-58l-49 -266h145l-10 -37h-142l-36 -193q-12 -60 2 -74q12 -13 80 -18l-6 -27h-272l6 27q64 4 79 18q15 13 27 74l38 193h-134l9 37h131l51 266h-43q-106 0 -130 -29q-22 -27 -50 -91l-30 1
q32 103 47 178h20q11 -25 48 -25h379q28 0 53 25h20z" />
    <glyph glyph-name="uni021C" unicode="&#x21c;" horiz-adv-x="495" 
d="M141 300q239 78 239 222q0 51 -29 80q-28 27 -72 27q-89 0 -154 -143l-28 10q14 40 41 132q157 36 172 36q73 0 118 -36q44 -35 44 -93q0 -94 -151 -183v-2q68 -15 106 -58q39 -42 39 -103q0 -121 -130 -209q-119 -81 -291 -103l-57 46l9 21q53 -14 99 -14q107 0 188 63
q87 68 87 172q0 61 -38 98q-33 32 -81 32q-38 0 -101 -24z" />
    <glyph glyph-name="uniE0FE" unicode="&#xe0fe;" horiz-adv-x="645" 
d="M444 431q-40 -153 -77 -371q-2 -11 9 -12q42 -5 97 -5q92 0 92 64q0 14 -3 24q-1 7 6 16q21 25 39 25q17 0 17 -36q0 -44 -48 -90q-54 -50 -145 -50q-43 0 -91 2q-38 3 -49 2q-9 -1 -6 9l32 155h-3q-48 -66 -127 -130q-56 -46 -92 -46q-22 0 -39 27q-19 32 -19 88
q0 168 120 268q95 78 184 78h1q27 0 62 -8q28 -6 37 -6zM228 385q-50 -37 -80 -114q-28 -73 -28 -151q0 -65 25 -65q29 0 95 67q62 64 88 114q18 58 36 156q-28 14 -67 14q-42 0 -69 -21z" />
    <glyph glyph-name="uniE109" unicode="&#xe109;" horiz-adv-x="578" 
d="M363 101q-105 -113 -209 -113q-112 0 -112 149q0 162 120 256q72 56 134 56q37 0 60 -24q21 -23 21 -56q0 -70 -86 -105q38 0 90 -1l56 -1q119 0 119 63q0 11 -11 48q3 8 18 21q17 15 27 15q26 0 26 -48q0 -36 -32 -75q-58 -71 -169 -71q-29 0 -94 2t-98 2q-75 0 -97 -5
q-3 -16 -3 -53q0 -112 75 -112q70 0 148 75zM174 348q-34 -50 -44 -104q174 23 175 110q2 55 -42 55q-47 0 -89 -61z" />
    <glyph glyph-name="uniE11F" unicode="&#xe11f;" horiz-adv-x="444" 
d="M158 232q35 40 87 94q119 123 174 123q42 0 42 -31q0 -19 -20 -41q-10 -9 -16 -6q-15 10 -39 10q-48 0 -133 -90q22 -55 99 -214l62 -125l-9 -6q-39 8 -61 22q-31 20 -54 66q-40 75 -95 197q-46 -50 -51 -59q-24 -110 -33 -165q-37 -7 -72 -19l-6 6q104 463 134 608
q7 33 0 41q-6 7 -38 8l-28 1l5 25q48 5 99 21q46 14 48 14q11 0 5 -30l-51 -224l-51 -225z" />
    <glyph glyph-name="uniE12B" unicode="&#xe12b;" horiz-adv-x="923" 
d="M448 255q89 122 185 174q36 20 62 20q53 0 24 -119l-65 -268q-3 -13 9 -14q33 -5 95 -5q56 0 76 18q15 13 15 44q0 4 -3 25q-1 7 6 16q22 26 42 26q16 0 16 -35q-2 -48 -48 -91q-51 -50 -140 -50q-50 0 -100 2q-33 3 -46 2q-9 -1 -6 9l76 317q14 60 -7 60q-36 0 -114 -84
q-70 -76 -94 -124q-17 -60 -39 -172q-34 -4 -74 -17l-6 6l73 303q19 88 -4 88q-36 0 -113 -83q-70 -75 -94 -124q-11 -38 -40 -173q-31 -4 -73 -17l-7 6q42 159 83 341q9 38 -1 41q-15 0 -67 -48l-14 24q90 96 143 96q37 0 9 -114l-20 -80h2q86 117 185 174q34 20 59 20
q58 0 26 -138l-13 -56h2z" />
    <glyph glyph-name="uniE12C" unicode="&#xe12c;" horiz-adv-x="677" 
d="M187 248q85 118 189 178q40 23 68 23q53 0 24 -119l-65 -268q-2 -13 9 -14q35 -5 95 -5q56 0 76 18q16 14 16 45q0 6 -3 24q-2 8 7 17q21 25 40 25q16 0 16 -35q0 -45 -48 -91q-52 -50 -140 -50q-61 0 -100 3q-37 2 -46 1q-8 -1 -7 9l76 315q15 61 -8 61q-31 0 -106 -75
q-72 -72 -106 -132q-19 -72 -40 -170q-42 -8 -71 -19l-7 7q30 118 81 339q9 41 -2 41q-21 0 -64 -45l-13 23q87 95 139 95q35 0 9 -112l-21 -89h2z" />
    <glyph glyph-name="uniE154" unicode="&#xe154;" horiz-adv-x="453" 
d="M542 434q-43 -89 -105 -88q-25 1 -61 23q-26 15 -45 15q-34 0 -79 -65q-50 -70 -77 -134q-16 -64 -35 -178q-36 -6 -72 -18l-7 7q43 185 69 328q8 51 -3 51q-19 0 -66 -45l-13 23q91 96 137 96q34 0 11 -119l-11 -57h3q107 176 170 176q20 0 73 -30q28 -16 46 -10
q18 7 45 43z" />
    <glyph glyph-name="longs" unicode="&#x17f;" horiz-adv-x="228" 
d="M389 697q17 -14 16 -28q-2 -24 -27 -43q-14 -10 -22 0q-33 33 -63 33q-61 0 -101 -248q-45 -273 -57 -330q-41 -197 -121 -277q-59 -61 -113 -61q-22 0 -42 14q-20 13 -20 29q0 20 27 42q12 10 21 1q27 -25 61 -25q26 0 42 19q35 35 71 250q41 259 44 274q35 198 108 286
q64 79 134 79q24 0 42 -15z" />
    <glyph glyph-name="dcroat" unicode="&#x111;" horiz-adv-x="509" 
d="M561 534h-74q-55 -241 -90 -439q-6 -33 5 -33q21 0 71 50l13 -22q-84 -102 -146 -102q-38 0 -20 87l19 92h-2q-53 -72 -132 -133q-59 -46 -101 -46q-27 0 -45 30q-20 33 -20 90q0 164 116 264q90 77 181 77q32 0 59 -11l20 96h-132l10 36h129l7 35q6 31 -1 39q-7 9 -40 9
h-29l1 25q49 5 102 20q48 14 51 14q14 0 7 -27l-25 -115h75zM228 385q-48 -34 -79 -117q-27 -73 -27 -141q0 -74 31 -74q38 0 108 72q62 63 91 117l31 138q-28 26 -82 26q-41 0 -73 -21z" />
    <glyph glyph-name="eng" unicode="&#x14b;" horiz-adv-x="516" 
d="M56 354q88 95 142 95q34 0 8 -112l-22 -95h2q90 121 194 185q37 22 65 22q43 0 21 -107q-29 -145 -51 -240q-35 -165 -113 -238q-66 -61 -112 -61q-40 0 -40 30q0 29 24 47q12 9 22 4q24 -15 47 -15q51 0 79 130l70 333q12 53 -6 53q-30 0 -104 -77q-73 -74 -111 -140
q-19 -71 -37 -160q-43 -8 -72 -19l-7 7q34 134 81 339q9 41 -2 41q-18 0 -63 -45z" />
    <glyph glyph-name="hbar" unicode="&#x127;" horiz-adv-x="511" 
d="M475 84q-86 -96 -146 -96q-37 0 -15 97l54 232q15 70 -7 70q-32 0 -104 -70q-71 -68 -109 -133q-22 -90 -37 -177q-47 -10 -71 -19l-7 8l116 531h-81l12 36h77q15 66 14 82q-1 14 -17 16l-27 3l5 25q30 5 75 15q37 9 42 9q13 0 5 -33l-26 -117h150l-13 -36h-146l-59 -270
h3q89 117 192 171q36 21 62 21q54 0 29 -110l-55 -238q-8 -36 2 -39q21 0 69 45z" />
    <glyph glyph-name="kgreenlandic" unicode="&#x138;" horiz-adv-x="502" 
d="M178 214q34 38 109 113q120 122 167 122q45 0 45 -32q0 -20 -20 -40q-9 -9 -17 -6q-18 9 -39 9q-43 0 -150 -112q46 -99 95 -178q21 -37 38 -37q18 0 58 46l17 -21q-58 -90 -111 -90q-32 0 -66 62q-31 52 -84 164q-33 -32 -54 -57q-19 -68 -35 -149q-42 -8 -71 -19l-7 7
l81 338q9 41 -2 41q-19 2 -63 -44l-15 22q88 96 142 96q34 0 9 -108l-29 -126z" />
    <glyph glyph-name="napostrophe" unicode="&#x149;" horiz-adv-x="533" 
d="M71 528q80 32 82 78q3 37 -50 51q-11 4 -11 16q3 38 45 38q30 0 53 -22q25 -26 24 -67q-4 -88 -134 -120zM492 84q-87 -96 -141 -96q-39 0 -16 100l58 238q14 59 -7 59q-31 0 -105 -75q-71 -74 -109 -141q-22 -81 -38 -161q-42 -8 -71 -19l-7 7q46 178 82 339q9 40 -2 40
q-17 0 -64 -45l-13 24q88 95 140 95q35 0 8 -111l-20 -91h2q79 113 188 180q39 22 66 22q50 0 23 -118l-56 -234q-8 -34 3 -34q21 0 64 45z" />
    <glyph glyph-name="tbar" unicode="&#x167;" horiz-adv-x="309" 
d="M317 397l-100 -5l-29 -132h98l-13 -36h-93l-22 -106q-13 -60 6 -60q32 0 88 58l15 -21q-88 -107 -160 -107q-50 0 -22 133l23 103h-72l13 36h67l28 132h-74l-3 9l25 30h62l23 94l76 63l10 -7l-37 -150h117z" />
    <glyph glyph-name="uni021D" unicode="&#x21d;" horiz-adv-x="364" 
d="M60 133q186 82 186 182q0 34 -21 55q-21 20 -51 20q-49 0 -120 -60l-14 22q95 97 175 97q49 0 81 -31q30 -30 30 -75q0 -79 -116 -157v-2q51 -10 81 -44q31 -34 31 -84q0 -104 -108 -191q-101 -82 -232 -103l-43 36l7 19q30 -5 57 -5q94 0 164 61q70 63 70 151
q0 49 -27 78q-25 27 -60 27q-30 0 -84 -22z" />
    <glyph glyph-name="IJ" unicode="&#x132;" horiz-adv-x="654" 
d="M374 622q-59 -5 -73 -18t-25 -68l-80 -420q-11 -58 0 -71t73 -18l-6 -27h-256l7 27q58 4 74 18q14 14 25 71l82 420q10 55 -2 68q-11 13 -74 18l6 27h255zM704 622q-55 -7 -68 -19q-14 -13 -25 -72l-74 -401q-34 -184 -141 -245q-42 -25 -77 -30l-10 30q79 23 110 107
q22 55 40 158l71 381q11 59 -1 73q-10 12 -71 18l6 27h246z" />
    <glyph glyph-name="uniE0FF" unicode="&#xe0ff;" horiz-adv-x="839" 
d="M808 84q-85 -96 -145 -96q-37 0 -16 95l54 236q16 68 -7 68q-32 0 -103 -67q-70 -66 -108 -131q-18 -69 -39 -182q-47 -10 -71 -19l-7 8q71 312 127 599q7 39 1 48q-6 8 -39 8l-25 1l3 25q47 5 98 21l48 14q12 0 4 -35l-88 -415h2q87 115 187 166q39 21 66 21
q54 0 28 -114l-54 -237q-9 -35 2 -37q20 0 70 46zM346 98q-97 -110 -200 -110q-49 0 -76 37q-29 38 -29 106q0 151 104 244q84 74 161 74q31 0 54 -16q21 -15 22 -34q0 -29 -32 -46q-12 -8 -22 5q-29 42 -76 42q-51 0 -86 -66q-42 -79 -42 -180q0 -105 71 -105q65 0 137 72z
" />
    <glyph glyph-name="uniE100" unicode="&#xe100;" horiz-adv-x="796" 
d="M782 79q-59 -91 -111 -91q-34 0 -65 66q-43 92 -77 184q-46 -49 -55 -65l-33 -166q-38 -7 -73 -19l-7 6q73 309 136 612q6 30 0 39q-6 7 -36 8h-32l6 25q48 5 99 20q46 14 48 14q11 0 5 -29l-100 -445h2q19 23 84 90q119 121 175 121q42 0 42 -31q0 -22 -20 -40
q-8 -8 -16 -6q-18 8 -38 8q-53 0 -131 -83q35 -107 83 -196q23 -48 39 -48t57 47zM348 98q-99 -110 -201 -110q-48 0 -76 37q-29 38 -29 107q0 151 105 243q82 74 161 74q31 0 54 -16q21 -15 22 -34q0 -29 -32 -46q-13 -7 -23 6q-30 41 -75 41q-53 0 -86 -64
q-43 -84 -43 -182q0 -105 70 -105q66 0 138 72z" />
    <glyph glyph-name="uniE101" unicode="&#xe101;" horiz-adv-x="664" 
d="M673 397l-100 -5l-60 -273q-13 -60 6 -60q33 0 88 57l15 -22q-90 -106 -161 -106q-20 0 -27 28q-9 35 7 104l60 271h-69l-3 9l26 32h55q27 113 54 152l-94 1q-135 0 -135 -100q0 -25 12 -47q12 -24 12 -28q-2 -26 -28 -41q-11 -6 -18 5q-22 26 -55 26q-49 0 -85 -60
q-48 -81 -48 -184q0 -106 71 -106q62 0 138 69l15 -22q-98 -109 -200 -109q-50 0 -79 40q-28 38 -28 101q0 155 119 252q59 50 123 67q-3 12 -3 27q-1 60 64 107q65 46 150 46l88 -1q42 -1 56 0v-7q-20 -30 -56 -188h117z" />
    <glyph glyph-name="ij" unicode="&#x133;" horiz-adv-x="533" 
d="M261 595q1 -23 -14 -40q-16 -17 -39 -17q-40 0 -40 44q-1 21 13 38q16 20 40 20q40 0 40 -45zM236 87q-84 -99 -145 -99q-38 0 -14 98l63 255q7 32 -1 32q-17 0 -69 -42l-12 22q97 95 151 95q30 0 10 -79l-68 -275q-8 -32 2 -32q16 0 70 47zM519 602q0 -23 -15 -40
t-38 -17q-41 0 -41 44q0 21 14 39q16 20 40 20q40 0 40 -46zM318 343q102 105 158 105q29 0 8 -103q-7 -38 -55 -279q-36 -182 -119 -260q-66 -63 -107 -63q-15 0 -28 9q-15 10 -15 23q0 24 24 44q12 11 22 5q26 -17 49 -17q41 0 68 107q14 59 81 399q12 57 1 57
q-17 0 -74 -49z" />
    <glyph glyph-name="uniE155" unicode="&#xe155;" horiz-adv-x="790" 
d="M472 -241l-231 -11l5 25q47 9 62 22q15 14 25 61l113 524q-34 -10 -80 -35l-7 25q53 33 95 47l37 164l-35 2q-27 2 -47 2q-111 0 -111 -97q0 -22 15 -64q0 -25 -22 -42q-17 -12 -27 0q-18 20 -43 20q-21 0 -38 -17q-20 -19 -20 -46q0 -38 58 -96q58 -56 58 -109
q0 -54 -57 -101q-56 -45 -114 -45q-41 0 -70 25q-27 23 -27 50q0 31 31 45q12 6 21 -10q31 -61 92 -61q24 0 42 15q19 16 19 42q0 40 -52 91q-65 63 -65 113q0 54 52 98q41 36 96 52q-2 18 -2 28q0 54 57 102q59 50 136 50q27 0 63 -4l8 29l67 36l7 -6q-7 -35 -27 -122
q-19 -83 -27 -123q46 11 91 11q145 0 145 -140q0 -107 -86 -205q-80 -90 -185 -116q-35 0 -59 10l-27 -137q-8 -45 -1 -58q7 -12 44 -16l25 -2zM521 400l-69 -335q21 -32 61 -32q55 0 111 83q58 85 58 178q0 112 -109 112q-32 0 -52 -6z" />
    <glyph glyph-name="uniFB06" unicode="&#xfb06;" horiz-adv-x="613" 
d="M621 397l-100 -5l-60 -274q-13 -60 6 -60q33 0 89 58l14 -22q-90 -106 -161 -106q-20 0 -27 28q-9 35 7 104l60 271h-74l-3 9l26 32h60q26 109 54 152l-83 1q-138 0 -138 -102q0 -13 15 -58q0 -27 -21 -43q-17 -13 -27 0q-20 20 -44 20q-23 0 -40 -16q-19 -18 -20 -47
q-1 -36 58 -93q60 -58 60 -111q0 -56 -57 -102q-56 -45 -115 -45q-42 0 -71 24q-26 22 -26 49q0 31 33 46q13 5 20 -10q27 -59 91 -59q26 0 43 15q19 16 19 41q0 40 -54 92q-64 60 -64 112q0 53 51 97q46 38 99 53q-3 12 -3 27q-1 58 63 105q66 47 154 47l77 -1q41 -1 55 0
v-8q-24 -37 -56 -186h117z" />
    <glyph glyph-name="uniF638" unicode="&#xf638;" horiz-adv-x="477" 
d="M480 645l-46 -71q38 -56 38 -158q-1 -147 -65 -274q-77 -154 -203 -154q-57 0 -95 35l-39 -59l-26 19l43 67q-38 58 -38 162q0 141 66 269q79 154 204 154q58 0 94 -36l41 63zM379 547q-19 56 -67 56q-83 0 -136 -148q-45 -124 -47 -261q0 -48 5 -73zM144 77
q20 -57 65 -57q82 0 137 156q44 127 46 255q1 21 -2 71z" />
    <glyph glyph-name="Euro" unicode="&#x20ac;" horiz-adv-x="477" 
d="M100 388q39 116 118 182q79 65 177 65q39 0 105 -27q-9 -112 -11 -125l-28 -3q-3 62 -18 89q-18 34 -60 34q-58 0 -112 -58q-54 -60 -83 -157h254l-18 -35h-245q-10 -28 -12 -62h234l-19 -35h-217q-8 -235 105 -235q59 0 144 112l21 -16q-32 -71 -67 -110
q-59 -19 -105 -19q-97 0 -145 74q-45 69 -42 194h-68l18 35h52q3 34 12 62h-48l18 35h40z" />
    <glyph glyph-name="franc" unicode="&#x20a3;" horiz-adv-x="477" 
d="M501 623q-6 -36 -18 -141l-28 -4q-3 60 -13 82q-14 29 -89 29h-55q-20 0 -26 -5q-6 -6 -10 -26l-42 -214q124 0 205 9l-10 -55q-46 5 -202 9l-22 -116h152l-8 -36h-151l-7 -37q-12 -59 1 -73t80 -19l-6 -26h-252l5 26q54 5 68 18q15 14 27 74l7 37h-83l7 36h83l60 309
q11 61 1 77t-66 20l5 26h387z" />
    <glyph glyph-name="lira" unicode="&#x20a4;" horiz-adv-x="477" 
d="M216 244q-24 -79 -108 -146q49 0 103 -27q78 -38 120 -38q64 0 64 49q0 8 -5 30q-3 10 7 23q22 25 39 25q18 0 18 -36q0 -67 -84 -120q-53 -32 -99 -32q-35 0 -127 55q-43 25 -61 25q-30 0 -56 -45q-6 -12 -15 -12q-32 13 -4 48q18 22 59 58q53 47 67 143h-92l8 33h89
q1 8 2 33q1 20 3 34h-83l8 33h77q14 140 115 215q56 43 109 43q63 0 83 -41q9 -17 -1 -32q-4 -8 -20 -20q-14 -11 -25 3q-34 41 -80 41q-70 0 -87 -96q-6 -34 -8 -113h173l-7 -33h-167q-2 -46 -6 -67h161l-8 -33h-162z" />
    <glyph glyph-name="peseta" unicode="&#x20a7;" horiz-adv-x="477" 
d="M509 423h-47q-13 -78 -70 -126q-51 -42 -122 -49q-20 -3 -38 0l-55 19l-29 -149q-12 -60 2 -74q12 -13 76 -18l-6 -26h-253l6 26q56 5 71 19t27 74l59 304h-68l9 34h67l9 47q11 62 0 76q-10 13 -68 17l6 26h194q183 0 187 -166h50zM385 457q1 65 -31 102q-30 33 -77 33
q-19 0 -29 -5q-13 -8 -18 -39l-17 -91h172zM206 423l-23 -125q30 -12 57 -12q48 0 85 29q46 36 57 108h-176z" />
    <glyph glyph-name="uniE153" unicode="&#xe153;" horiz-adv-x="818" 
d="M547 70q4 6 12 11q10 6 18 -2q32 -50 80 -50q52 0 52 44q0 28 -51 63q-69 46 -69 89q0 47 45 84q41 34 88 34q24 0 45 -14q23 -14 23 -33q0 -23 -21 -35q-11 -6 -17 2q-27 40 -64 40q-44 0 -44 -42q0 -29 57 -68q66 -44 66 -90q0 -43 -48 -80q-47 -35 -99 -35
q-32 0 -59 19q-25 17 -26 36q0 7 2 10q-67 -65 -129 -65q-43 0 -20 102l54 235q-58 -28 -126 -33q-20 -2 -40 3l-57 17l-36 -190q-12 -61 1 -77q11 -14 74 -20l-6 -25h-245l6 25q52 6 66 20q14 15 26 77l75 379q12 61 1 76q-10 14 -66 21l7 25h214q209 0 209 -150
q0 -45 -23 -80l-16 -65h91l-21 -31l-77 -4l-44 -202q-10 -48 4 -48q35 0 79 42zM225 342q33 -11 68 -11q69 0 115 31q56 37 56 111q0 118 -140 118q-21 0 -38 -6q-15 -4 -24 -51z" />
    <glyph glyph-name="aringacute" unicode="&#x1fb;" horiz-adv-x="490" 
d="M466 92q-85 -104 -147 -104q-35 0 -17 88l20 95h-3q-52 -75 -129 -138q-55 -45 -93 -45q-22 0 -39 26q-19 31 -19 86q0 172 120 272q94 77 187 77q27 0 62 -8q26 -6 38 -6l2 -4q-34 -132 -69 -325q-8 -43 2 -43q18 0 73 53zM244 124q65 70 91 124q16 51 33 143
q-28 14 -66 14q-43 0 -72 -21q-49 -36 -79 -115q-29 -73 -29 -151q0 -66 27 -66q28 0 95 72zM403 642q24 -24 23 -62q-1 -39 -31 -64q-28 -23 -66 -23q-37 0 -60 23q-23 22 -21 57q1 41 31 67q28 24 67 24q34 0 57 -22zM308 616q-13 -16 -14 -40q-2 -50 39 -50q19 0 33 16
q13 15 14 39q2 51 -40 51q-19 0 -32 -16zM340 686l-23 16q58 91 92 156q54 15 83 9l3 -11z" />
    <glyph glyph-name="estimated" unicode="&#x212e;" horiz-adv-x="774" 
d="M189 302q-5 0 -5 -4v-176q0 -12 8 -20q91 -96 221 -96q139 0 233 107h52q-108 -126 -286 -126q-149 0 -255 95q-105 95 -105 229t105 229q106 95 255 95q150 0 256 -95q105 -95 105 -229v-9h-584zM641 503q0 12 -9 21q-92 92 -219 92q-128 0 -220 -95q-9 -9 -9 -22v-174
q0 -5 5 -5h448q4 0 4 5v178z" />
    <glyph glyph-name="uniF761" unicode="&#xf761;" horiz-adv-x="553" 
d="M494 0h-200l6 27l21 3q20 3 25 13q6 10 1 40l-13 69h-163q-14 -24 -40 -78q-20 -38 17 -43l27 -5l-6 -26h-179l7 27q39 5 57 18q17 13 47 62l216 361l32 7l76 -380q8 -40 21 -52q13 -11 54 -16zM295 368h-2l-101 -178h136z" />
    <glyph glyph-name="uniF762" unicode="&#xf762;" horiz-adv-x="497" 
d="M293 463q80 0 117 -24q39 -27 39 -75q0 -89 -115 -111v-2q107 -18 107 -111q0 -75 -85 -114q-60 -26 -154 -26h-193l5 27q47 4 59 15q11 10 19 54l53 270q9 46 0 56t-58 14l6 27h200zM240 265q126 0 126 93q0 74 -88 74q-31 0 -39 -6q-8 -7 -13 -34l-25 -127h39zM169 94
q-7 -38 8 -52q12 -11 46 -11q55 0 91 28q39 31 39 84q0 91 -118 91h-40z" />
    <glyph glyph-name="uniF763" unicode="&#xf763;" horiz-adv-x="520" 
d="M478 129q-31 -82 -58 -122q-62 -19 -140 -19q-114 0 -176 67q-54 58 -54 146q0 124 93 201q88 73 218 73q70 0 139 -25q-7 -92 -9 -127l-27 -5q-7 125 -121 125q-89 0 -146 -68q-56 -69 -56 -174q0 -76 35 -126q39 -55 107 -55q97 0 170 122z" />
    <glyph glyph-name="uniF764" unicode="&#xf764;" horiz-adv-x="573" 
d="M279 463q130 0 194 -49q68 -54 68 -149q0 -139 -118 -212q-86 -53 -229 -53h-187l6 27q47 5 59 14q12 11 21 55l52 269q10 48 1 58q-8 9 -56 13l7 27h182zM174 108q-9 -43 5 -59q12 -16 53 -16q97 0 157 61q62 64 62 174q0 163 -163 163q-33 0 -45 -10q-11 -9 -16 -35z
" />
    <glyph glyph-name="uniF765" unicode="&#xf765;" horiz-adv-x="476" 
d="M451 463q-5 -33 -14 -120l-28 -3q-3 46 -15 68t-79 22h-52q-20 0 -25 -4q-4 -4 -8 -22l-28 -146h74q45 0 58 9q12 8 28 47h27l-29 -152h-26q-1 41 -10 50q-10 10 -54 10h-75l-23 -122q-8 -51 8 -59q14 -9 75 -9q72 0 100 25q21 20 51 72l26 -8q-34 -92 -49 -121h-381
l6 27q51 5 64 15q12 11 22 59l51 261q9 48 0 59q-9 10 -57 15l6 27h357z" />
    <glyph glyph-name="uniF766" unicode="&#xf766;" horiz-adv-x="452" 
d="M448 463l-14 -121l-27 -2q-3 43 -12 63q-10 27 -74 27h-58q-21 -1 -25 -4t-7 -22l-31 -155h82q46 0 60 9q13 9 28 47h27l-30 -152h-27q2 41 -8 50q-11 9 -57 9h-81l-23 -118q-8 -42 2 -53q10 -9 62 -14l-5 -27h-221l5 27q47 5 58 14q13 10 21 53l54 274q8 44 0 54
q-9 10 -56 14l6 27h351z" />
    <glyph glyph-name="uniF767" unicode="&#xf767;" horiz-adv-x="550" 
d="M526 194q-35 -5 -43 -14q-9 -10 -17 -50l-9 -49q-8 -42 -5 -65q-124 -28 -169 -28q-110 0 -174 62q-59 58 -59 148q0 127 93 204q87 73 218 73q80 0 146 -23q0 -13 -4 -51l-6 -78l-27 -2q-5 64 -30 92q-28 30 -89 30q-87 0 -145 -60q-65 -67 -65 -184q0 -70 35 -120
q42 -60 118 -60q72 0 82 53l12 58q8 40 -3 49q-12 10 -73 15l6 27h214z" />
    <glyph glyph-name="uniF768" unicode="&#xf768;" horiz-adv-x="608" 
d="M611 436q-47 -4 -59 -14q-11 -10 -20 -57l-51 -269q-9 -45 0 -55t58 -14l-6 -27h-215l6 27q45 3 57 13q12 11 21 57l25 128h-232l-23 -128q-9 -46 0 -56q8 -10 55 -14l-6 -27h-214l6 27q47 4 59 14q13 11 21 55l52 269q8 46 0 56q-9 11 -61 15l5 27h216l-6 -27
q-45 -5 -56 -14q-11 -11 -20 -57l-20 -101h231l20 101q9 46 0 57q-9 10 -59 14l6 27h214z" />
    <glyph glyph-name="uniF769" unicode="&#xf769;" horiz-adv-x="299" 
d="M303 436q-48 -5 -60 -14q-12 -10 -20 -52l-52 -275q-8 -44 1 -54q9 -9 58 -14l-5 -27h-219l5 27q48 5 60 15q13 10 22 53l53 275q8 42 -2 52q-9 10 -59 14l5 27h220z" />
    <glyph glyph-name="uniF76A" unicode="&#xf76a;" horiz-adv-x="297" 
d="M310 436q-49 -5 -60 -14q-12 -11 -21 -60l-50 -272q-23 -135 -98 -182q-45 -29 -92 -31l-4 30q70 12 94 97q15 57 30 133l42 226q9 47 -1 58t-63 15l5 27h223z" />
    <glyph glyph-name="uniF76B" unicode="&#xf76b;" horiz-adv-x="541" 
d="M556 436q-66 -7 -115 -43q-25 -18 -155 -130q74 -122 126 -186q38 -46 85 -50l-5 -27h-126q-30 43 -130 202q-16 26 -43 20l-23 -122q-9 -47 1 -58q8 -11 57 -15l-6 -27h-211l5 27q45 5 57 15q12 11 21 58l50 262q10 48 1 59q-8 11 -55 15l5 27h207l-5 -27
q-46 -4 -57 -16q-11 -10 -20 -58l-22 -115q23 4 53 26q57 43 143 129q28 28 -12 32l-17 2l6 27h191z" />
    <glyph glyph-name="uniF76C" unicode="&#xf76c;" horiz-adv-x="453" 
d="M421 124q-52 -130 -49 -124h-369l6 27q51 4 63 14q12 11 22 60l51 264q10 46 0 57q-9 10 -58 14l6 27h217l-6 -27q-49 -5 -60 -14q-13 -11 -21 -57l-51 -268q-9 -49 8 -57q15 -8 69 -8q66 0 92 25q25 23 55 76z" />
    <glyph glyph-name="uniF76D" unicode="&#xf76d;" horiz-adv-x="699" 
d="M691 436q-54 -5 -65 -15q-12 -10 -18 -54l-34 -272q-5 -43 5 -53t62 -15l-6 -27h-223l6 27q47 5 60 15q13 11 20 53l43 292h-3l-232 -379h-20l-82 368h-2l-50 -180q-22 -83 -27 -121q-4 -26 7 -34q11 -10 57 -14l-6 -27h-191l7 27q60 5 76 47q17 39 43 131l41 142
q17 57 8 70q-8 13 -64 19l7 27h142l86 -332l210 332h149z" />
    <glyph glyph-name="uniF76E" unicode="&#xf76e;" horiz-adv-x="572" 
d="M595 436q-63 -6 -74 -44q-10 -34 -27 -118l-53 -280h-29l-233 367h-1l-33 -173q-17 -84 -18 -114q-2 -23 13 -33t58 -14l-5 -27h-192l5 27q60 4 73 46q12 38 28 115l31 155q12 59 0 74q-11 14 -68 19l6 27h127l223 -342h2l29 153q12 62 16 117q1 24 -14 33q-14 9 -56 12
l5 27h192z" />
    <glyph glyph-name="uniF76F" unicode="&#xf76f;" horiz-adv-x="569" 
d="M480 409q55 -60 55 -146q0 -128 -87 -206q-78 -69 -181 -69q-106 0 -166 68q-52 59 -52 144q0 124 89 204q79 71 179 71q102 0 163 -66zM197 374q-57 -75 -57 -188q0 -70 33 -115q36 -50 97 -50q70 0 120 67q55 72 55 187q0 69 -29 114q-34 53 -99 53q-67 0 -120 -68z
" />
    <glyph glyph-name="uniF770" unicode="&#xf770;" horiz-adv-x="480" 
d="M284 463q88 0 132 -34q45 -34 45 -96q0 -70 -55 -112q-50 -39 -129 -43q-21 0 -31 2l-57 16l-17 -97q-9 -47 1 -58q9 -9 64 -14l-5 -27h-223l5 27q47 5 58 14q12 11 22 58l51 264q9 48 0 59q-8 10 -55 14l5 27h189zM195 227q36 -12 61 -12q46 0 78 26q40 32 40 95
q0 97 -96 97q-29 0 -39 -8q-8 -7 -13 -33z" />
    <glyph glyph-name="uniF771" unicode="&#xf771;" horiz-adv-x="568" 
d="M506 -126q-54 -3 -104 15q-56 18 -161 102q-94 9 -146 75q-44 56 -44 135q0 122 86 202q78 72 179 72q103 0 163 -67q55 -60 55 -148q0 -101 -59 -174q-52 -63 -128 -86q53 -39 92 -64q41 -26 75 -41zM199 376q-58 -75 -58 -188q0 -60 26 -105q28 -49 77 -61l50 20
q8 -6 22 -18q47 17 84 77q44 73 44 174q0 66 -28 112q-34 56 -100 56q-65 0 -117 -67z" />
    <glyph glyph-name="uniF772" unicode="&#xf772;" horiz-adv-x="516" 
d="M465 -6h-18q-94 0 -131 68q3 -5 -50 107q-13 30 -49 30h-27l-20 -106q-8 -41 1 -51q10 -11 58 -15l-5 -27h-217l6 27q46 4 59 14q13 11 21 52l52 274q9 43 0 54q-9 10 -56 15l5 27h190q78 0 118 -25q47 -31 47 -90q0 -92 -119 -131q16 -47 46 -97q28 -49 45 -70
q20 -24 48 -35zM234 230q42 0 73 13q57 29 57 98q0 91 -88 91q-25 0 -35 -7q-11 -8 -15 -31l-31 -164h39z" />
    <glyph glyph-name="uniF773" unicode="&#xf773;" horiz-adv-x="405" 
d="M62 157q8 -54 37 -92q35 -46 88 -46q36 0 60 19q29 23 29 67q0 52 -85 102q-102 60 -102 130q0 59 43 97q46 41 125 41q54 0 112 -27l-5 -114l-27 -3q-15 113 -96 113q-34 0 -57 -21q-24 -23 -24 -57q0 -47 90 -98q104 -58 104 -135q0 -68 -57 -109q-51 -36 -123 -36
q-89 0 -137 45q-2 42 -2 119z" />
    <glyph glyph-name="uniF774" unicode="&#xf774;" horiz-adv-x="506" 
d="M515 480q-8 -49 -19 -146l-28 -2q0 57 -12 76q-14 22 -71 22h-46l-63 -331q-8 -45 2 -56q10 -12 64 -16l-6 -27h-232l5 27q53 4 67 16q14 11 22 56l63 331h-36q-68 0 -88 -23q-16 -16 -42 -75h-28q28 101 38 148h17q9 -18 38 -17h298q22 0 39 17h18z" />
    <glyph glyph-name="uniF775" unicode="&#xf775;" horiz-adv-x="565" 
d="M592 436q-62 -5 -74 -45q-8 -28 -28 -123l-13 -65q-24 -116 -84 -168q-54 -47 -133 -47q-78 0 -120 37q-64 53 -39 180l32 161q10 45 0 56q-9 9 -59 14l6 27h216l-7 -27q-45 -5 -57 -14q-12 -11 -21 -56l-31 -155q-34 -177 103 -177q120 0 158 186l10 48q15 71 19 123
q1 24 -14 33q-13 9 -56 12l6 27h192z" />
    <glyph glyph-name="uniF776" unicode="&#xf776;" horiz-adv-x="563" 
d="M582 436q-40 -5 -55 -15q-18 -13 -49 -61q-84 -127 -221 -368h-29q-45 216 -85 388q-7 33 -21 43q-11 8 -48 13l5 27h201l-5 -27l-28 -4q-21 -3 -26 -10t-1 -29l63 -293q118 199 161 283q13 27 9 37q-4 9 -28 13l-22 3l5 27h181z" />
    <glyph glyph-name="uniF777" unicode="&#xf777;" horiz-adv-x="762" 
d="M774 435q-39 -4 -53 -14q-13 -9 -34 -48q-37 -64 -190 -381h-28l-67 330h-2l-180 -330h-26l-47 376q-5 44 -16 55q-9 9 -49 13l7 26h191l-6 -27l-26 -4q-20 -3 -24 -10q-5 -9 -2 -39l29 -269h2l177 338h24l66 -337h2q78 158 123 267q12 31 8 40t-29 11l-24 3l6 27h174z
" />
    <glyph glyph-name="uniF778" unicode="&#xf778;" horiz-adv-x="539" 
d="M534 436q-61 -9 -96 -43q-52 -52 -127 -137l89 -172q17 -32 34 -42q16 -10 58 -15l-6 -27h-218l6 27l31 5q32 4 15 36l-63 129h-2q-67 -77 -100 -124q-24 -37 4 -42l31 -5l-6 -26h-187l6 27q60 7 106 54q62 67 130 149l-81 159q-22 42 -78 47l6 27h193l-5 -28l-24 -3
q-27 -4 -13 -31l57 -114l2 -1q50 56 95 115q12 15 10 22q-2 6 -20 9l-25 4l6 27h179z" />
    <glyph glyph-name="uniF779" unicode="&#xf779;" horiz-adv-x="510" 
d="M531 436q-59 -7 -95 -50q-57 -64 -119 -153q-18 -25 -22 -44l-17 -92q-8 -43 2 -54q10 -12 63 -16l-5 -27h-230l6 27q52 4 65 16q12 10 20 54l17 84q4 19 -6 49q-22 59 -65 160q-11 27 -23 35t-48 11l7 27h192l-6 -27l-28 -4q-27 -3 -17 -27q51 -136 62 -162
q70 92 110 155q12 19 9 26q-3 6 -21 8l-27 4l6 27h176z" />
    <glyph glyph-name="uniF77A" unicode="&#xf77a;" horiz-adv-x="494" 
d="M126 36q43 -4 110 -4q102 0 135 28q28 24 56 79l27 -8q-34 -105 -47 -131h-396l-5 12l363 418h-101q-85 0 -108 -24q-25 -25 -42 -75l-27 1q23 96 32 148h18q10 -18 39 -17h299l4 -13z" />
    <glyph glyph-name="uniF676" unicode="&#xf676;" horiz-adv-x="592" 
d="M301 463q128 0 190 -49q69 -52 69 -149q0 -136 -120 -211q-87 -54 -229 -54h-187l5 26q47 5 60 17t23 62l24 118h-79l10 36h76l19 101q9 48 0 60q-9 11 -55 16l6 27h188zM192 108q-8 -42 3 -58q11 -18 54 -18q97 0 158 63q62 65 62 174q0 163 -163 163q-32 0 -46 -9
q-8 -6 -14 -32l-25 -132h123l-10 -36h-121z" />
    <glyph glyph-name="uniF681" unicode="&#xf681;" horiz-adv-x="608" 
d="M610 436q-47 -4 -58 -13t-19 -49q0 -4 -2 -12h72l-8 -33h-70l-45 -235q-8 -43 1 -53t57 -14l-6 -27h-214l6 27q45 3 57 13t21 54l24 124h-231l-24 -124q-8 -43 1 -53t55 -14l-6 -27h-213l6 27q46 4 58 14q13 10 21 52l45 236h-74l9 33h71l3 12q7 40 -2 49q-9 8 -60 13
l6 27h214l-6 -27q-45 -5 -55 -12q-11 -9 -20 -49q0 -3 -2 -13h232q2 8 2 12q7 40 -2 49t-59 13l7 27h213zM216 329l-14 -72h231l15 72h-232z" />
    <glyph glyph-name="uniE108" unicode="&#xe108;" horiz-adv-x="299" 
d="M304 436q-48 -5 -60 -14q-12 -10 -20 -52l-52 -275q-9 -44 1 -54q8 -9 58 -14l-5 -27h-220l6 27q47 5 60 15t21 53l53 275q7 42 -2 52q-10 10 -59 14l5 27h219z" />
    <glyph glyph-name="uniF7F8" unicode="&#xf7f8;" horiz-adv-x="566" 
d="M524 479l-53 -63q62 -62 62 -153q0 -129 -86 -206q-76 -69 -181 -69q-73 0 -126 34l-56 -67l-22 24l53 64q-64 57 -64 156q0 121 84 201q78 75 181 75q76 0 130 -39l55 64zM409 394q-30 49 -93 49q-67 0 -120 -69q-58 -76 -58 -188q0 -48 21 -90zM176 67q31 -47 90 -47
q69 0 121 65q59 72 59 190q0 48 -19 89z" />
    <glyph glyph-name="uniF69C" unicode="&#xf69c;" horiz-adv-x="506" 
d="M516 480q-8 -46 -19 -143l-27 -2q0 50 -13 73q-12 22 -72 22h-46l-33 -178h103l-8 -36h-102l-22 -119q-9 -44 2 -55q10 -11 64 -16l-6 -26h-232l5 26q53 5 66 15t22 56l23 119h-94l9 36h92l34 178h-35q-70 0 -90 -23q-18 -18 -42 -72h-27q24 86 37 145h18q8 -18 37 -17
h300q21 0 38 17h18z" />
    <glyph glyph-name="uniF67B" unicode="&#xf67b;" horiz-adv-x="568" 
d="M592 436q-63 -5 -74 -44q-14 -45 -27 -118l-37 -196q-29 -158 -63 -210q-40 -64 -98 -64q-42 0 -42 32q0 14 11 30t20 16q4 0 16 -5q12 -6 24 -6q51 0 79 137l-222 351h-1l-33 -171q-14 -78 -16 -114q-2 -24 13 -33q14 -10 57 -14l-5 -27h-194l6 27q61 4 74 46
q12 41 27 115l31 154q11 59 -1 75q-11 15 -67 19l5 27h128l220 -340h2l28 151q15 81 16 117q2 24 -13 33q-14 9 -57 12l5 27h193z" />
    <glyph glyph-name="uniF7F0" unicode="&#xf7f0;" horiz-adv-x="592" 
d="M301 463q128 0 190 -49q69 -52 69 -149q0 -136 -120 -211q-87 -54 -229 -54h-187l5 26q47 5 60 17t23 62l24 118h-79l10 36h76l19 100q9 49 0 61q-9 11 -55 16l6 27h188zM192 108q-8 -42 3 -58q11 -18 54 -18q97 0 158 63q62 65 62 174q0 163 -163 163q-32 0 -46 -9
q-8 -6 -14 -32l-25 -132h123l-10 -36h-121z" />
    <glyph glyph-name="uniF7FE" unicode="&#xf7fe;" horiz-adv-x="477" 
d="M286 366q158 0 158 -118q0 -63 -56 -103q-49 -35 -119 -38q-18 -1 -35 2l-59 15l-5 -28q-8 -43 2 -54q10 -10 61 -15l-5 -27h-218l5 27q46 5 58 16t22 58l50 261q10 48 2 59q-8 10 -56 15l6 27h206l-7 -27q-44 -5 -55 -14q-12 -11 -21 -56h66zM181 155q28 -12 64 -12
q110 0 110 107q0 86 -94 86q-31 0 -41 -7q-8 -6 -12 -27z" />
    <glyph glyph-name="uniE309" unicode="&#xe309;" horiz-adv-x="421" 
d="M104 191q181 64 181 168q0 38 -21 61q-20 22 -53 22q-69 0 -121 -109l-26 8q16 47 31 105l142 29q58 0 94 -29t36 -75q0 -69 -107 -134v-2q106 -30 106 -129q0 -91 -99 -161q-98 -70 -246 -89l-45 36l7 17q30 -7 72 -7q94 0 158 51q64 53 64 134q0 45 -27 72
q-24 25 -59 25q-26 0 -81 -20z" />
    <glyph glyph-name="uniE11E" unicode="&#xe11e;" horiz-adv-x="810" 
d="M62 157q8 -54 37 -92q35 -46 88 -46q36 0 60 19q29 23 29 67q0 52 -85 102q-102 60 -102 130q0 59 43 97q46 41 125 41q54 0 112 -27l-5 -114l-27 -3q-15 113 -96 113q-34 0 -57 -21q-24 -23 -24 -57q0 -47 90 -98q104 -58 104 -135q0 -68 -57 -109q-51 -36 -123 -36
q-89 0 -137 45q-2 42 -2 119zM467 157q8 -54 38 -92q35 -46 88 -46q35 0 59 19q29 23 29 67q0 52 -84 102q-102 60 -102 130q0 59 43 97q45 41 124 41q58 0 112 -27l-5 -114l-27 -3q-13 112 -95 112q-34 0 -57 -21q-24 -22 -24 -56q0 -46 89 -98q104 -59 104 -135
q0 -68 -57 -109q-51 -36 -122 -36q-89 0 -137 45q-3 66 -2 119z" />
    <glyph glyph-name="uniF7E6" unicode="&#xf7e6;" horiz-adv-x="714" 
d="M649 341q-3 45 -14 66q-12 23 -82 23h-51q-19 0 -24 -4t-8 -22l-33 -168h75q46 0 60 9q12 9 28 48h26l-29 -149h-26q0 41 -9 49q-10 9 -56 9h-76l-18 -99q-10 -55 7 -63q15 -8 76 -8q72 0 97 24q26 24 53 73l26 -9q-33 -89 -49 -120h-376l5 26q51 5 63 16q13 12 23 64
l17 96h-135q-43 -60 -87 -131q-13 -20 -9 -29q4 -8 27 -12l26 -4l-5 -26h-187l5 26q53 5 90 50q56 67 140 185l99 138q12 18 9 24q-1 4 -16 9l-54 5l6 26h427q-5 -33 -14 -120zM362 236l38 193q-13 0 -31 -15l-126 -178h119z" />
    <glyph glyph-name="uniF6FA" unicode="&#xf6fa;" horiz-adv-x="750" 
d="M409 0q-46 0 -79 -3q-63 -3 -52 -3q-115 0 -175 64q-52 55 -52 141q0 129 96 203q86 67 213 67q21 0 62 -3t63 -3h240q-5 -34 -14 -121l-27 -1q-3 47 -12 65q-12 24 -72 24h-63q-19 0 -24 -4t-8 -22l-29 -146h73q46 0 60 9q13 8 28 46h26l-29 -151h-25q0 42 -10 51t-58 9
h-71l-23 -123q-10 -51 7 -60q15 -8 76 -8q73 0 98 24q23 20 52 72l26 -9q-30 -82 -49 -118h-248zM422 379q7 34 -2 41q-19 16 -74 16q-89 0 -145 -64q-59 -66 -59 -176q0 -68 32 -114q38 -55 110 -56q34 0 57 12q16 9 27 65z" />
    <glyph glyph-name="i.locl" horiz-adv-x="273" 
d="M261 595q1 -23 -14 -40q-16 -17 -39 -17q-40 0 -40 43q-1 21 13 39q16 20 40 20q40 0 40 -45zM236 87q-84 -99 -145 -99q-38 0 -14 98l63 255q7 32 -1 32q-17 0 -69 -42l-12 22q97 95 151 95q30 0 10 -79l-68 -275q-8 -32 2 -32q16 0 70 47z" />
    <glyph glyph-name="uni25B6" unicode="&#x25b6;" horiz-adv-x="606" 
d="M75 25q2 465 1 465l487 -230v-2l-486 -235z" />
    <glyph glyph-name="uniF684" unicode="&#xf684;" horiz-adv-x="597" 
d="M303 436q-48 -5 -60 -14q-12 -10 -20 -52l-52 -275q-8 -44 1 -54q9 -9 58 -14l-5 -27h-219l5 27q48 5 60 15q13 10 22 53l53 275q8 42 -2 52q-9 10 -59 14l5 27h220zM609 436q-49 -5 -60 -14q-12 -11 -21 -60l-50 -272q-23 -135 -98 -182q-45 -29 -92 -31l-4 30
q72 12 94 97q18 61 30 133l42 226q9 47 -1 58t-63 15l5 27h223z" />
    <glyph glyph-name="uniF726" unicode="&#xf726;" horiz-adv-x="712" 
d="M303 354q47 43 68 84q24 44 26 96q1 10 0 19l-1 13q-1 13 9 23t24 10q38 0 38 -51q0 -80 -113 -190q-97 -91 -223 -167q31 -135 165 -135q156 0 222 237q-51 33 -81 33q-33 0 -35 -40q0 -20 13 -43q3 -4 3 -14q0 -7 -11 -14q-10 -6 -20 -6q-41 0 -41 50q0 42 55 84
q47 34 79 34q44 0 147 -78q19 -13 26 -13q15 0 15 92h31q4 -24 4 -60q0 -108 -51 -108q-17 0 -46 21l-28 20q-21 15 -31 23q-34 -120 -83 -180q-88 -106 -208 -106q-88 0 -145 57q-58 59 -58 155q0 102 71 176q65 65 123 65q25 0 41 -19q15 -18 14 -41q0 -17 -1 -25z
M152 353q-28 -45 -28 -101q0 -15 1 -26q67 36 110 75q7 19 7 42q0 20 -11 35q-11 16 -27 16q-27 0 -52 -41z" />
    <glyph glyph-name="uniF721" unicode="&#xf721;" horiz-adv-x="239" 
d="M132 168h-29l11 266q1 31 14 45q14 14 50 14h1q38 0 47 -15q8 -13 -3 -45zM58 2q-13 14 -13 36q0 25 16 42t39 17q47 0 47 -51q0 -27 -17 -43q-16 -15 -39 -15q-20 0 -33 14z" />
    <glyph glyph-name="uniF7A1" unicode="&#xf7a1;" horiz-adv-x="239" 
d="M219 443q0 -26 -16 -42q-15 -17 -40 -17q-46 0 -46 51q0 26 17 43q16 15 38 15q47 0 47 -50zM39 3q-8 13 3 45l92 267h29l-12 -267q-1 -32 -14 -45q-14 -15 -51 -15q-38 0 -47 15z" />
    <glyph glyph-name="uniF73F" unicode="&#xf73f;" horiz-adv-x="324" 
d="M156 145q-69 35 -69 90q0 46 89 93q94 47 94 82q0 32 -38 32q-27 0 -61 -24q-33 -25 -38 -25q-14 0 -25 13t-11 26q0 18 24 36q39 26 80 26h1q44 0 79 -35q36 -35 36 -83q0 -55 -69 -92q-67 -37 -59 -32q-33 -22 -33 -42q0 -25 21 -50zM81 38q0 26 16 42q15 17 39 17
q47 0 47 -51q0 -26 -17 -43q-16 -15 -38 -15q-47 0 -47 50z" />
    <glyph glyph-name="uniF7BF" unicode="&#xf7bf;" horiz-adv-x="324" 
d="M267 443q0 -26 -15 -43q-16 -16 -40 -16q-47 0 -47 51q0 26 17 42q16 15 39 15q46 0 46 -49zM191 337q69 -39 69 -92q0 -46 -89 -91q-93 -46 -93 -81q0 -32 37 -32q28 0 61 24q34 25 39 25q12 0 24 -14q11 -13 11 -27q0 -17 -24 -35q-37 -26 -80 -26h-1q-44 0 -79 34
q-36 36 -36 84q0 55 69 92q92 49 92 74q0 22 -20 49z" />
    <glyph glyph-name="uniE001" unicode="&#xe001;" horiz-adv-x="787" 
d="M559 618q-170 -2 -243 -65q-65 -57 -67 -143q0 -29 1 -39q0 -6 -5 -7q-5 -2 -12 4q-40 28 -40 89q1 86 89 140q90 55 240 55q50 0 82 -1l77 -2l41 14q29 10 45 14l7 -2q-26 -66 -90 -404q-22 -118 -31 -178q-4 -31 2 -41q6 -9 32 -12l49 -5l-8 -27q-119 -10 -205 -26
l4 28q25 8 34 45q5 19 19 88l26 121q-44 -9 -173 -9q-67 -131 -133 -206q-107 -123 -214 -125q-44 0 -66 24q-31 30 -28 95l8 6q41 -49 111 -49q90 0 168 91q61 71 143 239q82 171 125 228q25 35 73 60h-61zM684 615q-91 -29 -227 -312h155l22 96q41 181 55 216h-5z" />
    <glyph glyph-name="uniE017" unicode="&#xe017;" horiz-adv-x="772" 
d="M435 630q-143 -9 -216 -78q-68 -64 -68 -174q0 -31 4 -61q3 -14 -11 -11q-22 7 -42 32q-24 30 -24 70q0 84 75 154q115 102 338 102q136 0 195 -36q61 -40 61 -108q0 -118 -158 -157v-3q142 -30 142 -156q0 -105 -106 -161q-79 -43 -206 -43h-212l6 27q60 7 76 24
q17 18 35 96zM454 369q205 9 205 141q0 114 -148 120zM395 103q-8 -41 8 -56q13 -13 50 -13q88 0 138 50q46 47 46 123q0 75 -49 107q-45 29 -140 27z" />
    <glyph glyph-name="uniE019" unicode="&#xe019;" horiz-adv-x="531" 
d="M503 71q-107 -121 -247 -121q-94 0 -147 70q-52 66 -52 174q0 248 184 393q100 77 207 77q50 0 84 -24q35 -24 36 -63q0 -38 -28 -77h-22q-1 119 -111 119q-118 0 -194 -130q-68 -117 -68 -267q0 -106 45 -161q40 -49 107 -49q97 0 190 84z" />
    <glyph glyph-name="uniE025" unicode="&#xe025;" horiz-adv-x="896" 
d="M450 627q-144 -8 -224 -81q-77 -69 -77 -181q0 -34 4 -55q2 -14 -11 -11q-23 7 -43 32q-22 30 -22 67q0 89 81 160q125 106 369 106q183 0 274 -79q82 -72 82 -202q0 -201 -168 -311q-108 -72 -289 -72h-206l8 27q60 5 75 21q16 16 34 93zM415 114q-13 -60 11 -69
q21 -8 57 -8q139 0 225 102q82 97 82 243q0 240 -264 246z" />
    <glyph glyph-name="uniE02B" unicode="&#xe02b;" horiz-adv-x="493" 
d="M482 101q-107 -116 -247 -116q-84 0 -137 50t-53 128q0 130 178 198q-64 33 -64 112q0 74 69 132q69 59 162 59q48 0 80 -21q33 -22 33 -55q0 -36 -28 -72h-21q0 108 -107 108q-54 0 -84 -39q-28 -36 -28 -88q0 -47 31 -75q32 -29 90 -29l54 2l3 -12l-43 -43q-33 3 -54 3
q-85 0 -134 -42q-48 -42 -48 -112q0 -65 41 -103t107 -38q96 0 182 76z" />
    <glyph glyph-name="uniE045" unicode="&#xe045;" horiz-adv-x="716" 
d="M789 694q-17 -59 -35 -79q-15 -12 -42 -12l-201 10l-55 -266h25q113 0 218 9l3 -11l-52 -47q-20 0 -92 4q-66 4 -95 4h-16l-36 -185q-12 -60 2 -75q14 -14 86 -19l-7 -27h-275l9 27q58 5 73 19q16 14 29 75l107 496q-124 10 -197 -32q-89 -50 -90 -173q0 -29 2 -42
q4 -18 -14 -9q-51 33 -51 96q0 71 64 125q80 73 274 73q37 0 149 -2q56 -2 120 -2q44 0 73 51z" />
    <glyph glyph-name="uniE047" unicode="&#xe047;" horiz-adv-x="638" 
d="M594 293q-9 -30 -36 -144q-56 -241 -169 -351q-72 -70 -119 -70q-24 0 -45 25q-20 24 -22 53q-1 9 13 12q36 -17 86 -17q62 0 99 69q33 59 63 190l-2 1q-99 -76 -199 -76q-88 0 -140 64q-53 64 -53 171q0 186 129 318q123 126 278 126q62 0 102 -25q41 -26 41 -65
q0 -28 -30 -77h-21q-7 121 -135 121q-125 0 -203 -119q-71 -108 -71 -248q0 -105 45 -160q39 -49 103 -49q83 0 163 64l36 179l-173 5l-1 10l42 28l251 12l4 -10z" />
    <glyph glyph-name="uniE051" unicode="&#xe051;" horiz-adv-x="840" 
d="M662 356q43 216 129 318q60 72 100 72q28 0 28 -27q0 -24 -19 -46q-10 -12 -21 -6q-20 10 -31 10q-17 0 -31 -26q-38 -72 -96 -375q-18 -103 -31 -187q-4 -26 3 -34q8 -8 36 -11l46 -5l-10 -27q-75 -6 -203 -30l6 28q26 13 34 49l53 264q-56 -15 -243 -15
q-61 -257 -199 -354q-66 -48 -121 -48q-34 0 -55 29q-21 31 -21 67l12 8q44 -38 110 -38q56 0 92 45q54 65 106 313q49 244 70 281q-113 -2 -179 -58q-71 -59 -72 -169q0 -32 3 -52q2 -14 -12 -11q-22 6 -40 30q-22 29 -22 68q2 92 91 157q93 69 245 72q33 22 68 32l6 -4
q-16 -38 -71 -320h239z" />
    <glyph glyph-name="uniE057" unicode="&#xe057;" horiz-adv-x="483" 
d="M494 630q-31 -6 -39 -12q-8 -7 -14 -33l-96 -463q-13 -60 -1 -74q11 -15 74 -21l-6 -27h-260l6 27q60 6 76 20q16 15 29 76l109 498q-100 -2 -159 -57q-60 -55 -60 -149q0 -15 2 -37q1 -12 -10 -9q-22 7 -39 29q-19 26 -19 56q0 77 73 135q86 69 263 69q38 0 76 -4z" />
    <glyph glyph-name="uniE06D" unicode="&#xe06d;" horiz-adv-x="469" 
d="M487 631q-28 -6 -36 -13t-13 -34l-91 -447q-41 -204 -175 -290q-65 -40 -122 -40q-50 0 -71 42q-15 30 -17 67q2 15 14 7q57 -59 128 -59q47 0 74 29q49 49 94 274l93 453q-95 -1 -151 -59q-55 -57 -55 -150q0 -17 2 -41q2 -11 -11 -7q-21 6 -39 29q-19 26 -19 57
q0 76 69 133q92 76 263 76q44 0 69 -3z" />
    <glyph glyph-name="uniE072" unicode="&#xe072;" horiz-adv-x="880" 
d="M542 627q-29 -4 -38 -13q-8 -7 -14 -31l-57 -255l2 1q31 22 65 54l77 81l112 121q75 79 126 79q19 0 33 -13q13 -13 12 -28q0 -39 -35 -51q-17 -6 -27 7q-7 12 -24 12q-29 0 -120 -93q-45 -45 -107 -113q56 -129 113 -221q80 -132 154 -136q19 0 34 3l-1 -25
q-41 -20 -95 -20q-57 0 -103 50q-32 34 -77 116q-27 48 -76 154q-11 22 -23 14q-24 -13 -49 -37l-33 -153q-14 -67 -2 -82q10 -14 74 -21l-6 -27h-258l6 27q60 6 75 21q16 15 32 83l112 487q-110 -1 -184 -51q-87 -60 -87 -169q0 -30 2 -47q2 -14 -10 -11q-22 6 -40 30
q-20 27 -20 61q0 79 85 146q100 79 303 77q70 -2 75 -3z" />
    <glyph glyph-name="uniE076" unicode="&#xe076;" horiz-adv-x="737" 
d="M713 164q-36 -93 -71 -138q-37 -46 -96 -46q-46 0 -211 15q-127 12 -178 12v7q17 19 76 37q9 1 26 1q52 79 111 342l50 227q-113 -1 -187 -54q-85 -61 -85 -172q0 -30 3 -54q2 -13 -11 -10q-23 7 -41 31q-20 28 -20 63q0 87 89 154q105 79 298 79q52 0 88 -3l-6 -26
q-42 -6 -47 -25l-52 -227q-54 -236 -137 -324l-1 -3q155 -8 212 -8q54 0 92 33q32 28 72 100z" />
    <glyph glyph-name="uniE081" unicode="&#xe081;" horiz-adv-x="1017" 
d="M950 11q-107 -11 -211 -28l4 27q27 12 37 46l31 137q36 168 83 364h-2q-148 -193 -350 -564l-25 -4l-50 565h-2q-100 -404 -196 -532q-84 -110 -187 -110q-40 0 -62 20q-30 26 -32 88q6 6 10 8q40 -38 95 -38q100 0 181 140q84 139 172 485q-116 0 -193 -55
q-89 -64 -90 -181q0 -24 4 -50q0 -12 -11 -11q-23 7 -41 33q-22 31 -21 68q2 82 79 147q99 81 286 87q11 5 30 16l26 15l8 -1q6 -61 30 -248l34 -270l2 1q254 421 387 530q66 55 102 55q17 0 29 -21q11 -19 11 -39q0 -9 -13 -9q-71 8 -96 -6t-39 -73q-15 -64 -69 -346
q-19 -98 -27 -157q-5 -33 2 -42q7 -11 40 -15l45 -5z" />
    <glyph glyph-name="uniE083" unicode="&#xe083;" horiz-adv-x="870" 
d="M948 631q-54 -9 -73 -24q-16 -13 -28 -51q-21 -66 -42 -172l-80 -397l-27 -3q-118 312 -252 504h-3q-55 -338 -161 -459q-68 -80 -152 -80q-37 0 -56 21q-29 27 -33 76q12 8 9 7q39 -27 89 -27q92 0 161 123q84 149 113 373q-72 96 -156 96q-119 0 -119 -170q0 -27 3 -50
q2 -13 -14 -8q-20 6 -36 30t-16 51q0 58 50 112q78 81 182 81q141 0 276 -245q76 -135 135 -276h1l45 242q22 122 26 171q4 37 -13 48q-17 12 -79 15l7 26l249 12z" />
    <glyph glyph-name="uniE08D" unicode="&#xe08d;" horiz-adv-x="639" 
d="M569 591q61 -75 60 -193q-1 -175 -100 -295q-97 -118 -236 -118q-102 0 -164 73q-62 74 -62 197q0 165 103 287t244 122q95 0 155 -73zM230 507q-69 -118 -69 -260q0 -104 36 -165q39 -64 108 -64q95 0 164 126q67 120 67 270q0 217 -133 217q-100 0 -173 -124z" />
    <glyph glyph-name="uniE0A4" unicode="&#xe0a4;" horiz-adv-x="754" 
d="M455 629q-145 -5 -224 -71t-79 -185q0 -16 3 -55q2 -14 -12 -10q-24 6 -43 31q-22 29 -22 66q0 73 58 135q116 124 356 124q278 0 278 -187q0 -93 -78 -152q-69 -52 -164 -56l-6 27q160 25 160 179q0 134 -151 150l-105 -494q-14 -66 -2 -82t78 -23l-7 -26h-264l7 26
q58 7 73 22q16 16 31 83z" />
    <glyph glyph-name="uniE0A6" unicode="&#xe0a6;" horiz-adv-x="627" 
d="M820 -152q-85 -105 -189 -105q-66 0 -144 39q-52 28 -171 105q-95 62 -135 74q-54 -14 -112 -21l-10 11q25 39 77 67q32 -1 73 -15q122 35 214 147q102 124 102 276q0 205 -139 205q-102 0 -169 -104q-57 -90 -58 -189q-1 -80 32 -132q32 -50 81 -50q8 0 13 1l1 -25
q-22 -15 -61 -15q-58 0 -104 53q-53 60 -52 157q1 127 91 228q98 109 238 109q110 0 170 -79q53 -69 53 -173q0 -191 -180 -322q-98 -71 -181 -104v-2q79 -30 202 -103q120 -69 199 -69q77 0 145 60z" />
    <glyph glyph-name="uniE0A9" unicode="&#xe0a9;" horiz-adv-x="838" 
d="M812 2q-30 -16 -77 -16q-83 0 -143 124q-34 67 -72 156q-9 19 -25 24q-18 6 -65 3l-36 -164q-14 -66 -2 -81q11 -15 75 -21l-5 -27h-262l7 27q58 6 73 21q17 16 32 81l115 500q-145 -10 -216 -85q-58 -62 -59 -156q0 -28 6 -58q2 -16 -12 -13q-66 20 -66 99q0 85 86 152
q116 96 315 96q137 0 196 -41q61 -43 61 -121q0 -120 -155 -183q40 -97 84 -177q67 -121 150 -114zM436 322q213 8 213 168q0 130 -145 137z" />
    <glyph glyph-name="uniE0B2" unicode="&#xe0b2;" horiz-adv-x="522" 
d="M476 514q2 47 -23 75q-27 30 -79 30t-84 -36q-30 -34 -30 -83q0 -66 107 -151q110 -88 110 -170q0 -99 -100 -170q-83 -59 -173 -59q-83 0 -135 48q-48 45 -48 110q0 64 44 100q6 5 11 4q6 -2 5 -9q-3 -19 -3 -42q0 -64 47 -108q50 -47 127 -47q61 0 102 29q49 35 49 103
q0 69 -105 154q-105 87 -105 170q0 89 82 152q64 50 139 50q50 0 82 -23q30 -23 30 -57q0 -37 -27 -70h-23z" />
    <glyph glyph-name="uniE0BA" unicode="&#xe0ba;" horiz-adv-x="674" 
d="M760 698q-16 -56 -31 -74q-19 -22 -66 -22q-19 0 -60 2l-90 3l-93 -468q-15 -73 -3 -89q11 -16 84 -23l-6 -27h-282l6 27q68 7 85 22q17 17 33 91l99 472q-46 3 -92 3q-205 -1 -200 -199q0 -24 4 -54q2 -13 -7 -13q-18 0 -37 24q-23 28 -24 71q0 86 98 157q81 57 218 57
q70 0 158 -5l109 -4q44 0 69 57z" />
    <glyph glyph-name="uniE0C9" unicode="&#xe0c9;" horiz-adv-x="880" 
d="M898 642q-45 -19 -66 -110q-50 -209 -88 -423q-7 -40 5 -49t74 -11l-4 -26q-78 -9 -175 -38l-6 9l48 214l-2 2q-178 -225 -333 -225q-60 0 -80 49q-19 48 2 133q1 6 111 409q8 28 1 38q-6 9 -29 9q-93 0 -154 -66q-62 -67 -62 -169q0 -23 2 -47q2 -13 -11 -9
q-20 4 -37 27q-19 27 -19 66q0 76 66 141q102 98 274 98q47 0 58 -21q10 -20 -6 -69q-56 -187 -105 -388q-33 -136 45 -136q70 0 155 75q69 61 119 143q23 36 33 79l63 286l114 31z" />
    <glyph glyph-name="uniE0DF" unicode="&#xe0df;" horiz-adv-x="813" 
d="M429 -15q-7 99 -22 366q-13 216 -17 264q-107 -7 -171 -61q-69 -59 -69 -159q0 -19 4 -53q2 -15 -11 -12q-21 3 -41 29q-22 28 -22 62q0 67 50 121q88 93 264 110q40 19 67 29l10 -1q0 -8 30 -568q104 120 199 277q74 120 74 192q0 29 -7 49q-5 11 -2 21q20 46 48 46
q38 0 38 -69q-1 -92 -100 -238q-92 -139 -299 -405h-23z" />
    <glyph glyph-name="uniE0E1" unicode="&#xe0e1;" horiz-adv-x="1083" 
d="M784 623l20 -241q14 -177 20 -262q80 113 139 214q95 162 95 247q0 29 -7 49q-5 11 -2 21q18 46 48 46q16 0 26 -18q12 -20 11 -51q-1 -90 -107 -262q-83 -135 -251 -381h-25q-10 199 -33 483h-2l-291 -483h-24q5 403 0 630q-120 -11 -185 -70q-66 -60 -66 -160
q0 -22 4 -50q4 -16 -11 -13q-21 6 -39 30q-22 28 -22 62q0 73 52 129q84 90 274 109l68 25l9 -1l-3 -237q-3 -183 -3 -302h3q175 292 276 486h26z" />
    <glyph glyph-name="uniE0EB" unicode="&#xe0eb;" horiz-adv-x="680" 
d="M110 522q107 142 181 142q32 0 56 -57q15 -36 42 -142l11 -44q62 90 96 134q83 109 145 109q47 0 47 -44q0 -32 -34 -48q-14 -6 -22 8q-10 18 -29 16q-20 -2 -51 -33q-57 -57 -141 -186q40 -161 55 -213q31 -111 55 -111q40 0 118 82l16 -22q-97 -127 -178 -127
q-30 0 -53 49q-16 35 -41 129l-32 126q-101 -163 -169 -238q-64 -71 -128 -71q-25 0 -42 18q-16 16 -16 38q0 38 32 57q14 8 17 -5q14 -34 43 -34q68 0 198 197q36 54 54 84q-16 73 -38 154q-29 108 -53 108q-34 0 -122 -98z" />
    <glyph glyph-name="uniE0ED" unicode="&#xe0ed;" horiz-adv-x="660" 
d="M405 380q75 165 172 246q48 38 89 38q21 0 35 -13q13 -13 13 -31q0 -38 -39 -51q-13 -5 -22 10q-8 17 -31 17q-47 -1 -114 -97q-55 -80 -78 -146q-17 -48 -25 -91l-26 -135q-12 -65 1 -79q11 -14 81 -21l-5 -27h-280l6 27q70 6 87 20q17 15 30 80l27 143q14 79 11 134
q-9 199 -116 202q-57 1 -127 -52l-13 22q97 88 181 88q154 0 139 -284h4z" />
    <glyph glyph-name="uniE0F7" unicode="&#xe0f7;" horiz-adv-x="602" 
d="M91 476q94 188 152 188q46 0 199 -23q59 -10 89 -10q33 0 78 56q9 9 12 9q8 -19 8 -21q1 -18 -18 -41q-132 -164 -480 -528v-2q41 4 118 -22q135 -45 170 -45q62 0 148 133l25 -15q-100 -197 -178 -197q-47 0 -212 68q-65 27 -86 27q-42 0 -73 -57q-5 -9 -14 -9
q-13 0 -13 23q1 32 63 98q335 354 441 476q-34 -9 -93 -4q-168 14 -159 14q-63 0 -152 -133z" />
    <glyph glyph-name="uniE029" unicode="&#xe029;" horiz-adv-x="896" 
d="M450 627q-146 -8 -226 -81q-76 -69 -76 -181q0 -33 4 -54q2 -15 -10 -12q-24 7 -43 32q-23 30 -23 67q0 88 82 159q124 107 370 107q180 0 273 -80q82 -72 82 -201q0 -200 -169 -311q-108 -72 -288 -72h-206l7 27q60 5 76 21q16 17 34 94l41 177h-109l11 38h107zM415 112
q-14 -62 11 -69q22 -7 56 -7q138 0 224 101q84 97 84 245q0 238 -264 246l-59 -271h158l-10 -38h-156z" />
    <glyph glyph-name="uniE053" unicode="&#xe053;" horiz-adv-x="840" 
d="M692 475q38 128 99 198q60 72 101 72q30 0 28 -27q0 -23 -18 -44q-12 -13 -22 -7q-17 10 -32 10q-17 0 -31 -26q-31 -58 -55 -176h87l-12 -37h-84l-32 -161q-17 -96 -31 -190q-4 -23 4 -31q8 -9 36 -12l45 -5l-10 -27q-73 -6 -202 -30l5 28q26 13 34 52q5 21 22 111
q17 86 24 116q-49 -15 -245 -15q-55 -226 -189 -319q-65 -49 -122 -49q-35 0 -55 30q-21 29 -21 66l12 9q44 -39 110 -39q56 0 92 44q54 67 106 314q19 89 24 108h-87l13 37h82q24 110 38 137q-117 -3 -183 -61q-68 -60 -68 -169q0 -33 4 -50q2 -14 -13 -11q-22 6 -40 30
q-22 29 -22 68q1 93 91 157q96 69 245 72q33 22 68 32l6 -4q-12 -27 -46 -201h244zM440 438q-15 -69 -23 -117h238q12 64 27 117h-242z" />
    <glyph glyph-name="uniE09E" unicode="&#xe09e;" horiz-adv-x="642" 
d="M622 671l-55 -76q65 -75 65 -199q-1 -173 -100 -292q-98 -119 -239 -119q-78 0 -134 47l-56 -78l-26 25l56 78q-66 74 -66 201q0 163 103 284q103 122 243 122q73 0 129 -44l53 73zM507 572q-34 58 -105 58q-100 0 -174 -122q-70 -117 -70 -258q0 -75 23 -130zM197 84
q37 -65 107 -65q98 0 170 124q69 119 69 267q0 76 -20 125z" />
    <glyph glyph-name="uniE0C2" unicode="&#xe0c2;" horiz-adv-x="674" 
d="M759 699q-13 -55 -30 -75q-18 -22 -66 -22q-19 0 -60 2l-90 3l-51 -257h112l-11 -37h-109l-34 -174q-15 -74 -2 -90q11 -15 83 -22l-6 -27h-282l6 27q68 7 85 22q17 16 33 91l36 173h-102l11 37h99l55 262q-46 3 -93 3q-202 -1 -199 -199q0 -24 4 -54q2 -13 -8 -13
q-17 0 -36 24q-23 29 -24 71q0 85 96 156q81 58 220 58q71 0 158 -5l109 -4q45 0 70 57z" />
    <glyph glyph-name="uniE03D" unicode="&#xe03d;" horiz-adv-x="870" 
d="M947 631q-54 -10 -73 -25q-16 -14 -28 -51q-18 -55 -41 -171l-63 -314q-33 -165 -68 -219q-42 -67 -101 -67q-43 0 -43 32q0 15 12 31q11 16 20 16q6 0 18 -4q12 -5 20 -5q59 0 89 151q-108 292 -242 481h-2q-54 -334 -163 -458q-70 -79 -151 -79q-38 0 -57 21
q-29 27 -33 75q5 7 9 8q43 -27 89 -27q92 0 161 122q85 151 114 373q-72 96 -155 96q-122 0 -122 -170q0 -26 3 -49q2 -12 -13 -8q-20 5 -36 29q-16 25 -16 52q0 58 50 111q78 82 182 82q141 0 276 -245q72 -128 134 -276h2l45 242q21 113 26 170q3 37 -14 49t-78 15l7 26
l249 12z" />
    <glyph glyph-name="uniE041" unicode="&#xe041;" horiz-adv-x="896" 
d="M450 627q-146 -8 -226 -81q-76 -69 -76 -181q0 -33 4 -54q2 -15 -10 -12q-24 7 -43 32q-23 30 -23 67q0 88 82 159q124 107 370 107q180 0 273 -80q82 -72 82 -201q0 -200 -169 -311q-108 -72 -288 -72h-206l7 27q60 5 76 21q16 17 34 94l41 177h-109l11 38h107zM415 112
q-14 -62 11 -69q22 -7 56 -7q138 0 224 101q84 97 84 245q0 238 -264 246l-59 -271h158l-10 -38h-156z" />
    <glyph glyph-name="uni25B7" unicode="&#x25b7;" horiz-adv-x="606" 
d="M131 110l311 150l-312 145zM75 26q2 465 1 465l487 -230v-2l-486 -235z" />
    <glyph glyph-name="uniE0C0" unicode="&#xe0c0;" horiz-adv-x="1097" 
d="M1061 84q-86 -96 -145 -96q-38 0 -15 96l53 234q16 69 -8 69q-31 0 -98 -65q-66 -64 -105 -128q-27 -115 -39 -187q-45 -9 -72 -18l-7 8q93 417 131 617q-39 -10 -79 -10q-15 0 -161 6l-99 -467q-17 -77 -4 -94q11 -16 83 -22l-5 -27h-282l5 27q69 6 86 22t35 95l104 472
q-55 5 -113 5q-183 0 -180 -173q0 -50 16 -91q5 -14 -6 -14q-21 0 -45 24q-31 31 -31 82q0 89 98 158q82 57 218 57l160 -6q117 -7 163 -7q75 0 105 58h28q-30 -122 -98 -446h3q90 118 182 166q37 20 64 20q55 0 30 -110l-56 -241q-9 -34 2 -36q20 0 69 46z" />
    <glyph glyph-name="uniF730" unicode="&#xf730;" horiz-adv-x="484" 
d="M77 65q-36 69 -16 163q19 90 80 154q67 70 152 70q89 0 128 -72q37 -67 17 -171q-17 -87 -78 -150q-67 -71 -156 -71q-88 0 -127 77zM305 89q33 54 48 127t3 130q-14 73 -69 73q-54 0 -95 -69q-33 -53 -48 -126q-14 -75 -3 -129q15 -73 71 -73q52 0 93 67z" />
    <glyph glyph-name="uniF731" unicode="&#xf731;" horiz-adv-x="337" 
d="M277 0h-261l6 26l51 7q26 4 34 14q9 11 16 47l46 237q7 34 1 44q-5 8 -31 10l-58 3l4 24q98 14 183 40l-68 -358q-7 -37 -2 -48q5 -10 29 -13l56 -7z" />
    <glyph glyph-name="uniF732" unicode="&#xf732;" horiz-adv-x="429" 
d="M350 0h-347l4 23q143 94 186 130q99 84 99 154q0 82 -80 82q-50 0 -123 -82l-21 22l60 73q56 50 122 50q53 0 88 -32q39 -36 39 -95q0 -65 -74 -131q-55 -46 -171 -127v-2h147q52 0 75 37l11 19l26 -6z" />
    <glyph glyph-name="uniF733" unicode="&#xf733;" horiz-adv-x="397" 
d="M111 407q48 45 109 45q50 0 82 -29q33 -30 33 -82q0 -45 -34 -79q-17 -17 -74 -54v-2q105 -25 105 -130q0 -114 -141 -197q-76 -42 -134 -42q-56 0 -83 33q-16 18 -6 36q6 15 23 28q13 9 24 -2q44 -42 99 -42q60 0 97 46q36 44 36 109q0 108 -101 108q-29 0 -56 -11
l-7 28q79 29 115 53q60 41 60 100q0 72 -71 72q-51 0 -105 -69l-20 20z" />
    <glyph glyph-name="uniF734" unicode="&#xf734;" horiz-adv-x="478" 
d="M419 43h-84l-39 -200h-76l40 200h-256l7 35q203 219 365 374h37l-69 -359h93zM322 355q-97 -98 -245 -262h192l56 262h-3z" />
    <glyph glyph-name="uniF735" unicode="&#xf735;" horiz-adv-x="390" 
d="M340 378l-188 -18l-37 -112q208 -37 208 -178q0 -120 -135 -193q-73 -40 -126 -40q-51 0 -82 33q-17 18 -8 36q7 19 23 28q12 8 23 -3q46 -41 98 -41q54 0 90 41q37 41 37 104q0 123 -186 146l75 247l237 24z" />
    <glyph glyph-name="uniF736" unicode="&#xf736;" horiz-adv-x="483" 
d="M502 576q-103 -21 -192 -85q-91 -65 -132 -149h2q84 40 113 40q63 0 103 -45t40 -119q0 -97 -67 -164q-65 -66 -151 -66q-75 0 -118 52q-44 52 -44 140q0 183 160 309q122 95 282 117zM166 306q-25 -58 -25 -137q0 -58 21 -97q26 -49 77 -49q53 0 85 54q29 48 29 114
q0 138 -110 138q-31 0 -77 -23z" />
    <glyph glyph-name="uniF737" unicode="&#xf737;" horiz-adv-x="424" 
d="M458 429l-397 -579l-78 -15l-7 16q220 251 400 518h-308l14 72h369z" />
    <glyph glyph-name="uniF738" unicode="&#xf738;" horiz-adv-x="464" 
d="M398 573q40 -35 40 -97q0 -49 -46 -90q-34 -28 -81 -60q101 -72 101 -156q0 -72 -64 -127t-151 -55q-66 0 -110 38q-47 39 -47 104q0 56 54 107q25 22 104 73q-78 62 -78 133q0 68 54 116q54 47 130 47q57 0 94 -33zM220 547q-28 -29 -28 -77q0 -66 94 -126q80 56 80 131
q0 45 -25 73q-24 26 -60 26q-35 0 -61 -27zM299 56q33 35 33 88q0 73 -110 148q-104 -67 -104 -155q0 -52 29 -84q29 -31 74 -31q46 0 78 34z" />
    <glyph glyph-name="uniF739" unicode="&#xf739;" horiz-adv-x="471" 
d="M345 19q-82 -102 -219 -152q-79 -29 -127 -31l-6 28q227 54 321 242l-2 2q-79 -37 -112 -37q-57 0 -97 43q-43 45 -43 115q0 87 62 154q64 69 150 69q74 0 117 -55q41 -53 41 -141q0 -131 -85 -237zM327 371q-23 48 -69 48h-1q-50 0 -83 -56q-30 -50 -30 -111
q0 -60 28 -95t79 -35q39 0 74 24q21 51 21 124q0 61 -19 101z" />
    <glyph glyph-name="uniF724" unicode="&#xf724;" horiz-adv-x="455" 
d="M373 313q-13 98 -86 110l-31 -160l18 -8q116 -48 116 -125q0 -67 -59 -105q-51 -32 -127 -35l-14 -73h-33l14 73q-70 3 -130 41q-6 54 -4 119l27 5q20 -118 113 -134l34 176l-16 8q-105 46 -105 116q0 65 53 102q46 32 118 33l13 63h32l-12 -64q28 -1 69 -15
q29 -11 36 -13l1 -50q1 -35 0 -59zM254 425q-37 0 -65 -19q-30 -22 -30 -56q0 -48 67 -77zM210 20q38 0 68 19q36 22 36 60q0 54 -73 88z" />
    <glyph glyph-name="uniF7A2" unicode="&#xf7a2;" horiz-adv-x="462" 
d="M327 435q60 0 94 -23q11 -11 11 -24q0 -15 -11 -27q-12 -13 -24 -13q-8 0 -16 9q-31 37 -61 41l-61 -319q63 -2 128 50l13 -22q-68 -74 -150 -81l-17 -88h-34l17 88q-67 6 -109 49q-45 46 -45 118q0 99 74 167q65 60 158 72l14 76h34zM287 400q-71 -5 -111 -64
q-33 -50 -33 -120q0 -107 84 -132z" />
    <glyph glyph-name="uniE043" unicode="&#xe043;" horiz-adv-x="539" 
d="M109 340q34 93 113 147q78 54 177 54q70 0 132 -27q-5 -99 -7 -113l-25 -3q-12 110 -111 110q-65 0 -117 -46q-51 -46 -75 -122h282l-15 -36h-276q-9 -36 -9 -62h270l-16 -36h-254q3 -77 39 -128q39 -56 101 -56q76 0 152 104l21 -15q-27 -65 -58 -105q-81 -18 -127 -18
q-96 0 -155 60q-57 58 -62 158h-67l13 36h54q2 39 10 62h-53l13 36h50z" />
    <glyph glyph-name="uniE119" unicode="&#xe119;" horiz-adv-x="432" 
d="M187 343q26 105 96 165q57 49 106 49q20 0 36 -10q17 -11 17 -26q0 -16 -15 -32q-14 -15 -25 -14q-60 32 -63 32q-17 0 -30 -22q-20 -31 -46 -180h106l-11 -36h-103l-27 -129q-35 -176 -134 -248q-46 -35 -84 -35q-19 0 -36 13q-17 12 -17 26q1 12 15 29q15 17 24 17
q3 0 25 -16t36 -16q21 0 34 21q22 33 49 177l30 161h-81l12 36h77z" />
    <glyph glyph-name="uniE157" unicode="&#xe157;" horiz-adv-x="484" 
d="M132 283q13 152 110 220q58 39 104 39q60 0 82 -40q7 -13 -2 -30q-9 -13 -22 -21q-13 -9 -24 2q-34 39 -81 39q-62 0 -73 -85q-6 -51 -8 -124h149l-8 -35h-144q-19 -99 -107 -162q47 4 111 -23q64 -31 101 -31q51 0 53 41q1 14 -3 31q-2 9 6 18q19 26 37 26q19 0 19 -33
q0 -57 -79 -110q-48 -30 -90 -30q-37 0 -119 44q-38 23 -65 23q-22 0 -42 -36q-8 -12 -18 -12q-10 1 -13 12q-4 13 8 30q17 22 51 52q54 50 65 160h-75l8 35h69z" />
    <glyph glyph-name="uniE17D" unicode="&#xe17d;" horiz-adv-x="482" 
d="M513 506q-55 -7 -93 -56q-48 -60 -123 -167h125l-8 -33h-132l-14 -75h134l-8 -33h-133l-9 -53q-8 -38 4 -48q12 -11 70 -14l-6 -27h-239l6 27q52 3 67 14q13 10 21 49l11 52h-128l8 33h126l15 75h-128l8 33h118q-25 87 -54 169q-12 33 -26 42q-12 8 -45 12l5 27h195
l-6 -28l-27 -3q-18 -3 -23 -8t-1 -19q-3 13 49 -174q86 123 109 164q10 18 9 25q-1 8 -18 11l-27 4l5 28h168z" />
    <glyph glyph-name="uniE105" unicode="&#xe105;" horiz-adv-x="525" 
d="M485 533l62 -14q-8 -93 -12 -122l-26 -2q0 72 -38 99l-178 -472h10q87 1 166 117l24 -14q-33 -73 -64 -112q-76 -23 -136 -23q-9 0 -13 1l-23 -60h-32l23 62q-28 3 -51 13l-29 -75h-33l34 86q-102 53 -102 195q0 131 89 223q85 88 212 102l23 61h32l-22 -59q8 1 22 1
q12 0 32 -2l22 60h32zM443 503q-16 5 -40 5h-13l-178 -463q22 -15 49 -19zM355 505q-86 -16 -143 -105q-56 -88 -56 -201q0 -88 31 -132z" />
    <glyph glyph-name="uniE11B" unicode="&#xe11b;" horiz-adv-x="474" 
d="M485 529q-9 -54 -16 -129l-27 -2q-3 53 -15 73q-14 24 -87 24h-48q-18 0 -24 -4q-6 -5 -9 -21l-32 -172q120 0 195 8l-10 -52q-33 4 -192 8l-18 -94h150l-7 -34h-150l-6 -30q-11 -50 1 -63q11 -11 69 -15l-6 -26h-231l6 26q48 3 62 15q12 12 23 63l6 30h-82l7 34h82
l49 254q10 50 0 64q-9 13 -58 17l5 26h363z" />
    <glyph glyph-name="uniE121" unicode="&#xe121;" horiz-adv-x="481" 
d="M201 196q-22 -59 -87 -108q55 5 110 -23q68 -33 100 -33q46 0 48 44q1 11 -1 25q-3 9 5 19q21 26 40 26q18 0 16 -30q-3 -67 -80 -114q-46 -28 -89 -28q-34 0 -114 48q-41 22 -59 22q-24 0 -47 -39q-7 -11 -16 -11q-11 1 -14 12q-4 14 10 32q12 18 46 51q40 40 53 107
h-81l9 34h77q5 35 6 56h-79l9 34h72q9 116 103 182q53 40 107 40q61 0 79 -36q9 -15 -1 -32q-8 -13 -21 -21q-14 -9 -25 1q-37 41 -77 41q-67 0 -78 -90q-5 -39 -5 -85h160l-9 -34h-152q0 -32 -6 -56h151l-9 -34h-151z" />
    <glyph glyph-name="uniE12E" unicode="&#xe12e;" horiz-adv-x="481" 
d="M453 307h-93l-40 -135h87l-14 -59h-91l-52 -174h-38l51 174h-108l-52 -174h-38l52 174h-98l15 59h102l40 135h-96l14 59h100l46 154h38l-46 -154h107l46 154h39l-45 -154h88zM214 307l-39 -135h107l40 135h-108z" />
    <glyph glyph-name="uniF642" unicode="&#xf642;" horiz-adv-x="702" 
d="M170 -25l-28 25l421 555l27 -24zM305 293q-47 -62 -117 -62q-52 0 -80 35q-25 32 -25 85q0 69 43 125q47 63 118 63q104 0 104 -124q0 -67 -43 -122zM240 512q-42 0 -68 -70q-21 -56 -21 -110q0 -74 41 -74q42 0 69 74q20 58 20 113q0 67 -41 67zM605 49
q-47 -61 -117 -61q-52 0 -80 36q-25 32 -25 85q0 67 43 124q48 63 118 63q104 0 104 -124q0 -68 -43 -123zM540 269q-41 0 -68 -70q-21 -56 -21 -111q0 -73 41 -73q43 0 69 75q20 57 20 112q0 67 -41 67z" />
    <glyph glyph-name="uniF628" unicode="&#xf628;" horiz-adv-x="990" 
d="M170 -25l-28 25l420 555l27 -24zM305 293q-47 -62 -117 -62q-52 0 -80 36q-25 32 -25 84q0 68 43 125q48 63 119 63q103 0 103 -124q0 -67 -43 -122zM240 512q-42 0 -68 -70q-21 -56 -21 -110q0 -74 40 -74q43 0 69 74q21 58 21 113q0 67 -41 67zM605 49
q-47 -61 -117 -61q-52 0 -80 36q-25 32 -25 85q0 67 43 124q48 63 118 63q104 0 104 -124q0 -68 -43 -123zM898 49q-47 -61 -117 -61q-52 0 -80 36q-25 32 -25 85q0 67 43 124q48 63 118 63q104 0 104 -124q0 -68 -43 -123zM540 269q-41 0 -68 -70q-21 -56 -21 -111
q0 -73 40 -73q43 0 70 75q20 57 20 111q0 68 -41 68zM833 269q-41 0 -68 -70q-21 -56 -21 -111q0 -73 40 -73q43 0 70 75q20 57 20 112q0 67 -41 67z" />
    <glyph glyph-name="uniE10B" unicode="&#xe10b;" horiz-adv-x="703" 
d="M173 257q-4 0 -4 -4v-149q0 -8 7 -17q76 -81 188 -81q119 0 197 91h44q-91 -108 -242 -108q-127 0 -216 81q-90 80 -90 194q0 115 90 195q89 81 216 81t216 -81q90 -80 90 -195v-7h-496zM557 427q0 10 -8 18q-76 78 -185 78q-110 0 -187 -80q-8 -8 -8 -19v-148q0 -4 4 -4
h381q3 0 3 4v151z" />
    <glyph glyph-name="uniF639" unicode="&#xf639;" horiz-adv-x="489" 
d="M447 564q33 -60 30 -155q-3 -146 -66 -270q-77 -151 -201 -151q-82 0 -122 71q-34 61 -32 162q2 138 67 263q79 151 203 151q82 0 121 -71zM184 452q-42 -122 -44 -257q-4 -175 78 -175t133 164q40 125 43 255q6 164 -75 164q-83 0 -135 -151z" />
    <glyph glyph-name="uniF6DC" unicode="&#xf6dc;" horiz-adv-x="336" 
d="M205 128q-13 -65 0 -81q12 -14 80 -21l-6 -26h-268l6 26q65 7 81 21q16 15 29 81l71 362q9 45 1 56q-7 9 -48 11l-40 1l5 25q103 14 187 52z" />
    <glyph glyph-name="uniF63A" unicode="&#xf63a;" horiz-adv-x="467" 
d="M174 581q61 54 130 54q73 0 114 -42q42 -42 42 -114q0 -68 -53 -135q-33 -42 -137 -133l-157 -139h178q44 0 62 9q22 11 51 52l23 -10q-12 -24 -29 -62l-27 -61h-370l1 20q136 117 200 178q173 168 173 266q0 108 -106 108q-69 0 -138 -91l-21 19z" />
    <glyph glyph-name="uniF63B" unicode="&#xf63b;" horiz-adv-x="462" 
d="M166 583q57 52 129 52q61 0 96 -37q33 -34 33 -84q0 -52 -47 -90q-32 -26 -76 -53l-1 -2q119 -33 119 -146q0 -99 -108 -174q-87 -61 -178 -61q-60 0 -97 35q-22 22 -19 41q3 18 26 33q11 8 20 -1q56 -58 122 -58q64 0 103 39q43 44 43 125q0 57 -34 90q-32 29 -80 29
q-31 0 -60 -9l-6 26q191 54 191 159q0 82 -84 82q-61 1 -121 -77l-19 19z" />
    <glyph glyph-name="uniF63C" unicode="&#xf63c;" horiz-adv-x="487" 
d="M454 179h-95l-12 -68q-10 -55 0 -68q10 -12 69 -17l-6 -26h-253l6 26q66 5 81 17t26 68l13 68h-259l6 27q204 252 374 423h42l-78 -407h95zM353 532q-130 -140 -260 -310h197l65 310h-2z" />
    <glyph glyph-name="uniF63D" unicode="&#xf63d;" horiz-adv-x="460" 
d="M429 551h-233l-54 -183q80 24 105 24q81 0 128 -50q43 -44 43 -110q0 -117 -125 -195q-77 -49 -153 -49q-71 0 -109 40q-18 19 -15 37q4 22 26 33q11 7 21 -2q54 -59 127 -59q64 0 102 42q40 44 40 123q0 138 -139 138q-39 0 -91 -16l-6 6l81 293h282z" />
    <glyph glyph-name="uniF63E" unicode="&#xf63e;" horiz-adv-x="489" 
d="M506 611q-54 -10 -110 -33q-164 -67 -228 -227l1 -1l68 32q36 16 60 16q72 0 115 -50q41 -48 41 -125q0 -98 -68 -167q-66 -68 -156 -68q-81 0 -129 58q-48 56 -48 147q0 149 92 263q88 109 232 155q57 18 125 29zM156 314q-18 -50 -18 -121q0 -72 25 -119q28 -54 79 -54
q56 0 92 55q34 54 34 136q0 136 -115 136q-46 0 -97 -33z" />
    <glyph glyph-name="uniF63F" unicode="&#xf63f;" horiz-adv-x="465" 
d="M518 611l-190 -306l-192 -307l-80 -10l-7 12q231 282 391 551h-211q-47 0 -65 -12t-45 -63l-26 8q18 43 43 139h374z" />
    <glyph glyph-name="uniF640" unicode="&#xf640;" horiz-adv-x="477" 
d="M412 599q45 -38 45 -100q0 -56 -43 -93q-32 -25 -94 -65q111 -83 111 -165q0 -78 -66 -134q-66 -54 -154 -54q-73 0 -122 39q-53 43 -53 114q0 64 54 109q29 24 113 77q-83 65 -83 138q0 69 56 120q56 50 135 50q59 0 101 -36zM222 570q-27 -32 -27 -77q0 -47 35 -83
q12 -13 65 -52q87 54 87 142q0 47 -24 75t-64 28q-43 0 -72 -33zM313 57q34 37 34 96q0 77 -117 155q-112 -65 -112 -165q0 -55 29 -88q29 -35 80 -35q52 0 86 37z" />
    <glyph glyph-name="uniF641" unicode="&#xf641;" horiz-adv-x="482" 
d="M439 569q39 -56 39 -139q0 -148 -90 -263q-83 -106 -212 -153q-81 -29 -132 -29l-3 27q105 19 192 90q93 75 135 188l-75 -36q-28 -14 -54 -14q-62 0 -105 45q-44 47 -44 117q0 94 66 164q66 69 154 69q84 0 129 -66zM207 548q-32 -50 -32 -120q0 -132 111 -132
q53 0 91 29q17 57 17 118q0 160 -99 160q-54 0 -88 -55z" />
    <glyph glyph-name="uniE307" unicode="&#xe307;" horiz-adv-x="489" 
d="M487 645l-46 -71q38 -56 38 -158q-1 -147 -65 -274q-78 -154 -204 -154q-57 0 -95 35l-39 -60l-26 21l43 65q-38 59 -38 163q0 141 66 269q79 154 205 154q58 0 94 -36l41 64zM386 547q-19 56 -67 56q-83 0 -137 -148q-45 -123 -47 -261q0 -47 5 -72zM150 77
q21 -57 66 -57q82 0 137 156q44 127 46 255q1 19 -2 71z" />
    <glyph glyph-name="uniE107" unicode="&#xe107;" horiz-adv-x="477" 
d="M429 450q-4 116 -90 136l-44 -228l22 -15q113 -72 113 -161q0 -79 -62 -129q-57 -46 -142 -49l-16 -85h-35l16 85q-108 7 -150 59q0 69 -2 137l28 3q21 -152 131 -165l48 251l-22 14q-110 67 -110 152q0 75 59 122q55 42 137 43l15 76h36l-15 -77q49 -2 118 -39
q-2 -27 -6 -127zM304 588q-58 -1 -89 -35q-28 -29 -28 -72q0 -59 76 -106zM234 37q56 4 87 38q29 32 29 80q0 65 -73 117z" />
    <glyph glyph-name="uniE103" unicode="&#xe103;" horiz-adv-x="477" 
d="M353 540q64 0 104 -31q13 -10 13 -27q0 -14 -13 -27q-12 -13 -24 -13q-9 0 -15 9q-30 39 -74 45l-66 -346l13 -1q68 0 131 53l15 -22q-77 -81 -170 -88l-19 -97h-35l19 98q-69 6 -113 52q-47 50 -47 131q0 100 75 176q71 72 170 86l16 82h36zM309 499q-73 -1 -116 -61
q-39 -55 -39 -139q0 -120 89 -143z" />
    <glyph glyph-name="uniE042" unicode="&#xe042;" horiz-adv-x="578" 
d="M121 391q38 113 129 179q88 65 198 65q58 0 139 -30l-10 -130l-27 -2q-4 69 -32 99q-27 30 -84 30q-72 0 -134 -58t-90 -153h322l-18 -37h-314q-11 -30 -11 -63h298l-16 -37h-283q-2 -97 36 -162q41 -70 110 -70q89 0 181 122l22 -16q-35 -72 -73 -119q-63 -21 -136 -21
q-105 0 -167 72q-62 71 -63 194h-76l18 37h59q2 34 12 63h-56l18 37h48z" />
    <glyph glyph-name="uniE118" unicode="&#xe118;" horiz-adv-x="477" 
d="M217 423q24 112 99 174q65 55 117 55q21 0 39 -13t18 -29q0 -22 -21 -37q-11 -10 -21 0q-34 29 -65 29q-24 0 -44 -27q-22 -33 -51 -205h121l-10 -36h-118l-36 -191q-33 -175 -125 -243q-51 -38 -90 -38q-20 0 -37 13t-17 27q0 21 23 40q10 8 19 0q31 -27 61 -27
q28 0 44 37q20 55 39 171l36 211h-97l10 36h95z" />
    <glyph glyph-name="uniE156" unicode="&#xe156;" horiz-adv-x="485" 
d="M217 297q-16 -119 -115 -198q40 0 107 -30q72 -34 118 -34q58 0 64 44q3 15 -2 33q-3 11 6 23q23 26 39 26q10 0 15 -14t1 -33q-12 -66 -83 -110q-49 -31 -95 -31q-39 0 -136 53q-42 24 -64 24q-25 0 -49 -42q-7 -12 -14 -12q-30 15 -5 46q13 19 57 59q65 60 71 196h-89
l8 35h82q2 48 7 82q16 111 105 178q59 44 108 44q70 0 92 -41q9 -16 0 -31q-6 -11 -20 -21q-14 -9 -26 3q-43 41 -84 41q-73 0 -88 -99q-6 -37 -8 -156h171l-7 -35h-166z" />
    <glyph glyph-name="uniE17C" unicode="&#xe17c;" horiz-adv-x="477" 
d="M547 597q-38 -4 -56 -16q-16 -11 -45 -50q-55 -76 -137 -204h124l-8 -34h-133l-17 -86h136l-7 -34h-136l-13 -70q-10 -49 2 -60q11 -11 75 -16l-6 -27h-251l6 27q59 4 74 16q14 11 24 60l14 70h-137l7 34h137l16 86h-136l6 34h126q-19 82 -61 219q-9 31 -21 39
q-12 9 -50 12l5 26h206l-6 -26l-33 -5q-19 -2 -24 -9q-6 -7 -1 -27q15 -65 55 -211q83 122 127 207q12 21 8 30q-4 8 -26 11l-31 4l7 26h186z" />
    <glyph glyph-name="uniE104" unicode="&#xe104;" horiz-adv-x="576" 
d="M525 615q38 -6 72 -16q-4 -64 -12 -136l-27 -3q-3 89 -48 113l-202 -539q5 -1 12 -1q101 1 193 128l25 -13q-45 -88 -69 -122q-93 -26 -157 -26q-12 0 -17 1l-27 -68h-31l27 71q-30 4 -60 15l-33 -86h-31l37 98q-117 60 -117 219q0 151 99 255q95 99 240 115l26 68h31
l-25 -66q10 1 27 1q12 0 38 -2l25 67h31zM483 584q-20 5 -48 5q-11 0 -15 -1l-200 -526q24 -19 58 -25zM386 584q-106 -18 -172 -115q-64 -95 -64 -223q0 -104 47 -164z" />
    <glyph glyph-name="uniE11A" unicode="&#xe11a;" horiz-adv-x="482" 
d="M515 623q-6 -33 -18 -141l-28 -4q-3 60 -13 82q-14 29 -89 29h-65q-20 0 -26 -5q-6 -6 -10 -26l-42 -214q134 0 215 9l-10 -55q-42 5 -212 9l-22 -116h161l-7 -36h-161l-7 -37q-12 -59 1 -73t79 -19l-5 -26h-252l5 26q54 5 68 18q15 14 27 74l7 37h-83l7 36h83l60 309
q11 61 1 77t-66 20l5 26h397z" />
    <glyph glyph-name="uniE120" unicode="&#xe120;" horiz-adv-x="486" 
d="M219 244q-24 -80 -106 -145q46 0 103 -27q78 -38 120 -38q61 0 61 51q0 11 -4 27q-3 11 7 23q22 25 40 25t18 -35q0 -67 -84 -120q-52 -32 -98 -32q-34 0 -127 54q-43 25 -63 25q-30 0 -56 -45q-6 -12 -16 -12q-30 13 -3 48q18 22 59 58q52 49 67 143h-92l8 33h89
q1 8 2 33q1 20 3 34h-83l8 33h77q14 140 115 215q56 43 107 43q64 0 86 -41q9 -17 -1 -32q-6 -9 -20 -20q-13 -10 -25 3q-36 39 -81 39q-69 0 -87 -98q-6 -35 -8 -109h174l-8 -33h-167q-2 -46 -6 -67h162l-8 -33h-163z" />
    <glyph glyph-name="uniE12D" unicode="&#xe12d;" horiz-adv-x="475" 
d="M478 396h-97l-40 -138h88l-11 -59h-94l-52 -178h-40l51 178h-110l-51 -178h-41l51 178h-101l13 59h106l40 138h-98l13 59h102l46 157h40l-45 -157h109l46 157h40l-45 -157h92zM231 396l-40 -138h109l41 138h-110z" />
    <glyph glyph-name="uniF643" unicode="&#xf643;" horiz-adv-x="467" 
d="M71 63q-36 70 -16 165q19 89 79 154q65 70 148 70q88 0 127 -72q37 -67 17 -171q-16 -87 -76 -150q-67 -71 -153 -71t-126 75zM295 89q31 52 46 127t3 131q-14 71 -67 71q-52 0 -91 -67q-32 -53 -47 -127t-3 -131q15 -71 69 -71q51 0 90 67z" />
    <glyph glyph-name="uniF644" unicode="&#xf644;" horiz-adv-x="467" 
d="M359 0h-300l5 27l63 6q31 3 41 13q11 10 18 48l46 236q7 35 1 44q-5 9 -31 11l-72 4l4 23q108 13 197 40l-69 -358q-6 -36 2 -48q7 -10 34 -13l67 -6z" />
    <glyph glyph-name="uniF645" unicode="&#xf645;" horiz-adv-x="467" 
d="M364 0h-350l3 21q149 97 191 132q101 84 101 154q0 84 -81 84q-54 0 -125 -83l-20 20l61 73q57 51 122 51q54 0 90 -32q39 -35 39 -94q0 -66 -73 -129q-74 -62 -176 -130l-1 -2h149q51 0 75 37l11 17l25 -4z" />
    <glyph glyph-name="uniF646" unicode="&#xf646;" horiz-adv-x="467" 
d="M145 408q49 44 109 44q50 0 82 -29q34 -30 34 -83q0 -44 -36 -78q-16 -15 -74 -51v-2q48 -12 77 -46q30 -36 30 -86q0 -116 -139 -197q-77 -44 -137 -44q-54 0 -85 33q-15 18 -5 36q6 15 21 26q14 9 24 -1q42 -42 100 -42q61 0 100 45q36 43 36 109q0 56 -29 86
q-27 29 -72 29q-29 0 -57 -11l-6 25q174 63 174 153q0 34 -21 54q-20 19 -50 19q-52 0 -106 -70l-19 20z" />
    <glyph glyph-name="uniF647" unicode="&#xf647;" horiz-adv-x="467" 
d="M407 43h-82l-39 -201h-77l40 201h-248l7 34q223 248 357 375h37l-68 -359h91zM312 355q-20 -19 -239 -262h185l56 262h-2z" />
    <glyph glyph-name="uniF648" unicode="&#xf648;" horiz-adv-x="467" 
d="M375 379l-192 -18l-37 -112q213 -34 213 -180q0 -120 -135 -193q-72 -40 -132 -40q-53 0 -83 34q-17 17 -9 36q7 15 23 25q12 8 23 -2q45 -43 99 -43q58 0 96 43q38 42 38 106q0 125 -188 146l75 248l238 23z" />
    <glyph glyph-name="uniF649" unicode="&#xf649;" horiz-adv-x="467" 
d="M490 577q-98 -20 -187 -84q-91 -66 -133 -151h2q84 40 110 40q62 0 102 -44q41 -45 41 -119q0 -98 -66 -166q-63 -65 -148 -65q-74 0 -118 52t-44 140q0 184 157 308q119 95 281 118zM158 309q-25 -55 -25 -140q0 -58 23 -99q27 -48 76 -48q52 0 83 55q27 49 27 115
q0 139 -111 139q-33 0 -73 -22z" />
    <glyph glyph-name="uniF64A" unicode="&#xf64a;" horiz-adv-x="467" 
d="M475 429l-397 -579l-80 -15l-7 13q214 243 402 521h-310l14 72h371z" />
    <glyph glyph-name="uniF64B" unicode="&#xf64b;" horiz-adv-x="467" 
d="M398 575q42 -35 42 -96q0 -52 -42 -88q-42 -33 -86 -62q103 -75 103 -158q0 -73 -64 -128q-65 -55 -152 -55q-66 0 -111 37q-48 40 -48 105q0 56 54 107q17 15 104 72q-78 62 -78 134q0 67 54 115t131 48q56 0 93 -31zM285 575q-40 0 -66 -30q-26 -29 -26 -75
q0 -66 94 -125q80 54 80 134q0 45 -22 71q-22 25 -58 25h-2zM302 56q32 36 32 89q0 78 -110 148q-106 -68 -106 -158q0 -51 28 -82q29 -32 76 -32q48 0 80 35z" />
    <glyph glyph-name="uniF64C" unicode="&#xf64c;" horiz-adv-x="467" 
d="M340 18q-81 -102 -213 -152q-74 -28 -128 -30l-4 27q222 54 314 243l-1 2q-78 -37 -108 -37q-56 0 -96 41q-44 44 -44 114q0 87 61 156q63 70 146 70q73 0 116 -55q42 -53 42 -141q0 -131 -85 -238zM321 372q-23 48 -68 48h-1q-48 0 -79 -56q-29 -51 -29 -112t28 -96
t77 -35q38 0 70 23q22 49 22 126q0 61 -20 102z" />
    <glyph glyph-name="uniF653" unicode="&#xf653;" horiz-adv-x="467" 
d="M379 313q-13 98 -86 110l-31 -160l17 -8q116 -48 116 -126q0 -67 -59 -105q-51 -32 -127 -34l-13 -73h-33l14 73q-70 3 -130 41q-6 54 -4 119l27 5q19 -117 113 -134l34 176l-16 8q-105 46 -105 116q0 65 53 102q46 32 118 33l13 63h32l-12 -64q28 -1 69 -15
q29 -11 36 -13l1 -50q1 -35 0 -59zM260 425q-37 0 -65 -19q-30 -22 -30 -56q0 -48 67 -77zM215 20q39 1 68 19q36 22 36 60q0 54 -72 88z" />
    <glyph glyph-name="uniF654" unicode="&#xf654;" horiz-adv-x="467" 
d="M330 435q62 -2 94 -23q11 -13 11 -24q0 -14 -12 -27q-11 -13 -24 -13q-7 0 -15 9q-34 38 -61 42l-62 -320q63 -2 128 50l14 -22q-68 -74 -150 -81l-17 -88h-34l17 88q-67 6 -109 49q-45 46 -45 118q0 99 74 167q65 60 158 72l14 75h34zM290 401q-72 -6 -111 -65
q-33 -51 -33 -121q0 -106 83 -131z" />
    <glyph glyph-name="uniF64E" unicode="&#xf64e;" horiz-adv-x="467" 
d="M90 338q34 94 103 148q71 55 166 55q49 0 114 -26q-4 -90 -7 -120l-27 -2q-8 116 -86 116q-125 0 -176 -171h241l-19 -34h-231q-9 -36 -9 -60h225l-19 -35h-207q2 -187 112 -187q60 0 132 105l23 -14q-27 -69 -60 -108q-76 -17 -108 -17q-181 0 -188 221h-65l15 35h51
q1 28 10 60h-47l16 34h41z" />
    <glyph glyph-name="uniF64F" unicode="&#xf64f;" horiz-adv-x="467" 
d="M205 342q26 105 95 165q60 50 107 50q19 0 36 -10q17 -12 17 -26q0 -16 -15 -32q-14 -15 -25 -14q-62 33 -63 33q-17 0 -30 -22q-20 -30 -46 -181h106l-11 -36h-103l-27 -129q-35 -176 -133 -247q-49 -36 -85 -36q-19 0 -36 13q-17 12 -17 26q1 11 15 29q15 17 24 17
q3 0 25 -16q23 -17 37 -17q20 0 33 21q22 32 49 178l31 161h-81l11 36h77z" />
    <glyph glyph-name="uniF651" unicode="&#xf651;" horiz-adv-x="467" 
d="M125 283q13 152 110 219q55 40 101 40q58 0 80 -40q7 -15 -2 -30q-9 -13 -22 -21t-24 3q-35 40 -79 40q-59 0 -70 -90q-6 -51 -8 -121h141l-7 -35h-137q-19 -99 -107 -162q44 4 107 -23q66 -31 101 -31q50 0 52 40q1 15 -3 32q-2 9 6 18q19 26 37 26q19 0 19 -33
q0 -58 -79 -112q-44 -28 -90 -28q-35 0 -117 44q-40 23 -62 23t-42 -36q-8 -12 -18 -12q-10 1 -13 12q-4 13 8 30q17 22 51 52q54 50 65 160h-75l8 35h69z" />
    <glyph glyph-name="uniF652" unicode="&#xf652;" horiz-adv-x="467" 
d="M500 506q-55 -7 -93 -56q-56 -70 -123 -167h125l-8 -33h-132l-14 -73h134l-8 -33h-132l-11 -54q-7 -39 5 -49q12 -11 70 -14l-6 -27h-239l5 27q53 3 68 14q13 10 21 49l11 54h-128l8 33h126l15 73h-128l8 33h119q-14 60 -47 169q-10 32 -26 42q-11 8 -45 12l5 27h195
l-6 -28l-27 -3q-18 -3 -23 -8t-2 -19l42 -174q91 131 110 164q10 18 9 25q-1 8 -17 11l-28 4l6 28h166z" />
    <glyph glyph-name="uniF64D" unicode="&#xf64d;" horiz-adv-x="467" 
d="M425 534q13 -3 30 -8q17 -6 22 -7q-6 -67 -14 -121l-24 -2q0 78 -26 99l-167 -472h9q71 2 139 112l23 -14q-27 -64 -60 -111q-67 -20 -111 -20q-8 0 -12 1l-21 -60h-28l22 62q-14 2 -41 13l-27 -75h-29l31 86q-86 50 -86 183q-1 146 90 245q80 86 181 94l22 60h28
l-20 -58q9 1 43 -2l21 60h28zM388 505q-17 5 -28 5h-14l-166 -464q19 -16 39 -19zM315 505q-67 -13 -120 -100q-59 -97 -59 -227q2 -72 23 -108z" />
    <glyph glyph-name="uniE11C" unicode="&#xe11c;" horiz-adv-x="467" 
d="M475 529q-9 -54 -16 -128l-27 -3q-3 54 -15 74q-14 24 -85 24h-40q-18 0 -24 -4q-6 -5 -9 -21l-32 -173q110 0 185 8l-10 -52q-36 4 -182 8l-18 -94h138l-6 -34h-139l-6 -30q-11 -50 1 -63q11 -11 69 -15l-6 -26h-231l6 26q48 3 62 15q12 12 23 63l6 30h-82l7 34h82
l49 254q10 50 0 64q-9 13 -58 17l5 26h353z" />
    <glyph glyph-name="uniE122" unicode="&#xe122;" horiz-adv-x="467" 
d="M191 192q-24 -56 -87 -104q55 5 111 -23q66 -33 99 -33q46 0 48 43q1 12 -1 26q-3 9 5 19q21 26 39 26q19 0 17 -30q-3 -67 -80 -114q-46 -28 -90 -28q-31 0 -113 48q-41 22 -59 22q-24 0 -46 -39q-7 -11 -17 -11q-10 1 -14 12q-3 14 10 32q12 18 46 51q41 41 53 103h-81
l9 34h77q5 45 6 60h-79l10 34h72q9 113 103 181q56 41 106 41q61 0 79 -36q9 -16 -1 -32q-6 -10 -21 -22q-14 -9 -25 2q-38 40 -76 40q-67 0 -78 -91q-5 -31 -5 -83h160l-9 -34h-152q0 -30 -6 -60h151l-9 -34h-152z" />
    <glyph glyph-name="uniF650" unicode="&#xf650;" horiz-adv-x="467" 
d="M439 307h-87l-41 -135h82l-14 -59h-85l-52 -174h-39l52 174h-108l-52 -174h-39l53 174h-92l15 59h96l39 135h-88l13 59h93l46 154h39l-47 -154h108l46 154h38l-45 -154h83zM206 307l-40 -135h107l41 135h-108z" />
    <glyph glyph-name="a.superior" horiz-adv-x="323" 
d="M345 332q-57 -62 -95 -62q-29 0 -14 69l7 35h-2q-36 -47 -76 -76q-36 -28 -60 -28q-40 0 -40 72q0 93 72 154q56 50 125 50h1q14 0 34 -4q18 -4 34 -3q-25 -94 -39 -184q-4 -26 0 -32q16 0 43 27zM196 506q-27 -15 -45 -52q-23 -44 -23 -99q0 -34 16 -34q19 0 55 39
q20 21 52 65q15 61 18 80q-12 9 -38 9q-17 0 -35 -8z" />
    <glyph glyph-name="uniF6EA" unicode="&#xf6ea;" horiz-adv-x="326" 
d="M112 675q30 5 70 15l35 9q9 0 4 -25l-48 -207h1q41 40 77 60q32 18 55 18q45 0 45 -66q0 -115 -97 -178q-45 -31 -92 -31q-45 0 -62 31q-11 23 -1 68l56 260q4 16 1 21q-4 5 -19 5h-26zM266 501q-32 0 -92 -68q-12 -26 -19 -63q-12 -68 35 -68q14 0 32 9q24 13 44 58
q22 47 22 94q0 38 -22 38z" />
    <glyph glyph-name="uniF6EB" unicode="&#xf6eb;" horiz-adv-x="336" 
d="M356 337q-60 -68 -99 -68q-28 0 -14 67l8 40h-2q-39 -50 -84 -82q-34 -25 -56 -25q-44 0 -44 75q0 97 76 157q57 45 112 45q19 0 31 -4l18 85q4 18 0 23q-3 4 -19 5h-26l1 20q27 5 68 15q36 9 38 9q9 0 3 -27q-46 -200 -68 -321q-4 -22 1 -27q16 0 46 30zM146 320
q19 0 51 30q38 40 62 76l17 77q-14 12 -46 12q-22 0 -39 -12q-24 -15 -41 -48q-23 -46 -23 -96q0 -39 19 -39z" />
    <glyph glyph-name="uniF6EC" unicode="&#xf6ec;" horiz-adv-x="270" 
d="M283 340q-72 -70 -144 -70q-26 0 -45 18q-25 24 -25 69q0 96 75 151q50 37 97 37h1q57 0 57 -50q0 -71 -168 -110q-1 -7 -1 -16q2 -54 47 -54q44 0 95 42zM189 506q-44 -29 -56 -98q110 30 110 78q0 29 -29 29q-12 0 -25 -9z" />
    <glyph glyph-name="uniE10A" unicode="&#xe10a;" horiz-adv-x="270" 
d="M224 579q7 -14 -58 98l2 8q30 12 57 7q16 -77 23 -107zM283 340q-72 -70 -144 -70q-26 0 -45 18q-25 24 -25 69q0 96 75 151q50 37 97 37h1q57 0 57 -50q0 -71 -168 -110q-1 -7 -1 -16q2 -54 47 -54q44 0 95 42zM189 506q-44 -29 -56 -98q110 30 110 78q0 29 -29 29
q-12 0 -25 -9z" />
    <glyph glyph-name="uniE11D" unicode="&#xe11d;" horiz-adv-x="263" 
d="M342 529q-19 -23 -42 -29q-2 0 -8 -2l-9 -2q5 -13 5 -31q0 -54 -47 -92q-35 -26 -81 -33q-13 -9 -13 -16q0 -11 57 -38q77 -37 77 -79q0 -33 -52 -61q-50 -26 -101 -26q-45 0 -79 20q-36 21 -36 51q0 39 99 79q-25 17 -25 32q0 19 44 40q-55 13 -55 74q0 60 48 99
q41 31 85 31q36 0 58 -16q45 -1 69 14zM153 497q-21 -29 -21 -75q0 -55 40 -55q25 0 43 25q18 27 18 72q0 58 -41 58q-22 0 -39 -25zM225 189q0 21 -41 46q-7 4 -52 24q-62 -27 -62 -59q0 -22 26 -37q25 -15 56 -15q73 0 73 41z" />
    <glyph glyph-name="uniF637" unicode="&#xf637;" horiz-adv-x="352" 
d="M366 335q-62 -64 -104 -64q-25 0 -11 60l29 125q10 41 -6 41q-20 0 -60 -41q-37 -37 -58 -74q-14 -54 -22 -95l-61 -16q20 84 78 352q5 21 3 26q-3 5 -19 5h-34v21q32 5 73 16q35 9 37 9q14 0 7 -26l-55 -240h3q59 75 118 102q18 9 34 9q41 0 20 -81l-28 -118
q-6 -21 1 -21q13 0 45 28z" />
    <glyph glyph-name="uniF6ED" unicode="&#xf6ed;" horiz-adv-x="187" 
d="M141 644q0 17 10 30q12 15 32 15q30 0 32 -32q1 -17 -11 -30q-13 -14 -31 -14q-32 0 -32 31zM204 334q-57 -65 -105 -65q-25 0 -11 57l35 143q5 21 0 22q-7 0 -45 -28l-9 19q67 63 109 63q21 0 9 -46l-39 -154q-6 -21 2 -21t45 28z" />
    <glyph glyph-name="uniF6EE" unicode="&#xf6ee;" horiz-adv-x="187" 
d="M148 345q-4 -20 3 -21q17 0 48 31l11 -19q-61 -66 -106 -66q-28 0 -13 66l62 288q5 21 2 26q-2 5 -17 5h-34l1 20q31 5 71 16q35 9 37 9q14 0 7 -26z" />
    <glyph glyph-name="uniF6EF" unicode="&#xf6ef;" horiz-adv-x="516" 
d="M533 330q-57 -61 -102 -61q-26 0 -10 70l29 120q10 39 -6 39q-18 0 -60 -41q-39 -39 -57 -71q-17 -69 -22 -102l-62 -15q24 89 42 183q11 46 -5 46q-20 0 -57 -38q-36 -36 -58 -76q-13 -45 -23 -100l-61 -15q26 96 45 196q4 17 0 29q-9 0 -44 -28l-9 16q60 63 99 63
q27 0 13 -57l-11 -47h3q55 67 110 93q21 11 36 11q36 0 20 -77l-6 -28h2q58 70 114 95q20 10 35 10q38 0 21 -74l-31 -127q-5 -21 1 -21q17 0 44 25z" />
    <glyph glyph-name="uni207F" unicode="&#x207f;" horiz-adv-x="356" 
d="M371 332q-59 -63 -102 -63q-25 0 -11 59l30 131q9 39 -6 39q-20 0 -59 -40q-35 -36 -57 -73q-13 -51 -23 -100l-61 -16q34 137 45 196q6 27 -1 28q-12 0 -43 -29l-11 19q64 62 103 62q26 0 11 -55l-12 -54h2q60 75 115 100q21 9 35 9q38 0 19 -79l-28 -122q-5 -21 1 -21
q11 0 44 27z" />
    <glyph glyph-name="o.superior" horiz-adv-x="305" 
d="M300 520q25 -27 25 -73q0 -90 -66 -141q-46 -37 -92 -37t-71 30q-24 28 -24 71q0 105 89 155q37 21 73 21q42 0 66 -26zM193 511q-57 -25 -57 -138q0 -73 48 -73q12 0 20 4q23 9 40 48q20 44 19 100q-2 65 -49 65q-10 0 -21 -6z" />
    <glyph glyph-name="uniF6F1" unicode="&#xf6f1;" horiz-adv-x="243" 
d="M173 455q53 92 88 90q22 0 32 -15q9 -12 0 -29q-7 -12 -19 -21q-9 -8 -18 1q-10 7 -22 7q-14 0 -34 -29q-25 -34 -36 -68q-13 -56 -20 -107l-61 -14q25 111 41 191q6 28 0 34q-12 0 -46 -29l-10 16q63 63 98 63q28 0 12 -62l-7 -28h2z" />
    <glyph glyph-name="uniF6F2" unicode="&#xf6f2;" horiz-adv-x="228" 
d="M239 485q-12 -11 -21 -2q-20 27 -52 27q-31 0 -31 -29q0 -21 46 -49q57 -32 57 -70q0 -36 -38 -65q-37 -28 -81 -28q-24 0 -45 13t-22 29q-1 18 21 32q13 7 20 -3q28 -35 64 -35q35 0 35 28q0 24 -39 49q-63 39 -63 71q0 34 36 63q38 29 72 29h1q22 0 38 -11
q16 -10 16 -24t-14 -25z" />
    <glyph glyph-name="uniF6F3" unicode="&#xf6f3;" horiz-adv-x="210" 
d="M256 510l-67 -2l-36 -152q-7 -35 3 -35q19 0 56 34l11 -18q-57 -68 -111 -68q-34 0 -17 72l38 167h-52l-5 9l20 20h44l13 48l57 38l6 -4l-21 -82h81z" />
    <glyph glyph-name="uni2070" unicode="&#x2070;" horiz-adv-x="326" 
d="M338 695q22 -52 8 -125q-14 -72 -52 -121q-46 -59 -111 -59q-64 0 -89 60q-23 53 -9 125q14 73 52 122q45 58 109 58q67 0 92 -60zM153 572q-29 -154 36 -154q59 0 89 154q31 156 -33 156q-61 0 -92 -156z" />
    <glyph glyph-name="one.superior" horiz-adv-x="326" 
d="M281 396h-191l6 23q40 3 51 11q14 10 20 46l35 180q6 29 1 36q-4 6 -29 9l-28 2l6 21q60 9 132 30l-53 -278q-7 -36 4 -45q8 -8 51 -12z" />
    <glyph glyph-name="two.superior" horiz-adv-x="326" 
d="M330 479l-39 -83h-242l3 18q59 43 117 93q94 85 94 139q0 60 -59 60q-39 0 -85 -57l-18 17l40 49q37 40 92 40q42 0 70 -25q30 -27 29 -72q0 -45 -43 -90q-17 -17 -84 -69l-62 -49v-2h92q43 0 74 40z" />
    <glyph glyph-name="three.superior" horiz-adv-x="326" 
d="M325 528q0 -68 -85 -112q-49 -26 -90 -26q-48 0 -71 25q-12 11 -7 26q8 17 21 24q11 7 21 -4q38 -33 73 -33q29 0 48 20q21 21 21 55q0 68 -67 68q-23 0 -37 -7l-6 24q110 23 110 82q0 42 -47 42q-40 0 -75 -48l-17 17l31 37q31 37 87 37h1q35 0 60 -19q26 -20 26 -55
q0 -40 -67 -74q69 -17 70 -79z" />
    <glyph glyph-name="uni2074" unicode="&#x2074;" horiz-adv-x="326" 
d="M334 493h-59l-4 -25q-6 -31 3 -39q7 -7 43 -11l-4 -22h-176l4 22q42 4 52 10q12 8 18 39l5 26h-162l5 23q126 138 230 239h37l-44 -227h58zM255 685q-117 -127 -143 -157h111l34 157h-2z" />
    <glyph glyph-name="uni2075" unicode="&#x2075;" horiz-adv-x="326" 
d="M323 697h-145l-29 -85q44 14 69 14q43 0 72 -23q32 -26 32 -71q0 -65 -76 -111q-51 -31 -102 -31q-45 0 -68 23q-13 13 -8 27q6 16 19 23q11 8 21 0q36 -36 78 -36q28 0 48 21q24 24 24 63q0 74 -80 74q-36 0 -71 -13l51 176h186z" />
    <glyph glyph-name="uni2076" unicode="&#x2076;" horiz-adv-x="326" 
d="M360 733q-33 -7 -72 -24q-86 -32 -127 -106l36 15q29 11 40 11q43 0 71 -27q30 -29 30 -76q0 -57 -49 -98q-46 -38 -99 -38q-51 0 -83 34q-33 34 -33 89q0 80 56 141q54 59 146 86q26 8 81 17zM254 451q17 27 17 65q0 75 -67 75q-24 0 -52 -15q-13 -34 -13 -69
q0 -89 61 -89q34 0 54 33z" />
    <glyph glyph-name="uni2077" unicode="&#x2077;" horiz-adv-x="326" 
d="M375 741l-219 -345l-57 -5l-4 9q115 144 218 299h-128q-30 0 -43 -20l-11 -21l-25 3l30 88h233z" />
    <glyph glyph-name="uni2078" unicode="&#x2078;" horiz-adv-x="326" 
d="M107 413q-36 26 -37 70q0 37 38 65q9 6 54 31q-48 31 -48 75q0 42 38 72q37 29 85 29q39 0 68 -21q31 -24 31 -64q0 -31 -26 -52q-17 -13 -45 -31q61 -39 61 -88t-45 -80q-42 -29 -98 -29q-44 0 -76 23zM186 711q-15 -16 -15 -38q0 -32 72 -74q39 27 39 69q0 60 -56 60
q-24 0 -40 -17zM241 435q21 18 21 47q0 38 -77 83q-58 -31 -58 -80q0 -30 21 -49q19 -18 46 -18t47 17z" />
    <glyph glyph-name="uni2079" unicode="&#x2079;" horiz-adv-x="326" 
d="M228 534q-21 -10 -37 -10q-39 0 -66 27q-30 28 -30 71q0 52 42 92q42 41 96 41t85 -34q32 -35 32 -95q0 -70 -47 -129q-49 -62 -134 -90q-47 -17 -90 -19l-4 24q150 36 192 139zM178 699q-19 -27 -19 -59q0 -76 64 -76q30 0 51 14q11 28 11 66q0 83 -59 83q-29 0 -48 -28
z" />
    <glyph glyph-name="uniF6E8" unicode="&#xf6e8;" horiz-adv-x="159" 
d="M60 435q0 23 14 38q15 15 37 15q44 0 44 -46q0 -24 -16 -38q-15 -14 -36 -14q-43 0 -43 45z" />
    <glyph glyph-name="uniF6E2" unicode="&#xf6e2;" horiz-adv-x="159" 
d="M34 341q65 26 66 66q3 37 -36 49q-9 4 -8 19q2 33 40 33q23 0 43 -22q22 -25 20 -61q-5 -76 -115 -108z" />
    <glyph glyph-name="uniF6E4" unicode="&#xf6e4;" horiz-adv-x="326" 
d="M324 642q-12 74 -64 83l-24 -120l19 -8q83 -34 83 -96q0 -52 -46 -82q-40 -26 -98 -28l-11 -55h-28l12 56q-60 4 -102 35q-5 36 -2 92l22 4q14 -86 87 -103l26 134l-15 6q-81 32 -81 87q-1 51 43 80q36 24 93 26l9 49h29l-10 -49q25 -2 51 -13q21 -7 30 -11v-37
q1 -28 0 -46zM233 727q-33 -1 -54 -16q-23 -16 -23 -42q0 -31 55 -55zM199 418q79 2 79 64q0 39 -54 63z" />
    <glyph glyph-name="uniF6E0" unicode="&#xf6e0;" horiz-adv-x="326" 
d="M290 726q43 0 64 -21q7 -6 7 -16q0 -11 -9 -21q-9 -9 -18 -9q-6 0 -10 5q-23 27 -48 30l-43 -227h6q43 0 87 34l10 -19q-49 -51 -111 -54l-12 -67h-29l14 67q-51 4 -82 35q-33 32 -33 86q0 67 52 117q49 48 119 58l12 56h27l-10 -54h7zM249 695q-49 -1 -78 -43
q-25 -37 -25 -88q0 -77 60 -92z" />
    <glyph glyph-name="uniF6E6" unicode="&#xf6e6;" horiz-adv-x="231" 
d="M259 545h-178l10 49h178z" />
    <glyph glyph-name="uni207D" unicode="&#x207d;" horiz-adv-x="228" 
d="M309 806q-114 -77 -142 -236q-31 -171 44 -267l-19 -17q-126 102 -91 283q34 181 196 257z" />
    <glyph glyph-name="uni207E" unicode="&#x207e;" horiz-adv-x="228" 
d="M135 826q125 -101 90 -286q-34 -179 -194 -254l-13 21q112 76 142 235q32 170 -44 268z" />
    <glyph glyph-name="uni2080" unicode="&#x2080;" horiz-adv-x="326" 
d="M288 199q21 -51 7 -124t-52 -121q-45 -59 -111 -59q-64 0 -89 60q-23 52 -9 124q14 73 52 122q46 59 110 59q66 0 92 -61zM102 77q-12 -64 -6 -106q8 -51 42 -51q60 0 90 157t-33 157q-61 0 -93 -157z" />
    <glyph glyph-name="uni2081" unicode="&#x2081;" horiz-adv-x="326" 
d="M235 -98h-191l5 20q40 4 51 13q14 10 21 46l35 181q6 30 2 37t-28 9l-29 2l4 20q76 11 133 30l-54 -279q-7 -36 4 -46q8 -8 51 -13z" />
    <glyph glyph-name="uni2082" unicode="&#x2082;" horiz-adv-x="326" 
d="M282 -15q-14 -26 -39 -83h-242l3 17q63 46 117 95q94 83 94 139q0 60 -60 60q-41 0 -86 -56l-15 15l38 49q35 40 94 40q41 0 69 -25q30 -27 30 -72t-44 -90q-13 -12 -85 -70l-61 -48v-2h92q46 0 75 37z" />
    <glyph glyph-name="uni2083" unicode="&#x2083;" horiz-adv-x="326" 
d="M273 34q0 -72 -82 -114q-50 -25 -93 -25q-46 0 -72 23q-11 12 -6 27q5 14 20 23q10 7 22 -3q36 -34 73 -34q29 0 48 21q21 22 21 57q0 71 -67 71q-16 0 -37 -7l-4 21q108 22 108 81q0 44 -48 44q-39 0 -75 -48l-16 15l34 41q31 33 84 33h1q35 0 60 -18q26 -21 26 -55
q0 -38 -68 -74q71 -17 71 -79z" />
    <glyph glyph-name="uni2084" unicode="&#x2084;" horiz-adv-x="326" 
d="M284 1h-58l-5 -27q-6 -32 3 -41q8 -8 43 -12l-4 -19h-181l5 19q43 4 55 12q14 9 20 40l5 28h-163l5 21l229 239h38l-43 -227h57zM202 187q-38 -38 -141 -153h112l31 153h-2z" />
    <glyph glyph-name="uni2085" unicode="&#x2085;" horiz-adv-x="326" 
d="M274 202h-149l-28 -86q48 16 70 16q43 0 73 -23q33 -27 33 -72q0 -66 -76 -112q-52 -30 -103 -30q-46 0 -68 22q-13 13 -8 27q6 14 19 22q11 8 20 0q35 -35 78 -35q29 0 50 21q23 24 23 63q0 76 -79 76q-31 0 -72 -13l52 175h186z" />
    <glyph glyph-name="uni2086" unicode="&#x2086;" horiz-adv-x="326" 
d="M309 240q-36 -8 -72 -24q-83 -33 -126 -107l2 -1l34 15q25 11 39 11q43 0 72 -27q29 -28 29 -75q0 -55 -46 -97q-44 -40 -100 -40q-52 0 -84 34q-33 33 -33 88q0 77 54 139q54 61 147 89q28 9 81 17zM204 -46q17 28 17 66q0 78 -67 78q-25 0 -51 -15q-14 -34 -14 -74
q0 -89 61 -89q34 0 54 34z" />
    <glyph glyph-name="uni2087" unicode="&#x2087;" horiz-adv-x="326" 
d="M326 246q-171 -266 -219 -346l-57 -5l-4 10q124 153 220 299h-134q-32 0 -42 -18l-12 -20h-21l29 88h234z" />
    <glyph glyph-name="uni2088" unicode="&#x2088;" horiz-adv-x="326" 
d="M57 -82q-37 26 -36 69q0 37 38 66q14 12 55 31q-49 31 -49 74t39 73q36 28 84 28q40 0 68 -20q31 -24 31 -63q0 -29 -26 -52q-10 -7 -46 -30q61 -41 61 -89t-45 -80q-42 -30 -98 -30q-44 0 -76 23zM136 218q-15 -16 -15 -38q0 -32 72 -75q39 26 39 70q0 59 -55 59
q-25 0 -41 -16zM193 -62q19 18 19 48q0 43 -78 86q-57 -28 -57 -84q0 -30 21 -50q19 -18 46 -18q30 0 49 18z" />
    <glyph glyph-name="uni2089" unicode="&#x2089;" horiz-adv-x="326" 
d="M178 38q-22 -9 -37 -9q-38 0 -65 26q-30 28 -30 72q0 51 42 92q41 40 95 40t86 -34q31 -35 31 -95q0 -69 -46 -127q-49 -63 -134 -92q-48 -16 -91 -18l-3 21q146 32 192 142zM128 204q-18 -27 -18 -60q0 -35 17 -57t45 -22q32 0 51 14q12 29 12 70q0 85 -58 85
q-29 0 -49 -30z" />
    <glyph glyph-name="uniF6E7" unicode="&#xf6e7;" horiz-adv-x="159" 
d="M15 -60q0 54 52 54q44 0 44 -47q0 -24 -16 -38t-37 -14q-43 0 -43 45z" />
    <glyph glyph-name="uniF6E1" unicode="&#xf6e1;" horiz-adv-x="159" 
d="M-9 -154q64 28 65 67q3 34 -36 48q-9 2 -8 18q2 34 40 34q24 0 43 -22q22 -24 20 -60q-5 -79 -114 -109z" />
    <glyph glyph-name="uniF6E3" unicode="&#xf6e3;" horiz-adv-x="326" 
d="M277 149q-10 73 -69 83l-24 -123l19 -7q85 -30 85 -94q0 -53 -48 -84q-41 -26 -98 -28l-11 -56h-26l11 57q-49 3 -101 35q-4 49 -2 92l19 2q12 -86 90 -104l26 137l-15 5q-80 29 -81 86q-1 49 42 80q38 26 93 28l10 49h27l-10 -49q23 -1 53 -12q11 -5 29 -11v-83z
M183 234q-32 -1 -53 -16q-24 -17 -24 -45q0 -32 54 -54zM147 -79q80 2 80 65q0 40 -55 64z" />
    <glyph glyph-name="uniF6DF" unicode="&#xf6df;" horiz-adv-x="352" 
d="M237 231q42 0 66 -20q7 -7 7 -17t-9 -20q-9 -9 -18 -9q-4 0 -11 5q-24 29 -49 32l-43 -230q3 -1 7 -1q43 1 88 33l10 -16q-54 -53 -112 -56l-12 -66h-27l14 66q-50 4 -82 36q-33 33 -33 86q0 68 53 118q49 48 117 57l12 56h25l-10 -54h7zM199 203q-48 -1 -77 -44
q-26 -38 -26 -90q0 -76 59 -93z" />
    <glyph glyph-name="uniF6E5" unicode="&#xf6e5;" horiz-adv-x="242" 
d="M209 50h-179l10 49h179z" />
    <glyph glyph-name="uni208D" unicode="&#x208d;" horiz-adv-x="228" 
d="M263 335q-113 -77 -142 -237q-31 -173 43 -271l-16 -14q-126 103 -93 283q35 180 197 257z" />
    <glyph glyph-name="uni208E" unicode="&#x208e;" horiz-adv-x="228" 
d="M88 353q126 -103 91 -286q-32 -177 -196 -254l-10 18q112 77 142 238q31 171 -44 270z" />
    <glyph glyph-name="uniF661" unicode="&#xf661;" horiz-adv-x="326" 
d="M338 575q22 -52 8 -125q-14 -72 -52 -121q-46 -59 -111 -59q-64 0 -89 60q-23 53 -9 125q14 73 52 122q45 58 109 58q67 0 92 -60zM153 452q-29 -154 36 -154q59 0 89 154q31 156 -33 156q-61 0 -92 -156z" />
    <glyph glyph-name="uniF662" unicode="&#xf662;" horiz-adv-x="326" 
d="M281 277h-190l6 23q39 3 51 11q13 10 20 46l35 180q6 29 1 36q-4 6 -29 9l-28 2l5 21q69 10 133 30l-54 -278q-6 -36 4 -45q9 -8 52 -12z" />
    <glyph glyph-name="uniF663" unicode="&#xf663;" horiz-adv-x="326" 
d="M330 360q-14 -26 -39 -83h-242l4 18q59 43 117 93q94 85 94 139q0 59 -59 59q-39 0 -86 -56l-17 16l39 49q37 40 93 40q41 0 69 -25q30 -27 30 -72q0 -61 -128 -158l-61 -49v-2h92q42 0 73 40z" />
    <glyph glyph-name="uniF664" unicode="&#xf664;" horiz-adv-x="326" 
d="M255 487q69 -17 69 -78q0 -69 -85 -112q-48 -26 -90 -26q-48 0 -71 25q-12 12 -6 26q5 16 20 24q12 7 21 -4q40 -33 74 -33q29 0 48 20q21 21 21 55q0 68 -67 68q-22 0 -38 -7l-6 24q110 23 110 81q0 42 -47 42q-40 0 -75 -47l-17 16l31 37q31 37 87 37h1q35 0 60 -19
q26 -20 26 -55q0 -40 -66 -72v-2z" />
    <glyph glyph-name="uniF665" unicode="&#xf665;" horiz-adv-x="326" 
d="M334 374h-59l-4 -25q-6 -31 3 -39q7 -7 43 -11l-4 -22h-176l4 22q42 4 52 10q12 8 18 39l5 26h-162l5 23q126 138 230 239h37l-44 -227h58zM255 566q-117 -127 -143 -157h111l34 157h-2z" />
    <glyph glyph-name="uniF666" unicode="&#xf666;" horiz-adv-x="326" 
d="M323 578h-145l-29 -87q42 15 69 15q43 0 72 -23q32 -26 32 -71q0 -64 -76 -110q-51 -31 -102 -31q-45 0 -68 23q-13 13 -8 27q6 16 19 23q12 7 21 0q36 -36 78 -36q28 0 48 21q24 23 24 62q0 74 -80 74q-36 0 -71 -13l51 177h186z" />
    <glyph glyph-name="uniF667" unicode="&#xf667;" horiz-adv-x="326" 
d="M360 613q-30 -7 -72 -23q-88 -35 -127 -106l36 15q29 11 40 11q43 0 71 -27q30 -29 30 -76q0 -57 -49 -98q-46 -38 -99 -38q-51 0 -83 34q-33 34 -33 89q0 80 56 140q54 59 146 86q26 8 81 17zM254 332q17 27 17 65q0 75 -67 75q-24 0 -52 -15q-13 -34 -13 -69
q0 -89 61 -89q34 0 54 33z" />
    <glyph glyph-name="uniF668" unicode="&#xf668;" horiz-adv-x="326" 
d="M375 621q-171 -266 -219 -346l-57 -5l-4 10q110 136 218 299h-128q-30 0 -43 -20l-11 -21l-25 3l30 88h233z" />
    <glyph glyph-name="uniF669" unicode="&#xf669;" horiz-adv-x="326" 
d="M108 293q-37 27 -37 70q0 37 38 65q12 10 54 32q-49 31 -49 75q0 42 39 72q37 29 85 29q39 0 68 -21q31 -24 31 -64q0 -29 -26 -52q-15 -13 -45 -31q60 -40 60 -89t-45 -80q-41 -29 -98 -29q-43 0 -75 23zM186 592q-15 -16 -15 -38q0 -32 72 -74q39 27 39 69q0 60 -56 60
q-24 0 -40 -17zM241 315q21 19 21 48q0 40 -77 83q-58 -31 -58 -80q0 -30 21 -50q19 -18 46 -18t47 17z" />
    <glyph glyph-name="uniF66A" unicode="&#xf66a;" horiz-adv-x="326" 
d="M228 414q-21 -10 -37 -10q-39 0 -66 27q-30 28 -30 72q0 52 42 92q42 41 96 41t85 -34q32 -35 32 -95q0 -71 -47 -130q-48 -61 -134 -90q-50 -18 -90 -18l-4 24q149 34 192 138zM178 580q-19 -27 -19 -59q0 -77 64 -77q27 0 51 14q11 28 11 67q0 83 -59 83q-29 0 -48 -28
z" />
    <glyph glyph-name="uniF66C" unicode="&#xf66c;" horiz-adv-x="159" 
d="M59 316q0 23 15 38t37 15q44 0 44 -46q0 -24 -16 -38t-37 -14q-43 0 -43 45z" />
    <glyph glyph-name="uniF66B" unicode="&#xf66b;" horiz-adv-x="159" 
d="M34 222q65 26 66 66q3 37 -36 49q-9 4 -8 19q2 33 40 33q23 0 43 -22q22 -25 20 -61q-5 -76 -115 -108z" />
    <glyph glyph-name="uniF62F" unicode="&#xf62f;" horiz-adv-x="326" 
d="M324 523q-12 74 -64 83l-24 -120l19 -8q83 -34 83 -96q0 -52 -46 -82q-40 -26 -98 -28l-11 -55h-28l11 56q-59 4 -101 35q-5 36 -2 92l22 4q14 -86 87 -103l26 134l-16 6q-80 32 -80 87q-1 51 43 80q36 24 93 26l9 49h29l-10 -49q25 -2 51 -13q21 -7 30 -11v-37
q1 -28 0 -46zM233 608q-33 -1 -54 -16q-23 -16 -23 -42q0 -31 54 -55zM199 299q79 2 79 64q0 39 -54 63z" />
    <glyph glyph-name="uniF62E" unicode="&#xf62e;" horiz-adv-x="326" 
d="M290 607q43 0 64 -21q7 -6 7 -16q0 -11 -9 -21q-9 -9 -18 -9q-6 0 -10 5q-22 25 -48 30l-43 -226q2 -1 6 -1q43 0 87 34l10 -19q-51 -51 -111 -54l-12 -66h-29l14 66q-51 4 -82 35q-33 33 -33 86q0 67 52 117q49 48 119 58l12 55h27l-10 -53h7zM249 576q-49 -2 -78 -43
q-25 -37 -25 -88q0 -75 60 -92z" />
    <glyph glyph-name="uniF630" unicode="&#xf630;" horiz-adv-x="231" 
d="M259 426h-178l10 49h178z" />
    <glyph glyph-name="uniF631" unicode="&#xf631;" horiz-adv-x="228" 
d="M309 686q-114 -77 -142 -236q-31 -171 44 -267l-19 -17q-126 102 -91 283q34 181 196 257z" />
    <glyph glyph-name="uniF632" unicode="&#xf632;" horiz-adv-x="228" 
d="M135 706q125 -101 90 -286q-34 -179 -194 -254l-13 21q112 76 142 235q32 170 -44 268z" />
    <glyph glyph-name="uniF655" unicode="&#xf655;" horiz-adv-x="326" 
d="M288 297q21 -51 7 -124q-14 -72 -52 -121q-46 -59 -111 -59q-64 0 -89 60q-23 53 -9 124q14 73 52 122q46 59 110 59q66 0 92 -61zM102 175q-12 -64 -6 -106q8 -51 42 -51q60 0 90 157t-33 157q-61 0 -93 -157z" />
    <glyph glyph-name="uniF656" unicode="&#xf656;" horiz-adv-x="326" 
d="M234 0h-190l5 20q40 4 51 13q14 10 21 46l35 182q6 30 2 37t-29 9l-28 2l4 20q76 11 133 30l-54 -280q-7 -36 4 -46q8 -8 51 -13z" />
    <glyph glyph-name="uniF657" unicode="&#xf657;" horiz-adv-x="326" 
d="M282 83q-14 -26 -39 -83h-242l3 17q79 60 117 95q94 83 94 139q0 60 -60 60q-41 0 -86 -56l-15 15l38 49q35 40 94 40q41 0 69 -25q30 -27 30 -72q0 -44 -44 -89q-14 -14 -85 -71l-61 -48v-2h92q46 0 75 37z" />
    <glyph glyph-name="uniF658" unicode="&#xf658;" horiz-adv-x="326" 
d="M273 132q0 -72 -83 -114q-50 -25 -93 -25q-49 0 -71 24q-11 11 -6 26q4 14 20 23q11 8 21 -3q36 -34 74 -34q29 0 48 21q21 22 21 57q0 71 -67 71q-16 0 -37 -7l-4 21q108 22 108 81q0 44 -48 44q-39 0 -75 -48l-16 15l34 41q31 33 84 33h1q35 0 60 -18q26 -21 26 -55
q0 -38 -68 -74q71 -17 71 -79z" />
    <glyph glyph-name="uniF659" unicode="&#xf659;" horiz-adv-x="326" 
d="M284 100h-58l-5 -27q-6 -32 3 -42q8 -8 43 -12l-4 -19h-181l5 19q43 4 55 12q14 9 20 41l5 28h-163l5 21l229 239h38l-43 -227h57zM202 286q-38 -38 -141 -153h112l31 153h-2z" />
    <glyph glyph-name="uniF65A" unicode="&#xf65a;" horiz-adv-x="326" 
d="M274 300h-149l-28 -86q48 16 70 16q43 0 73 -23q33 -27 33 -72q0 -66 -76 -112q-52 -30 -103 -30q-46 0 -68 22q-13 14 -8 27q6 14 19 22q11 8 20 0q37 -35 78 -35q29 0 50 21q23 24 23 63q0 76 -79 76q-31 0 -72 -13l52 175h186z" />
    <glyph glyph-name="uniF65B" unicode="&#xf65b;" horiz-adv-x="326" 
d="M309 338q-36 -8 -72 -24q-83 -33 -126 -107l2 -1l34 15q25 11 39 11q43 0 72 -27q29 -28 29 -75q0 -55 -46 -97q-44 -40 -100 -40q-52 0 -84 34q-33 34 -33 89q0 77 54 138t147 89q28 9 81 17zM204 52q17 28 17 66q0 78 -67 78q-25 0 -51 -15q-14 -34 -14 -74
q0 -89 61 -89q34 0 54 34z" />
    <glyph glyph-name="uniF65C" unicode="&#xf65c;" horiz-adv-x="326" 
d="M326 344q-171 -266 -219 -346l-57 -5l-4 10q124 153 220 299h-134q-32 0 -42 -18l-12 -20h-21l29 88h234z" />
    <glyph glyph-name="uniF65D" unicode="&#xf65d;" horiz-adv-x="326" 
d="M58 16q-37 26 -37 69q0 38 38 66q8 6 54 32q-49 31 -49 74t39 73q37 28 85 28q40 0 68 -20q31 -24 31 -63q0 -31 -26 -52q-8 -7 -46 -30q61 -43 61 -90q0 -48 -45 -80q-42 -30 -97 -30q-44 0 -76 23zM136 317q-15 -16 -15 -38q0 -35 72 -75q39 26 39 69q0 60 -56 60
q-24 0 -40 -16zM193 36q19 19 19 48q0 44 -78 87q-57 -28 -57 -84q0 -31 21 -51q19 -18 46 -18q29 0 49 18z" />
    <glyph glyph-name="uniF65E" unicode="&#xf65e;" horiz-adv-x="326" 
d="M178 137q-22 -9 -37 -9q-38 0 -65 26q-30 28 -30 72q0 51 42 92q41 40 95 40t86 -34q31 -35 31 -95q0 -69 -46 -128q-49 -62 -134 -92q-48 -16 -91 -18l-3 21q147 32 192 143zM128 303q-18 -27 -18 -60q0 -35 17 -57t45 -22q32 0 51 14q12 29 12 70q0 85 -58 85
q-29 0 -49 -30z" />
    <glyph glyph-name="uniF660" unicode="&#xf660;" horiz-adv-x="159" 
d="M15 38q0 54 52 54q44 0 44 -47q0 -24 -16 -38t-37 -14q-43 0 -43 45z" />
    <glyph glyph-name="uniF65F" unicode="&#xf65f;" horiz-adv-x="159" 
d="M-9 -56q64 28 65 67q3 34 -36 48q-9 2 -8 18q2 34 40 34q24 0 43 -22q22 -24 20 -60q-5 -79 -114 -109z" />
    <glyph glyph-name="uniF62A" unicode="&#xf62a;" horiz-adv-x="326" 
d="M277 247q-10 73 -69 83l-24 -122l19 -7q85 -32 85 -95q0 -53 -48 -84q-42 -26 -98 -27l-11 -56h-26l11 56q-46 3 -101 35q-4 51 -2 92l18 2q14 -86 90 -104l27 137l-15 5q-80 31 -81 87q-1 49 42 79q38 26 93 28l10 50h27l-10 -50q23 -1 53 -12q11 -5 29 -11v-83z
M183 332q-32 -1 -53 -16q-24 -17 -24 -45q0 -32 54 -54zM147 18q80 5 80 65q0 41 -55 65z" />
    <glyph glyph-name="uniF629" unicode="&#xf629;" horiz-adv-x="352" 
d="M238 329q42 0 66 -20q7 -7 7 -17q-1 -10 -10 -20q-9 -9 -17 -9q-4 0 -11 5q-24 29 -49 32l-43 -230q3 -1 7 -1q43 2 87 33l11 -16q-56 -53 -113 -56l-12 -66h-27l14 66q-50 4 -82 36q-33 33 -33 86q0 68 53 118q49 48 118 57l12 56h25l-10 -54h7zM199 301q-48 -1 -77 -44
q-26 -38 -26 -90q0 -76 60 -93z" />
    <glyph glyph-name="uniF62B" unicode="&#xf62b;" horiz-adv-x="242" 
d="M209 149h-179l10 49h179z" />
    <glyph glyph-name="uniF62C" unicode="&#xf62c;" horiz-adv-x="228" 
d="M263 433q-113 -77 -142 -237q-31 -173 43 -271l-16 -14q-126 103 -93 283q35 180 197 257z" />
    <glyph glyph-name="uniF62D" unicode="&#xf62d;" horiz-adv-x="228" 
d="M88 451q126 -103 91 -286q-32 -177 -196 -254l-10 18q112 77 142 238q31 171 -44 270z" />
    <glyph glyph-name="uni25C0" unicode="&#x25c0;" horiz-adv-x="606" 
d="M531 488q-2 -465 0 -465h-2l-486 229v2l486 236z" />
    <glyph glyph-name="uni25C1" unicode="&#x25c1;" horiz-adv-x="606" 
d="M476 405l-312 -150l312 -145v295zM531 489q-2 -465 0 -465h-2l-485 229v2l485 236z" />
    <glyph glyph-name="uni25C9" unicode="&#x25c9;" horiz-adv-x="454" 
d="M358 395q53 -54 53 -132t-53 -132q-53 -55 -130 -55q-78 0 -132 55q-53 54 -53 132t53 133q54 54 133 54q76 0 129 -55zM137 358q-35 -39 -35 -95q0 -57 35 -96q36 -40 91 -40q54 0 89 41q35 39 35 95t-35 95q-36 41 -90 41t-90 -41zM178 315q-19 -21 -19 -52t19 -52
q20 -22 50 -22q29 0 48 22t19 52t-19 52q-20 22 -49 22t-49 -22z" />
    <glyph glyph-name="uni25C6" unicode="&#x25c6;" horiz-adv-x="469" 
d="M232 455l202 -205l-197 -199l-202 205z" />
    <glyph glyph-name="filledbox" unicode="&#x25a0;" horiz-adv-x="407" 
d="M345 398v-291h-284v291h284z" />
    <glyph glyph-name="uniE0B0" unicode="&#xe0b0;" horiz-adv-x="554" 
d="M359 650q211 0 211 -169q0 -99 -79 -160q-67 -52 -160 -58q-13 -1 -38 -1l-67 21l-30 -158q-12 -63 1 -77q12 -15 81 -21l-6 -27h-265l7 27q58 6 73 20q15 15 28 78l80 406q12 58 2 72q-11 13 -71 20l6 27h227zM233 315q34 -13 73 -13q65 0 114 41q60 50 60 142
q0 133 -133 133q-25 0 -43 -8q-16 -7 -24 -47zM-50 548q63 24 63 60q0 34 -47 34q-7 0 -9 17q1 18 15 30t34 12q26 0 44 -19q20 -20 20 -52q0 -42 -36 -73q-31 -27 -76 -37z" />
    <glyph glyph-name="uni021A.aalt" horiz-adv-x="506" 
d="M515 480q-8 -49 -19 -146l-28 -2q0 57 -12 76q-14 22 -71 22h-46l-63 -331q-8 -45 2 -56q10 -12 64 -16l-6 -27h-232l5 27q53 4 67 16q14 11 22 56l63 331h-36q-68 0 -88 -23q-16 -16 -42 -75h-28q28 101 38 148h17q9 -18 38 -17h298q22 0 39 17h18zM255 -51
q17 -18 18 -46q0 -88 -118 -115l-9 28q68 24 68 57q0 24 -35 35q-12 3 -12 19q0 39 48 39q24 0 40 -17z" />
    <glyph glyph-name="uni021B.aalt" horiz-adv-x="506" 
d="M515 480q-8 -49 -19 -146l-28 -2q0 57 -12 76q-14 22 -71 22h-46l-63 -331q-8 -45 2 -56q10 -12 64 -16l-6 -27h-232l5 27q53 4 67 16q14 11 22 56l63 331h-36q-68 0 -88 -23q-16 -16 -42 -75h-28q28 101 38 148h17q9 -18 38 -17h298q22 0 39 17h18zM255 -51
q17 -18 18 -46q0 -88 -118 -115l-9 28q68 24 68 57q0 24 -35 35q-12 3 -12 19q0 39 48 39q24 0 40 -17z" />
    <glyph glyph-name="uni0237" unicode="&#x237;" horiz-adv-x="266" 
d="M55 344q100 105 158 105q29 0 8 -104l-56 -279q-37 -183 -118 -260q-66 -63 -107 -63q-15 0 -29 9q-14 10 -14 23q0 24 24 44q11 11 22 5q26 -17 49 -17q42 0 67 108q12 51 81 398q12 57 1 57q-18 0 -73 -49z" />
    <glyph glyph-name="afii10023" unicode="&#x401;" horiz-adv-x="559" 
d="M562 649q1 3 -18 -153l-30 -2q0 64 -12 88q-16 33 -97 33h-78q-25 0 -32 -6q-6 -6 -11 -35l-42 -216h96q62 0 80 12q16 11 34 61h29l-38 -190h-28q2 55 -10 66q-12 12 -76 12h-95l-33 -175q-15 -80 5 -96q18 -14 100 -14q96 0 133 34q25 24 67 96l28 -10
q-60 -148 -63 -154h-469l7 27q61 5 77 19t28 74l79 410q12 60 1 73q-10 14 -73 19l7 27h434zM328 747q0 -23 -14 -39q-15 -16 -37 -16q-39 0 -39 41q0 21 13 37q15 19 39 19q38 0 38 -42zM513 747q0 -23 -14 -39q-15 -16 -36 -16q-40 0 -40 41q0 21 13 37q15 19 39 19
q38 0 38 -42z" />
    <glyph glyph-name="afii10051" unicode="&#x402;" horiz-adv-x="708" 
d="M673 674q-14 -73 -25 -178l-29 -4q-1 64 -15 92q-8 19 -28 25q-19 6 -73 6h-82l-50 -258q76 27 116 27q83 0 131 -54q47 -53 47 -141q0 -138 -108 -241q-85 -81 -202 -116l-11 28q95 42 156 119q74 92 74 208q0 72 -34 113q-33 40 -91 40q-44 0 -85 -16l-37 -200
q-12 -63 1 -78t86 -19l-6 -27h-286l6 27q68 4 86 19t30 78l95 491h-55q-88 0 -120 -36q-21 -26 -49 -86l-28 3q20 64 47 178h20q8 -25 49 -25h392q32 0 56 25h22z" />
    <glyph glyph-name="afii10052" unicode="&#x403;" horiz-adv-x="502" 
d="M554 649l-17 -149l-28 -3q-5 73 -17 92q-18 26 -86 26h-73q-29 0 -36 -5q-7 -6 -12 -32l-88 -453q-13 -65 0 -80q11 -13 77 -18l-6 -27h-254l6 27q54 5 67 18q15 15 28 80l79 399q12 65 2 80q-10 13 -67 18l7 27h418zM515 746l-188 -63l-13 25l161 102q10 -3 25 -23
q15 -21 17 -33z" />
    <glyph glyph-name="afii10053" unicode="&#x404;" horiz-adv-x="630" 
d="M166 320q-2 -26 -2 -43q0 -113 45 -181q51 -76 147 -77q117 -1 186 103q20 32 38 32q15 0 20 -16t-5 -36q-18 -40 -76 -75q-68 -42 -171 -42q-127 0 -203 76q-79 79 -79 213q0 176 120 286q113 104 277 104q39 0 180 -32l-3 -78q-2 -48 -4 -72l-28 -3q-5 84 -44 119
q-36 32 -114 32q-111 0 -185 -74q-70 -70 -95 -197l347 7l-14 -53z" />
    </font>
</defs>
</svg>
