<?xml version="1.0" standalone="no"?>
<!DOCTYPE svg PUBLIC "-//W3C//DTD SVG 1.1//EN" "http://www.w3.org/Graphics/SVG/1.1/DTD/svg11.dtd" >
<svg>
<metadata>
Created by FontForge 20090622 at Sat Jun 22 10:48:20 2013
 By ffonts
&#194;&#169; 2012 ashinpan. Commercial Use Allowed. 
</metadata>
<defs>
<font id="Mignon-Regular" horiz-adv-x="400" >
  <font-face 
    font-family="Mignon"
    font-weight="400"
    font-stretch="normal"
    units-per-em="1000"
    panose-1="2 4 5 3 5 2 1 2 2 3"
    ascent="727"
    descent="-273"
    x-height="437"
    cap-height="650"
    bbox="-290 -360 1684 989"
    underline-thickness="50"
    underline-position="-50"
    unicode-range="U+0020-U+FB06"
  />
<missing-glyph horiz-adv-x="500" 
d="M0 0v700h500v-700h-500zM80 650l170 -255l170 255h-340zM450 605l-170 -255l170 -255v510zM420 50l-170 255l-170 -255h340zM50 95l170 255l-170 255v-510z" />
    <glyph glyph-name="uniE062" unicode="Th" horiz-adv-x="1071" 
d="M840 0v26q45 5 55 17q11 13 11 61v164q0 124 -99 124q-61 0 -103 -53v-235q0 -48 10 -61q11 -13 56 -17v-26h-215v26q48 4 59 17q11 12 11 62v503q-64 7 -195 7h-71v-490q0 -63 16 -78q15 -16 84 -20v-27h-282v27q67 5 82 20t15 78v490h-63q-102 0 -121 -33
q-17 -27 -33 -88h-29q9 112 12 181h19q16 -25 55 -25h416q60 0 79 6q16 4 16 20v15q25 4 79 23v-337q69 71 140 72q141 3 141 -170v-175q0 -50 11 -62t56 -16v-26h-212z" />
    <glyph glyph-name="uniE092" unicode="fb" horiz-adv-x="803" 
d="M529 439q27 10 42 10q81 0 139 -60q58 -61 58 -149q0 -108 -76 -181q-73 -71 -176 -71q-72 0 -148 36v599q-38 42 -93 42q-43 0 -68 -36q-29 -44 -28 -152l1 -40h116q5 -9 3 -21q-4 -14 -13 -19h-106v-283q0 -54 14 -68q13 -15 73 -20v-26h-234v26q44 5 56 18
q12 14 12 61v292h-70l-5 12l28 28h47v21q0 48 11 83q20 70 77 118q55 46 117 53q46 -2 73 -22q25 6 63 21l5 -5v-301zM447 116q0 -20 6 -35q20 -56 88 -56q63 -1 101 52q38 52 38 137q0 82 -45 132q-43 48 -109 48q-45 0 -79 -18v-260z" />
    <glyph glyph-name="uniFB00" unicode="ff" horiz-adv-x="561" 
d="M99 449q0 42 12 76q23 67 79 111q59 47 126 54q75 -3 116 -48q62 62 132 70q52 -3 81 -35q12 -15 5 -33q-4 -11 -21 -24q-16 -13 -29 0q-41 41 -82 41q-34 0 -52 -32q-23 -36 -22 -158v-34h119q4 -7 2 -21q-3 -14 -10 -19h-111v-293q0 -50 13 -62q12 -12 69 -17v-25h-223
v25q42 5 52 17q10 13 10 62v293h-187v-293q0 -49 11 -62q11 -12 57 -17v-25h-214v26q45 5 56 17t11 61v293h-71l-3 11l27 29h47v12zM365 456q0 46 9 77q6 25 20 52q-42 63 -111 63q-47 0 -74 -43q-31 -46 -31 -144v-24h187v19z" />
    <glyph glyph-name="uniE093" unicode="ffb" horiz-adv-x="1071" 
d="M715 405l81 33q25 11 42 11q81 0 139 -60q58 -61 58 -149q0 -108 -76 -181q-74 -71 -178 -71q-70 0 -146 36v598q-36 47 -91 47q-41 0 -67 -36q-29 -37 -30 -157v-39h117q5 -8 1 -21q-4 -14 -12 -19h-106v-293q0 -49 13 -62q12 -12 66 -17v-25h-220v25q41 5 51 17
q11 14 11 62v293h-188v-293q0 -49 11 -62q11 -12 56 -17v-25h-214v26q45 5 56 17q12 13 12 61v293h-71l-3 10l27 30h47v10q0 37 12 73q22 66 83 114q56 46 126 53q74 -2 113 -48q63 66 139 73q48 -2 75 -23q30 8 61 23l5 -4v-303zM368 453q0 76 31 134q-40 58 -108 58
q-51 0 -81 -46q-30 -44 -30 -140v-22h188v16zM715 117q0 -20 6 -35q20 -56 89 -56q60 -1 99 49q39 52 39 139q0 82 -45 132q-44 48 -109 48q-47 0 -79 -18v-259z" />
    <glyph glyph-name="uniE094" unicode="ffh" horiz-adv-x="1081" 
d="M851 0v26q44 5 55 17t11 61v165q0 124 -100 124q-60 0 -103 -52v-237q0 -48 11 -61q11 -12 55 -17v-26h-209v26q42 5 53 17q11 13 11 61v518q-40 46 -91 46q-44 0 -69 -37q-28 -38 -28 -155v-39h116q5 -9 2 -21q-3 -14 -12 -19h-106v-293q0 -47 12 -60t59 -18v-26h-212
v26q41 5 51 18q11 13 11 60v293h-188v-292q0 -48 11 -61t56 -18v-26h-212v26q43 5 54 18q12 14 12 61v292h-70l-3 10l26 30h47v10q0 35 13 72q19 66 82 115q58 47 128 53q74 -3 111 -48q59 63 135 73q46 -2 76 -23q37 9 63 23l5 -4v-330q68 70 140 71q142 3 142 -171v-175
q0 -48 11 -61q11 -11 56 -16v-26h-212zM368 454q0 76 31 133q-39 58 -108 58q-53 0 -80 -47q-31 -47 -31 -139v-22h188v17z" />
    <glyph glyph-name="uniFB03" unicode="ffi" horiz-adv-x="798" 
d="M570 0v26q42 5 52 16q11 12 11 58v245q0 35 -7 43q-8 9 -44 9h-137v-297q0 -46 11 -58q10 -11 56 -16v-26h-210v26q44 5 54 16t10 58v297h-188v-293q0 -49 11 -62q10 -12 56 -17v-25h-212v26q45 5 55 16q11 12 11 62v293h-70l-3 11l26 29h47v20q0 34 11 72q21 65 85 114
q58 43 124 50q84 -3 117 -53q71 68 148 73q70 -1 108 -48q13 -19 5 -35q-7 -16 -22 -26q-19 -11 -33 3q-52 59 -99 59q-40 0 -67 -36q-31 -42 -31 -153v-40h80q124 0 187 13v-350q0 -47 11 -58q10 -12 58 -16v-26h-211zM366 463q0 36 9 72q9 31 21 52q-41 64 -111 64
q-50 0 -77 -44q-30 -45 -30 -143v-27h188v26z" />
    <glyph glyph-name="uniE095" unicode="ffj" horiz-adv-x="787" 
d="M527 437q125 0 186 13l1 -339q0 -96 -22 -161q-45 -130 -117 -195q-12 -12 -26 -12q-11 0 -23 13q-13 13 -13 30t21 23q52 17 68 37q17 23 25 73q8 60 8 192v233q0 35 -7 43q-8 10 -43 10h-138v-297q0 -47 11 -58q11 -12 60 -16v-26h-215v26q45 4 55 16q10 11 10 58v297
h-188v-293q0 -50 11 -62q10 -12 56 -17v-25h-212v26q44 5 55 17t11 61v293h-71l-3 11l27 29h47v20q0 33 11 69q23 69 83 115q60 44 127 51q82 -3 116 -53q71 68 147 73q73 -2 107 -48q14 -18 6 -35q-6 -14 -22 -26q-19 -12 -32 3q-54 59 -102 59q-39 0 -64 -37
q-31 -38 -31 -151v-40h80zM368 463q0 43 10 73q5 25 20 49q-39 64 -112 64q-51 0 -76 -43q-30 -45 -30 -142v-27h188v26z" />
    <glyph glyph-name="uniE096" unicode="ffk" horiz-adv-x="1045" 
d="M929 -1q-19 19 -167 197q-17 22 -30 22q-9 0 -18 -3v-110q0 -49 13 -62q11 -12 60 -17v-26h-219v26q45 5 56 17q12 13 12 62v517q-39 46 -91 46q-45 0 -69 -35q-29 -40 -29 -157v-39h117q5 -8 2 -21q-3 -15 -11 -19h-108v-294q0 -48 12 -60t60 -17v-26h-214v26
q42 5 52 17q11 13 11 60v294h-188v-293q0 -48 12 -61q10 -12 56 -17v-26h-215v27q45 5 56 16q12 13 12 61v293h-71l-3 9l27 31h47v9q0 33 13 74q24 69 81 114q60 47 130 53q73 -3 110 -48q61 64 138 73q44 -2 74 -22q26 4 63 22l4 -5v-466q37 8 64 35q37 36 71 87
q15 23 10 32q-6 9 -39 12v27l204 9v-26q-77 -12 -126 -58q-32 -32 -87 -97q55 -84 156 -182q51 -51 94 -54v-26zM368 454q0 75 31 133q-39 58 -109 58q-50 0 -80 -47q-30 -42 -30 -139v-22h188v17z" />
    <glyph glyph-name="uniFB04" unicode="ffl" horiz-adv-x="801" 
d="M572 0v26q43 4 53 15q10 12 10 58v523q-29 46 -87 46q-45 0 -70 -34q-31 -41 -31 -152v-45h117q5 -7 2 -21t-11 -19h-107l-1 -297q0 -47 11 -58q10 -11 56 -16v-26h-211v26q44 5 54 16q11 12 11 58v297h-188v-294q0 -48 11 -60t55 -17v-26h-212v26q45 5 56 16
q11 13 11 62v293h-70l-3 11l26 29h47v18q0 35 12 71q20 63 81 111q60 47 129 53q73 -2 116 -48q62 64 136 70q53 0 88 -24q9 3 42 23l9 -6v-606q0 -46 11 -57t60 -16v-26h-213zM368 456q0 50 11 85q7 22 20 47q-37 59 -110 59q-53 0 -81 -44q-28 -46 -28 -141v-25h188v19z
" />
    <glyph glyph-name="uniE097" unicode="fft" horiz-adv-x="852" 
d="M773 -1q-23 -11 -40 -11q-98 0 -98 118v291h-188v-294q0 -49 13 -61q12 -12 63 -17v-25h-217v25q42 5 51 17q11 13 11 61v294h-188v-294q0 -49 12 -61q10 -12 56 -17v-25h-215v26q45 5 56 17q12 13 12 60v294h-71l-4 11l28 29h47v11q0 30 11 70q25 70 83 116
q62 48 129 53q74 -3 112 -49q60 64 132 74q46 -1 75 -30q15 -17 6 -35q-8 -16 -24 -27q-10 -6 -23 5q-38 36 -77 36q-33 0 -54 -32q-25 -40 -24 -160v-32h188v67l66 68l13 -2v-133h113q7 -8 5 -21q-1 -13 -11 -19h-107v-256q0 -96 58 -96q30 0 62 16l9 -27zM368 455
q0 74 30 131q-42 58 -108 58q-50 0 -80 -44q-30 -42 -30 -142v-21h188v18z" />
    <glyph glyph-name="uniE098" unicode="fh" horiz-adv-x="814" 
d="M584 0v26q44 5 55 17q11 13 11 62v163q0 124 -99 123q-62 0 -104 -51v-235q0 -48 11 -62q11 -12 55 -17v-26h-210v26q43 5 54 17q11 13 11 61v518q-37 45 -93 45q-42 0 -69 -37q-26 -37 -26 -154v-39h115q5 -8 2 -22q-4 -13 -12 -19h-105v-284q0 -54 11 -68
q10 -13 55 -18v-26h-212v26q45 6 55 18q12 13 12 60v292h-70l-3 10l26 31h47v18q0 48 11 86q20 67 76 117q56 47 115 54q49 -1 76 -23q34 9 63 23l5 -4v-331q71 71 140 72q142 3 142 -172v-173q0 -49 11 -61t56 -17v-26h-212z" />
    <glyph glyph-name="f_i.liga" unicode="fi" horiz-adv-x="535" 
d="M305 0v26q42 4 53 15q10 12 10 59v245q0 35 -8 43q-8 9 -44 9h-136v-297q0 -46 11 -58q11 -11 59 -16v-26h-220v26q48 5 59 16q12 12 12 58v297h-72l-4 11l28 29h48v23q0 40 11 78q23 72 82 120q60 47 125 54q75 -2 106 -48q12 -17 5 -36q-9 -17 -22 -24q-18 -12 -29 1
q-50 59 -104 59q-39 0 -62 -36q-33 -45 -33 -157v-34h79q127 0 188 13v-350q0 -47 11 -58t59 -16v-26h-212z" />
    <glyph glyph-name="uniE09A" unicode="fj" horiz-adv-x="520" 
d="M260 437q126 0 187 13v-339q0 -98 -23 -162q-42 -121 -117 -193q-12 -13 -27 -13q-11 0 -23 12q-13 12 -13 29q0 16 21 24q55 16 69 37q19 24 27 74q7 54 7 196v229q0 35 -7 44q-9 9 -44 9h-136v-297q0 -47 11 -58t59 -16v-26h-220v26q49 5 60 16q11 12 11 58v297h-71
l-5 11l28 29h48v23q0 40 11 77q22 72 82 121q58 47 123 54q73 -2 107 -48q13 -19 5 -36q-7 -16 -22 -24q-19 -12 -29 1q-49 58 -104 58q-39 0 -63 -35q-31 -46 -31 -157v-34h79z" />
    <glyph glyph-name="uniE09B" unicode="fk" horiz-adv-x="778" 
d="M662 -2q-38 41 -167 198q-17 22 -30 22q-9 0 -18 -3v-110q0 -49 13 -62q11 -12 60 -16v-27h-221v27q46 4 58 16q12 13 12 62v519q-38 42 -93 42q-44 0 -69 -37q-29 -46 -28 -154l1 -38h116q5 -7 2 -21q-2 -15 -10 -20h-108v-282q0 -55 11 -69q11 -13 56 -18v-27h-214v27
q45 5 56 18q12 13 12 60v291h-71l-3 10l26 31h48v17q0 49 11 87q19 67 77 116q58 48 115 55q51 -2 75 -22q29 5 63 22l5 -5v-466q37 8 64 35q30 28 71 88q16 24 12 32q-5 9 -40 12v26l203 9v-25q-77 -13 -126 -58q-13 -12 -88 -97q63 -91 157 -183q51 -51 94 -54v-26z" />
    <glyph glyph-name="f_l.liga" unicode="fl" horiz-adv-x="533" 
d="M303 0v26q44 4 54 16q11 12 11 58v522q-29 45 -89 45q-42 0 -68 -36q-31 -40 -31 -142v-52h116q5 -7 2 -21t-11 -19h-107v-297q0 -46 11 -58q10 -11 56 -16v-26h-216v26q48 5 59 16q11 12 11 58v297h-70l-4 11l27 29h47v17q0 53 13 90q18 66 81 116q54 44 117 52
q47 0 82 -23q11 3 45 21l8 -5v-605q0 -46 12 -58q11 -11 60 -16v-26h-216z" />
    <glyph glyph-name="uniE09D" unicode="ft" horiz-adv-x="582" 
d="M508 0q-27 -12 -42 -12q-98 0 -98 119v290h-188v-292q0 -49 12 -62t61 -17v-26h-222v26q47 5 59 18q11 13 11 60v293h-70l-5 11l26 29h49v24q0 43 10 78q22 74 80 120q56 46 109 53q49 -3 75 -30q17 -17 7 -36q-6 -14 -23 -26q-12 -8 -24 4q-35 35 -77 35q-34 0 -54 -30
q-25 -37 -24 -166v-26h188v67l65 68l14 -3v-132h113q7 -8 5 -21t-11 -19h-107v-256q0 -97 58 -97q30 0 62 17l9 -27z" />
    <glyph glyph-name="uniE0A9" unicode="&#x17f;b" horiz-adv-x="804" 
d="M526 438q25 11 43 11q81 0 139 -60q59 -61 59 -149q0 -108 -77 -181q-74 -71 -175 -71q-71 0 -147 36v601q-40 44 -91 44q-45 0 -70 -41q-28 -43 -28 -175v-340q0 -56 12 -69q10 -13 62 -18v-26h-218v26q45 5 55 16q11 12 11 62v293h-70l-4 11l27 29h47v21q0 45 10 82
q23 72 76 118q55 47 118 54q45 -1 76 -24q27 7 61 24l5 -5v-303zM447 116q0 -21 6 -35q19 -55 90 -56q62 0 98 50q38 51 38 139q0 82 -46 132q-44 48 -109 48q-39 0 -77 -18v-260z" />
    <glyph glyph-name="uniE0AA" unicode="&#x17f;h" horiz-adv-x="814" 
d="M585 0v26q44 5 54 16q10 12 10 62v165q0 124 -100 123q-60 0 -102 -51v-238q0 -48 10 -61q10 -11 54 -16v-26h-208v26q45 5 55 16q10 12 10 61v521q-41 46 -92 46q-42 0 -69 -41t-27 -191v-327q0 -54 11 -68q10 -12 56 -17v-26h-212v26q44 5 55 17q11 13 11 59v295h-70
l-4 10l27 30h47v21q0 45 10 82q23 71 77 118q56 47 115 54q51 -2 77 -24q34 9 62 25l5 -5v-332q70 72 139 73q142 3 142 -172v-174q0 -50 11 -62q10 -11 55 -15v-26h-209z" />
    <glyph glyph-name="uniE0AB" unicode="&#x17f;i" horiz-adv-x="533" 
d="M101 437v23q0 37 11 75q22 73 84 123q60 48 124 54q73 -2 107 -50q13 -17 5 -33q-7 -15 -22 -25q-18 -13 -29 0q-51 60 -105 60q-38 0 -64 -38q-32 -45 -32 -189v-327q0 -53 11 -66q10 -13 56 -18v-26h-211v26q44 5 54 17q11 12 11 59v295h-71l-2 10l26 30h47zM301 0v26
q46 5 56 16q11 13 11 64v202q0 50 -10 62q-8 11 -53 20v22q84 13 142 39v-345q0 -51 11 -64q10 -11 56 -16v-26h-213z" />
    <glyph glyph-name="uniE0AC" unicode="&#x17f;k" horiz-adv-x="777" 
d="M660 -2q-36 37 -166 198q-18 21 -31 20q-7 1 -17 -2v-110q0 -49 12 -61q11 -12 60 -17v-26h-217v26q46 5 56 16q11 12 11 61v521q-43 46 -93 46q-42 0 -69 -41q-26 -45 -26 -187v-334q0 -52 11 -65q10 -12 55 -17v-26h-212v26q45 5 56 17t11 56v298h-71l-3 10l26 30h48
v21q0 47 10 82q23 73 77 117q55 47 115 55q54 -2 76 -24q33 9 62 24l5 -5v-465q39 9 63 33q38 37 76 94q13 20 7 27q-6 9 -40 12v26l203 9v-25q-78 -12 -128 -59q-28 -28 -87 -95q59 -87 156 -184q52 -51 96 -54v-26z" />
    <glyph glyph-name="uniE0AD" unicode="&#x17f;l" horiz-adv-x="533" 
d="M301 -1v26q47 5 57 16q10 12 10 63v522q-39 43 -91 43q-42 0 -67 -37q-30 -39 -30 -199v-320q0 -56 10 -69t54 -18v-26h-209v26q45 5 55 17q11 12 11 61v293h-70l-3 10l26 30h47v21q0 47 11 83q20 69 75 117q55 46 116 54q48 -1 77 -23q27 6 62 23l5 -6v-602
q0 -51 11 -63q11 -11 59 -16v-26h-216z" />
    <glyph glyph-name="uniE0AE" unicode="&#x17f;&#x17f;" horiz-adv-x="533" 
d="M101 446q0 37 12 71q24 70 78 116q57 47 127 55q74 -2 114 -52q61 66 132 76q58 -3 84 -34q15 -17 7 -33q-7 -14 -22 -24q-12 -10 -23 1q-40 42 -83 42q-36 0 -58 -38q-22 -44 -22 -197v-320q0 -52 12 -65q11 -13 58 -18v-26h-214v26q44 5 54 17q11 12 11 61v293h-71
l-4 10l27 30h48v18q0 71 30 131q-52 61 -114 61q-46 0 -78 -52q-26 -44 -26 -184v-304q0 -52 10 -64q9 -12 54 -17v-26h-211v26q46 5 57 16q11 12 11 57v298h-70l-3 10l26 30h47v9z" />
    <glyph glyph-name="uniFB05" unicode="&#x17f;t" horiz-adv-x="578" 
d="M101 437v21q0 41 10 78q20 72 82 124q55 44 109 52q48 -1 75 -30q17 -17 8 -36q-8 -14 -25 -26q-12 -7 -22 3q-38 40 -79 40q-31 0 -54 -34q-25 -43 -25 -191v-326q0 -53 12 -67q12 -15 61 -19v-26h-219v26q45 5 56 18t11 59v294h-70l-5 11l28 29h47zM502 0
q-23 -12 -40 -12q-98 0 -98 118v291h-69l-4 10l28 30h45v67l65 67l14 -1v-133h113q5 -9 4 -21q-2 -13 -11 -19h-106v-257q0 -97 58 -97q29 0 61 16l9 -26z" />
    <glyph glyph-name="uniE0AF" unicode="&#x17f;&#x17f;i" horiz-adv-x="800" 
d="M101 446q0 40 11 72q30 74 79 115q57 48 125 54q77 -2 121 -53q61 70 147 78q75 -2 110 -51q12 -16 4 -33q-8 -15 -22 -24q-17 -12 -28 1q-48 59 -104 59q-42 0 -65 -39q-32 -45 -32 -180v-337q0 -51 11 -64t58 -18v-26h-214v26q44 5 55 17q11 13 11 61v292h-71l-4 10
l27 31h48v21q0 73 32 124q-45 61 -118 61q-46 0 -75 -46q-27 -42 -27 -188v-301q0 -51 11 -64q10 -13 53 -18v-26h-211v26q45 5 56 17q12 13 12 60v293h-72l-3 10l27 31h48v9zM566 0v26q46 5 57 18q12 13 12 62v202q0 51 -10 63q-9 10 -53 17v24q83 14 142 39v-344
q0 -51 12 -64q11 -12 59 -17v-26h-219z" />
    <glyph glyph-name="uniE0B0" unicode="&#x17f;&#x17f;l" horiz-adv-x="800" 
d="M570 0v25q44 5 54 17q12 14 12 63v521q-36 41 -89 41q-46 0 -71 -39q-28 -45 -28 -193v-323q0 -54 11 -68q10 -13 56 -18v-26h-213v26q45 5 56 17q11 13 11 61v292h-71l-4 10l28 31h47v18q0 76 30 131q-40 59 -113 59q-44 0 -74 -43q-31 -43 -31 -186v-305q0 -53 11 -67
q10 -13 54 -18v-26h-212v26q45 5 57 17q11 13 11 61v292h-71l-3 10l27 31h47v10q0 38 11 71q25 71 79 116q58 48 125 54q74 -2 117 -52q65 67 137 76q49 -1 77 -23q26 5 62 23l5 -5v-602q0 -50 12 -63q12 -12 60 -17v-25h-217z" />
    <glyph glyph-name="uniE064" unicode="&#x162;h" horiz-adv-x="1071" 
d="M840 0v26q45 5 55 17q11 13 11 61v164q0 124 -99 124q-61 0 -103 -53v-235q0 -48 10 -61q11 -13 56 -17v-26h-214v26q47 4 58 17q11 12 11 62v503q-64 7 -195 7h-71v-490q0 -63 16 -78q15 -16 84 -20v-27h-282v27q67 5 82 20t15 78v490h-62q-103 0 -122 -33
q-17 -27 -33 -88h-29q9 112 12 181h19q17 -25 55 -25h416q60 0 79 6q16 4 16 20v15q25 4 79 23v-337q69 71 140 72q141 3 141 -170v-175q0 -50 11 -62t56 -16v-26h-212zM362 -49q23 -23 23 -57q0 -80 -106 -106l-9 28q60 24 60 55q0 30 -45 41q-15 4 -15 24q0 37 42 37
q29 0 50 -22z" />
    <glyph glyph-name="uniE063" unicode="&#x164;h" horiz-adv-x="1071" 
d="M840 0v26q45 5 55 17q11 13 11 61v164q0 124 -99 124q-61 0 -103 -53v-235q0 -48 10 -61q11 -13 56 -17v-26h-215v26q48 4 59 17q11 12 11 62v503q-64 7 -195 7h-71v-490q0 -63 16 -78q15 -16 84 -20v-27h-282v27q67 5 82 20t15 78v490h-63q-102 0 -121 -33
q-17 -27 -33 -88h-29q9 112 12 181h19q16 -25 55 -25h416q60 0 79 6q16 4 16 20v15q25 4 79 23v-337q69 71 140 72q141 3 141 -170v-175q0 -50 11 -62t56 -16v-26h-212zM457 796q-86 -66 -125 -108h-22q-40 42 -126 108l16 25q68 -29 121 -62q68 40 121 62z" />
    <glyph glyph-name=".notdef" horiz-adv-x="500" 
d="M0 0v700h500v-700h-500zM80 650l170 -255l170 255h-340zM450 605l-170 -255l170 -255v510zM420 50l-170 255l-170 -255h340zM50 95l170 255l-170 255v-510z" />
    <glyph glyph-name="space" unicode=" " horiz-adv-x="227" 
 />
    <glyph glyph-name="exclam" unicode="!" horiz-adv-x="276" 
d="M189 635q0 -23 -7 -79q-10 -88 -29 -359q-4 -5 -17 -5q-14 0 -17 5q-26 332 -29 359q-8 64 -8 79q0 30 55 30q52 0 52 -30zM97 4q-16 16 -16 43q0 25 16 41q16 17 40 17q25 0 41 -17q16 -16 16 -41q0 -59 -58 -59q-24 0 -39 16z" />
    <glyph glyph-name="quotedbl" unicode="&#x22;" horiz-adv-x="318" 
d="M125 705l-11 -95q-10 -89 -15 -124l-28 -12q-19 172 -29 209l77 27zM274 705l-11 -96q-10 -87 -15 -123l-28 -12q-22 183 -29 209l77 27z" />
    <glyph glyph-name="numbersign" unicode="#" horiz-adv-x="480" 
d="M439 395h-91l-30 -136h86l-9 -58h-90l-38 -174h-38l37 174h-108l-38 -174h-38l38 174h-96l11 58h99l29 136h-93l9 58h97l34 155h38l-34 -155h108l33 155h39l-33 -155h87zM202 395l-29 -136h107l30 136h-108z" />
    <glyph glyph-name="dollar" unicode="$" horiz-adv-x="480" 
d="M293 352q141 -51 141 -167q0 -71 -45 -117q-46 -47 -125 -57v-87h-35v85q-93 0 -156 41q-11 32 -28 132l30 8q41 -135 154 -148v242l-36 16q-126 54 -126 153q0 62 41 106q44 47 121 56v78h35v-76q50 0 89 -13l34 -8l21 -125l-28 -7q-16 53 -35 77q-27 35 -81 43v-221z
M229 584q-45 -4 -70 -35q-23 -27 -23 -65q0 -72 93 -108v208zM264 43q45 6 70 36q25 29 25 71q0 80 -83 117l-12 5v-229z" />
    <glyph glyph-name="percent" unicode="%" horiz-adv-x="756" 
d="M190 -32l-31 23l402 661l33 -23zM304 575q34 -52 34 -121t-34 -121q-41 -61 -111 -61t-110 61q-34 52 -34 120q0 70 34 121q41 61 111 61t110 -60zM135 549q-13 -40 -13 -95q0 -152 72 -152q71 0 71 151q0 152 -72 152q-40 0 -58 -56zM676 291q34 -52 34 -121t-34 -121
q-40 -61 -110 -61t-110 61q-35 52 -35 120q0 70 35 121q40 61 111 61q69 0 109 -60zM508 266q-14 -40 -14 -96q0 -55 14 -95q19 -57 59 -57q70 0 70 151q0 153 -71 153q-40 0 -58 -56z" />
    <glyph glyph-name="ampersand" unicode="&#x26;" horiz-adv-x="711" 
d="M717 399q-49 -6 -72 -22q-16 -12 -44 -53q10 14 -87 -133q120 -117 163 -200l-7 -9q-92 8 -122 41q-39 46 -87 95q-99 -132 -210 -132q-89 0 -146 58q-51 52 -51 123q0 62 43 109q23 24 107 85q-72 67 -72 139q0 67 49 113q48 45 115 45q62 0 104 -39q44 -40 44 -99
q0 -52 -42 -88q-40 -34 -81 -61q100 -85 168 -155q31 48 60 115q15 35 4 48q-12 13 -65 20v28h229v-28zM227 597q-23 -29 -23 -73q0 -63 91 -133q74 55 74 128q0 44 -23 74q-24 31 -61 31q-35 0 -58 -27zM438 145q-83 92 -208 194q-91 -65 -91 -143q0 -67 45 -107
q39 -35 94 -35q95 0 160 91z" />
    <glyph glyph-name="quoteright" unicode="&#x2019;" horiz-adv-x="223" 
d="M149 683q31 -30 31 -74q0 -97 -128 -130l-10 26q77 32 77 84q0 51 -62 62q-13 2 -13 20q0 39 43 39q34 0 62 -27z" />
    <glyph glyph-name="parenleft" unicode="(" horiz-adv-x="346" 
d="M282 -169q-212 142 -212 440v1q0 294 212 438l18 -24q-157 -132 -157 -416t157 -417z" />
    <glyph glyph-name="parenright" unicode=")" horiz-adv-x="346" 
d="M275 269q0 -295 -211 -439l-19 23q158 130 158 417q0 286 -158 416l19 24q211 -144 211 -439v-2z" />
    <glyph glyph-name="asterisk" unicode="*" horiz-adv-x="404" 
d="M232 468l39 -138l-23 -9l-70 130l-122 -77l-14 22l102 94l-104 102l15 21l121 -80l58 132l24 -6l-27 -139l133 -2v-25z" />
    <glyph glyph-name="plus" unicode="+" horiz-adv-x="580" 
d="M320 230v-230h-58v230h-210v50h210v207h58v-207h209v-50h-209z" />
    <glyph glyph-name="comma" unicode="," horiz-adv-x="228" 
d="M154 102q32 -32 32 -80q0 -99 -131 -139l-11 29q77 31 77 85q0 51 -62 67q-13 0 -13 24q0 18 15 30t34 12q31 0 59 -28z" />
    <glyph glyph-name="hyphen" unicode="-" horiz-adv-x="356" 
d="M286 198h-229l14 55h229z" />
    <glyph glyph-name="period" unicode="." horiz-adv-x="228" 
d="M74 4q-16 16 -16 42q0 24 16 41q16 16 40 16t40 -16q16 -17 16 -41q0 -26 -16 -42t-41 -16q-24 0 -39 16z" />
    <glyph glyph-name="slash" unicode="/" horiz-adv-x="331" 
d="M81 -44h-56l216 709h57z" />
    <glyph glyph-name="zero" unicode="0" horiz-adv-x="480" 
d="M398 531q45 -87 45 -219q0 -128 -45 -217q-55 -107 -158 -107q-105 0 -159 102q-46 87 -46 222q0 127 46 216q56 107 160 107q103 0 157 -104zM124 313q0 -121 25 -198q30 -93 91 -93q114 0 114 290t-116 290q-114 0 -114 -289z" />
    <glyph glyph-name="one" unicode="1" horiz-adv-x="480" 
d="M109 0v27q67 5 82 19q14 13 14 68v385q0 38 -7 47q-8 10 -41 11l-48 2v24q85 15 178 52v-521q0 -55 14 -68q15 -14 83 -19v-27h-275z" />
    <glyph glyph-name="two" unicode="2" horiz-adv-x="480" 
d="M440 131q0 -2 -35 -131h-373v23q112 112 161 170q125 149 125 242q0 63 -31 98t-86 35q-75 0 -137 -93l-22 20l57 81q55 59 135 59q69 0 117 -45q51 -48 51 -124q0 -103 -132 -244l-141 -149h186q42 0 58 10q17 11 39 57z" />
    <glyph glyph-name="three" unicode="3" horiz-adv-x="480" 
d="M285 376q65 -13 103 -55q36 -41 36 -97q0 -107 -104 -179q-83 -57 -158 -57q-63 0 -100 34q-19 18 -16 36q1 16 23 33q13 10 24 0q58 -51 124 -51q55 0 87 39q34 41 34 113q0 64 -42 99q-36 30 -85 30q-29 0 -64 -11l-6 29q159 52 159 142q0 45 -28 70q-25 24 -67 24
q-67 0 -120 -79l-20 20l43 63q51 56 127 56h1q66 0 107 -37t41 -95q0 -42 -31 -71q-22 -23 -68 -54v-2z" />
    <glyph glyph-name="four" unicode="4" horiz-adv-x="480" 
d="M360 178v-72q0 -51 12 -62q13 -12 73 -17v-27h-256v27q65 5 78 17t13 62v72h-260v28q182 271 300 426h40v-407h96v-47h-96zM280 520h-2q-107 -148 -196 -295h198v295z" />
    <glyph glyph-name="five" unicode="5" horiz-adv-x="480" 
d="M127 364q79 31 111 31q90 0 145 -54q48 -48 48 -116q0 -93 -89 -166q-85 -69 -173 -71q-68 0 -103 35q-18 17 -17 34q2 16 22 33q14 9 26 -1q61 -50 124 -50q60 0 95 46q31 41 31 102q0 69 -40 109q-43 42 -123 42q-53 0 -102 -20l38 305h286l6 -8l-26 -65h-233z" />
    <glyph glyph-name="six" unicode="6" horiz-adv-x="480" 
d="M204 376q37 17 63 17q79 0 130 -54q50 -52 50 -130q0 -92 -57 -155q-59 -66 -148 -66t-146 67q-59 69 -59 183q0 148 89 253q69 81 169 117q62 22 128 33l6 -32q-56 -11 -108 -35q-149 -71 -184 -231zM132 310q-6 -23 -6 -70q0 -93 35 -154q37 -64 97 -64q53 0 81 50
q22 41 22 101q0 68 -33 113q-37 51 -101 51q-47 0 -95 -27z" />
    <glyph glyph-name="seven" unicode="7" horiz-adv-x="480" 
d="M455 611l-141 -305l-142 -308l-74 -10l-7 11q174 283 297 551h-216q-48 0 -64 -13q-13 -11 -32 -62h-29q10 60 18 148h382z" />
    <glyph glyph-name="eight" unicode="8" horiz-adv-x="480" 
d="M366 592q45 -43 45 -105q0 -46 -28 -80q-22 -25 -80 -64q132 -75 132 -174q0 -81 -67 -134q-59 -47 -131 -47q-83 0 -136 44q-56 47 -56 125q0 52 45 95q29 28 89 64q-109 62 -109 155q0 66 49 114q52 50 130 50q70 0 117 -43zM169 571q-24 -30 -24 -71q0 -50 39 -86
q26 -23 92 -56q61 48 61 124q0 59 -32 92q-27 29 -67 29q-42 0 -69 -32zM324 53q31 34 31 90q0 83 -149 157q-81 -54 -81 -137q0 -67 37 -106q34 -37 86 -37q46 0 76 33z" />
    <glyph glyph-name="nine" unicode="9" horiz-adv-x="480" 
d="M389 561q51 -70 51 -175q0 -133 -67 -233q-63 -93 -169 -136q-79 -32 -140 -32l-5 30q109 18 184 91q77 73 102 186l-68 -36q-29 -16 -60 -16q-79 0 -129 52q-50 51 -50 130q0 80 54 143q60 70 152 70q90 0 145 -74zM148 552q-24 -41 -24 -94q0 -69 36 -114
q37 -48 98 -48q53 0 90 28q4 31 4 66q0 83 -25 139q-33 73 -99 73q-52 0 -80 -50z" />
    <glyph glyph-name="colon" unicode=":" horiz-adv-x="228" 
d="M155 396q15 -16 15 -41t-15 -42q-16 -16 -40 -16t-40 16q-16 17 -16 42t16 41t41 16q23 0 39 -16zM76 4q-16 16 -16 42q0 24 16 41q16 16 39 16q24 0 40 -16q16 -17 16 -41q0 -26 -16 -42t-41 -16q-23 0 -38 16z" />
    <glyph glyph-name="semicolon" unicode=";" horiz-adv-x="228" 
d="M153 396q16 -16 16 -41t-16 -42q-16 -16 -40 -16t-39 16q-16 17 -16 42t16 41q15 16 40 16q23 0 39 -16zM154 102q32 -32 32 -80q0 -100 -130 -140l-11 30q76 32 76 85q0 52 -62 67q-13 3 -13 24q0 19 15 31q14 11 34 11q31 0 59 -28z" />
    <glyph glyph-name="less" unicode="&#x3c;" horiz-adv-x="552" 
d="M60 230v47l432 230v-56l-373 -197v-2l373 -196v-56z" />
    <glyph glyph-name="equal" unicode="=" horiz-adv-x="580" 
d="M52 321v50h477v-50h-477zM52 138v50h477v-50h-477z" />
    <glyph glyph-name="greater" unicode="&#x3e;" horiz-adv-x="552" 
d="M60 0v56l374 196v2l-374 197v56l432 -230v-47z" />
    <glyph glyph-name="question" unicode="?" horiz-adv-x="379" 
d="M201 193q-36 13 -70 47q-41 42 -41 83q0 48 84 112q99 75 99 111q0 55 -60 55q-38 0 -76 -27q-39 -27 -38 -27q-11 0 -25 13q-16 14 -16 31q0 19 21 36q44 38 91 38h1q63 0 112 -49t49 -111q0 -48 -48 -88q-7 -6 -31 -23q-24 -18 -37 -29q-44 -38 -44 -68q0 -40 47 -81z
M146 4q-16 16 -16 42q0 24 16 41q16 16 39 16t39 -16q16 -17 16 -41q0 -26 -16 -42t-40 -16q-23 0 -38 16z" />
    <glyph glyph-name="at" unicode="@" horiz-adv-x="753" 
d="M556 -42q-94 -55 -204 -55q-126 0 -209 76q-91 84 -91 229q1 168 119 273q109 98 262 98q129 0 207 -77q73 -72 73 -180q0 -103 -68 -175q-68 -73 -168 -73q-36 0 -45 20q-7 15 0 51l11 58l-2 1q-27 -41 -80 -83q-58 -47 -90 -47q-48 0 -48 84q0 111 80 188q78 73 161 74
q15 0 50 -8q19 -4 34 -4q-25 -102 -48 -227q-7 -40 -4 -53q4 -13 23 -12q57 2 99 53q47 58 47 153q0 101 -67 161q-65 57 -170 57q-139 0 -226 -91q-86 -90 -86 -231q0 -112 60 -184q71 -86 209 -86q92 0 160 38zM357 350q-58 -64 -58 -167q0 -45 21 -45q45 0 132 120
q14 48 25 111q-24 11 -55 11q-37 0 -65 -30z" />
    <glyph glyph-name="A" unicode="A" horiz-adv-x="691" 
d="M428 0v28q47 6 58 16t1 39l-55 154h-213q-31 -88 -44 -129q-16 -47 -5 -61t68 -19v-28h-218v28q50 7 67 22q20 18 45 82l207 524l31 9l96 -267l97 -269q23 -63 42 -80q18 -16 68 -21v-28h-245zM330 535h-2l-94 -255h184z" />
    <glyph glyph-name="B" unicode="B" horiz-adv-x="588" 
d="M372 350q176 -27 176 -159q0 -99 -95 -151q-73 -40 -196 -40h-221v28q65 5 78 19q14 14 14 76v404q0 63 -12 76q-12 15 -72 19v28h257q102 0 150 -34q56 -38 56 -114q0 -111 -135 -150v-2zM260 362q155 0 155 128q0 56 -31 90q-35 38 -102 38q-41 0 -56 -10
q-13 -8 -13 -50v-196h47zM213 125q0 -54 17 -72q17 -19 66 -19q67 1 107 35q47 38 47 112q0 147 -192 147h-45v-203z" />
    <glyph glyph-name="C" unicode="C" horiz-adv-x="665" 
d="M643 165q-33 -109 -57 -154q-121 -26 -184 -26q-174 0 -272 106q-86 92 -86 225q0 157 109 254q107 95 276 95q26 0 177 -27q15 -102 20 -150l-29 -8q-38 149 -195 149q-119 0 -191 -89q-65 -83 -65 -204q0 -140 74 -228q73 -87 188 -87q128 0 206 154z" />
    <glyph glyph-name="D" unicode="D" horiz-adv-x="735" 
d="M323 650q194 0 282 -85q85 -82 85 -215q0 -173 -123 -267q-107 -83 -297 -83h-236v27q65 5 79 19q15 15 15 78v402q0 63 -14 78q-12 13 -71 18v28h280zM213 131q0 -55 26 -76q23 -19 80 -19q133 0 206 90q67 82 67 210q0 171 -118 240q-66 41 -170 41q-62 0 -78 -13
q-13 -9 -13 -57v-416z" />
    <glyph glyph-name="E" unicode="E" horiz-adv-x="568" 
d="M546 158q-18 -100 -35 -158h-482v28q68 5 84 20q15 15 15 77v398q0 66 -14 81q-12 13 -72 18v28h446q0 -8 8 -144l-29 -4q-11 51 -32 85q-18 29 -113 29h-76q-23 0 -28 -5t-5 -27v-228h94q67 0 84 12q15 12 24 63h29v-191h-29q-10 54 -26 65q-16 12 -81 12h-95v-189
q0 -65 24 -81q19 -13 104 -13q97 0 126 34q28 33 50 94z" />
    <glyph glyph-name="F" unicode="F" horiz-adv-x="529" 
d="M464 499q-13 56 -28 80q-22 37 -114 37h-76q-22 0 -28 -5q-5 -5 -5 -27v-238h103q66 0 84 13q15 11 24 61h29v-193h-29q-9 54 -24 66q-18 14 -84 14h-103v-181q0 -64 15 -79q15 -14 84 -19v-28h-272v28q61 5 74 19q14 15 14 79v399q0 64 -14 79q-12 13 -71 18v28h440
q1 -40 10 -147z" />
    <glyph glyph-name="G" unicode="G" horiz-adv-x="715" 
d="M692 274q-45 -6 -54 -17q-10 -11 -10 -55v-86q0 -62 7 -95q-159 -36 -224 -36q-165 0 -266 93t-101 243q0 164 118 259q106 85 264 85q56 0 193 -29l15 -156l-28 -6q-30 156 -195 156q-117 0 -190 -79q-75 -82 -75 -218q0 -123 67 -211q77 -102 211 -102q53 0 87 17
q32 18 32 66v85q0 54 -15 67q-16 14 -90 19v28h254v-28z" />
    <glyph glyph-name="H" unicode="H" horiz-adv-x="766" 
d="M729 622q-62 -5 -76 -19q-14 -15 -14 -76v-404q0 -62 14 -77q13 -13 75 -18v-28h-268v28q65 5 79 18q15 15 15 77v199h-341v-199q0 -62 14 -76t76 -19v-28h-263v28q61 5 74 18q14 15 14 77v404q0 62 -14 77q-14 13 -76 18v28h259v-28q-58 -5 -70 -19q-14 -14 -14 -76
v-162h341v162q0 61 -14 76q-13 14 -72 19v28h261v-28z" />
    <glyph glyph-name="I" unicode="I" horiz-adv-x="341" 
d="M38 0v28q62 5 76 19q14 15 14 78v400q0 63 -14 78q-14 14 -76 19v28h265v-28q-62 -5 -76 -19q-14 -15 -14 -78v-400q0 -64 14 -78t76 -19v-28h-265z" />
    <glyph glyph-name="J" unicode="J" horiz-adv-x="329" 
d="M303 622q-58 -5 -71 -19q-14 -15 -14 -78v-373q0 -180 -86 -259q-49 -44 -93 -58l-12 29q78 38 96 130q10 60 10 191v340q0 63 -14 78q-14 14 -75 19v28h259v-28z" />
    <glyph glyph-name="K" unicode="K" horiz-adv-x="673" 
d="M514 0q-58 64 -248 291q-28 32 -54 27v-190q0 -65 15 -80q14 -15 77 -20v-28h-260v28q58 5 71 20t13 80v392q0 67 -14 83q-13 14 -73 19v28h258v-28q-59 -5 -72 -20q-15 -16 -15 -82v-175q29 6 70 45q101 97 167 178q23 27 20 37t-36 14l-23 3v28h240v-28
q-90 -8 -162 -75q-40 -35 -177 -175q98 -123 235 -272q60 -64 121 -72v-28h-153z" />
    <glyph glyph-name="L" unicode="L" horiz-adv-x="538" 
d="M525 157q-19 -99 -36 -157h-453v28q63 5 78 19q14 16 14 79v400q0 63 -13 78q-13 13 -75 18v28h261v-28q-61 -5 -74 -18q-14 -15 -14 -78v-395q0 -71 23 -84q24 -13 96 -13q85 0 112 31q30 33 51 98z" />
    <glyph glyph-name="M" unicode="M" horiz-adv-x="891" 
d="M598 0v28q61 5 73 22t12 97l-4 408h-4l-244 -548h-20l-224 534h-2l-15 -285q-5 -98 -3 -166q1 -34 22 -46q16 -10 70 -16v-28h-233v28q45 5 62 17q18 12 23 43q11 65 19 183l14 208q7 97 -6 117q-12 19 -81 26v28h164l228 -501l232 501h170v-28q-68 -6 -80 -21
q-14 -16 -12 -92l9 -362q2 -80 15 -97t78 -22v-28h-263z" />
    <glyph glyph-name="N" unicode="N" horiz-adv-x="743" 
d="M719 622q-43 -2 -61 -14q-20 -14 -23 -45q-6 -46 -6 -169v-403h-31l-426 524h-2v-251q0 -111 6 -169q4 -37 24 -51q20 -13 72 -16v-28h-237v28q45 2 64 15q20 15 24 50q6 62 6 171v220q0 75 -20 101q-27 32 -89 37v28h147l418 -502h3v246q0 117 -7 166q-4 34 -25 47
q-20 13 -73 15v28h236v-28z" />
    <glyph glyph-name="O" unicode="O" horiz-adv-x="747" 
d="M605 574q98 -95 98 -241q0 -158 -98 -255q-94 -93 -236 -93q-137 0 -230 94q-95 96 -95 239q0 142 89 241q96 106 248 106q131 0 224 -91zM211 558q-65 -78 -65 -212q0 -141 69 -233t175 -92q90 0 148 71q63 77 63 214q0 152 -71 241q-67 82 -171 82q-89 0 -148 -71z" />
    <glyph glyph-name="P" unicode="P" horiz-adv-x="563" 
d="M293 650q112 0 169 -41q64 -49 64 -141q0 -91 -61 -147q-52 -48 -134 -58q-23 -3 -45 -1l-74 19v-157q0 -63 16 -78q15 -13 83 -18v-28h-271v28q60 5 74 20t14 77v400q0 65 -13 80q-12 13 -69 17v28h247zM212 314q31 -12 73 -12q59 0 97 33q48 43 48 129q0 77 -45 118
q-40 36 -106 36q-44 0 -56 -12q-11 -8 -11 -47v-245z" />
    <glyph glyph-name="Q" unicode="Q" horiz-adv-x="745" 
d="M712 -159q-67 -1 -128 15q-71 19 -229 130q-125 7 -208 87q-103 96 -103 242q0 145 90 244q95 106 250 106q130 0 223 -92q96 -96 96 -242q0 -126 -69 -217q-62 -82 -158 -112q123 -85 244 -140zM416 47l27 -19q66 19 109 86q49 75 49 188q0 152 -69 242q-66 85 -172 85
q-89 0 -149 -72q-65 -79 -65 -215q0 -126 57 -213q56 -86 145 -104z" />
    <glyph glyph-name="R" unicode="R" horiz-adv-x="621" 
d="M627 -8q-24 0 -35 1q-103 5 -162 91q-21 30 -101 160q-24 40 -85 40h-32v-159q0 -63 14 -78q14 -14 74 -19v-28h-262v28q62 5 76 19q14 15 14 78v402q0 62 -14 77q-12 13 -72 18v28h248q109 0 159 -34q67 -42 67 -131q0 -115 -127 -172q27 -52 89 -144q49 -71 81 -104
q31 -36 72 -47zM260 316q73 0 108 29q55 42 55 124q0 76 -45 115q-39 33 -101 33q-41 0 -54 -10q-11 -7 -11 -44v-247h48z" />
    <glyph glyph-name="S" unicode="S" horiz-adv-x="474" 
d="M380 499q-36 132 -131 132q-54 0 -84 -34q-27 -30 -27 -75q0 -51 34 -86q27 -28 93 -62q84 -44 116 -73q57 -52 57 -127q0 -80 -61 -134q-63 -55 -161 -55q-47 0 -98 15q-22 7 -50 21q-8 23 -27 155l30 7q40 -162 164 -162q56 0 89 33q31 32 31 87q0 51 -37 87
q-26 26 -93 62q-77 42 -106 69q-59 54 -59 128q0 75 55 125q57 53 151 53q53 0 126 -23l17 -138z" />
    <glyph glyph-name="T" unicode="T" horiz-adv-x="617" 
d="M562 495q-13 63 -31 89q-23 32 -109 32h-70v-493q0 -60 16 -75q16 -16 86 -20v-28h-286v28q68 4 84 20q15 15 15 75v493h-62q-98 0 -116 -31q-12 -17 -32 -90h-29q10 116 12 180h20q15 -25 55 -25h395q30 0 50 25h21q2 -89 11 -177z" />
    <glyph glyph-name="U" unicode="U" horiz-adv-x="736" 
d="M716 622q-46 -3 -64 -15q-20 -13 -23 -44q-6 -54 -6 -162v-82q0 -184 -75 -264q-68 -69 -180 -69q-98 0 -160 48q-88 67 -88 238v249q0 66 -14 82q-13 14 -73 19v28h258v-28q-59 -4 -72 -19q-14 -15 -14 -82v-227q0 -254 188 -254q189 0 189 286v75q0 111 -7 165
q-4 29 -24 41q-20 11 -73 15v28h238v-28z" />
    <glyph glyph-name="V" unicode="V" horiz-adv-x="703" 
d="M687 622q-52 -6 -71 -23q-20 -17 -48 -83q-142 -346 -208 -527h-31q-119 325 -207 545q-21 54 -41 70q-17 13 -64 18v28h245v-28q-52 -5 -62 -16q-8 -9 4 -43q55 -157 166 -437h2q120 303 158 421q14 44 4 56q-11 12 -72 19v28h225v-28z" />
    <glyph glyph-name="W" unicode="W" horiz-adv-x="971" 
d="M956 622q-52 -7 -69 -22q-17 -16 -39 -78q-60 -175 -165 -533h-31l-175 499h-2l-83 -255q-54 -160 -80 -244h-31l-164 535q-18 60 -37 77q-17 16 -64 21v28h243v-28q-53 -7 -63 -18q-9 -11 3 -50l122 -412h2l82 252l80 247h29l175 -500h2q87 277 113 401q11 46 1 59
q-12 14 -69 21v28h220v-28z" />
    <glyph glyph-name="X" unicode="X" horiz-adv-x="654" 
d="M392 0v28q46 5 55 15q9 9 -5 34l-132 214q-69 -104 -122 -202q-18 -33 -10 -44t58 -17v-28h-229v28q80 8 117 57q47 59 164 239l-134 214q-33 50 -53 63q-22 15 -75 21v28h246v-28q-44 -5 -52 -14q-7 -7 5 -28q32 -55 114 -182q66 102 99 162q18 33 10 45q-8 11 -57 17
v28h228v-28q-56 -6 -80 -19q-24 -14 -58 -58q-45 -62 -121 -179l157 -246q35 -53 60 -70q26 -17 78 -22v-28h-263z" />
    <glyph glyph-name="Y" unicode="Y" horiz-adv-x="634" 
d="M620 622q-51 -6 -71 -20q-19 -12 -48 -59q-68 -110 -126 -219q-17 -32 -17 -63v-136q0 -63 16 -78q15 -14 84 -19v-28h-282v28q67 5 82 19q15 15 15 78v133q0 22 -21 60l-126 219q-31 53 -48 67q-19 14 -63 18v28h239v-28q-51 -6 -59 -18q-7 -9 8 -36q13 -25 135 -237
q87 155 119 225q18 38 9 49t-67 17v28h221v-28z" />
    <glyph glyph-name="Z" unicode="Z" horiz-adv-x="603" 
d="M590 170q-25 -130 -36 -170h-517l-8 15l420 599h-173q-77 0 -105 -8q-22 -6 -36 -28q-19 -29 -35 -87l-29 1q9 111 12 183h24q13 -25 53 -25h399l7 -14l-413 -594q48 -6 163 -6q155 0 190 37q28 29 55 103z" />
    <glyph glyph-name="bracketleft" unicode="[" horiz-adv-x="345" 
d="M120 -163v866h170v-28q-79 -6 -94 -19t-15 -72v-628q0 -59 14 -71q15 -13 95 -20v-28h-170z" />
    <glyph glyph-name="backslash" unicode="\" horiz-adv-x="333" 
d="M242 -44l-206 709h56l207 -709h-57z" />
    <glyph glyph-name="bracketright" unicode="]" horiz-adv-x="345" 
d="M56 -163v27q79 7 94 21q15 12 15 72v627q0 59 -15 72t-94 20v27h170v-866h-170z" />
    <glyph glyph-name="asciicircum" unicode="^" horiz-adv-x="566" 
d="M437 211l-155 346l-157 -346h-55l191 412h43l192 -412h-59z" />
    <glyph glyph-name="underscore" unicode="_" horiz-adv-x="500" 
d="M0 -125v50h500v-50h-500z" />
    <glyph glyph-name="quoteleft" unicode="&#x2018;" horiz-adv-x="224" 
d="M182 690q-78 -33 -78 -84q0 -52 62 -63q14 -2 14 -20t-15 -30q-13 -9 -28 -9h-1q-35 0 -63 27q-31 29 -31 74q0 49 41 86q36 31 89 45z" />
    <glyph glyph-name="a" unicode="a" horiz-adv-x="439" 
d="M348 -12q-27 0 -47 20q-16 16 -24 44q-95 -64 -118 -64q-52 0 -87 37q-33 36 -33 85q0 71 81 99q128 43 155 65v17q0 113 -85 113q-28 0 -45 -19t-29 -66q-7 -23 -29 -23q-15 0 -28 13q-15 13 -15 30t31 40q72 54 150 70q49 0 82 -27q45 -39 45 -123v-185q0 -60 35 -60
q18 0 36 11l10 -26zM275 240l-90 -42q-61 -28 -61 -74q0 -35 24 -57q21 -19 47 -19q44 0 80 36v156z" />
    <glyph glyph-name="b" unicode="b" horiz-adv-x="508" 
d="M233 439q23 10 41 10q81 0 139 -61q58 -62 58 -150q0 -107 -76 -180q-73 -70 -175 -70q-71 0 -147 36v555q0 48 -9 59q-10 12 -57 16v23q79 10 145 35v-308zM152 116q0 -20 6 -35q20 -55 88 -55q63 0 100 50q36 50 36 137q0 82 -45 132q-42 48 -107 48q-44 0 -78 -19
v-258z" />
    <glyph glyph-name="c" unicode="c" horiz-adv-x="423" 
d="M407 90q-77 -102 -169 -102q-91 0 -148 64q-53 60 -53 145q0 118 101 195q74 57 149 57h1q59 0 90 -27q16 -14 16 -30q0 -15 -12 -29t-21 -14q-8 0 -19 11q-44 41 -101 41q-52 0 -86 -41q-37 -44 -37 -119q0 -94 54 -145q43 -40 97 -40q62 0 121 55z" />
    <glyph glyph-name="d" unicode="d" horiz-adv-x="528" 
d="M517 26q-101 -18 -155 -38v65l-61 -36q-50 -29 -78 -29q-68 0 -122 54q-63 62 -63 159q0 103 78 176q76 72 179 72q36 0 67 -12v143q0 48 -11 59q-12 10 -66 14v25q79 9 156 34v-597q0 -38 8 -48q7 -10 36 -13l32 -3v-25zM362 360q-35 51 -103 51q-47 0 -83 -37
q-48 -49 -48 -146q0 -83 45 -133q39 -44 93 -44q51 0 96 34v275z" />
    <glyph glyph-name="e" unicode="e" horiz-adv-x="425" 
d="M395 84q-78 -96 -163 -96q-89 0 -144 64q-51 60 -51 149q0 103 66 175q67 73 146 73h1q61 0 106 -47q44 -46 44 -105q0 -27 -23 -32q-54 -10 -262 -17q1 -95 49 -147q42 -45 101 -45q61 0 115 50zM161 381q-30 -34 -41 -92q83 0 170 3q24 0 24 20q1 41 -23 70
q-25 30 -66 30q-35 0 -64 -31z" />
    <glyph glyph-name="f" unicode="f" horiz-adv-x="296" 
d="M101 437v21q0 48 11 83q23 72 77 118q55 46 110 53q53 -3 79 -34q13 -16 5 -35q-5 -13 -19 -24t-27 3q-37 37 -81 37q-34 0 -53 -29q-24 -37 -23 -153v-40h118q5 -7 1 -21q-3 -14 -11 -19h-108v-287q0 -55 13 -67t73 -18v-25h-236v26q49 5 60 16q11 12 11 61v294h-70
l-4 11l27 29h47z" />
    <glyph glyph-name="g" unicode="g" horiz-adv-x="468" 
d="M468 429q-21 -38 -45 -51l-57 3q30 -35 30 -88q0 -76 -56 -120q-49 -40 -119 -40q-24 0 -51 5q-30 -21 -30 -42q0 -38 63 -38l106 1q143 0 143 -118q0 -77 -75 -137q-75 -61 -174 -61q-79 0 -129 40q-44 35 -45 82q0 32 24 56q21 21 83 70q-49 15 -74 55q-13 20 -11 42
q56 21 88 61q-88 37 -88 134q0 78 61 125q52 41 118 41h1q51 0 96 -27q71 4 136 15zM162 387q-25 -33 -25 -88q0 -59 26 -96q27 -38 68 -38q35 1 58 30q25 33 25 89q0 59 -26 96q-26 38 -69 38q-34 0 -57 -31zM154 -32q-46 -39 -46 -78q0 -41 38 -69q38 -27 94 -27
q69 0 108 32q36 30 36 79q0 52 -45 71q-32 13 -98 13q-62 0 -87 -21z" />
    <glyph glyph-name="h" unicode="h" horiz-adv-x="534" 
d="M302 0v26q44 5 55 16q11 13 11 61v166q0 123 -98 123q-59 0 -104 -51v-238q0 -48 10 -60q10 -13 55 -17v-26h-213l1 26q46 4 57 16t11 61v477q0 48 -9 58q-10 11 -59 15v24q63 9 147 35v-336q73 73 143 73q138 0 138 -171v-175q0 -49 11 -61t55 -16v-26h-211z" />
    <glyph glyph-name="i" unicode="i" horiz-adv-x="268" 
d="M100 551q-15 16 -15 36q0 22 15 37t36 15t36 -15q14 -15 14 -37q0 -21 -15 -36t-36 -15q-20 0 -35 15zM32 0v26q48 5 59 17t11 63v206q0 47 -9 58t-54 18v24q78 12 142 39v-345q0 -51 12 -63q11 -12 59 -17v-26h-220z" />
    <glyph glyph-name="j" unicode="j" horiz-adv-x="256" 
d="M100 551q-15 16 -15 36q0 22 15 37t36 15q20 0 35 -15q14 -15 14 -37q0 -21 -14 -36q-15 -15 -36 -15q-20 0 -35 15zM34 412q84 13 146 39v-340q0 -97 -23 -161q-46 -130 -121 -196q-16 -11 -26 -11q-11 0 -23 13q-13 14 -13 31q0 19 21 23q54 13 73 38q16 20 25 72
q8 57 8 193v195q0 51 -10 63q-10 11 -57 18v23z" />
    <glyph glyph-name="k" unicode="k" horiz-adv-x="496" 
d="M376 -2q-16 18 -164 198q-19 22 -31 22q-7 0 -16 -3v-111q0 -49 12 -61q11 -12 60 -17v-26h-223v26q50 4 62 17q11 13 11 61v472q0 50 -10 61q-10 12 -56 16v24q57 6 144 35v-471q37 7 63 35q31 31 71 88q16 24 11 32q-6 8 -41 12v26l204 9v-25q-80 -13 -129 -59
q-31 -31 -86 -95q43 -67 155 -183q48 -52 100 -55v-26z" />
    <glyph glyph-name="l" unicode="l" horiz-adv-x="253" 
d="M15 0v26q48 5 60 17t12 61v473q0 50 -11 61q-10 10 -58 15v24q73 8 148 35v-608q0 -49 12 -61q11 -12 60 -17v-26h-223z" />
    <glyph glyph-name="m" unicode="m" horiz-adv-x="819" 
d="M583 0v26q46 5 57 16q13 14 13 65v167q0 116 -88 116q-48 0 -112 -52q3 -18 3 -42v-195q0 -46 11 -59q11 -11 53 -16v-26h-214v26q48 5 59 16q12 13 12 61v172q0 115 -88 115q-47 0 -109 -52v-235q0 -47 11 -61q9 -11 47 -16v-26h-211v26q50 5 62 16q13 13 13 61v207
q0 48 -9 60q-9 11 -52 18v23q79 14 139 41v-81l33 24q22 15 40 26q46 28 81 28q78 0 112 -83q25 20 83 57q39 26 76 26q59 0 92 -40q35 -40 35 -113v-193q0 -49 11 -61q10 -11 54 -16v-26h-214z" />
    <glyph glyph-name="n" unicode="n" horiz-adv-x="547" 
d="M315 0v26q44 5 55 18t11 65v167q0 114 -91 114q-50 0 -109 -51v-235q0 -50 10 -62q10 -11 55 -16v-26h-217v26q51 5 62 17t11 61v206q0 47 -10 59q-9 11 -50 19v23q82 15 139 40v-79l67 47q47 30 83 30q60 0 95 -40q34 -40 34 -112v-193q0 -50 10 -62q10 -11 54 -16v-26
h-209z" />
    <glyph glyph-name="o" unicode="o" horiz-adv-x="510" 
d="M412 384q61 -65 61 -158q0 -112 -71 -179q-63 -59 -146 -59q-98 0 -161 69q-58 64 -58 152q0 114 76 182q64 58 144 58q92 0 155 -65zM165 371q-35 -49 -35 -130q0 -96 37 -157q39 -63 100 -63q113 0 113 183q0 91 -35 150q-37 62 -101 62q-48 0 -79 -45z" />
    <glyph glyph-name="p" unicode="p" horiz-adv-x="524" 
d="M261 433q26 16 49 16q80 0 130 -58q47 -54 47 -131q0 -108 -76 -184q-69 -69 -173 -88q-38 1 -69 18v-131q0 -57 13 -70t71 -18v-27h-236v27q49 5 61 17t12 61v452q0 48 -10 59q-9 10 -56 16v24q66 11 145 43v-79zM169 76q37 -39 94 -39q63 0 102 50q38 50 38 134
q0 78 -40 125q-37 43 -94 43q-45 0 -100 -43v-270z" />
    <glyph glyph-name="q" unicode="q" horiz-adv-x="511" 
d="M274 -240v27q59 4 72 17t13 66v160l-106 -42q-101 0 -162 69q-53 60 -53 140q0 106 82 180q80 73 186 72q48 -5 69 -14q18 -5 27 -4q13 0 35 11l4 -3q-3 -63 -3 -107v-464q0 -52 12 -64t65 -17v-27h-241zM359 366q-37 42 -97 42q-55 0 -92 -45q-42 -49 -42 -133
q0 -85 51 -138q45 -48 106 -48q40 0 74 16v306z" />
    <glyph glyph-name="r" unicode="r" horiz-adv-x="371" 
d="M183 342q63 107 121 107q24 0 42 -16q16 -16 16 -34q0 -34 -32 -49q-17 -7 -26 2q-21 20 -43 20q-47 0 -80 -85v-183q0 -50 12 -61q13 -13 70 -17v-26h-230v26q47 5 58 17t11 61v207q0 49 -9 61q-9 11 -53 16v23q74 12 141 40v-109h2z" />
    <glyph glyph-name="s" unicode="s" horiz-adv-x="367" 
d="M294 318q-33 99 -103 99q-29 0 -47 -19q-18 -20 -18 -50q0 -50 84 -86q127 -52 127 -136q0 -64 -52 -103q-48 -35 -113 -35q-75 0 -114 34q-17 34 -17 118l27 5q14 -53 45 -87q34 -37 77 -37q29 0 49 19q22 20 22 51q0 55 -79 91q-125 56 -125 137q0 54 42 91
q43 39 110 39q48 0 88 -18q17 -40 22 -106z" />
    <glyph glyph-name="t" unicode="t" horiz-adv-x="305" 
d="M230 1q-25 -13 -42 -13q-98 0 -98 119v290h-69l-4 11l28 29h45v72l65 67l14 -2v-137h113q8 -8 6 -21t-12 -19h-107v-256q0 -96 59 -96q29 0 61 17l9 -26z" />
    <glyph glyph-name="u" unicode="u" horiz-adv-x="531" 
d="M518 24q-32 -4 -77 -16l-38 -11q-23 -7 -32 -9l-6 6v71q-56 -42 -74 -52q-43 -25 -77 -25q-124 0 -124 149v196q0 38 -7 50q-6 9 -26 14l-28 6v23q19 1 72 7l71 11q-3 -31 -3 -145v-135q0 -113 88 -113q59 0 108 48v234q0 38 -9 50q-7 10 -33 14l-36 6v23q44 2 90 8
q37 4 67 10v-334q0 -37 9 -47q8 -10 38 -12l27 -1v-26z" />
    <glyph glyph-name="v" unicode="v" horiz-adv-x="463" 
d="M478 411q-39 -5 -54 -18q-13 -12 -34 -57q-68 -149 -142 -347h-28q-47 128 -138 350q-17 43 -30 54q-14 12 -54 18v26h205v-26q-40 -4 -46 -15q-6 -9 6 -42q41 -115 95 -247q43 101 89 238q12 36 4 48q-9 13 -51 18v26h178v-26z" />
    <glyph glyph-name="w" unicode="w" horiz-adv-x="685" 
d="M696 411q-37 -5 -51 -19q-13 -13 -28 -55q-36 -96 -120 -348h-29l-61 157l-61 154l-59 -152l-60 -159h-28q-71 229 -116 357q-13 39 -26 50q-12 10 -48 15v26h207v-26q-45 -7 -53 -17q-9 -9 2 -44l74 -232h2l116 314h26q39 -111 120 -318h2q50 156 69 231q10 38 0 49
q-9 10 -58 17v26h180v-26z" />
    <glyph glyph-name="x" unicode="x" horiz-adv-x="472" 
d="M260 0v26q32 4 39 12q8 8 -5 28l-74 117q-39 -58 -64 -106q-15 -26 -10 -35q6 -10 44 -16v-26h-186v26q46 6 65 17q17 11 47 49t85 120l-87 136q-23 36 -40 47t-58 16v26h199v-26q-31 -4 -36 -13q-5 -8 9 -29l59 -93q37 56 58 94q13 23 7 30t-40 11v26h183v-26
q-71 -7 -110 -53q-24 -29 -78 -110l97 -148q28 -43 46 -55q19 -13 64 -19v-26h-214z" />
    <glyph glyph-name="y" unicode="y" horiz-adv-x="459" 
d="M478 411q-39 -6 -54 -18q-13 -11 -34 -54l-126 -301q-86 -205 -103 -270q-6 -25 -32 -25q-21 0 -38 15q-18 15 -18 33q0 19 25 37q40 24 75 88q18 34 31 69q7 20 -2 45q-67 191 -114 306q-17 43 -31 56q-15 14 -55 19v26h202l1 -26q-35 -5 -42 -16q-7 -10 4 -39l90 -250
q57 137 92 249q9 29 0 39q-10 12 -52 17v26h181v-26z" />
    <glyph glyph-name="z" unicode="z" horiz-adv-x="420" 
d="M413 125l-46 -125h-329l-7 15q109 161 249 388h-89q-52 0 -73 -14q-18 -13 -40 -57l-14 -27l-25 9q20 70 34 144h21q8 -21 55 -21h230l6 -14l-244 -390h99q54 0 81 18q22 15 53 63l13 24z" />
    <glyph glyph-name="braceleft" unicode="{" horiz-adv-x="347" 
d="M293 -169q-145 0 -145 128q0 35 4 108q4 69 3 102q0 37 -12 54q-20 29 -78 33l-1 29q58 4 79 33q12 17 12 54q0 31 -4 103q-4 68 -3 102q0 132 145 132v-28q-51 -7 -70 -34q-14 -19 -14 -59q0 -32 7 -100q6 -67 6 -100q0 -97 -83 -115v-4q83 -20 83 -117q0 -34 -6 -99
q-7 -66 -7 -97q0 -41 14 -62q19 -28 70 -35v-28z" />
    <glyph glyph-name="bar" unicode="|" horiz-adv-x="263" 
d="M99 -250v1000h64v-1000h-64z" />
    <glyph glyph-name="braceright" unicode="}" horiz-adv-x="347" 
d="M283 255q-58 -4 -78 -33q-13 -19 -13 -58q0 -28 4 -98q4 -69 4 -107q0 -128 -146 -128v28q85 12 85 94q0 33 -7 99q-7 68 -7 99q0 96 84 117v4q-84 20 -84 115q0 34 7 101q7 70 7 100q0 81 -85 93v28q146 0 146 -129q0 -37 -4 -107q-4 -69 -4 -98q0 -39 13 -57
q20 -30 78 -34v-29z" />
    <glyph glyph-name="asciitilde" unicode="~" horiz-adv-x="580" 
d="M525 287q-33 -110 -127 -110q-52 0 -126 45q-55 33 -91 33q-59 0 -91 -85l-35 25q44 110 130 110q51 0 117 -39t102 -39q54 0 85 81z" />
    <glyph glyph-name="exclamdown" unicode="&#xa1;" horiz-adv-x="276" 
d="M178 431q16 -17 16 -43q0 -25 -16 -41q-17 -17 -41 -17q-25 0 -41 17q-16 16 -16 41q0 26 16 43q16 16 42 16q24 0 40 -16zM85 -198q0 22 7 79q10 88 29 358q4 5 18 5t18 -5q21 -304 28 -358q7 -72 7 -79q0 -30 -54 -30q-53 0 -53 30z" />
    <glyph glyph-name="cent" unicode="&#xa2;" horiz-adv-x="480" 
d="M434 196q-64 -84 -149 -98v-98h-35v96q-87 2 -144 63q-55 59 -55 139q0 112 93 184q49 37 106 49v84h35v-79q7 1 18 1q63 0 101 -27q14 -10 14 -25t-12 -29q-12 -13 -24 -14q-5 1 -15 9q-36 36 -82 43v-334q70 -3 132 59zM250 494q-46 -1 -80 -37q-41 -43 -41 -118
q0 -79 41 -127q33 -39 80 -49v331z" />
    <glyph glyph-name="sterling" unicode="&#xa3;" horiz-adv-x="480" 
d="M204 295q1 -8 1 -22q0 -93 -87 -174q46 0 105 -27q82 -38 120 -38q58 0 58 46q0 18 -7 32q-4 10 3 22q17 26 36 26q23 0 23 -41q0 -65 -77 -116q-49 -31 -91 -31q-39 0 -135 54q-40 24 -58 24q-25 0 -41 -43q-4 -12 -12 -12q-12 0 -18 13q-6 15 6 35q9 15 47 58
q42 46 42 135q0 17 -3 59h-88v38h83q-5 63 -5 82q0 108 83 175q54 45 104 45q67 0 97 -41q11 -15 4 -31q-5 -11 -19 -23q-14 -9 -28 2q-48 42 -93 42q-72 0 -72 -96q0 -47 20 -155h174v-38h-172z" />
    <glyph glyph-name="fraction" unicode="&#x2044;" horiz-adv-x="159" 
d="M-108 -26l-31 24l404 657l33 -23z" />
    <glyph glyph-name="yen" unicode="&#xa5;" horiz-adv-x="480" 
d="M466 597q-38 -5 -55 -18q-14 -12 -37 -53q-34 -59 -99 -195h129v-36h-136v-67h136v-37h-136v-84q0 -51 14 -63q14 -13 76 -17v-27h-257v27q61 4 75 17q13 12 13 63v84h-131v37h131v67h-130v36h120q-35 86 -87 195q-20 43 -35 55q-14 11 -50 16v26h205v-26l-26 -5
q-21 -4 -26 -10t1 -22q26 -66 88 -209q66 136 88 196q9 22 5 30q-4 10 -27 15l-28 5v26h179v-26z" />
    <glyph glyph-name="florin" unicode="&#x192;" horiz-adv-x="480" 
d="M196 415q21 118 95 182q62 55 112 55q19 0 38 -13q21 -15 20 -31q0 -13 -13 -29q-14 -18 -25 -12q-51 33 -72 33q-25 0 -39 -31q-20 -38 -40 -199h113l-1 -37h-118l-30 -205q-24 -159 -116 -228q-50 -38 -88 -38q-19 0 -37 13q-17 12 -17 25q0 12 13 30q14 18 22 18
q3 0 27 -15q25 -16 42 -16q31 0 42 35q13 42 32 189l25 192h-88v37h94z" />
    <glyph glyph-name="section" unicode="&#xa7;" horiz-adv-x="477" 
d="M327 -12q-63 -69 -138 -92q-41 0 -69 22q-20 15 -20 30q0 14 21 32q11 8 21 3q45 -28 79 -28q28 0 47 14q22 17 23 46q0 41 -67 104l-49 49l-50 49q-71 69 -71 152q0 88 79 172q73 80 151 99q40 0 66 -22q12 -12 12 -23q0 -20 -18 -33q-11 -9 -20 -1q-32 26 -75 26
q-31 0 -49 -18q-15 -15 -15 -34q0 -36 37 -69l110 -95q94 -81 94 -170q-1 -104 -99 -213zM104 411q0 -78 89 -161q101 -92 122 -127q22 -36 19 -77l2 -2q38 58 38 114q0 78 -80 148q-98 90 -111 103q-46 44 -40 98l-3 1q-36 -49 -36 -95v-2z" />
    <glyph glyph-name="currency" unicode="&#xa4;" horiz-adv-x="480" 
d="M407 94l-64 76q-46 -39 -105 -39q-62 0 -107 38l-63 -75l-40 41l69 66q-43 52 -43 124q0 71 43 122l-69 68l40 40l64 -75q47 38 106 38h1q58 0 105 -38l63 75l41 -40l-69 -67q43 -51 43 -123q0 -71 -44 -123l70 -67zM150 429q-35 -40 -35 -104t36 -105q35 -40 88 -40
t88 40q35 41 35 105t-36 104q-35 40 -88 40t-88 -40z" />
    <glyph glyph-name="quotesingle" unicode="'" horiz-adv-x="169" 
d="M125 705l-11 -95q-10 -88 -15 -124l-28 -12q-18 171 -29 209l77 27z" />
    <glyph glyph-name="quotedblleft" unicode="&#x201c;" horiz-adv-x="398" 
d="M182 689q-78 -32 -78 -83q0 -52 62 -63q14 -2 14 -20t-15 -29q-13 -9 -28 -9h-1q-35 0 -63 26q-31 30 -31 74q0 96 130 131zM357 689q-78 -32 -78 -83q0 -52 63 -63q13 -2 13 -20t-15 -29q-13 -9 -28 -9h-1q-35 0 -63 26q-31 30 -31 74q0 96 130 131z" />
    <glyph glyph-name="guillemotleft" unicode="&#xab;" horiz-adv-x="444" 
d="M207 38q-104 133 -158 183q59 59 159 184l22 -15l-93 -169l93 -167zM373 38q-99 126 -158 183q69 72 158 184l23 -15l-93 -169l93 -167z" />
    <glyph glyph-name="guilsinglleft" unicode="&#x2039;" horiz-adv-x="279" 
d="M207 38q-93 120 -158 183q76 79 158 184l23 -15l-94 -169l94 -167z" />
    <glyph glyph-name="guilsinglright" unicode="&#x203a;" horiz-adv-x="279" 
d="M72 405q96 -122 158 -184q-65 -63 -158 -183l-23 15l94 168l-94 169z" />
    <glyph glyph-name="uniFB01" unicode="&#xfb01;" horiz-adv-x="535" 
d="M305 0v26q42 4 53 15q10 12 10 59v245q0 35 -8 43q-8 9 -44 9h-136v-297q0 -46 11 -58q11 -11 59 -16v-26h-220v26q48 5 59 16q12 12 12 58v297h-72l-4 11l28 29h48v23q0 40 11 78q23 72 82 120q60 47 125 54q75 -2 106 -48q12 -17 5 -36q-9 -17 -22 -24q-18 -12 -29 1
q-50 59 -104 59q-39 0 -62 -36q-33 -45 -33 -157v-34h79q127 0 188 13v-350q0 -47 11 -58t59 -16v-26h-212z" />
    <glyph glyph-name="uniFB02" unicode="&#xfb02;" horiz-adv-x="533" 
d="M303 0v26q44 4 54 16q11 12 11 58v522q-29 45 -89 45q-42 0 -68 -36q-31 -40 -31 -142v-52h116q5 -7 2 -21t-11 -19h-107v-297q0 -46 11 -58q10 -11 56 -16v-26h-216v26q48 5 59 16q11 12 11 58v297h-70l-4 11l27 29h47v17q0 53 13 90q18 66 81 116q54 44 117 52
q47 0 82 -23q11 3 45 21l8 -5v-605q0 -46 12 -58q11 -11 60 -16v-26h-216z" />
    <glyph glyph-name="endash" unicode="&#x2013;" horiz-adv-x="520" 
d="M50 201v51h419v-51h-419z" />
    <glyph glyph-name="dagger" unicode="&#x2020;" horiz-adv-x="490" 
d="M222 -96q2 45 1 111q0 203 -29 267q30 55 33 123q-82 -3 -127 -32q-33 13 -52 47q20 35 53 47q43 -28 126 -32q-4 84 -38 143q22 42 56 61q33 -17 56 -61q-34 -59 -38 -143q85 4 127 32q32 -11 52 -46q-19 -34 -52 -48q-47 29 -127 32q3 -63 34 -123q-31 -69 -31 -267
q0 -75 2 -111h-46z" />
    <glyph glyph-name="daggerdbl" unicode="&#x2021;" horiz-adv-x="489" 
d="M392 80q-48 29 -130 32q4 -82 40 -145q-24 -42 -56 -61q-34 19 -56 61q35 63 39 145q-82 -3 -130 -32q-33 13 -51 47q20 35 51 46q47 -28 130 -31q-3 110 -39 140q36 35 39 137q-79 -1 -130 -32q-33 13 -51 47q20 35 51 46q47 -28 130 -31q-4 66 -39 129q22 42 55 61
q32 -17 57 -61q-36 -62 -40 -129q84 3 128 31q34 -10 53 -46q-17 -33 -51 -47q-51 31 -130 32q3 -102 39 -137q-39 -34 -39 -137v-3q83 3 130 31q31 -11 51 -46q-20 -34 -51 -47z" />
    <glyph glyph-name="periodcentered" unicode="&#xb7;" horiz-adv-x="226" 
d="M72 190q-16 17 -16 43q0 24 16 41q16 16 41 16q24 0 41 -16q16 -17 16 -41q0 -26 -17 -43q-16 -16 -41 -16q-24 0 -40 16z" />
    <glyph glyph-name="paragraph" unicode="&#xb6;" horiz-adv-x="497" 
d="M436 506l-88 -10v-474q0 -115 -67 -185q-48 -50 -87 -50q-43 0 -66 23q-16 15 -10 30q4 13 20 27q9 7 19 0q33 -22 63 -22q77 0 77 157v150l-67 -29q-6 -3 -17 -3q-50 0 -102 54q-61 62 -61 148q0 97 66 160q68 63 148 63h198l4 -12z" />
    <glyph glyph-name="bullet" unicode="&#x2022;" horiz-adv-x="390" 
d="M287 312q38 -39 38 -94q0 -56 -38 -95t-91 -39q-55 0 -93 39t-38 95q0 55 38 94q39 39 94 39q53 0 90 -39z" />
    <glyph glyph-name="quotesinglbase" unicode="&#x201a;" horiz-adv-x="239" 
d="M161 97q32 -31 32 -76q0 -51 -43 -89q-36 -31 -91 -45l-10 29q81 35 81 85q0 54 -66 63q-13 2 -13 21t15 30q13 9 29 9q36 0 66 -27z" />
    <glyph glyph-name="quotedblbase" unicode="&#x201e;" horiz-adv-x="429" 
d="M345 97q33 -30 33 -76q0 -98 -134 -134l-10 29q81 34 81 85q0 52 -66 64q-13 2 -13 20q0 19 15 30q13 10 29 10q36 0 65 -28zM161 97q32 -30 32 -76q0 -99 -134 -134l-10 29q81 35 81 85q0 52 -66 64q-13 2 -13 20q0 19 15 30q13 10 29 10q36 0 66 -28z" />
    <glyph glyph-name="quotedblright" unicode="&#x201d;" horiz-adv-x="401" 
d="M150 683q31 -30 31 -75q0 -49 -41 -86q-36 -31 -89 -45l-10 27q78 32 78 84t-63 63q-13 2 -13 20q0 19 15 30q13 9 29 9q35 0 63 -27zM328 683q31 -30 31 -75q0 -49 -42 -86q-35 -31 -89 -45l-9 27q78 33 78 84q0 52 -63 63q-13 2 -13 20t15 30q13 9 28 9q35 0 64 -27z
" />
    <glyph glyph-name="guillemotright" unicode="&#xbb;" horiz-adv-x="445" 
d="M72 405q96 -122 158 -184q-59 -57 -158 -183l-23 15l94 168l-94 169zM237 405q96 -122 158 -184q-59 -57 -158 -183l-23 15l93 168l-93 169z" />
    <glyph glyph-name="ellipsis" unicode="&#x2026;" horiz-adv-x="970" 
d="M105 46q0 24 16 41q16 16 40 16t40 -16q16 -17 16 -41q0 -26 -16 -42t-41 -16q-55 0 -55 58zM430 46q0 24 16 41q16 16 40 16t40 -16q16 -17 16 -41q0 -26 -16 -42t-41 -16q-55 0 -55 58zM767 4q-16 16 -16 42q0 24 16 41q16 16 40 16t40 -16q16 -17 16 -41
q0 -58 -57 -58q-24 0 -39 16z" />
    <glyph glyph-name="perthousand" unicode="&#x2030;" horiz-adv-x="1062" 
d="M183 -32l-31 23l402 661l32 -23zM300 576q34 -50 34 -118q0 -67 -34 -118q-40 -59 -109 -59q-68 0 -108 59q-34 50 -34 117q0 69 34 119q40 59 109 59t108 -59zM122 459q0 -53 13 -93q19 -57 58 -57q68 0 68 149q0 148 -69 148q-70 0 -70 -147zM661 284q34 -51 34 -119
q0 -67 -34 -118q-40 -59 -108 -59q-69 0 -109 59q-34 51 -34 118q0 68 34 119q40 59 110 59q68 0 107 -59zM984 284q34 -51 34 -119q0 -67 -34 -118q-40 -59 -109 -59q-68 0 -108 59q-34 51 -34 118q0 68 34 119q40 59 109 59q68 0 108 -59zM483 166q0 -149 71 -149
q68 0 68 148q0 149 -69 149q-70 0 -70 -148zM806 166q0 -149 70 -149q69 0 69 148q0 149 -70 149q-69 0 -69 -148z" />
    <glyph glyph-name="questiondown" unicode="&#xbf;" horiz-adv-x="379" 
d="M229 432q16 -16 16 -41q0 -24 -16 -40q-16 -17 -39 -17t-39 17q-15 16 -15 40q0 57 55 57q23 0 38 -16zM176 243q36 -12 70 -46q42 -42 42 -83q0 -48 -85 -113q-97 -71 -97 -111q0 -54 59 -54q38 0 76 27l38 26q12 0 25 -13q16 -14 16 -31q0 -16 -21 -36q-44 -37 -92 -37
h-1q-62 0 -111 48q-49 49 -49 110q0 51 48 89l31 24q23 17 37 29q43 39 43 69q0 38 -47 79z" />
    <glyph glyph-name="grave" unicode="`" 
d="M220 491l-117 160l3 8q38 21 78 13q10 -24 31 -81q23 -64 32 -87z" />
    <glyph glyph-name="acute" unicode="&#xb4;" 
d="M167 507q12 25 39 88q31 76 29 70q41 18 81 9l3 -9l-126 -171z" />
    <glyph glyph-name="circumflex" unicode="&#x2c6;" 
d="M288 492q-40 38 -87 97q-51 -63 -89 -97l-24 17q49 68 101 163h25q44 -84 99 -163z" />
    <glyph glyph-name="tilde" unicode="&#x2dc;" 
d="M70 537q29 90 81 90q19 0 58 -19q36 -19 53 -19q23 0 43 44l25 -13q-28 -90 -79 -90q-22 0 -66 23q-27 16 -45 16q-24 0 -44 -48z" />
    <glyph glyph-name="macron" unicode="&#xaf;" 
d="M90 548v55h220v-55h-220z" />
    <glyph glyph-name="breve" unicode="&#x2d8;" 
d="M311 648q0 -137 -112 -137q-110 0 -110 137h30q11 -79 80 -79q71 0 82 79h30z" />
    <glyph glyph-name="dotaccent" unicode="&#x2d9;" 
d="M165 552q-15 15 -15 36q0 22 15 37q16 15 36 15q21 0 36 -15q14 -15 14 -37q0 -21 -15 -36q-14 -15 -36 -15q-20 0 -35 15z" />
    <glyph glyph-name="dieresis" unicode="&#xa8;" 
d="M82 553q-14 15 -14 34q0 21 14 35t34 14t33 -14q14 -14 14 -35q0 -20 -14 -34t-34 -14q-19 0 -33 14zM251 553q-14 15 -14 34q0 21 14 35t34 14t33 -14q14 -14 14 -35q0 -20 -14 -34t-34 -14q-19 0 -33 14z" />
    <glyph glyph-name="ring" unicode="&#x2da;" 
d="M139 522q-28 25 -28 63q0 37 28 61q26 22 62 22q34 0 60 -22q27 -24 27 -61q0 -38 -27 -63q-26 -23 -61 -23q-36 0 -61 23zM245 585q0 52 -45 52q-44 0 -44 -52q0 -24 12 -40q13 -16 33 -16q44 0 44 56z" />
    <glyph glyph-name="cedilla" unicode="&#xb8;" 
d="M224 -28q-16 -20 6 -41q39 -40 39 -69q0 -67 -115 -101l-12 26q60 26 60 60q0 16 -23 39q-20 18 -22 30q-3 14 11 33l38 50h39z" />
    <glyph glyph-name="hungarumlaut" unicode="&#x2dd;" 
d="M107 503q43 149 45 161q43 17 77 12l3 -10l-97 -172zM245 503l45 161q43 17 77 12l3 -10l-97 -172z" />
    <glyph glyph-name="ogonek" unicode="&#x2db;" 
d="M245 -204q-15 -9 -32 -9q-40 0 -62 24q-20 21 -20 50q0 42 57 141h37q-30 -63 -30 -110q0 -52 51 -52q21 0 42 9l8 -25z" />
    <glyph glyph-name="caron" unicode="&#x2c7;" 
d="M312 658q-49 -68 -101 -163h-25q-47 89 -99 163l25 17q39 -37 87 -97q54 64 88 97z" />
    <glyph glyph-name="emdash" unicode="&#x2014;" horiz-adv-x="922" 
d="M50 201v51h822v-51h-822z" />
    <glyph glyph-name="AE" unicode="&#xc6;" horiz-adv-x="869" 
d="M848 158q-20 -102 -36 -158h-473v28q64 4 79 22q15 16 15 84v162h-177q-59 -110 -96 -194q-18 -40 -9 -53q10 -15 67 -22v-27h-229v27q49 7 68 20q22 16 50 65q53 93 240 451q17 31 12 41q-6 11 -43 15l-41 5v26h513q3 -70 10 -142l-30 -4q-15 62 -32 83q-21 28 -105 28
h-83q-22 0 -27 -5q-5 -4 -5 -26v-249h89q67 0 84 13q16 12 26 64h30v-195h-30q-11 54 -26 66q-18 13 -84 13h-89v-166q0 -68 24 -83q20 -12 102 -12q99 0 128 34q25 30 49 96zM433 610q-12 0 -28 -19l-131 -256h159v275z" />
    <glyph glyph-name="ordfeminine" unicode="&#xaa;" horiz-adv-x="305" 
d="M232 269q-34 1 -44 39q-62 -39 -78 -39q-33 0 -55 24q-22 22 -22 52q0 43 48 61q92 34 105 44v10q0 55 -50 55q-32 0 -47 -53q-5 -15 -21 -15q-11 0 -21 8q-10 9 -10 20q0 15 20 28q48 34 98 43q88 0 88 -89v-108q0 -34 21 -34q11 0 24 6l7 -19zM186 423q-12 -6 -62 -27
q-29 -16 -29 -40q0 -44 44 -44q27 0 47 20v91z" />
    <glyph glyph-name="Lslash" unicode="&#x141;" horiz-adv-x="550" 
d="M536 160q-28 -135 -36 -160h-454v28q64 4 79 20t15 82v147l-98 -73v45l98 74v198q0 64 -14 81q-14 15 -74 20v28h261v-28q-60 -5 -74 -20q-14 -17 -14 -81v-137l125 94v-47l-125 -95v-196q0 -81 23 -93q22 -13 94 -13q87 0 113 31q26 27 51 100z" />
    <glyph glyph-name="Oslash" unicode="&#xd8;" horiz-adv-x="749" 
d="M584 600q126 -103 126 -265q0 -158 -98 -256q-95 -94 -238 -94q-95 0 -173 50l-56 -80l-27 23l53 78q-121 102 -121 263q0 141 92 241q97 105 248 105q93 0 163 -46l50 75l30 -20zM517 566q-59 63 -150 63t-151 -71q-66 -79 -66 -214q0 -132 67 -221zM240 92
q56 -71 151 -71q108 0 166 84q53 76 53 200q0 137 -69 232z" />
    <glyph glyph-name="OE" unicode="&#x152;" horiz-adv-x="973" 
d="M950 157q-17 -92 -35 -157h-306q-57 0 -102 -4q-75 -7 -101 -7q-175 0 -273 100q-88 90 -88 228q0 154 110 250q108 94 272 94q27 0 95 -6q57 -5 93 -5h276q2 -59 9 -142l-30 -3q-14 61 -30 83q-19 27 -113 27h-77q-22 0 -27 -4q-5 -5 -5 -26v-228h99q62 0 78 13
q14 11 23 60h30v-190h-30q-10 53 -23 64q-16 13 -78 13h-99v-184q0 -69 24 -85q20 -13 103 -13q98 0 127 32q24 26 48 94zM533 546q0 49 -18 59q-35 21 -99 21q-126 0 -198 -80q-71 -79 -71 -216q0 -130 61 -211q71 -95 209 -95q51 0 81 14q35 18 35 72v436z" />
    <glyph glyph-name="ordmasculine" unicode="&#xba;" horiz-adv-x="334" 
d="M267 505q39 -38 39 -94q0 -65 -45 -105q-40 -36 -93 -36q-64 0 -104 42q-37 38 -37 91q0 66 48 107q41 35 93 35q60 0 99 -40zM116 493q-20 -28 -20 -74q0 -53 22 -88q22 -34 54 -34q65 0 65 99q0 54 -20 87q-21 35 -58 35q-25 0 -43 -25z" />
    <glyph glyph-name="ae" unicode="&#xe6;" horiz-adv-x="671" 
d="M284 298q0 46 -26 77q-25 29 -62 29q-30 0 -47 -22q-14 -18 -27 -64q-7 -24 -28 -24q-13 0 -29 13q-17 14 -17 29q0 21 31 43q80 54 151 70q45 0 74 -21q26 -19 40 -55q68 76 148 76q63 0 109 -47q44 -45 45 -104q0 -30 -23 -35q-51 -10 -266 -17q-1 -93 48 -145
q43 -46 108 -46q58 0 111 50l17 -21q-71 -96 -163 -96q-108 0 -161 89l-35 -28q-82 -61 -121 -61q-53 0 -88 38q-33 35 -33 82q0 71 79 99q145 53 165 67v24zM402 380q-32 -35 -39 -94l176 3q21 0 21 22q0 41 -24 70q-26 30 -68 30q-37 0 -66 -31zM303 107q-20 41 -20 133
q-15 -8 -98 -42q-60 -26 -60 -71q0 -35 23 -57q21 -19 51 -19q61 0 104 56z" />
    <glyph glyph-name="dotlessi" unicode="&#x131;" horiz-adv-x="268" 
d="M33 0v26q48 5 59 17q11 14 11 65v200q0 50 -10 62q-9 11 -53 18v24q78 12 142 39v-343q0 -52 12 -65q11 -12 59 -17v-26h-220z" />
    <glyph glyph-name="lslash" unicode="&#x142;" horiz-adv-x="273" 
d="M180 386v-278q0 -52 13 -65q11 -12 61 -17v-26h-227v26q50 5 61 17q13 13 13 65v214l-74 -61v46l74 61v215q0 47 -11 58q-10 11 -59 16v23q87 10 149 35v-284l91 77v-46z" />
    <glyph glyph-name="oslash" unicode="&#xf8;" horiz-adv-x="513" 
d="M397 401q79 -66 79 -174q0 -111 -70 -179q-62 -60 -146 -60q-64 0 -117 31l-39 -55l-25 22l37 52q-79 68 -79 172q0 112 77 181q65 58 146 58q58 0 109 -30l37 53l26 -19zM338 372q-32 44 -89 44q-52 0 -86 -47q-37 -50 -37 -136q0 -80 31 -133zM178 70q32 -49 91 -49
q51 0 82 44q37 51 37 148q0 74 -30 128z" />
    <glyph glyph-name="oe" unicode="&#x153;" horiz-adv-x="770" 
d="M421 348q66 101 169 101q63 0 109 -46q45 -45 45 -105q0 -29 -22 -34q-50 -10 -269 -17q-1 -97 48 -148q42 -44 108 -44q55 0 113 51l15 -22q-70 -96 -161 -96q-109 0 -162 87q-63 -87 -163 -87q-96 0 -157 70q-57 64 -57 150q0 114 76 183q64 58 140 58q113 0 168 -101z
M498 380q-32 -35 -39 -94l179 3q20 0 20 24q0 43 -26 71t-68 28q-36 0 -66 -32zM165 370q-34 -49 -34 -129q0 -98 36 -158q37 -61 99 -61q47 0 76 42q34 48 34 143q0 92 -34 148q-36 60 -99 60q-47 0 -78 -45z" />
    <glyph glyph-name="germandbls" unicode="&#xdf;" horiz-adv-x="545" 
d="M103 449q0 47 12 85q22 73 82 124q58 48 128 54q70 -2 112 -40q43 -40 45 -110q0 -24 -11 -42q-103 -79 -103 -136q0 -36 70 -96q80 -69 80 -132q0 -69 -66 -122q-59 -47 -118 -47q-34 0 -55 13q-23 15 -20 34q4 14 19 26q11 9 20 1q38 -29 74 -29q27 0 47 19
q25 22 25 64q0 51 -69 110q-82 69 -82 122q0 41 70 116q40 40 43 45q7 13 7 34q0 51 -33 88q-35 40 -86 40q-67 0 -93 -82q-19 -60 -19 -188v-296q0 -47 9 -60q8 -13 44 -17v-27h-204v27q48 4 60 17q12 12 12 58v292h-70l-5 10l28 33h47v12z" />
    <glyph glyph-name="uni00B9" unicode="&#xb9;" horiz-adv-x="341" 
d="M76 402v23q42 3 53 13q13 10 13 46v178q0 29 -6 36t-31 9l-30 1v23q65 7 133 29v-276q0 -35 12 -46q11 -8 53 -13v-23h-197z" />
    <glyph glyph-name="logicalnot" unicode="&#xac;" horiz-adv-x="580" 
d="M471 97v221h-419v50h477v-271h-58z" />
    <glyph glyph-name="uni00B5" unicode="&#xb5;" horiz-adv-x="512" 
d="M508 28q-32 -40 -85 -40q-68 0 -78 78h-2q-69 -78 -134 -78q-52 0 -81 42h-4v-16q-2 -155 37 -259l-13 -12q-40 4 -75 39q-2 7 -2 259v294q0 60 -3 96l81 18q2 -23 2 -105v-171q0 -65 31 -97q24 -26 60 -26q56 0 100 53v328l80 18v-335q0 -70 41 -70q17 0 35 10z" />
    <glyph glyph-name="trademark" unicode="&#x2122;" horiz-adv-x="459" 
d="M173 587q-7 23 -11 26q-7 7 -24 7h-15v-97q0 -20 4 -25q4 -4 23 -5v-16h-86v16q19 1 22 5q4 5 4 25v97h-13q-18 0 -26 -8q-6 -6 -11 -25h-14q0 11 2 33l1 23h12q2 -3 5 -5q2 -1 8 -1h107q7 0 13 6h12l2 -56h-15zM354 477v16q17 1 20 5t3 23l1 90h-2l-59 -131h-12l-53 123
h-2l-3 -57q-1 -20 -1 -39q1 -13 24 -14v-16h-70v16q20 0 21 13q5 14 7 43l3 39q2 20 -2 25t-23 6v18h64l49 -101l49 101h64v-18q-16 -1 -19 -5q-4 -4 -4 -21l1 -68q0 -22 4 -26q3 -5 19 -6v-16h-79z" />
    <glyph glyph-name="Eth" unicode="&#xd0;" horiz-adv-x="737" 
d="M329 650q188 0 277 -85q86 -83 86 -215q0 -174 -125 -267q-110 -83 -293 -83h-229v28q65 5 79 21q15 17 15 88v183h-102v41h102v152q0 72 -14 89q-13 15 -72 20v28h276zM224 132q0 -54 17 -73q20 -22 80 -22q133 0 206 89q65 80 65 209q0 171 -115 243q-62 39 -162 39
q-59 0 -79 -10q-12 -7 -12 -43v-203h157v-41h-157v-188z" />
    <glyph glyph-name="onehalf" unicode="&#xbd;" horiz-adv-x="762" 
d="M73 276v23q42 4 53 13q13 11 13 46v179q0 28 -6 35q-6 8 -31 9l-30 2v22q69 9 132 30v-276q0 -35 12 -46q11 -8 53 -13v-23zM183 -27l-31 24l404 658l33 -23zM704 89q-16 -52 -24 -89h-243v22q172 139 172 213q0 73 -67 73q-44 0 -85 -55l-18 18l33 43q34 45 97 45
q45 0 76 -28q33 -30 34 -79q0 -59 -106 -151l-53 -47v-2h92q29 0 42 7q13 9 28 37z" />
    <glyph glyph-name="plusminus" unicode="&#xb1;" horiz-adv-x="580" 
d="M320 311v-204h-58v204h-210v50h210v191h58v-191h209v-50h-209zM52 0v50h477v-50h-477z" />
    <glyph glyph-name="Thorn" unicode="&#xde;" horiz-adv-x="549" 
d="M288 622q-56 -5 -67 -20q-13 -18 -13 -97q60 2 88 2q214 0 214 -170q0 -88 -71 -139q-64 -45 -160 -46l-71 17v-42q0 -64 15 -79t79 -20v-28h-264v28q59 5 72 20q14 16 14 84v386q0 69 -12 84q-13 15 -70 20v28h246v-28zM208 204q29 -12 68 -12q60 0 98 36q40 38 40 106
q0 140 -141 140q-40 0 -54 -9q-11 -6 -11 -32v-229z" />
    <glyph glyph-name="onequarter" unicode="&#xbc;" horiz-adv-x="762" 
d="M79 276v23q42 4 53 13q13 11 13 46v179q0 28 -6 35q-6 8 -31 9l-30 2v22q68 9 133 30v-276q0 -35 12 -46q11 -8 53 -13v-23zM197 -26l-31 24l404 657l33 -23zM628 99v-29q0 -29 11 -37q9 -8 44 -10v-23h-181v23q43 3 53 10q12 8 12 37v29h-162v23q112 149 184 237h39
v-223h59v-37h-59zM567 285h-3q-46 -59 -108 -149h111v149z" />
    <glyph glyph-name="divide" unicode="&#xf7;" horiz-adv-x="580" 
d="M258 368q-15 15 -15 35q0 19 15 34t34 15q20 0 35 -15q15 -14 15 -34q0 -21 -15 -35t-36 -14q-19 0 -33 14zM51 229v50h478v-50h-478zM325 140q15 -15 15 -35q0 -19 -15 -34q-16 -15 -34 -15q-21 0 -35 15q-15 14 -15 34q0 21 15 35q14 14 36 14q18 0 33 -14z" />
    <glyph glyph-name="brokenbar" unicode="&#xa6;" horiz-adv-x="263" 
d="M99 325v350h64v-350h-64zM99 -175v350h64v-350h-64z" />
    <glyph glyph-name="degree" unicode="&#xb0;" horiz-adv-x="343" 
d="M270 627q42 -40 42 -100q0 -63 -43 -101q-39 -36 -97 -36t-98 36q-42 38 -42 101q0 61 42 100q41 37 99 37q56 0 97 -37zM114 595q-22 -26 -22 -68t23 -68q22 -26 58 -26q35 0 57 26t22 67q0 43 -22 69t-58 26q-35 0 -58 -26z" />
    <glyph glyph-name="thorn" unicode="&#xfe;" horiz-adv-x="514" 
d="M156 384q45 25 111 57q16 8 35 8q79 0 129 -60q45 -55 45 -129q0 -108 -74 -183q-69 -70 -176 -89q-37 2 -70 20v-138q0 -53 15 -66q13 -12 74 -17v-26h-240v26q48 5 59 16q13 14 13 64v711q0 51 -10 62q-10 10 -60 15v25q78 8 149 32v-328zM156 80q37 -41 98 -41
q58 0 95 41q44 48 44 138q0 83 -40 130q-38 42 -98 42q-40 0 -99 -39v-271z" />
    <glyph glyph-name="threequarters" unicode="&#xbe;" horiz-adv-x="762" 
d="M200 -26l-31 24l404 657l33 -23zM622 99v-29q0 -29 11 -37q9 -8 44 -10v-23h-180v23q42 3 52 10q12 8 12 37v29h-162v23q112 149 184 237h39v-223h59v-37h-59zM561 285h-3q-46 -59 -108 -149h111v149zM233 487q87 -14 87 -83q0 -61 -68 -102q-54 -33 -99 -33
q-41 0 -69 21q-15 12 -10 28q4 15 17 24q10 7 21 -1q42 -33 76 -33q64 0 64 74q0 33 -24 52q-22 16 -54 16q-20 0 -41 -7l-6 24q99 33 99 79q0 45 -51 45q-43 0 -75 -50l-16 16l29 41q33 37 86 37h1q42 0 69 -23q26 -21 25 -53q0 -25 -18 -41q-22 -18 -43 -29v-2z" />
    <glyph glyph-name="uni00B2" unicode="&#xb2;" horiz-adv-x="341" 
d="M306 490q-13 -44 -23 -89h-243v22q171 140 171 214q0 73 -67 73q-44 0 -85 -55l-17 18l32 43q36 45 97 45q45 0 76 -28q34 -30 34 -79q0 -59 -106 -152l-52 -47v-2h91q30 0 42 7q13 8 28 37z" />
    <glyph glyph-name="registered" unicode="&#xae;" horiz-adv-x="321" 
d="M254 620q37 -37 37 -90q0 -52 -37 -89q-38 -39 -93 -39t-92 37t-37 91q0 52 38 90q38 39 92 39q55 0 92 -39zM89 605q-28 -30 -28 -75t29 -75t72 -30t72 30t29 75q0 44 -29 75q-30 31 -73 31t-72 -31zM232 462q-34 0 -49 20q4 -6 -18 32q-3 7 -13 7h-4v-24q0 -13 3 -16
q2 -2 15 -3v-15h-67v15q14 1 16 3q3 3 3 16v68q0 13 -3 16q-2 2 -15 3v15h68q48 0 48 -35q0 -24 -27 -34q11 -20 33 -47l13 -9zM156 536q8 0 18 4q10 7 10 21q0 23 -24 23q-12 0 -12 -12v-36h8z" />
    <glyph glyph-name="minus" unicode="&#x2212;" horiz-adv-x="580" 
d="M52 229v50h477v-50h-477z" />
    <glyph glyph-name="eth" unicode="&#xf0;" horiz-adv-x="505" 
d="M337 600q130 -139 130 -333q0 -136 -68 -212q-60 -67 -151 -67q-93 0 -154 70q-56 65 -56 151q0 112 75 181q65 59 145 59h1q52 0 96 -25q-17 83 -72 146l-145 -78l-16 31l135 72q-79 73 -173 87q-4 6 -2 16t8 14q120 -7 218 -87l126 67l16 -31zM165 367
q-34 -49 -34 -130q0 -96 36 -155q37 -60 98 -60q113 0 114 213q1 110 -30 141q-38 40 -96 40q-54 0 -88 -49z" />
    <glyph glyph-name="multiply" unicode="&#xd7;" horiz-adv-x="580" 
d="M485 9l-195 199l-195 -199l-35 38l193 199l-193 198l35 38l195 -199l195 200l37 -37l-195 -200l195 -199z" />
    <glyph glyph-name="uni00B3" unicode="&#xb3;" horiz-adv-x="341" 
d="M206 612q87 -16 87 -83q0 -61 -68 -102q-54 -33 -100 -33q-40 0 -68 21q-16 13 -11 28q4 14 18 24q9 8 21 -1q43 -33 76 -33q64 0 64 75q0 32 -24 51q-22 16 -53 16q-20 0 -41 -7l-6 24q99 32 99 78t-52 46q-43 0 -75 -50l-17 16l30 41q33 37 86 37h1q42 0 69 -23
q25 -22 25 -54q0 -27 -19 -41q-22 -17 -43 -28z" />
    <glyph glyph-name="copyright" unicode="&#xa9;" horiz-adv-x="702" 
d="M566 537q85 -87 85 -215q0 -127 -85 -214q-87 -88 -215 -88t-214 88q-86 87 -86 214q0 128 86 215q86 89 215 89q127 0 214 -89zM170 515q-72 -77 -72 -192t72 -191q72 -78 182 -78q109 0 181 78q71 76 71 191t-71 192q-72 77 -182 77q-109 0 -181 -77zM503 258
q-20 -76 -26 -90q-54 -19 -104 -19q-91 0 -143 54q-47 48 -47 117q0 80 58 130q55 46 136 46q60 0 104 -17q7 -44 11 -91l-21 -4q-25 84 -101 84q-53 0 -84 -40q-30 -39 -30 -101q0 -66 34 -108q33 -41 83 -41q72 0 108 85z" />
    <glyph glyph-name="Aacute" unicode="&#xc1;" horiz-adv-x="691" 
d="M428 0v28q47 6 58 16t1 39l-55 154h-213q-31 -88 -44 -129q-16 -47 -5 -61t68 -19v-28h-218v28q50 7 67 22q20 18 45 82l207 524l31 9l96 -267l97 -269q23 -63 42 -80q18 -16 68 -21v-28h-245zM330 535h-2l-94 -255h184zM502 748l-185 -64l-13 25l157 102q9 -1 25 -23
q16 -21 18 -32z" />
    <glyph glyph-name="Acircumflex" unicode="&#xc2;" horiz-adv-x="691" 
d="M428 0v28q47 6 58 16t1 39l-55 154h-213q-31 -88 -44 -129q-16 -47 -5 -61t68 -19v-28h-218v28q50 7 67 22q20 18 45 82l207 524l31 9l96 -267l97 -269q23 -63 42 -80q18 -16 68 -21v-28h-245zM330 535h-2l-94 -255h184zM477 684q-50 21 -121 62q-79 -45 -120 -62l-16 25
q93 71 126 107h22q36 -38 125 -107z" />
    <glyph glyph-name="Adieresis" unicode="&#xc4;" horiz-adv-x="691" 
d="M427 0v28q47 6 58 16t1 39l-54 154h-213l-44 -129q-16 -47 -5 -61t68 -19v-28h-218v28q50 7 67 22q21 18 46 82l206 524l31 9l96 -267l97 -269q23 -63 42 -80q18 -16 68 -21v-28h-246zM330 535h-2l-47 -129q-41 -111 -46 -126h183zM482 780q14 -15 14 -36q0 -20 -14 -34
t-34 -14q-19 0 -33 14q-14 15 -14 34q0 21 14 36q14 14 34 14t33 -14zM291 780q14 -15 14 -36q0 -20 -14 -34t-34 -14q-19 0 -33 14q-14 15 -14 34q0 21 14 36q14 14 34 14t33 -14z" />
    <glyph glyph-name="Agrave" unicode="&#xc0;" horiz-adv-x="691" 
d="M428 0v28q47 6 58 16t1 39l-55 154h-213q-31 -88 -44 -129q-16 -47 -5 -61t68 -19v-28h-218v28q50 7 67 22q20 18 45 82l207 524l31 9l96 -267l97 -269q23 -63 42 -80q18 -16 68 -21v-28h-245zM330 535h-2l-94 -255h184zM393 684l-186 63l-2 8q13 47 43 57l158 -103z" />
    <glyph glyph-name="Aring" unicode="&#xc5;" horiz-adv-x="691" 
d="M428 0v28q47 6 58 16q10 10 1 39l-55 154h-213q-31 -88 -44 -129q-16 -47 -5 -61t67 -19v-28h-217v28q50 7 67 22q20 18 45 82l207 524l31 9l96 -267l97 -269q23 -63 42 -80q18 -16 68 -21v-28h-245zM330 535h-2l-94 -255h184zM416 833q27 -24 27 -61q0 -38 -28 -63
q-26 -23 -61 -22q-35 0 -60 23q-28 24 -28 62q0 37 28 61q25 22 61 22q35 0 61 -22zM310 772q0 -55 44 -55t44 55q0 52 -45 52q-43 0 -43 -52z" />
    <glyph glyph-name="Atilde" unicode="&#xc3;" horiz-adv-x="691" 
d="M428 0v28q47 6 58 16t1 39l-55 154h-213q-31 -88 -44 -129q-16 -47 -5 -61t68 -19v-28h-218v28q50 7 67 22q20 18 45 82l207 524l31 9l96 -267l97 -269q23 -63 42 -80q18 -16 68 -21v-28h-245zM330 535h-2l-94 -255h184zM366 770q31 -16 54 -16q27 0 46 42l25 -13
q-26 -85 -82 -85q-21 0 -70 21q-26 14 -44 14q-23 0 -47 -44l-24 18q31 81 80 81q20 0 62 -18z" />
    <glyph glyph-name="Ccedilla" unicode="&#xc7;" horiz-adv-x="661" 
d="M641 167q-26 -100 -54 -156q-100 -23 -165 -24l-11 -14q-15 -20 6 -42q38 -38 38 -68q0 -66 -113 -102l-14 28q61 27 61 60q0 15 -23 38q-33 32 -11 62l27 37q-164 5 -256 110q-80 90 -80 218q0 155 107 254q106 97 272 97q70 0 178 -27q14 -98 20 -154l-30 -5
q-23 81 -68 115q-44 34 -128 34q-112 0 -181 -84q-67 -81 -67 -207q0 -138 69 -225q71 -89 187 -89q75 0 124 39q42 34 84 116z" />
    <glyph glyph-name="Eacute" unicode="&#xc9;" horiz-adv-x="568" 
d="M546 158q-18 -100 -35 -158h-482v28q68 4 84 20q15 15 15 77v398q0 66 -14 81q-12 13 -72 18v28h446q0 -8 8 -144l-29 -4q-11 51 -32 85q-18 29 -113 29h-76q-23 0 -28 -5t-5 -27v-228h94q67 0 84 12q15 12 24 63h29v-191h-29q-10 54 -26 65q-16 12 -81 12h-95v-188
q0 -65 24 -82q21 -13 104 -13q97 0 126 34q29 36 50 94zM429 748l-185 -64l-13 25l157 102q9 -1 25 -23q16 -21 18 -32z" />
    <glyph glyph-name="Ecircumflex" unicode="&#xca;" horiz-adv-x="568" 
d="M546 158q-18 -100 -35 -158h-482v28q68 4 84 20q15 15 15 77v398q0 66 -14 81q-12 13 -72 18v28h446q0 -8 8 -144l-29 -4q-11 51 -32 85q-18 29 -113 29h-76q-23 0 -28 -5t-5 -27v-228h94q67 0 84 12q15 12 24 63h29v-191h-29q-10 54 -26 65q-16 12 -81 12h-95v-188
q0 -65 24 -82q21 -13 104 -13q97 0 126 34q29 36 50 94zM408 684q-50 21 -121 62q-79 -45 -120 -62l-16 25q90 69 126 107h22q39 -41 125 -107z" />
    <glyph glyph-name="Edieresis" unicode="&#xcb;" horiz-adv-x="568" 
d="M546 158q-18 -100 -35 -158h-482v28q68 4 84 20q15 15 15 77v398q0 66 -14 81q-12 13 -72 18v28h446q0 -8 8 -144l-29 -4q-11 51 -32 85q-18 29 -113 29h-76q-23 0 -28 -5t-5 -27v-228h94q67 0 84 12q15 12 24 63h29v-191h-29q-10 54 -26 65q-16 12 -81 12h-95v-188
q0 -65 24 -82q21 -13 104 -13q97 0 126 34q29 36 50 94zM419 783q14 -14 14 -35q0 -20 -14 -34q-14 -15 -34 -15q-19 0 -33 15q-14 14 -14 34q0 21 14 35t34 14t33 -14zM229 783q14 -15 14 -36q0 -20 -14 -34t-34 -14q-19 0 -34 14q-14 15 -14 34q0 21 14 36q15 14 35 14
t33 -14z" />
    <glyph glyph-name="Egrave" unicode="&#xc8;" horiz-adv-x="568" 
d="M546 158q-18 -100 -35 -158h-482v28q68 4 84 20q15 15 15 77v398q0 66 -14 81q-12 13 -72 18v28h446q0 -8 8 -144l-29 -4q-11 51 -32 85q-18 29 -113 29h-76q-23 0 -28 -5t-5 -27v-228h94q67 0 84 12q15 12 24 63h29v-191h-29q-10 54 -26 65q-16 12 -81 12h-95v-188
q0 -65 24 -82q21 -13 104 -13q97 0 126 34q29 36 50 94zM336 684l-186 64l-2 7q13 47 43 57l158 -103z" />
    <glyph glyph-name="Iacute" unicode="&#xcd;" horiz-adv-x="341" 
d="M38 0v28q62 5 76 19q14 15 14 78v400q0 63 -14 78q-14 14 -76 19v28h265v-28q-62 -5 -76 -19q-14 -15 -14 -78v-400q0 -64 14 -78t76 -19v-28h-265zM310 748l-185 -64l-13 25l157 102q9 -1 25 -23q16 -21 18 -32z" />
    <glyph glyph-name="Icircumflex" unicode="&#xce;" horiz-adv-x="341" 
d="M38 0v28q62 5 76 19q14 15 14 78v400q0 63 -14 78q-14 14 -76 19v28h265v-28q-62 -5 -76 -19q-14 -15 -14 -78v-400q0 -64 14 -78t76 -19v-28h-265zM291 684q-50 21 -121 62q-79 -45 -120 -62l-16 25q93 71 126 107h22q36 -38 125 -107z" />
    <glyph glyph-name="Idieresis" unicode="&#xcf;" horiz-adv-x="341" 
d="M38 0v28q62 5 76 19q14 15 14 78v400q0 63 -14 78q-14 14 -76 19v28h264v-28q-61 -5 -75 -19q-14 -15 -14 -78v-400q0 -64 14 -78q13 -14 75 -19v-28h-264zM299 781q14 -15 14 -36q0 -20 -14 -34t-34 -14q-19 0 -33 14q-14 15 -14 34q0 21 14 36q14 14 34 14t33 -14z
M109 781q14 -15 14 -36q0 -20 -14 -34t-34 -14q-19 0 -33 14q-14 15 -14 34q0 21 14 36q14 14 34 14t33 -14z" />
    <glyph glyph-name="Igrave" unicode="&#xcc;" horiz-adv-x="341" 
d="M38 0v28q62 5 76 19q14 15 14 78v400q0 63 -14 78q-14 14 -76 19v28h265v-28q-62 -5 -76 -19q-14 -15 -14 -78v-400q0 -64 14 -78t76 -19v-28h-265zM223 684l-186 63l-2 8q13 47 43 57l158 -103z" />
    <glyph glyph-name="Ntilde" unicode="&#xd1;" horiz-adv-x="743" 
d="M719 622q-43 -2 -61 -14q-20 -14 -23 -45q-6 -46 -6 -169v-403h-31l-426 524h-2v-251q0 -111 6 -169q4 -37 24 -51q20 -13 72 -16v-28h-237v28q45 3 64 16q20 14 24 49q6 62 6 171v220q0 75 -20 101q-27 32 -89 37v28h147l418 -501h3v245q0 117 -7 166q-4 34 -25 47
q-20 12 -73 15v28h236v-28zM386 769q34 -16 55 -16q25 0 46 43l24 -14q-27 -85 -82 -85q-23 0 -70 22q-28 14 -44 14q-25 0 -47 -44l-25 17q33 82 82 82q20 0 61 -19z" />
    <glyph glyph-name="Oacute" unicode="&#xd3;" horiz-adv-x="747" 
d="M605 574q98 -95 98 -241q0 -158 -98 -255q-94 -93 -236 -93q-137 0 -230 94q-95 96 -95 239q0 142 89 241q96 106 248 106q131 0 224 -91zM211 558q-65 -78 -65 -212q0 -141 69 -233t175 -92q90 0 148 71q63 77 63 214q0 152 -71 241q-67 82 -171 82q-89 0 -148 -71z
M501 755l-185 -64l-13 25l157 102q9 -1 25 -23q16 -21 18 -32z" />
    <glyph glyph-name="Ocircumflex" unicode="&#xd4;" horiz-adv-x="747" 
d="M605 574q98 -95 98 -241q0 -158 -98 -255q-94 -93 -236 -93q-137 0 -230 94q-95 96 -95 239q0 142 89 241q96 106 248 106q131 0 224 -91zM211 558q-65 -78 -65 -212q0 -141 69 -233t175 -92q90 0 148 71q63 77 63 214q0 152 -71 241q-67 82 -171 82q-89 0 -148 -71z
M493 691q-50 21 -121 62q-79 -45 -120 -62l-16 25q93 71 126 107h22q36 -38 125 -107z" />
    <glyph glyph-name="Odieresis" unicode="&#xd6;" horiz-adv-x="747" 
d="M605 574q98 -95 98 -241q0 -158 -98 -255q-94 -93 -236 -93q-137 0 -230 94q-95 96 -95 239q0 142 90 241q95 106 247 106q131 0 224 -91zM211 558q-65 -78 -65 -212q0 -141 69 -233q70 -92 176 -92q89 0 147 71q63 77 63 214q0 152 -71 241q-67 82 -171 82
q-88 0 -148 -71zM502 785q14 -15 14 -36q0 -20 -14 -34t-34 -14q-19 0 -33 14q-14 15 -14 34q0 21 14 36q14 14 34 14t33 -14zM311 785q14 -15 14 -36q0 -20 -14 -34t-34 -14q-19 0 -33 14q-14 15 -14 34q0 21 14 36q14 14 34 14t33 -14z" />
    <glyph glyph-name="Ograve" unicode="&#xd2;" horiz-adv-x="747" 
d="M605 574q98 -95 98 -241q0 -158 -98 -255q-94 -93 -236 -93q-137 0 -230 94q-95 96 -95 239q0 142 89 241q96 106 248 106q131 0 224 -91zM211 558q-65 -78 -65 -212q0 -141 69 -233t175 -92q90 0 148 71q63 77 63 214q0 152 -71 241q-67 82 -171 82q-89 0 -148 -71z
M432 693l-186 63l-2 8q13 47 43 57l158 -103z" />
    <glyph glyph-name="Otilde" unicode="&#xd5;" horiz-adv-x="747" 
d="M605 574q98 -95 98 -241q0 -158 -98 -255q-94 -93 -236 -93q-137 0 -230 94q-95 96 -95 239q0 142 89 241q96 106 248 106q131 0 224 -91zM211 558q-65 -78 -65 -212q0 -141 69 -233t175 -92q90 0 148 71q63 77 63 214q0 152 -71 241q-67 82 -171 82q-89 0 -148 -71z
M384 778q34 -16 54 -16q26 0 46 43l25 -13q-26 -85 -82 -85q-21 0 -70 21q-28 14 -44 14q-24 0 -48 -44l-24 17q33 82 81 82q21 0 62 -19z" />
    <glyph glyph-name="Scaron" unicode="&#x160;" horiz-adv-x="474" 
d="M380 499q-36 132 -131 132q-54 0 -84 -34q-27 -30 -27 -75q0 -51 34 -86q27 -28 93 -62q84 -44 116 -73q57 -52 57 -127q0 -80 -61 -134q-63 -55 -161 -55q-47 0 -98 15q-22 7 -50 21q-8 23 -27 155l30 7q40 -162 164 -162q56 0 89 33q31 32 31 87q0 51 -37 87
q-26 26 -93 62q-77 42 -106 69q-59 54 -59 128q0 75 55 125q57 53 151 53q53 0 126 -23l17 -138zM385 804q-86 -66 -125 -108h-22q-40 42 -126 108l16 25q68 -29 121 -62q68 40 121 62z" />
    <glyph glyph-name="Uacute" unicode="&#xda;" horiz-adv-x="736" 
d="M716 622q-46 -3 -64 -15q-20 -13 -23 -44q-6 -54 -6 -162v-82q0 -184 -75 -264q-68 -69 -180 -69q-98 0 -160 48q-88 67 -88 238v249q0 66 -14 82q-13 14 -73 19v28h258v-28q-59 -4 -72 -19q-14 -15 -14 -82v-227q0 -254 188 -254q189 0 189 286v75q0 111 -7 165
q-4 29 -24 41q-20 11 -73 15v28h238v-28zM517 748l-185 -64l-13 25l157 102q9 -1 25 -23q16 -21 18 -32z" />
    <glyph glyph-name="Ucircumflex" unicode="&#xdb;" horiz-adv-x="736" 
d="M716 622q-46 -3 -64 -15q-20 -13 -23 -44q-6 -54 -6 -162v-82q0 -184 -75 -264q-68 -69 -180 -69q-98 0 -160 48q-88 67 -88 238v249q0 66 -14 82q-13 14 -73 19v28h258v-28q-59 -4 -72 -19q-14 -15 -14 -82v-227q0 -254 188 -254q189 0 189 286v75q0 111 -7 165
q-4 29 -24 41q-20 11 -73 15v28h238v-28zM501 684q-50 21 -121 62q-79 -45 -120 -62l-16 25q93 71 126 107h22q36 -38 125 -107z" />
    <glyph glyph-name="Udieresis" unicode="&#xdc;" horiz-adv-x="736" 
d="M716 622q-46 -3 -64 -15q-20 -13 -23 -44q-6 -54 -6 -162v-82q0 -184 -76 -264q-66 -69 -179 -69q-98 0 -160 48q-88 67 -88 238v249q0 66 -14 82q-13 14 -73 19v28h258v-28q-59 -4 -72 -19q-14 -16 -14 -82v-227q0 -254 189 -254q188 0 188 286v75q0 111 -7 165
q-5 29 -24 41q-20 11 -73 15v28h238v-28zM505 781q14 -15 14 -36q0 -20 -14 -34t-34 -14q-19 0 -33 14q-14 15 -14 34q0 21 14 36q14 14 34 14t33 -14zM315 781q14 -15 14 -36q0 -20 -14 -34t-34 -14q-19 0 -33 14q-14 15 -14 34q0 21 14 36q14 14 34 14t33 -14z" />
    <glyph glyph-name="Ugrave" unicode="&#xd9;" horiz-adv-x="736" 
d="M716 622q-46 -3 -64 -15q-20 -13 -23 -44q-6 -54 -6 -162v-82q0 -184 -75 -264q-68 -69 -180 -69q-98 0 -160 48q-88 67 -88 238v249q0 66 -14 82q-13 14 -73 19v28h258v-28q-59 -4 -72 -19q-14 -15 -14 -82v-227q0 -254 188 -254q189 0 189 286v75q0 111 -7 165
q-4 29 -24 41q-20 11 -73 15v28h238v-28zM425 684l-186 63l-2 8q13 47 43 57l158 -103z" />
    <glyph glyph-name="Yacute" unicode="&#xdd;" horiz-adv-x="634" 
d="M620 622q-51 -6 -71 -20q-19 -12 -48 -59q-66 -106 -127 -219q-17 -32 -17 -63v-136q0 -63 16 -78q16 -14 85 -19v-28h-283v28q67 5 82 19q15 15 15 78v133q0 24 -20 60q-5 10 -55 98l-70 121q-32 53 -48 67q-19 14 -63 18v28h238v-28q-50 -6 -58 -18q-7 -9 8 -36
q34 -66 135 -237q93 170 118 225q18 38 9 49t-67 17v28h221v-28zM469 748l-185 -64l-13 25l157 102q9 -1 24 -23q16 -21 18 -32z" />
    <glyph glyph-name="Ydieresis" unicode="&#x178;" horiz-adv-x="634" 
d="M620 622q-51 -6 -71 -20q-19 -12 -48 -59q-56 -89 -127 -219q-16 -32 -16 -63v-136q0 -63 16 -78q15 -14 84 -19v-28h-283v28q67 5 82 19q15 15 15 78v133q0 21 -20 60q-5 10 -55 98l-70 121q-32 53 -48 67q-19 14 -63 18v28h238v-28q-50 -6 -58 -18q-7 -9 8 -36
q34 -66 135 -237q93 170 118 225q18 38 9 49t-67 17v28h221v-28zM423 795q19 0 33 -14q13 -15 13 -36q0 -20 -13 -34q-14 -14 -34 -14q-19 0 -34 14q-14 15 -14 34q0 21 14 36q14 14 33 14h2zM265 780q14 -14 14 -35q0 -20 -14 -34t-34 -14q-19 0 -33 14q-14 15 -14 34
q0 21 14 35t34 14t33 -14z" />
    <glyph glyph-name="Zcaron" unicode="&#x17d;" horiz-adv-x="603" 
d="M590 170q-25 -130 -36 -170h-517l-8 15l420 599h-173q-77 0 -105 -8q-22 -6 -36 -28q-19 -29 -35 -87l-29 1q9 111 12 183h24q13 -25 53 -25h399l7 -13l-413 -595q48 -6 163 -6q155 0 190 37q28 29 55 103zM454 795q-86 -66 -125 -108h-22q-40 42 -126 108l16 25
q66 -28 121 -61q58 34 121 61z" />
    <glyph glyph-name="aacute" unicode="&#xe1;" horiz-adv-x="439" 
d="M348 -12q-27 0 -47 20q-16 16 -24 44q-95 -64 -118 -64q-52 0 -87 37q-33 36 -33 85q0 71 81 99q128 43 155 65v17q0 113 -85 113q-28 0 -45 -19t-29 -66q-7 -23 -29 -23q-15 0 -28 13q-15 13 -15 30t31 40q72 54 150 70q49 0 82 -27q45 -39 45 -123v-185q0 -60 35 -60
q18 0 36 11l10 -26zM275 240l-90 -42q-61 -28 -61 -74q0 -35 24 -57q21 -19 47 -19q44 0 80 36v156zM177 507q12 25 39 88q31 76 29 70q41 18 81 9l3 -9l-126 -171z" />
    <glyph glyph-name="acircumflex" unicode="&#xe2;" horiz-adv-x="439" 
d="M348 -12q-27 0 -47 20q-16 16 -24 44q-95 -64 -118 -64q-52 0 -87 37q-33 36 -33 85q0 71 81 99q128 43 155 65v17q0 113 -85 113q-28 0 -45 -19t-29 -66q-7 -23 -29 -23q-15 0 -28 13q-15 13 -15 30t31 40q72 54 150 70q49 0 82 -27q45 -39 45 -123v-185q0 -60 35 -60
q18 0 36 11l10 -26zM275 240l-90 -42q-61 -28 -61 -74q0 -35 24 -57q21 -19 47 -19q44 0 80 36v156zM296 492q-40 38 -87 97q-51 -63 -89 -97l-24 17q49 68 101 163h25q44 -84 99 -163z" />
    <glyph glyph-name="adieresis" unicode="&#xe4;" horiz-adv-x="439" 
d="M348 -12q-27 0 -47 20q-16 16 -24 44q-95 -64 -118 -64q-52 0 -87 37q-33 36 -33 85q0 71 81 99q128 43 155 65v17q0 54 -23 84q-23 29 -61 29q-29 0 -45 -19q-16 -17 -29 -66q-7 -23 -30 -23q-15 0 -28 13q-15 13 -15 30q0 18 32 40q72 54 149 70q49 0 82 -27
q45 -39 45 -123v-185q0 -60 35 -60q18 0 36 11l10 -26zM275 240l-90 -42q-61 -28 -61 -74q0 -35 24 -57q21 -19 47 -19q46 0 80 36v156zM92 552q-14 14 -14 34q0 21 14 35t34 14t33 -14q14 -14 14 -35q0 -20 -14 -34t-34 -14q-19 0 -33 14zM260 552q-14 15 -14 34
q0 21 14 35t34 14t33 -14q14 -14 14 -35q0 -20 -14 -34t-34 -14q-19 0 -33 14z" />
    <glyph glyph-name="agrave" unicode="&#xe0;" horiz-adv-x="439" 
d="M348 -12q-27 0 -47 20q-16 16 -24 44q-95 -64 -118 -64q-52 0 -87 37q-33 36 -33 85q0 71 81 99q128 43 155 65v17q0 113 -85 113q-28 0 -45 -19t-29 -66q-7 -23 -29 -23q-15 0 -28 13q-15 13 -15 30t31 40q72 54 150 70q49 0 82 -27q45 -39 45 -123v-185q0 -60 35 -60
q18 0 36 11l10 -26zM275 240l-90 -42q-61 -28 -61 -74q0 -35 24 -57q21 -19 47 -19q44 0 80 36v156zM225 491l-117 160l3 8q38 21 78 13q10 -24 31 -81q23 -64 32 -87z" />
    <glyph glyph-name="aring" unicode="&#xe5;" horiz-adv-x="439" 
d="M348 -12q-27 0 -47 20q-16 16 -24 44q-92 -64 -117 -64q-52 0 -87 37q-34 36 -34 85q0 71 81 99q128 43 155 65v17q0 113 -85 113q-28 0 -45 -19t-29 -66q-7 -23 -29 -23q-15 0 -28 13q-15 13 -15 30t31 40q72 54 150 70q49 0 82 -27q45 -39 45 -123v-185q0 -60 35 -60
q18 0 36 11l10 -26zM276 240q-14 -7 -91 -42q-60 -28 -60 -74q0 -36 24 -57q20 -19 47 -19q44 0 80 36v156zM149 522q-28 24 -28 62q0 37 28 62q26 22 62 22q34 0 60 -22q28 -25 28 -62q0 -38 -28 -62q-26 -23 -61 -23t-61 23zM255 584q0 53 -45 53q-19 0 -31 -15
q-13 -15 -13 -38t13 -39t32 -16q44 0 44 55z" />
    <glyph glyph-name="atilde" unicode="&#xe3;" horiz-adv-x="439" 
d="M348 -12q-27 0 -47 20q-16 16 -24 44q-95 -64 -118 -64q-52 0 -87 37q-33 36 -33 85q0 71 81 99q128 43 155 65v17q0 113 -85 113q-28 0 -45 -19t-29 -66q-7 -23 -29 -23q-15 0 -28 13q-15 13 -15 30t31 40q72 54 150 70q49 0 82 -27q45 -39 45 -123v-185q0 -60 35 -60
q18 0 36 11l10 -26zM275 240l-90 -42q-61 -28 -61 -74q0 -35 24 -57q21 -19 47 -19q44 0 80 36v156zM82 537q29 90 81 90q19 0 58 -20q36 -19 53 -19q22 0 43 45l25 -13q-28 -90 -80 -90q-23 0 -65 23q-29 16 -46 16q-23 0 -44 -48z" />
    <glyph glyph-name="ccedilla" unicode="&#xe7;" horiz-adv-x="421" 
d="M409 90q-67 -81 -138 -97l-13 -19q-14 -19 7 -41q37 -36 37 -67q0 -64 -112 -101l-11 26q59 25 59 61q0 15 -23 38q-19 18 -21 30q-3 13 10 30l29 38q-86 3 -141 62t-55 145q0 119 100 196q74 58 153 58q56 0 90 -27q17 -14 15 -30q-1 -15 -13 -29t-23 -14q-8 0 -18 11
q-46 40 -103 40q-47 0 -80 -37q-40 -43 -40 -121q0 -97 55 -147q42 -39 96 -39q62 0 122 56z" />
    <glyph glyph-name="eacute" unicode="&#xe9;" horiz-adv-x="425" 
d="M395 84q-78 -96 -163 -96q-89 0 -144 64q-51 60 -51 149q0 103 66 175q67 73 146 73h1q61 0 106 -47q44 -46 44 -105q0 -27 -23 -32q-54 -10 -262 -17q1 -95 49 -147q42 -45 101 -45q61 0 115 50zM161 381q-30 -34 -41 -92q83 0 170 3q24 0 24 20q1 41 -23 70
q-25 30 -66 30q-35 0 -64 -31zM192 507q12 25 39 88q31 76 29 70q41 18 81 9l3 -9l-126 -171z" />
    <glyph glyph-name="ecircumflex" unicode="&#xea;" horiz-adv-x="425" 
d="M395 84q-78 -96 -163 -96q-89 0 -144 64q-51 60 -51 149q0 103 66 175q67 73 146 73h1q61 0 106 -47q44 -46 44 -105q0 -27 -23 -32q-54 -10 -262 -17q1 -95 49 -147q42 -45 101 -45q61 0 115 50zM161 381q-30 -34 -41 -92q83 0 170 3q24 0 24 20q1 41 -23 70
q-25 30 -66 30q-35 0 -64 -31zM315 492q-40 38 -87 97q-51 -63 -89 -97l-24 17q49 68 101 163h25q44 -84 99 -163z" />
    <glyph glyph-name="edieresis" unicode="&#xeb;" horiz-adv-x="425" 
d="M394 84q-76 -96 -162 -96q-88 0 -143 64q-52 61 -52 149q0 101 66 175q67 73 146 73h1q61 0 106 -47q43 -46 43 -105q0 -27 -23 -32q-54 -10 -260 -17q1 -95 49 -147q41 -45 100 -45q61 0 114 50zM162 381q-30 -33 -41 -92q82 0 169 3q24 0 24 20q0 41 -23 70
q-26 30 -66 30q-35 0 -63 -31zM106 552q-14 15 -14 34q0 21 14 35t34 14t34 -14q13 -14 13 -35q0 -20 -13 -34q-14 -14 -35 -14q-19 0 -33 14zM275 552q-14 15 -14 34q0 21 14 35t34 14t33 -14q14 -14 14 -35q0 -20 -14 -34t-34 -14q-19 0 -33 14z" />
    <glyph glyph-name="egrave" unicode="&#xe8;" horiz-adv-x="425" 
d="M395 84q-78 -96 -163 -96q-89 0 -144 64q-51 60 -51 149q0 103 66 175q67 73 146 73h1q61 0 106 -47q44 -46 44 -105q0 -27 -23 -32q-54 -10 -262 -17q1 -95 49 -147q42 -45 101 -45q61 0 115 50zM161 381q-30 -34 -41 -92q83 0 170 3q24 0 24 20q1 41 -23 70
q-25 30 -66 30q-35 0 -64 -31zM238 491l-117 160l3 8q38 21 78 13q10 -24 31 -81q23 -64 32 -87z" />
    <glyph glyph-name="iacute" unicode="&#xed;" horiz-adv-x="268" 
d="M33 0v26q48 5 59 17q11 14 11 65v200q0 50 -10 62q-9 11 -53 18v24q78 12 142 39v-343q0 -52 12 -65q11 -12 59 -17v-26h-220zM98 507q12 25 39 88q31 76 29 70q41 18 81 9l3 -9l-126 -171z" />
    <glyph glyph-name="icircumflex" unicode="&#xee;" horiz-adv-x="268" 
d="M33 0v26q48 5 59 17q11 14 11 65v200q0 50 -10 62q-9 11 -53 18v24q78 12 142 39v-343q0 -52 12 -65q11 -12 59 -17v-26h-220zM220 492q-40 38 -87 97q-51 -63 -89 -97l-24 17q49 68 101 163h25q44 -84 99 -163z" />
    <glyph glyph-name="idieresis" unicode="&#xef;" horiz-adv-x="268" 
d="M33 0v26q48 5 59 17q11 14 11 65v200q0 50 -10 62q-9 11 -53 18v24q78 12 142 39v-343q0 -51 11 -65q11 -12 59 -17v-26h-219zM14 552q-14 15 -14 34q0 21 14 36q15 14 35 14q19 0 33 -14q13 -15 13 -36q0 -20 -13 -34q-14 -14 -34 -14q-19 0 -34 14zM182 552
q-14 15 -14 34q0 21 14 36q15 14 35 14t33 -14q14 -15 14 -36q0 -20 -14 -34t-34 -14q-19 0 -34 14z" />
    <glyph glyph-name="igrave" unicode="&#xec;" horiz-adv-x="268" 
d="M33 0v26q48 5 59 17q11 14 11 65v200q0 50 -10 62q-9 11 -53 18v24q78 12 142 39v-343q0 -52 12 -65q11 -12 59 -17v-26h-220zM142 491l-117 160l3 8q38 21 78 13q10 -24 31 -81q23 -64 32 -87z" />
    <glyph glyph-name="ntilde" unicode="&#xf1;" horiz-adv-x="547" 
d="M315 0v26q44 5 55 18t11 65v167q0 114 -91 114q-50 0 -109 -51v-235q0 -50 10 -62q10 -11 55 -16v-26h-217v26q51 5 62 17t11 61v206q0 47 -10 59q-9 11 -50 19v23q82 15 139 40v-79l67 47q47 30 83 30q60 0 95 -40q34 -40 34 -112v-193q0 -50 10 -62q10 -11 54 -16v-26
h-209zM141 537q29 90 81 90q19 0 58 -20q36 -19 53 -19q22 0 43 45l25 -13q-28 -90 -79 -90q-22 0 -66 23q-29 16 -45 16q-24 0 -44 -48z" />
    <glyph glyph-name="oacute" unicode="&#xf3;" horiz-adv-x="510" 
d="M412 384q61 -65 61 -158q0 -112 -71 -179q-63 -59 -146 -59q-98 0 -161 69q-58 64 -58 152q0 114 76 182q64 58 144 58q92 0 155 -65zM165 371q-35 -49 -35 -130q0 -96 37 -157q39 -63 100 -63q113 0 113 183q0 91 -35 150q-37 62 -101 62q-48 0 -79 -45zM219 507
q12 25 39 88q31 76 29 70q41 18 81 9l3 -9l-126 -171z" />
    <glyph glyph-name="ocircumflex" unicode="&#xf4;" horiz-adv-x="510" 
d="M412 384q61 -65 61 -158q0 -112 -71 -179q-63 -59 -146 -59q-98 0 -161 69q-58 64 -58 152q0 114 76 182q64 58 144 58q92 0 155 -65zM165 371q-35 -49 -35 -130q0 -96 37 -157q39 -63 100 -63q113 0 113 183q0 91 -35 150q-37 62 -101 62q-48 0 -79 -45zM342 492
q-40 38 -87 97q-51 -63 -89 -97l-24 17q49 68 101 163h25q44 -84 99 -163z" />
    <glyph glyph-name="odieresis" unicode="&#xf6;" horiz-adv-x="510" 
d="M411 384q62 -65 62 -158q0 -112 -71 -179q-62 -59 -145 -59q-99 0 -162 69q-58 64 -58 152q0 113 76 182q65 58 145 58q91 0 153 -65zM166 371q-35 -49 -35 -130q0 -96 37 -157q39 -63 100 -63q112 0 112 183q0 91 -34 150q-37 62 -101 62q-48 0 -79 -45zM137 552
q-14 15 -14 34q0 21 14 35t34 14t33 -14q14 -14 14 -35q0 -20 -14 -34t-34 -14q-19 0 -33 14zM305 552q-14 15 -14 34q0 21 14 35q15 14 35 14t33 -14q14 -14 14 -35q0 -20 -14 -34t-34 -14q-19 0 -34 14z" />
    <glyph glyph-name="ograve" unicode="&#xf2;" horiz-adv-x="510" 
d="M412 384q61 -65 61 -158q0 -112 -71 -179q-63 -59 -146 -59q-98 0 -161 69q-58 64 -58 152q0 114 76 182q64 58 144 58q92 0 155 -65zM165 371q-35 -49 -35 -130q0 -96 37 -157q39 -63 100 -63q113 0 113 183q0 91 -35 150q-37 62 -101 62q-48 0 -79 -45zM268 491
l-117 160l3 8q38 21 78 13q10 -24 31 -81q23 -64 32 -87z" />
    <glyph glyph-name="otilde" unicode="&#xf5;" horiz-adv-x="510" 
d="M412 384q61 -65 61 -158q0 -112 -71 -179q-63 -59 -146 -59q-98 0 -161 69q-58 64 -58 152q0 114 76 182q64 58 144 58q92 0 155 -65zM165 371q-35 -49 -35 -130q0 -96 37 -157q39 -63 100 -63q113 0 113 183q0 91 -35 150q-37 62 -101 62q-48 0 -79 -45zM125 537
q29 90 81 90q19 0 58 -20q36 -19 53 -19q22 0 43 45l25 -13q-28 -90 -79 -90q-24 0 -66 23q-29 16 -46 16q-23 0 -44 -48z" />
    <glyph glyph-name="scaron" unicode="&#x161;" horiz-adv-x="367" 
d="M294 318q-33 99 -103 99q-29 0 -47 -19q-18 -20 -18 -50q0 -50 84 -86q127 -52 127 -136q0 -64 -52 -103q-48 -35 -113 -35q-75 0 -114 34q-17 34 -17 118l27 5q14 -53 45 -87q34 -37 77 -37q29 0 49 19q22 20 22 51q0 55 -79 91q-125 56 -125 137q0 54 42 91
q43 39 110 39q48 0 88 -18q17 -40 22 -106zM303 658q-49 -68 -101 -163h-25q-47 89 -99 163l25 17q39 -37 87 -97q54 64 88 97z" />
    <glyph glyph-name="uacute" unicode="&#xfa;" horiz-adv-x="531" 
d="M518 24q-32 -4 -77 -16l-38 -11q-23 -7 -32 -9l-6 6v71q-56 -42 -74 -52q-43 -25 -77 -25q-124 0 -124 149v196q0 38 -7 50q-6 9 -26 14l-28 6v23q19 1 72 7l71 11q-3 -31 -3 -145v-135q0 -113 88 -113q59 0 108 48v234q0 38 -9 50q-7 10 -33 14l-36 6v23q44 2 90 8
q37 4 67 10v-334q0 -37 9 -47q8 -10 38 -12l27 -1v-26zM226 506q17 38 67 159q42 19 81 9l3 -9l-125 -172z" />
    <glyph glyph-name="ucircumflex" unicode="&#xfb;" horiz-adv-x="531" 
d="M518 24q-32 -4 -77 -16l-38 -11q-23 -7 -32 -9l-6 6v71q-56 -42 -74 -52q-43 -25 -77 -25q-124 0 -124 149v196q0 38 -7 50q-6 9 -26 14l-28 6v23q19 1 72 7l71 11q-3 -31 -3 -145v-135q0 -113 88 -113q59 0 108 48v234q0 38 -9 50q-7 10 -33 14l-36 6v23q44 2 90 8
q37 4 67 10v-334q0 -37 9 -47q8 -10 38 -12l27 -1v-26zM350 491q-41 37 -88 97q-47 -58 -89 -97l-24 17q49 68 101 163h25q47 -89 99 -163z" />
    <glyph glyph-name="udieresis" unicode="&#xfc;" horiz-adv-x="531" 
d="M518 24q-32 -4 -77 -16l-38 -11q-23 -7 -32 -9l-6 6v71q-56 -42 -74 -52q-43 -25 -77 -25q-124 0 -124 149v196q0 38 -7 50q-6 10 -26 14l-28 6v24q34 2 72 6l71 11q-3 -31 -3 -145v-135q0 -113 88 -113q59 0 108 48v234q0 38 -9 50q-7 10 -33 14l-36 6v24q35 1 90 7
q37 4 67 10v-334q0 -37 9 -47q8 -10 38 -12l27 -1v-26zM140 553q-14 15 -14 34q0 21 14 35t34 14t34 -14q13 -14 13 -35q0 -20 -13 -34q-14 -14 -35 -14q-19 0 -33 14zM308 552q-14 15 -14 34q0 21 14 36q15 14 35 14q19 0 33 -14q13 -15 13 -36q0 -20 -13 -34
q-14 -14 -34 -14q-19 0 -34 14z" />
    <glyph glyph-name="ugrave" unicode="&#xf9;" horiz-adv-x="531" 
d="M518 24q-32 -4 -77 -16l-38 -11q-23 -7 -32 -9l-6 6v71q-56 -42 -74 -52q-43 -25 -77 -25q-124 0 -124 149v196q0 38 -7 50q-6 9 -26 14l-28 6v23q19 1 72 7l71 11q-3 -31 -3 -145v-135q0 -113 88 -113q59 0 108 48v234q0 38 -9 50q-7 10 -33 14l-36 6v23q44 2 90 8
q37 4 67 10v-334q0 -37 9 -47q8 -10 38 -12l27 -1v-26zM266 491q-103 142 -117 160l3 8q31 19 78 13l31 -82q22 -61 32 -86z" />
    <glyph glyph-name="yacute" unicode="&#xfd;" horiz-adv-x="459" 
d="M478 411q-39 -6 -54 -18q-13 -11 -34 -54l-126 -301q-86 -205 -103 -270q-6 -25 -32 -25q-21 0 -38 15q-18 15 -18 33q0 19 25 37q40 24 75 88q18 34 31 69q7 20 -2 45q-67 191 -114 306q-17 43 -31 56q-15 14 -55 19v26h202l1 -26q-35 -5 -42 -16q-7 -10 4 -39l90 -250
q57 137 92 249q9 29 0 39q-10 12 -52 17v26h181v-26zM218 507q12 25 39 88q31 76 29 70q41 18 81 9l3 -9l-126 -171z" />
    <glyph glyph-name="ydieresis" unicode="&#xff;" horiz-adv-x="459" 
d="M478 411q-39 -6 -54 -18q-13 -11 -34 -54l-126 -301q-86 -205 -103 -270q-6 -25 -32 -25q-21 0 -38 15q-18 15 -18 33q0 19 25 37q40 24 75 88q18 34 31 69q7 20 -2 45q-67 191 -114 306q-17 43 -31 56q-15 14 -55 19v26h202l1 -26q-35 -5 -42 -16q-7 -10 4 -39l90 -250
q57 137 92 249q9 29 0 39q-10 12 -52 17v26h181v-26zM124 553q-14 14 -14 34q0 21 14 35t34 14t33 -14t13 -35q0 -20 -13 -34q-14 -14 -34 -14q-19 0 -33 14zM292 553q-14 14 -14 34q0 21 14 35t34 14t33 -14t13 -35q0 -20 -13 -34q-14 -14 -34 -14q-19 0 -33 14z" />
    <glyph glyph-name="zcaron" unicode="&#x17e;" horiz-adv-x="420" 
d="M413 125l-46 -125h-329l-7 15q109 161 249 388h-89q-52 0 -73 -14q-18 -13 -40 -57l-14 -27l-25 9q20 70 34 144h21q8 -21 55 -21h230l6 -14l-244 -390h99q54 0 81 18q22 15 53 63l13 24zM329 657q-53 -73 -101 -163h-25q-44 84 -99 163l25 17q38 -36 87 -96q49 61 88 96
z" />
    <glyph glyph-name="twodotenleader" unicode="&#x2025;" horiz-adv-x="503" 
d="M84 5q-17 16 -17 43q0 26 17 43q16 17 41 17t42 -17q16 -17 16 -43q0 -60 -59 -60q-24 0 -40 17zM337 5q-17 16 -17 43q0 26 17 43q16 17 41 17t41 -17q17 -17 17 -43q0 -27 -17 -43q-16 -17 -42 -17q-24 0 -40 17z" />
    <glyph glyph-name="onedotenleader" unicode="&#x2024;" horiz-adv-x="500" 
d="M209 5q-17 16 -17 43q0 26 17 43q16 17 41 17t42 -17q16 -17 16 -43q0 -60 -59 -60q-24 0 -40 17z" />
    <glyph glyph-name="colonmonetary" unicode="&#x20a1;" horiz-adv-x="480" 
d="M427 472q-21 79 -54 99l-77 -540q82 5 133 122l24 -9q-11 -57 -37 -121q-62 -23 -126 -23l-9 -66h-32l11 68q-18 1 -47 10l-12 -78h-32l13 88q-72 31 -112 110q-37 74 -37 171q0 141 73 230q67 81 163 89l10 66h31l-8 -65h6q9 0 41 -4l11 69h30l-10 -74q44 -12 58 -15
l15 -121zM344 585q-21 7 -48 7l-78 -541q22 -13 47 -17zM265 590q-60 -11 -99 -85q-41 -78 -41 -194q0 -170 65 -237z" />
    <glyph glyph-name="figuredash" unicode="&#x2012;" horiz-adv-x="418" 
d="M45 291v54h329v-54h-329z" />
    <glyph glyph-name="oneeighth" unicode="&#x215b;" horiz-adv-x="762" 
d="M74 277v23q42 4 53 13q13 11 13 46v178q0 28 -6 35q-6 8 -31 9l-30 2v22q68 9 133 30l-1 -276q0 -35 12 -46q11 -8 53 -13v-23h-196zM184 -27l-31 24l404 658l33 -23zM646 334q31 -25 31 -60q0 -29 -19 -49q-15 -15 -42 -32q77 -40 77 -96q0 -49 -43 -79q-39 -26 -89 -26
q-53 0 -87 26q-37 27 -37 71q0 30 27 57q21 17 48 31q-63 33 -63 85q1 40 34 68q34 29 87 29q45 0 76 -25zM521 317q-14 -14 -14 -35q0 -43 85 -78q31 20 31 64q0 30 -19 49q-18 16 -42 16q-25 0 -41 -16zM613 35q19 17 19 45q0 45 -97 85q-41 -22 -41 -71q0 -32 23 -54
q21 -21 50 -21q27 0 46 16z" />
    <glyph glyph-name="threeeighths" unicode="&#x215c;" horiz-adv-x="762" 
d="M315 404q0 -61 -68 -102q-54 -33 -100 -33q-40 0 -68 21q-16 13 -11 28q4 14 18 24q10 8 20 -1q42 -33 76 -33q65 0 65 75q0 33 -24 51q-21 16 -53 16q-20 0 -41 -7l-6 25q99 31 99 78q0 45 -53 45q-42 0 -75 -49l-16 16l29 41q36 36 86 36h1q42 0 69 -23q26 -21 27 -53
q0 -26 -20 -41q-15 -13 -42 -30q87 -16 87 -84zM184 -27l-31 24l404 658l33 -23zM647 334q31 -26 31 -61q0 -29 -19 -48q-15 -15 -42 -32q77 -41 77 -96q0 -49 -43 -79q-39 -26 -89 -26q-53 0 -87 26q-37 27 -37 71q0 31 28 57q14 12 47 31q-62 33 -62 85q0 40 33 68
q34 29 87 29q45 0 76 -25zM522 317q-14 -15 -14 -36q0 -44 85 -77q31 20 31 63q0 31 -19 50q-17 16 -42 16t-41 -16zM614 35q19 17 19 45q0 45 -97 85q-41 -22 -41 -71q0 -32 23 -54q22 -21 50 -21q27 0 46 16z" />
    <glyph glyph-name="fiveeighths" unicode="&#x215d;" horiz-adv-x="762" 
d="M122 485q49 17 72 17q57 0 91 -29q30 -27 30 -66q0 -54 -57 -97q-56 -40 -110 -40q-39 0 -69 21q-13 11 -8 27q3 14 17 24q11 7 22 -2q42 -31 75 -31q64 0 64 72q0 34 -24 55q-26 23 -70 23q-34 0 -69 -11l27 180h185l-12 -52h-147zM186 -27l-31 24l405 658l32 -23z
M649 333q31 -25 31 -60q0 -29 -19 -48q-15 -15 -41 -32q76 -40 76 -96q0 -49 -43 -79q-38 -26 -88 -26q-53 0 -88 26q-37 27 -37 71q0 30 27 57q17 15 47 31q-62 33 -62 84q0 40 33 68q34 29 88 29q45 0 76 -25zM524 317q-14 -15 -14 -36q0 -44 85 -77q31 20 31 63
q0 31 -19 49q-18 17 -42 17q-25 0 -41 -16zM616 35q19 17 19 45q0 45 -97 85q-41 -22 -41 -71q0 -32 23 -54q22 -21 51 -21q27 0 45 16z" />
    <glyph glyph-name="seveneighths" unicode="&#x215e;" horiz-adv-x="762" 
d="M345 621l-167 -347l-55 -5l-6 10q75 111 173 297h-131q-23 0 -31 -8q-7 -6 -18 -33h-25q9 52 14 93h242zM158 -27l-31 24l405 658l32 -23zM558 358q44 0 75 -25t31 -60q0 -29 -19 -48q-15 -15 -42 -32q77 -40 77 -96q0 -49 -43 -79q-39 -26 -89 -26q-53 0 -87 26
q-37 27 -37 71q0 30 27 57q21 17 48 31q-63 33 -63 84q1 40 33 68q34 29 87 29h2zM508 317q-14 -15 -14 -36q0 -44 86 -77q30 21 30 63q0 31 -19 49q-18 17 -42 17q-25 0 -41 -16zM600 35q19 17 19 45q0 45 -97 85q-41 -22 -41 -71q0 -32 23 -54q21 -21 50 -21q27 0 46 16z
" />
    <glyph glyph-name="onethird" unicode="&#x2153;" horiz-adv-x="762" 
d="M77 276v24q42 3 53 13q13 10 13 45v179q0 28 -6 35q-6 8 -31 9l-30 2v22q69 9 132 30v-276q0 -35 12 -46q11 -8 53 -13v-23zM187 -27l-31 24l404 658l33 -23zM606 211q87 -16 87 -84q0 -61 -68 -102q-55 -33 -100 -33q-40 0 -68 21q-16 13 -11 29q4 13 18 23q9 8 21 -1
q43 -33 76 -33q64 0 64 75q0 33 -24 51q-21 16 -53 16q-20 0 -41 -7l-6 25q99 31 99 78q0 46 -52 46q-43 0 -75 -50l-17 16l30 41q33 37 86 37h1q43 0 69 -23q26 -22 25 -54q0 -25 -18 -41q-27 -20 -42 -28z" />
    <glyph glyph-name="twothirds" unicode="&#x2154;" horiz-adv-x="762" 
d="M319 366q-17 -56 -24 -89h-242v22q171 140 171 213t-67 73q-46 0 -85 -55l-18 18l33 43q36 45 97 45q45 0 76 -28q34 -30 34 -79q0 -59 -106 -151l-52 -47v-2h91q30 0 42 7q13 8 28 37zM212 -27l-31 24l404 658l33 -23zM621 211q87 -16 87 -84q0 -61 -68 -102
q-54 -33 -100 -33q-40 0 -68 21q-16 13 -11 28q4 14 18 24q9 8 21 -1q40 -33 76 -33q64 0 64 75q0 33 -24 51q-21 16 -52 16q-21 0 -42 -7l-6 25q99 31 99 78q0 46 -52 46q-43 0 -75 -50l-16 16l29 41q33 37 86 37h1q42 0 69 -23q26 -22 26 -54q0 -26 -20 -41
q-19 -15 -42 -28v-2z" />
    <glyph glyph-name="Aringacute" unicode="&#x1fa;" horiz-adv-x="691" 
d="M428 0v28q47 6 58 16t1 39l-55 154h-213q-31 -88 -44 -129q-16 -47 -5 -61t68 -19v-28h-218v28q50 7 67 22q20 18 45 82l207 524l31 9l96 -267l97 -269q23 -63 42 -80q18 -16 68 -21v-28h-245zM330 535h-2l-94 -255h184zM407 830q27 -24 27 -61q0 -38 -28 -63
q-25 -23 -61 -23q-35 0 -60 23q-28 25 -28 63q0 37 28 61q25 22 61 22q35 0 61 -22zM301 769q0 -55 44 -55t44 55q0 52 -45 52q-43 0 -43 -52zM476 926l-185 -64l-13 25l157 102q9 -1 25 -23q16 -21 18 -32z" />
    <glyph glyph-name="uniF6DD" unicode="&#xf6dd;" horiz-adv-x="926" 
d="M709 422q12 6 29 6q67 0 109 -57q38 -52 38 -121q0 -105 -64 -177q-59 -66 -153 -85q-29 1 -51 16v-132q0 -43 10 -53q11 -13 63 -18v-27h-210v27q41 5 51 17q8 11 8 53v121l-17 1q-103 7 -153 88q-17 27 -42 78l-40 78q-19 37 -53 37h-34v-145q0 -63 12 -80
q13 -19 64 -23v-26h-232v26q52 4 65 22q12 17 12 81v363q0 65 -11 82q-13 19 -62 23v26h216q91 0 138 -32q57 -39 57 -123q1 -113 -114 -167q36 -71 73 -137q28 -49 68 -101q27 -30 53 -39v283q0 43 -7 52t-47 13v24q54 10 132 42v-65zM243 306q56 0 83 25q45 41 45 121
q0 139 -123 139q-33 0 -40 -5q-8 -5 -8 -25v-255h43zM617 71q28 -34 80 -34q43 0 73 38q35 44 35 126q0 83 -32 128q-30 41 -81 41q-38 0 -75 -31v-268z" />
    <glyph glyph-name="uniE03A" unicode="&#xe03a;" horiz-adv-x="666" 
d="M668 -57q-14 0 -42 5q-83 11 -158 96q-88 101 -194 244q-26 35 -62 24v-184q0 -65 15 -81q14 -14 76 -19v-28h-260v28q58 5 71 19q14 16 14 81v393q0 66 -14 82q-13 14 -74 19v28h258v-28q-59 -5 -72 -19q-14 -16 -14 -82v-181q40 10 71 43q94 92 170 191q17 21 11 31
t-41 14l-23 3v28h248v-28q-86 -8 -155 -72q-63 -60 -174 -180q112 -154 225 -280q89 -98 133 -122z" />
    <glyph glyph-name="uniE057" unicode="&#xe057;" horiz-adv-x="627" 
d="M648 -57q-10 0 -36 4q-88 10 -170 122l-119 178q-24 36 -85 36h-25v-158q0 -64 14 -78q13 -14 75 -19v-28h-265v28q63 5 78 19q14 15 14 78v402q0 63 -14 77q-13 13 -73 18v28h248q106 0 158 -34q66 -42 66 -130q0 -119 -131 -177q116 -178 182 -256q56 -68 91 -85z
M258 316q75 0 110 29q53 41 53 124q0 76 -44 115q-39 33 -102 33q-41 0 -52 -12q-10 -11 -10 -47v-242h45z" />
    <glyph glyph-name="Dcroat" unicode="&#x110;" horiz-adv-x="737" 
d="M329 650q188 0 277 -85q86 -83 86 -215q0 -174 -125 -267q-110 -83 -293 -83h-229v28q65 5 79 21q15 17 15 88v183h-102v41h102v152q0 72 -14 89q-13 15 -72 20v28h276zM224 132q0 -54 17 -73q20 -22 80 -22q133 0 206 89q65 80 65 209q0 171 -115 243q-62 39 -162 39
q-59 0 -79 -10q-12 -7 -12 -43v-203h157v-41h-157v-188z" />
    <glyph glyph-name="Eng" unicode="&#x14a;" horiz-adv-x="736" 
d="M712 622q-43 -2 -61 -14q-19 -13 -23 -45q-6 -62 -6 -174v-287q2 -184 -36 -249q-36 -64 -93 -64q-17 0 -31 16q-14 15 -14 36q0 19 14 19q4 0 16 -2q13 -3 24 -3q73 0 76 154l-405 503h-2v-243q0 -116 6 -174q4 -38 25 -51q19 -13 71 -16v-28h-238v28q44 2 63 15
q20 14 24 50q7 54 7 176v210q0 80 -20 106q-27 32 -89 37v28h147l410 -499h3v238q0 104 -7 172q-4 33 -25 46q-20 13 -73 15v28h237v-28z" />
    <glyph glyph-name="Hbar" unicode="&#x126;" horiz-adv-x="766" 
d="M639 471v-342q0 -65 14 -81q14 -15 75 -20v-28h-268v28q65 5 79 20q15 16 15 81v181h-341v-181q0 -65 14 -81q14 -15 76 -20v-28h-263v28q60 5 74 20q14 16 14 81v342h-88v37h88v18q0 63 -14 78q-14 13 -76 18v28h259v-28q-58 -5 -70 -18q-14 -15 -14 -78v-18h341v17
q0 64 -14 79q-13 13 -72 18v28h261v-28q-62 -5 -76 -19q-14 -15 -14 -77v-18h88v-37h-88zM554 471h-341v-119h341v119z" />
    <glyph glyph-name="Tbar" unicode="&#x166;" horiz-adv-x="613" 
d="M558 496q-14 66 -29 88q-22 31 -115 31h-64v-265h149v-39h-149v-186q0 -62 16 -77q16 -17 86 -21v-27h-286v27q68 4 84 21q15 16 15 77v186h-146v39h146v265h-50q-108 0 -126 -31q-13 -21 -31 -88h-30q10 117 12 179h21q15 -25 51 -25h397q27 0 47 25h22q0 -79 10 -176z
" />
    <glyph glyph-name="uni021C" unicode="&#x21c;" horiz-adv-x="518" 
d="M130 300q107 42 151 82q53 49 53 123q0 57 -34 91q-32 33 -80 33q-102 0 -145 -146l-30 7q18 98 23 139q159 36 175 36q84 0 135 -40q50 -40 50 -105q0 -79 -114 -156v-3q74 -14 119 -60q47 -48 47 -119q0 -117 -113 -203q-106 -80 -262 -102l-62 43l6 21q50 -9 83 -9
q110 0 180 61q71 61 71 158q0 72 -43 112q-37 34 -89 34q-35 0 -112 -28z" />
    <glyph glyph-name="uniE084" unicode="&#xe084;" horiz-adv-x="637" 
d="M276 292q0 113 -83 113q-26 0 -44 -21q-15 -15 -30 -65q-7 -23 -30 -23q-14 0 -28 13q-15 14 -15 30q0 18 32 40q69 52 149 70q50 0 81 -27q45 -37 45 -121v-178q0 -49 20 -67q24 -22 91 -22q111 0 111 56q0 14 -9 34q-1 7 2 14q20 27 40 27q23 0 23 -39q0 -40 -40 -80
q-58 -56 -186 -58q-113 0 -128 65q-94 -65 -118 -65q-52 0 -87 37q-33 36 -33 85q0 70 81 98q129 43 156 65v19zM276 240l-90 -42q-61 -28 -61 -74q0 -35 24 -57q20 -18 47 -18q43 0 80 37v154z" />
    <glyph glyph-name="uniE08F" unicode="&#xe08f;" horiz-adv-x="606" 
d="M394 85q-75 -97 -164 -97t-143 64q-51 59 -51 148q0 105 65 175q67 74 145 74h1q62 0 103 -47q40 -46 39 -111q22 -1 69 -1q122 0 122 59q0 12 -12 42q2 10 16 23q15 14 27 14q10 0 17 -14q8 -14 8 -31q0 -38 -26 -68q-54 -66 -179 -66l-317 1q1 -99 49 -151
q40 -44 100 -43q60 0 115 51zM160 382q-32 -35 -40 -92l167 1q21 0 21 18q1 40 -22 71q-25 33 -65 33q-33 0 -61 -31z" />
    <glyph glyph-name="uniE0A5" unicode="&#xe0a5;" horiz-adv-x="499" 
d="M518 -77q-38 2 -69 13q-49 15 -86 61q-18 21 -147 199q-16 22 -33 22q-10 0 -19 -3v-109q0 -50 13 -63q11 -12 60 -17v-26h-223v26q48 5 60 17q12 13 12 63v470q0 50 -11 62q-10 11 -58 15v24q62 7 147 35v-471q41 8 66 35q35 37 69 87q15 24 10 32q-5 9 -40 12v27l205 9
v-26q-83 -13 -126 -57q-10 -10 -85 -95q70 -113 172 -230q55 -64 92 -89z" />
    <glyph glyph-name="uniE0B1" unicode="&#xe0b1;" horiz-adv-x="1029" 
d="M731 105q0 -35 6 -47q7 -12 29 -14q29 -3 76 -3q124 0 124 67q0 9 -12 41q-4 9 8 21q18 22 38 22q9 0 18 -14q8 -14 8 -33q0 -46 -41 -88q-56 -59 -157 -59q-86 0 -236 2v26q39 5 49 18q11 13 11 62v168q0 116 -88 116q-50 0 -112 -52q3 -18 3 -43v-193q0 -47 11 -60
q11 -11 53 -16v-26h-212v26q47 5 58 17t11 61v171q0 115 -87 115q-48 0 -110 -52v-234q0 -48 11 -61q9 -12 47 -17v-26h-211v26q51 4 63 16q12 13 12 63v204q0 48 -10 61q-9 11 -50 18v23q77 14 138 41v-81q56 40 74 51q45 27 80 27q81 0 112 -81q23 18 83 55q41 26 75 26
q59 0 92 -40q35 -40 35 -113z" />
    <glyph glyph-name="uniE0B2" unicode="&#xe0b2;" horiz-adv-x="763" 
d="M459 105q0 -35 6 -46q7 -12 29 -15q27 -3 76 -3q123 0 123 67q0 17 -12 41q-4 9 8 21q18 22 38 22q10 0 18 -14q9 -14 9 -33q0 -46 -41 -88q-56 -59 -157 -59q-86 0 -236 2v26q38 4 49 18t11 62v170q0 114 -90 114q-51 0 -110 -51v-234q0 -49 11 -62q10 -12 54 -17v-26
h-217v26q47 5 59 17q14 13 14 62v204q0 48 -10 61q-8 10 -50 18v23q84 16 139 41v-80q37 28 67 47q47 30 83 30q60 0 95 -39q34 -40 34 -112v-193z" />
    <glyph glyph-name="uniE0DA" unicode="&#xe0da;" horiz-adv-x="493" 
d="M510 431q-49 -90 -103 -89q-16 0 -60 21q-34 18 -56 18q-51 0 -111 -109v-166q0 -51 12 -63q12 -13 69 -17v-26h-229v26q47 5 58 16q11 13 11 63v206q0 49 -9 60t-53 17v23q74 12 141 40v-123l2 -2q81 123 145 123q24 0 67 -26q29 -17 49 -12q19 5 46 37z" />
    <glyph glyph-name="longs" unicode="&#x17f;" horiz-adv-x="267" 
d="M101 437v22q0 48 11 81q20 70 76 119q54 46 111 53q53 -2 79 -33q13 -16 7 -34q-5 -14 -23 -26q-13 -9 -26 4q-39 39 -80 39q-35 0 -55 -36q-21 -37 -21 -198v-316q0 -55 11 -68q10 -13 59 -18v-26h-215v26q45 5 55 17q11 12 11 61v293h-70l-4 11l27 29h47z" />
    <glyph glyph-name="dcroat" unicode="&#x111;" horiz-adv-x="526" 
d="M517 26q-103 -19 -156 -38v66l-63 -37q-49 -29 -75 -29q-67 0 -122 55q-62 62 -63 159q0 100 77 174q76 73 178 73q37 0 68 -12v96h-132v37h132v21q-1 41 -12 50q-10 9 -61 14v24q81 11 152 34v-143h76v-37h-76v-417q0 -39 8 -50q8 -10 36 -13l33 -3v-24zM361 360
q-37 52 -102 52q-44 0 -80 -36q-51 -51 -51 -148q0 -84 45 -134q39 -44 93 -44q48 0 95 35v275z" />
    <glyph glyph-name="eng" unicode="&#x14b;" horiz-adv-x="541" 
d="M180 371q25 19 68 48q44 30 82 30q60 0 95 -39q34 -40 34 -112v-178q0 -86 -16 -145q-15 -57 -54 -105q-47 -61 -90 -61q-14 0 -27 16q-13 15 -13 33q0 20 13 20q5 0 22 -5q18 -5 28 -5q25 0 38 19q20 33 20 145v241q0 115 -90 115q-51 0 -110 -51v-232q0 -50 10 -62
q11 -13 57 -17v-26h-219v26q50 5 62 17q11 12 11 62v204q0 48 -9 60q-9 11 -52 19v23q85 16 140 41v-81z" />
    <glyph glyph-name="hbar" unicode="&#x127;" horiz-adv-x="533" 
d="M303 0v26q44 4 54 17q11 12 11 61v165q0 123 -97 123q-62 0 -105 -52v-235q0 -49 11 -62q10 -13 54 -17v-26h-211v26q45 4 56 17t11 63v429h-69v37h69v51q0 25 -7 32q-8 6 -38 10v24q57 7 124 27v-144h155v-37h-155v-159q66 72 144 73q63 2 99 -39q38 -43 38 -126v-180
q0 -49 11 -62q11 -12 55 -16v-26h-210z" />
    <glyph glyph-name="kgreenlandic" unicode="&#x138;" horiz-adv-x="525" 
d="M384 0q-36 38 -155 190q-19 26 -44 16v-98q0 -52 11 -65t58 -17v-26h-218v26q48 4 59 16q11 13 11 65v215q0 49 -11 62q-10 12 -56 17v25q75 7 146 25v-217q25 5 50 25q61 54 103 107q28 36 -12 42l-17 3v26h197v-26q-66 -7 -116 -49q-28 -23 -113 -106q78 -104 150 -179
q47 -45 93 -51v-26h-136z" />
    <glyph glyph-name="napostrophe" unicode="&#x149;" horiz-adv-x="547" 
d="M114 687q29 -28 29 -69q0 -88 -123 -116l-8 22q70 30 70 77q0 44 -57 56q-13 2 -13 18q0 36 43 36q32 0 59 -24zM315 0v26q44 5 55 18t11 65v167q0 114 -91 114q-50 0 -109 -51v-235q0 -50 10 -62q10 -11 55 -16v-26h-218v26q51 5 63 17q11 12 11 61v206q0 47 -10 59
q-9 11 -51 19v23q85 16 140 41v-80l67 47q47 30 83 30q60 0 95 -40q34 -40 34 -112v-193q0 -50 10 -62q10 -11 54 -16v-26h-209z" />
    <glyph glyph-name="tbar" unicode="&#x167;" horiz-adv-x="303" 
d="M228 0q-23 -12 -40 -12q-98 0 -98 119v118h-67v36h67v136h-69l-4 11l28 29h45v72l65 67l14 -2v-137h113q8 -8 6 -21t-12 -19h-107v-136h101v-36h-101v-84q0 -96 59 -96q29 0 61 17l10 -25z" />
    <glyph glyph-name="uni021D" unicode="&#x21d;" horiz-adv-x="385" 
d="M70 137q84 37 119 72q37 38 37 91q0 42 -23 66t-59 24q-51 0 -114 -61l-19 22q82 98 164 98q59 0 97 -33q39 -35 39 -91q0 -53 -44 -95q-15 -15 -43 -35v-2q59 -13 94 -55q37 -44 37 -105q0 -102 -93 -177q-84 -69 -208 -91l-51 37l5 20q38 -6 59 -6q88 0 144 52
q56 53 56 138q0 58 -33 94q-30 31 -70 31q-30 0 -83 -23z" />
    <glyph glyph-name="IJ" unicode="&#x132;" horiz-adv-x="669" 
d="M38 0v28q62 5 76 19q14 15 14 78v400q0 63 -14 78q-14 14 -76 19v28h265v-28q-62 -5 -76 -19q-14 -15 -14 -78v-400q0 -64 14 -78t76 -19v-28h-265zM643 622q-58 -5 -71 -19q-14 -15 -14 -78v-373q0 -180 -86 -259q-49 -44 -93 -58l-12 29q78 38 96 130q10 60 10 191v340
q0 63 -14 78q-14 14 -75 19v28h259v-28z" />
    <glyph glyph-name="uniE085" unicode="&#xe085;" horiz-adv-x="914" 
d="M408 90q-77 -102 -170 -102q-91 0 -148 64q-53 60 -53 145q0 118 101 195q74 57 150 57h1q58 0 89 -27q16 -14 16 -30q0 -15 -12 -29t-21 -14q-7 0 -19 11q-44 41 -101 41q-52 0 -86 -41q-37 -44 -37 -119q-1 -94 54 -145q43 -40 97 -40q63 0 122 55zM684 0v26
q44 5 54 16q12 13 12 61v165q0 124 -98 124q-58 0 -104 -52v-237q0 -48 10 -60q10 -13 54 -17v-26h-212l1 26q46 4 57 16t11 61v477q0 48 -9 58q-10 11 -59 15v24q63 9 147 35v-336q73 73 143 73q137 0 137 -171v-175q0 -49 11 -61t55 -16v-26h-210z" />
    <glyph glyph-name="uniE086" unicode="&#xe086;" horiz-adv-x="876" 
d="M407 90q-77 -102 -169 -102q-91 0 -148 64q-53 60 -53 145q0 118 101 195q73 57 149 57h1q59 0 90 -27q16 -14 16 -30q0 -15 -12 -29t-21 -14q-8 0 -19 11q-44 41 -101 41q-52 0 -86 -41q-37 -44 -37 -119q-1 -94 54 -145q43 -40 97 -40q62 0 122 55zM756 -2
q-16 18 -164 198q-19 22 -31 22q-7 0 -16 -3v-111q0 -49 12 -61t61 -17v-26h-224v26q50 4 62 17q11 13 11 61v472q0 50 -10 61q-10 12 -56 16v24q57 6 144 35v-471q35 7 63 35q34 34 70 88q16 24 11 32q-6 8 -41 12v26l205 9v-25q-80 -13 -129 -59q-25 -24 -86 -95
q38 -60 155 -184q50 -51 100 -54v-26z" />
    <glyph glyph-name="uniE087" unicode="&#xe087;" horiz-adv-x="722" 
d="M645 0q-23 -12 -40 -12q-98 0 -98 119v290h-64l-5 11l29 29h40v53q0 129 -89 128q-41 0 -67 -29q-28 -30 -27 -83q0 -40 19 -69q33 -14 33 -37q-1 -15 -13 -29q-12 -13 -22 -13q-7 0 -18 9q-40 34 -85 34q-48 0 -81 -38q-38 -44 -38 -123q0 -95 54 -146q42 -40 96 -40
q66 0 127 56l16 -23q-81 -99 -175 -99q-91 0 -148 64q-53 59 -53 144q0 122 107 200q70 53 140 53q11 0 17 -1q-17 29 -17 66q0 65 45 107t112 42q146 0 146 -168v-58h113q6 -6 5 -20q-2 -14 -11 -20h-107v-255q0 -97 59 -97q29 0 61 16l10 -27z" />
    <glyph glyph-name="ij" unicode="&#x133;" horiz-adv-x="522" 
d="M100 551q-15 16 -15 36q0 22 15 37t36 15t36 -15q14 -15 14 -37q0 -21 -15 -36t-36 -15q-20 0 -35 15zM32 0v26q48 5 59 17t11 63v206q0 47 -9 58t-54 18v24q78 12 142 39v-345q0 -51 12 -63q11 -12 59 -17v-26h-220zM355 551q-14 16 -14 36q0 22 15 37q14 15 35 15
t36 -15q14 -15 14 -37q0 -21 -15 -36t-36 -15q-20 0 -35 15zM290 412q83 12 146 39v-339q0 -98 -23 -162q-46 -130 -121 -196q-16 -11 -26 -11q-11 0 -22 13q-13 14 -13 31q0 19 20 23q54 13 73 38q16 20 25 72q8 57 8 193v196q0 50 -10 62q-10 11 -57 18v23z" />
    <glyph glyph-name="uniE0DB" unicode="&#xe0db;" horiz-adv-x="856" 
d="M596 435q27 14 44 14q83 0 134 -59q46 -54 46 -131q0 -105 -75 -181q-70 -71 -176 -90q-46 3 -68 18v-134q0 -57 15 -72q14 -13 74 -18v-27h-245v27q52 5 64 17q14 13 14 63v744h-39q-125 -3 -122 -113q2 -31 11 -54q7 -2 17 -7q17 -44 20 -86l-26 -8q-36 79 -91 79
q-27 0 -46 -19t-19 -49q0 -53 81 -86q128 -54 128 -137q0 -65 -53 -103q-47 -35 -114 -35q-78 0 -119 36q-13 41 -15 119l26 4q15 -53 47 -88q35 -39 80 -39q30 0 51 19q21 20 21 53q0 56 -82 92q-121 52 -121 134q0 55 42 92q45 39 116 39q14 0 21 -2q-17 33 -17 65
q0 62 50 101q50 38 131 38q20 0 21 6v14q46 22 69 35l10 -4v-319zM501 77q36 -39 95 -39q58 0 95 41q44 49 44 145q0 76 -39 122q-37 44 -96 44q-40 0 -99 -41v-272z" />
    <glyph glyph-name="uniFB06" unicode="&#xfb06;" horiz-adv-x="664" 
d="M588 -1q-25 -11 -40 -11q-99 0 -99 119v290h-64l-5 11l29 29h40v55q0 126 -92 125q-42 0 -67 -30q-26 -30 -26 -84q0 -37 13 -64q10 -3 16 -7q13 -36 19 -86l-27 -7q-32 78 -89 78q-29 0 -48 -20q-18 -19 -18 -47q0 -51 82 -87q127 -54 127 -137q0 -65 -53 -103
q-48 -35 -114 -35q-78 0 -119 36q-12 40 -14 119l26 4q36 -126 126 -126q30 0 50 17q22 20 22 53q0 56 -82 94q-121 53 -121 133q0 55 42 92q43 39 112 39q12 0 24 -2q-16 30 -16 65q0 66 45 108q44 42 111 42q150 0 150 -166v-59h112q6 -6 4 -20t-11 -20h-105v-255
q0 -97 59 -97q27 0 61 17l10 -28z" />
    <glyph glyph-name="uniF638" unicode="&#xf638;" horiz-adv-x="480" 
d="M374 569q69 -86 69 -257q0 -128 -45 -217q-55 -107 -158 -107q-66 0 -112 41l-36 -72l-29 19l39 80q-67 88 -67 256q0 127 46 216q56 107 160 107q63 0 108 -39l32 67l30 -15zM321 542q-27 59 -82 59q-120 0 -120 -289q0 -102 22 -180zM157 85q29 -64 83 -64q62 0 93 88
q27 76 27 203q0 103 -22 185z" />
    <glyph glyph-name="Euro" unicode="&#x20ac;" horiz-adv-x="480" 
d="M459 127q-17 -68 -41 -115q-60 -24 -120 -24q-106 1 -166 78q-54 68 -65 186h-60l12 36h45q-2 30 3 64h-40l11 36h34q19 115 87 182q67 66 163 66q35 0 115 -24q4 -24 15 -119l-29 -7q-15 62 -38 87q-26 29 -75 29q-57 0 -97 -56q-40 -57 -53 -158h269l-11 -36h-262
q-3 -31 -1 -64h248l-11 -36h-233q24 -230 147 -230q68 0 124 115z" />
    <glyph glyph-name="franc" unicode="&#x20a3;" horiz-adv-x="480" 
d="M414 477q-15 62 -31 82q-23 30 -87 30h-60q-21 0 -26 -4q-5 -5 -5 -26v-214q114 0 203 10v-58q-48 5 -203 9v-115h136v-35h-136v-36q0 -60 14 -74q15 -16 80 -20v-26h-254v26q52 4 66 20q13 16 13 74v36h-87v35h87v310q0 59 -12 75q-13 16 -67 20v27h387q1 -38 10 -142z
" />
    <glyph glyph-name="lira" unicode="&#x20a4;" horiz-adv-x="480" 
d="M201 241q-11 -75 -84 -142q48 0 106 -28q80 -37 120 -37q57 0 57 43q0 20 -6 32q-5 13 2 23q21 28 38 28q22 0 22 -41q0 -65 -77 -116q-49 -31 -96 -31q-37 0 -129 55q-40 22 -60 22q-24 0 -41 -42q-4 -12 -12 -12q-12 0 -18 13q-7 14 5 34q8 14 48 59q42 44 42 140h-91
v36h89l-7 61h-82v36h79l-1 41q0 108 83 175q54 45 103 45q67 0 97 -41q10 -14 4 -31q-8 -14 -19 -22q-14 -10 -27 3q-46 40 -93 40q-71 0 -71 -96q0 -46 11 -114h167v-36h-162q6 -46 6 -61h156v-36h-159z" />
    <glyph glyph-name="peseta" unicode="&#x20a7;" horiz-adv-x="480" 
d="M432 422q-4 -74 -54 -122q-45 -43 -114 -52q-17 -1 -30 0l-51 18v-144q0 -62 12 -76q13 -15 73 -19v-27h-242v27q53 4 66 20q11 14 11 76v299h-64v36h64v45q0 62 -11 76q-10 13 -60 17v27h206q87 0 136 -38q55 -41 58 -128h38v-35h-38zM349 458q-7 134 -121 134
q-24 0 -35 -11q-10 -9 -10 -46v-77h166zM183 422v-123q24 -11 50 -11q46 0 78 33q34 36 38 101h-166z" />
    <glyph glyph-name="uniE0D9" unicode="&#xe0d9;" horiz-adv-x="828" 
d="M754 236q-24 77 -75 77q-50 0 -50 -46q0 -37 69 -67q97 -44 97 -106q0 -49 -40 -79q-36 -27 -90 -27q-64 0 -96 28q0 5 -2 9l-52 -27q-17 -10 -37 -10q-84 0 -84 96v233q-43 -20 -85 -24q-14 -2 -41 0l-69 18v-188q0 -62 15 -77q15 -14 81 -19v-27h-262v27q57 4 70 20
q13 15 13 77v376q0 62 -11 77q-12 16 -67 20v26h240q109 0 161 -35q63 -40 63 -119q0 -63 -37 -100v-36h93q6 -8 4 -20q-1 -12 -9 -17h-88v-184q0 -74 48 -74q17 0 49 15q-5 33 -6 59l24 4q28 -97 95 -97q22 0 38 13q17 13 17 34q0 41 -65 70q-97 44 -97 106q0 45 35 73
q34 28 86 28q39 0 73 -15q12 -30 17 -86zM199 345q31 -12 72 -12q140 0 140 133q0 126 -150 126q-39 0 -51 -10q-11 -8 -11 -43v-194z" />
    <glyph glyph-name="aringacute" unicode="&#x1fb;" horiz-adv-x="439" 
d="M348 -12q-27 0 -47 20q-16 16 -24 44q-95 -64 -118 -64q-52 0 -87 37q-33 36 -33 85q0 71 81 99q128 43 155 65v17q0 113 -85 113q-28 0 -45 -19t-29 -66q-7 -23 -29 -23q-15 0 -28 13q-15 13 -15 30t31 40q72 54 150 70q49 0 82 -27q45 -39 45 -123v-185q0 -60 35 -60
q18 0 36 11l10 -26zM275 240l-90 -42q-61 -28 -61 -74q0 -35 24 -57q21 -19 47 -19q44 0 80 36v156zM159 522q-28 25 -28 63q0 37 28 61q26 22 62 22q34 0 60 -22q27 -24 27 -61q0 -38 -27 -63q-26 -23 -61 -23q-36 0 -61 23zM265 585q0 52 -45 52q-44 0 -44 -52
q0 -24 12 -40q13 -16 33 -16q44 0 44 56zM186 704l68 158q32 18 81 10l3 -10l-126 -171z" />
    <glyph glyph-name="estimated" unicode="&#x212e;" horiz-adv-x="790" 
d="M174 302q-5 0 -5 -4v-176q0 -12 8 -20q91 -96 221 -96q138 0 232 107h52q-108 -126 -285 -126q-149 0 -255 95q-105 95 -105 229t105 229q106 95 255 95t255 -95q105 -95 105 -229v-9h-583zM625 503q0 12 -9 21q-92 92 -218 92q-128 0 -220 -95q-9 -9 -9 -22v-174
q0 -5 5 -5h447q4 0 4 5v178z" />
    <glyph glyph-name="uniF761" unicode="&#xf761;" horiz-adv-x="565" 
d="M329 0v27l19 2q23 3 28 12q4 10 -6 36l-28 75h-164q-14 -34 -23 -70q-9 -29 -2 -39q6 -10 29 -13l24 -3v-27h-181v27q37 4 54 17q20 16 41 68l147 358l30 8l155 -383q16 -42 35 -55q15 -11 52 -13v-27h-210zM261 366h-2l-66 -175h133z" />
    <glyph glyph-name="uniF762" unicode="&#xf762;" horiz-adv-x="511" 
d="M334 254q126 -17 126 -114q0 -74 -72 -110q-60 -30 -156 -30h-192v27q50 5 61 16q11 13 11 66v241q0 58 -11 71q-10 12 -57 16v27h231q154 0 154 -106q0 -78 -95 -102v-2zM237 264q105 0 105 83q0 87 -99 87q-32 0 -43 -9q-9 -9 -9 -33v-128h46zM191 108q0 -46 17 -63
q14 -14 48 -14q49 0 79 26q32 28 32 78q0 97 -129 97h-47v-124z" />
    <glyph glyph-name="uniF763" unicode="&#xf763;" horiz-adv-x="531" 
d="M496 133q-21 -89 -41 -126q-80 -20 -144 -20q-129 0 -202 74q-66 66 -66 166q0 111 82 181q80 69 202 69q63 0 141 -21q3 -21 7 -59q4 -43 7 -64l-29 -5q-27 117 -143 117q-76 0 -124 -58q-49 -58 -49 -148q0 -96 52 -158q51 -61 125 -61q99 0 154 120z" />
    <glyph glyph-name="uniF764" unicode="&#xf764;" horiz-adv-x="584" 
d="M269 464q142 0 210 -63q62 -57 62 -153q0 -122 -89 -188q-82 -60 -213 -60h-200v27q50 4 62 16q11 13 11 65v246q0 55 -11 67q-10 12 -56 16v27h224zM193 112q0 -48 15 -63q15 -16 58 -16q88 0 135 55q46 53 46 146q0 198 -190 198q-45 0 -55 -13q-9 -9 -9 -46v-261z" />
    <glyph glyph-name="uniF765" unicode="&#xf765;" horiz-adv-x="482" 
d="M448 123q-14 -82 -26 -123h-386v27q53 4 65 17q11 13 11 66v244q0 55 -10 67q-11 12 -59 15v28h360q3 -54 8 -115l-27 -2q-12 42 -27 61q-19 23 -83 23h-53q-20 0 -24 -4t-4 -24v-144h73q44 0 56 9q11 9 18 46h28v-151h-28q-7 39 -18 48q-12 10 -56 10h-73v-115
q0 -53 17 -64q15 -10 77 -10q71 0 95 25q21 25 38 71z" />
    <glyph glyph-name="uniF766" unicode="&#xf766;" horiz-adv-x="456" 
d="M381 345q-13 45 -27 63q-17 24 -84 24h-49q-20 0 -24 -4t-4 -23v-157h77q48 0 61 9q11 8 19 46h28v-151h-28q-8 42 -19 50q-12 9 -61 9h-77v-104q0 -52 13 -64q12 -12 68 -16v-27h-230v27q47 4 58 16q10 13 10 64v250q0 53 -10 65q-10 11 -58 15v27h357q4 -80 8 -117z
" />
    <glyph glyph-name="uniF767" unicode="&#xf767;" horiz-adv-x="565" 
d="M533 202q-33 -6 -40 -15q-7 -8 -7 -45v-61q0 -41 6 -64q-120 -30 -169 -30q-126 0 -203 66q-78 66 -78 174q0 119 89 188q80 62 200 62q66 0 145 -22l5 -49q4 -43 8 -76l-28 -4q-24 119 -149 119q-75 0 -124 -54q-52 -57 -52 -151q0 -90 47 -151q52 -70 145 -70
q77 0 77 49v72q0 37 -12 46q-13 10 -73 16v27h213v-27z" />
    <glyph glyph-name="uniF768" unicode="&#xf768;" horiz-adv-x="621" 
d="M358 0v27q48 5 59 17t11 66v116h-235v-116q0 -54 11 -67q10 -12 56 -16v-27h-219v27q49 4 60 16q11 13 11 67v243q0 55 -11 68q-11 11 -62 16v27h222v-27q-47 -5 -57 -16q-11 -13 -11 -68v-88h235v89q0 54 -11 67q-10 12 -57 16v27h219v-26q-49 -5 -59 -17
q-11 -13 -11 -67v-244q0 -54 11 -66t59 -17v-27h-221z" />
    <glyph glyph-name="uniF769" unicode="&#xf769;" horiz-adv-x="306" 
d="M42 0v27q48 4 59 16t11 66v246q0 54 -11 67q-10 11 -59 15v27h222v-27q-50 -5 -60 -16q-11 -12 -11 -66v-246q0 -54 11 -66t60 -16v-27h-222z" />
    <glyph glyph-name="uniF76A" unicode="&#xf76a;" horiz-adv-x="297" 
d="M268 437q-48 -4 -59 -16q-11 -13 -11 -67v-223q0 -156 -78 -218q-34 -26 -73 -39l-13 28q58 28 72 93q11 54 11 165v194q0 54 -11 67q-12 12 -63 16v27h225v-27z" />
    <glyph glyph-name="uniF76B" unicode="&#xf76b;" horiz-adv-x="558" 
d="M400 0q-64 69 -165 203q-19 24 -44 16v-112q0 -52 11 -64t61 -16v-27h-217v27q45 4 56 16q10 12 10 64v250q0 53 -11 65q-10 11 -59 15v27h216v-27q-46 -4 -56 -15q-11 -13 -11 -65v-110q26 5 50 26q52 46 119 123q26 33 -10 38l-23 3v27h197v-27q-68 -7 -116 -49
q-39 -32 -125 -118q88 -119 160 -191q46 -47 94 -52v-27h-137z" />
    <glyph glyph-name="uniF76C" unicode="&#xf76c;" horiz-adv-x="460" 
d="M438 130q-23 -116 -27 -130h-374v27q53 4 64 16t11 66v248q0 53 -11 65q-10 11 -59 15v27h225v-27q-52 -4 -62 -15q-12 -12 -12 -65v-258q0 -50 18 -60q20 -8 73 -8q67 1 89 26q16 18 37 76z" />
    <glyph glyph-name="uniF76D" unicode="&#xf76d;" horiz-adv-x="709" 
d="M671 437q-56 -5 -67 -16q-12 -12 -11 -64l6 -251q1 -52 12 -63q10 -11 62 -16v-27h-224v27q49 5 60 16q10 11 11 63l1 289h-3l-177 -387h-21l-153 380h-2l-11 -185q-6 -98 -3 -131q1 -24 15 -33q14 -8 54 -12v-27h-187v27q62 5 67 44q9 45 17 135l11 141q5 59 -6 73
q-10 12 -64 17v27h154l145 -325l158 325h156v-27z" />
    <glyph glyph-name="uniF76E" unicode="&#xf76e;" horiz-adv-x="580" 
d="M558 437q-64 -5 -69 -43q-5 -45 -5 -129v-270h-33l-303 363v-158q0 -83 6 -129q3 -23 20 -32q16 -9 58 -12v-27h-195v27q63 5 68 43q6 48 6 130v134q0 61 -17 81q-16 18 -68 22v27h135l284 -327h2v128q0 85 -5 127q-3 24 -19 33q-15 9 -59 12v27h194v-27z" />
    <glyph glyph-name="uniF76F" unicode="&#xf76f;" horiz-adv-x="584" 
d="M472 408q69 -68 69 -171q0 -117 -79 -187q-70 -63 -169 -63q-114 0 -185 74q-66 68 -66 162q0 122 84 193q72 61 168 61q108 0 178 -69zM181 395q-45 -55 -45 -149q0 -100 47 -164q46 -64 120 -64q63 0 101 46q43 52 43 153q0 91 -43 157q-47 71 -121 71q-61 0 -102 -50z
" />
    <glyph glyph-name="uniF770" unicode="&#xf770;" horiz-adv-x="484" 
d="M263 464q178 0 178 -137q0 -65 -45 -104q-41 -36 -109 -45q-13 -2 -36 -2l-59 15v-87q0 -50 12 -61t67 -16v-27h-229v27q49 5 59 16q11 11 11 60v252q0 54 -10 67q-10 11 -56 15v27h217zM192 223q26 -10 58 -10q101 0 101 113q0 54 -33 83q-29 25 -77 25q-34 0 -42 -8
q-7 -7 -7 -34v-169z" />
    <glyph glyph-name="uniF771" unicode="&#xf771;" horiz-adv-x="585" 
d="M549 -126q-58 -5 -107 12q-60 19 -174 105q-101 9 -164 76q-61 65 -61 154q0 127 87 198q71 58 163 58q109 0 180 -70q69 -69 69 -171q0 -91 -51 -155q-44 -56 -114 -78q79 -56 182 -109zM326 43l22 -17q100 35 100 188q0 97 -45 163q-46 68 -120 68q-61 0 -102 -50
q-44 -56 -44 -150q0 -88 38 -149q37 -59 96 -74z" />
    <glyph glyph-name="uniF772" unicode="&#xf772;" horiz-adv-x="528" 
d="M510 -6h-23q-97 0 -142 65q-31 45 -64 104q-22 37 -68 37h-22v-93q0 -52 11 -64t60 -16v-27h-222v27q50 4 61 16t11 64v249q0 54 -11 66q-10 11 -58 15v27h220q78 0 118 -24q51 -32 51 -96q0 -84 -95 -120q44 -74 66 -104q31 -44 55 -70q20 -21 55 -33zM232 231
q45 0 73 16q39 24 39 84q0 102 -107 102q-30 0 -39 -8q-7 -7 -7 -31v-163h41z" />
    <glyph glyph-name="uniF773" unicode="&#xf773;" horiz-adv-x="408" 
d="M317 337q-35 108 -108 108q-35 0 -55 -22q-20 -21 -20 -52q0 -54 88 -92l18 -7q128 -52 128 -142q0 -63 -49 -103t-124 -40q-73 0 -130 35q-7 19 -24 125l29 5q43 -133 138 -133q36 0 59 23q23 22 23 57q0 60 -81 94l-22 10q-126 55 -126 135q0 62 44 100q45 39 122 39
q43 0 100 -19q4 -17 18 -117z" />
    <glyph glyph-name="uniF774" unicode="&#xf774;" horiz-adv-x="510" 
d="M445 336q-13 55 -26 74q-18 22 -79 22h-44v-321q0 -54 12 -67q12 -12 66 -16v-28h-236v28q53 4 64 16q12 12 12 66v322h-31q-72 0 -90 -25q-14 -21 -25 -71h-28q1 27 5 81l4 64h21q13 -18 39 -17h298q23 0 37 17h21q0 -66 9 -143z" />
    <glyph glyph-name="uniF775" unicode="&#xf775;" horiz-adv-x="582" 
d="M560 437q-38 -3 -51 -12q-16 -10 -18 -35q-5 -38 -5 -123v-55q0 -117 -55 -172q-51 -53 -136 -53q-79 0 -126 36q-64 50 -64 168v165q0 52 -11 65q-11 11 -59 16v27h219v-27q-47 -5 -58 -16q-10 -13 -10 -65v-143q0 -177 130 -177q132 0 132 185v46q0 85 -5 123
q-3 26 -19 36q-16 9 -59 11v27h195v-27z" />
    <glyph glyph-name="uniF776" unicode="&#xf776;" horiz-adv-x="567" 
d="M544 437q-41 -6 -57 -19t-39 -62q-39 -78 -153 -366h-31l-157 383q-16 38 -32 50q-14 9 -50 14v27h212v-27l-28 -5q-21 -5 -24 -12q-4 -8 5 -31q-1 4 115 -286q67 158 109 281q8 27 3 36t-32 13l-22 4v27h181v-27z" />
    <glyph glyph-name="uniF777" unicode="&#xf777;" horiz-adv-x="761" 
d="M739 437q-40 -5 -53 -16t-28 -50q-52 -143 -127 -381h-29l-127 327h-2l-123 -327h-27l-120 375q-14 43 -28 56q-13 11 -50 16v27h202v-27l-22 -4q-25 -5 -29 -12q-5 -8 3 -34l84 -268h2l118 333h26l128 -330h2q57 167 79 262q7 27 1 36q-6 8 -32 13l-25 4v27h177v-27z
" />
    <glyph glyph-name="uniF778" unicode="&#xf778;" horiz-adv-x="551" 
d="M299 0v27l29 5q34 6 13 37l-83 126q-39 -52 -80 -125q-18 -33 12 -38l33 -6v-26h-194v27q70 9 106 56q53 69 102 142l-111 167q-25 37 -86 45v27h206v-28l-28 -6q-22 -4 -6 -28l75 -113q45 63 69 105q12 20 10 28q-3 7 -21 11l-25 4v27h183v-27q-69 -11 -99 -46
q-45 -54 -98 -130l122 -177q34 -49 100 -57v-27h-229z" />
    <glyph glyph-name="uniF779" unicode="&#xf779;" horiz-adv-x="511" 
d="M487 437q-58 -6 -92 -55q-37 -54 -88 -149q-13 -25 -13 -44v-83q0 -50 12 -62q13 -13 68 -17v-27h-239v27q54 4 66 17q11 12 11 62v73q0 24 -15 49q-27 50 -91 155q-20 32 -34 41t-49 13v27h205v-27l-30 -5q-29 -5 -13 -32q41 -77 90 -157q58 99 81 152q9 20 4 28
q-4 7 -27 11l-24 3v27h178v-27z" />
    <glyph glyph-name="uniF77A" unicode="&#xf77a;" horiz-adv-x="493" 
d="M469 135q-19 -101 -30 -135h-396l-6 12l300 419h-110q-86 0 -103 -27q-14 -21 -28 -74h-27l10 151h22q10 -18 40 -17h300l6 -13l-294 -415q28 -4 103 -4q116 0 141 26q24 24 44 83z" />
    <glyph glyph-name="uniF676" unicode="&#xf676;" horiz-adv-x="611" 
d="M294 464q143 0 211 -63q62 -55 62 -150q0 -124 -90 -191q-80 -60 -210 -60h-204v26q51 5 62 19t11 71v106h-75v39h75v88q0 56 -10 69q-10 12 -57 19v27h225zM218 113q0 -49 15 -65q14 -16 60 -16q87 0 134 56q44 53 44 146q0 199 -190 199q-45 0 -55 -12q-8 -9 -8 -48
v-112h122v-39h-122v-109z" />
    <glyph glyph-name="uniF681" unicode="&#xf681;" horiz-adv-x="621" 
d="M359 0v27q48 5 59 17t11 64v107h-236v-107q0 -53 11 -65q10 -12 56 -16v-27h-219v27q49 4 60 16t11 65v221h-71v36h71v7q-1 42 -14 52q-10 8 -59 13v27h222v-27q-45 -5 -55 -13q-12 -10 -13 -52v-7h236v7q-1 42 -13 52q-11 9 -55 13v27h219v-26q-47 -6 -57 -14
q-12 -10 -13 -52v-7h69v-36h-69v-221q0 -53 11 -65q10 -11 59 -16v-27h-221zM429 329h-236v-76h236v76z" />
    <glyph glyph-name="uniE08E" unicode="&#xe08e;" horiz-adv-x="306" 
d="M42 0v27q48 4 59 16t11 66v246q0 54 -11 67q-10 11 -59 15v27h222v-27q-50 -5 -60 -16q-11 -12 -11 -66v-246q0 -54 11 -66t60 -16v-27h-222z" />
    <glyph glyph-name="uniF7F8" unicode="&#xf7f8;" horiz-adv-x="582" 
d="M445 428q94 -69 94 -191q0 -116 -78 -186q-70 -64 -169 -64q-70 0 -122 30l-42 -60l-26 22l38 56q-97 71 -97 187q0 121 83 193q71 61 166 61q69 0 122 -29l39 57l29 -19zM383 397q-41 47 -101 47q-62 0 -103 -52q-44 -56 -44 -151q0 -91 42 -149zM201 63q36 -43 98 -43
q63 0 102 44q46 53 46 158q0 86 -42 146z" />
    <glyph glyph-name="uniF69C" unicode="&#xf69c;" horiz-adv-x="510" 
d="M446 336q-12 55 -27 74q-18 22 -78 22h-45v-180h112v-37h-112v-104q0 -54 12 -67q12 -12 66 -17v-27h-236v27q53 5 64 17q12 13 12 67v104h-110v37h110v180h-32q-70 0 -89 -26q-16 -22 -26 -70h-27q1 26 5 81l4 64h21q13 -18 39 -17h298q23 0 37 17h21q0 -66 9 -143z" />
    <glyph glyph-name="uniF67B" unicode="&#xf67b;" horiz-adv-x="579" 
d="M557 437q-64 -5 -69 -43q-5 -45 -5 -129v-196q0 -146 -29 -204q-30 -60 -81 -60q-16 0 -28 15q-14 16 -14 36t14 20q3 0 14 -3t21 -3q59 0 63 134l-294 353v-158q0 -93 6 -128q3 -23 19 -32t58 -12v-27h-195v27q63 5 68 43q6 48 6 129v134q0 62 -16 82q-16 18 -69 22v27
h135l283 -326h2v127q0 85 -5 127q-3 24 -19 33q-15 9 -59 12v27h194v-27z" />
    <glyph glyph-name="uniF7F0" unicode="&#xf7f0;" horiz-adv-x="611" 
d="M294 464q143 0 211 -63q62 -55 62 -150q0 -124 -90 -191q-80 -60 -210 -60h-204v26q51 5 62 19t11 71v106h-75v39h75v88q0 56 -10 69q-10 12 -57 19v27h225zM218 113q0 -49 15 -65q14 -16 60 -16q87 0 134 56q44 53 44 146q0 199 -190 199q-45 0 -55 -12q-8 -9 -8 -48
v-112h122v-39h-122v-109z" />
    <glyph glyph-name="uniF7FE" unicode="&#xf7fe;" horiz-adv-x="481" 
d="M267 437q-51 -5 -60 -13q-11 -10 -11 -54h74q170 0 170 -128q0 -65 -48 -102q-44 -34 -112 -36q-19 0 -34 3l-51 12v-20q0 -47 12 -58q10 -9 63 -14v-27h-224v27q50 5 59 15q11 11 11 62v256q0 52 -11 63q-9 9 -59 14v27h221v-27zM195 152q24 -11 61 -11q38 0 63 20
q33 26 33 79q0 99 -112 99q-31 0 -39 -8q-6 -6 -6 -35v-144z" />
    <glyph glyph-name="uniE203" unicode="&#xe203;" horiz-adv-x="431" 
d="M110 190q79 33 112 66q39 38 39 94q0 44 -24 70q-23 24 -59 24q-70 0 -107 -109l-27 6l18 107q121 29 136 29q67 0 107 -32q40 -31 40 -84q0 -45 -41 -84q-16 -16 -42 -34v-2q124 -30 124 -141q0 -92 -89 -161q-82 -62 -203 -83l-49 35l5 17q30 -5 58 -5q84 0 138 47
q54 48 54 124q0 53 -32 85q-28 27 -65 27q-20 0 -83 -24z" />
    <glyph glyph-name="uniE0A4" unicode="&#xe0a4;" horiz-adv-x="815" 
d="M317 337q-35 108 -108 108q-35 0 -55 -22q-20 -21 -20 -52q0 -54 88 -92l18 -7q128 -52 128 -142q0 -63 -49 -103t-124 -40q-73 0 -130 35q-7 19 -24 125l29 5q43 -133 138 -133q36 0 59 23q23 22 23 57q0 60 -81 94l-22 10q-126 55 -126 135q0 62 44 100q45 39 122 39
q43 0 100 -19q4 -17 18 -117zM724 337q-35 108 -107 108q-35 0 -55 -22q-20 -21 -20 -52q0 -54 87 -92l18 -7q128 -52 128 -142q0 -63 -49 -103t-123 -40q-73 0 -130 35q-7 19 -24 125l29 5q43 -133 138 -133q36 0 59 23q22 22 22 57q0 60 -81 94l-21 10q-126 55 -126 135
q0 62 44 100q45 39 121 39q43 0 100 -19q4 -17 18 -117z" />
    <glyph glyph-name="uniF7E6" unicode="&#xf7e6;" horiz-adv-x="723" 
d="M685 125q-12 -80 -26 -125h-388v26q53 4 65 18q11 14 11 69v89h-136q-47 -90 -62 -125q-10 -24 -6 -33q5 -9 29 -13l26 -5v-26h-184v27q55 6 85 54q45 72 104 182l75 140q7 16 3 20q-4 5 -27 8l-48 6v27h434q3 -52 8 -114l-27 -3q-12 42 -27 63q-19 22 -85 22h-55
q-21 0 -25 -4t-4 -24v-165h74q48 0 60 9q11 9 18 48h28v-153h-28q-8 40 -19 49q-12 10 -59 10h-74v-90q0 -59 18 -71q15 -10 81 -10q72 0 96 25q17 17 37 73zM347 432q-14 0 -30 -28q-57 -103 -87 -165h117v193z" />
    <glyph glyph-name="uniF6FA" unicode="&#xf6fa;" horiz-adv-x="776" 
d="M738 125q-12 -80 -26 -125h-256q-34 0 -90 -2q-50 -4 -63 -4q-124 0 -194 69q-65 63 -65 159q0 120 85 187q77 61 193 61q32 0 73 -3q40 -3 55 -3h243q3 -54 8 -115l-27 -2q-11 42 -26 62q-17 23 -86 23h-53q-22 0 -26 -4t-4 -24v-147h74q48 0 60 9q11 9 18 47h27v-150
h-27q-8 39 -19 48q-12 9 -59 9h-74v-114q0 -55 17 -66q14 -9 82 -9q73 0 94 24q19 21 38 73zM398 383q0 37 -10 41q-28 15 -77 15q-80 0 -125 -52q-48 -54 -48 -152q0 -96 47 -153t130 -57q45 0 66 13q17 10 17 66v279z" />
    <glyph glyph-name="i.locl" horiz-adv-x="268" 
d="M100 551q-15 16 -15 36q0 22 15 37t36 15t36 -15q14 -15 14 -37q0 -21 -15 -36t-36 -15q-20 0 -35 15zM32 0v26q48 5 59 17t11 63v206q0 47 -9 58t-54 18v24q76 12 142 39v-345q0 -51 12 -63q11 -12 59 -17v-26h-220z" />
    <glyph glyph-name="uni25B6" unicode="&#x25b6;" horiz-adv-x="606" 
d="M75 25q2 465 1 465l487 -230v-2l-486 -235z" />
    <glyph glyph-name="uniF684" unicode="&#xf684;" horiz-adv-x="603" 
d="M42 0v27q48 4 59 16t11 66v246q0 54 -11 67q-10 11 -59 15v27h222v-27q-50 -5 -60 -16q-11 -12 -11 -66v-246q0 -54 11 -66t60 -16v-27h-222zM574 437q-48 -4 -59 -16q-11 -13 -11 -67v-223q0 -156 -78 -218q-34 -26 -73 -39l-13 28q58 28 72 93q11 54 11 165v194
q0 54 -11 67q-12 12 -63 16v27h225v-27z" />
    <glyph glyph-name="uniF726" unicode="&#xf726;" horiz-adv-x="622" 
d="M571 300q-41 -8 -77 -56l-33 -45l-40 -58q81 -73 133 -151l-9 -10q-84 6 -121 43l-53 53q-73 -89 -160 -89q-71 0 -116 44q-42 41 -42 98q0 64 109 139q-55 49 -55 105t43 94q41 36 96 36q54 0 90 -32q37 -33 37 -86q0 -38 -37 -68q-17 -14 -61 -45q24 -20 123 -110
q28 42 50 88q12 24 9 34q-3 12 -28 16l-24 4v27h190v-27zM194 451q-19 -23 -19 -53q0 -48 77 -108q51 41 51 96q0 36 -18 61q-19 26 -48 26q-25 0 -43 -22zM349 98q-75 73 -167 152q-49 -44 -49 -94q0 -51 37 -81q32 -27 74 -27q65 0 105 50z" />
    <glyph glyph-name="uniF721" unicode="&#xf721;" horiz-adv-x="242" 
d="M172 478q10 -13 5 -45l-39 -269h-31l-37 268q-5 32 6 45q12 15 49 15q36 0 47 -14zM85 4q-16 16 -16 40t16 41q16 16 39 16q24 0 40 -16q16 -17 16 -41q0 -25 -16 -40q-16 -16 -41 -16q-23 0 -38 16z" />
    <glyph glyph-name="uniF7A1" unicode="&#xf7a1;" horiz-adv-x="235" 
d="M155 460q16 -16 16 -40q0 -25 -16 -41q-16 -17 -39 -17q-24 0 -40 17q-16 16 -16 41t16 40q16 16 41 16q23 0 38 -16zM132 300l38 -269q5 -32 -5 -45q-11 -14 -48 -14h-1q-37 0 -48 14q-10 13 -5 45l39 269h30z" />
    <glyph glyph-name="uniF73F" unicode="&#xf73f;" horiz-adv-x="345" 
d="M176 146q-80 36 -80 97q0 38 65 78q83 49 83 81q0 42 -44 42q-31 0 -65 -29t-39 -29q-14 0 -27 13t-13 27q0 18 19 33q42 34 89 34h1q51 0 92 -37q41 -38 41 -87q0 -54 -69 -94q-58 -33 -58 -60q0 -21 25 -51zM127 4q-15 15 -15 39q0 23 15 40q16 16 39 16t39 -16
q15 -17 15 -40q0 -24 -15 -39q-16 -16 -40 -16q-23 0 -38 16z" />
    <glyph glyph-name="uniF7BF" unicode="&#xf7bf;" horiz-adv-x="346" 
d="M214 461q16 -16 16 -40t-16 -40q-15 -16 -38 -16q-24 0 -39 16q-16 16 -16 40q0 55 56 55q22 0 37 -15zM168 317q80 -36 80 -97q0 -38 -65 -78q-81 -49 -81 -80q0 -41 42 -41q30 0 64 29t39 29q14 0 28 -14q13 -13 13 -27q0 -19 -19 -33q-42 -34 -89 -34h-1q-49 0 -90 37
q-42 37 -42 87q0 53 70 94q56 32 56 59q0 22 -25 52z" />
    <glyph glyph-name="uniF730" unicode="&#xf730;" horiz-adv-x="530" 
d="M413 394q67 -65 67 -173t-68 -173q-61 -60 -147 -60q-88 0 -149 58q-66 64 -66 172q0 109 67 175q61 60 149 60q86 0 147 -59zM166 356q-39 -52 -39 -136q0 -83 38 -135q39 -52 100 -52q63 0 101 52q37 51 37 135t-39 136q-38 52 -100 52q-60 0 -98 -52z" />
    <glyph glyph-name="uniF731" unicode="&#xf731;" horiz-adv-x="340" 
d="M50 0v27l54 7q24 3 31 14q6 11 6 49v224q0 39 -7 50t-33 12l-61 3v25q90 14 180 42v-356q0 -38 7 -49q6 -11 31 -14l53 -7v-27h-261z" />
    <glyph glyph-name="uniF732" unicode="&#xf732;" horiz-adv-x="446" 
d="M397 0h-356v23q106 78 150 121q82 82 82 150q0 40 -22 66q-25 28 -70 28q-56 0 -112 -79l-23 20l51 71q53 53 117 53q66 0 106 -41q39 -40 39 -100q0 -64 -69 -131q-21 -20 -131 -111v-2h159q33 0 48 10q13 10 30 43l27 -3z" />
    <glyph glyph-name="uniF733" unicode="&#xf733;" horiz-adv-x="406" 
d="M230 211q60 -12 95 -52q35 -39 35 -92q0 -104 -100 -174q-79 -55 -143 -55q-50 0 -82 30q-19 18 -12 38q3 13 20 26q13 9 26 -1q45 -39 101 -39q46 0 76 36q31 39 31 104q0 59 -36 92q-32 29 -77 29q-32 0 -59 -9l-7 28q142 57 142 138q0 83 -79 83q-46 0 -98 -63l-20 19
l40 56q44 48 107 48h1q58 0 94 -34q35 -34 35 -90q0 -37 -30 -67q-16 -17 -60 -48v-3z" />
    <glyph glyph-name="uniF734" unicode="&#xf734;" horiz-adv-x="486" 
d="M457 37h-84v-194h-79v194h-259v36l295 380h43v-361h95zM294 349h-2l-190 -257h192v257z" />
    <glyph glyph-name="uniF735" unicode="&#xf735;" horiz-adv-x="403" 
d="M104 255q244 -9 244 -185q0 -93 -88 -159q-93 -71 -218 -73l-5 32q74 11 132 42q97 53 97 143q0 131 -210 131l37 245l254 22l-14 -73l-208 -18z" />
    <glyph glyph-name="uniF736" unicode="&#xf736;" horiz-adv-x="499" 
d="M439 575q-71 -16 -126 -60q-118 -64 -154 -178l57 23q44 19 64 19q72 0 120 -48q50 -50 50 -132q0 -90 -58 -150q-58 -61 -144 -61q-80 0 -134 57q-62 64 -62 179q0 119 75 214q68 87 178 133q61 25 127 35zM151 302q-8 -33 -8 -72q0 -95 36 -152q34 -54 88 -54
q42 0 68 29q31 34 31 102t-28 112q-35 56 -110 56q-35 0 -77 -21z" />
    <glyph glyph-name="uniF737" unicode="&#xf737;" horiz-adv-x="437" 
d="M422 429l-311 -577l-76 -15l-7 13q152 213 317 518h-307v73h375z" />
    <glyph glyph-name="uniF738" unicode="&#xf738;" horiz-adv-x="466" 
d="M351 565q43 -41 43 -103q0 -43 -28 -74q-19 -22 -70 -62q60 -37 85 -64q38 -42 38 -100q0 -80 -63 -130q-55 -44 -126 -44q-80 0 -130 42q-52 43 -52 118q0 55 43 92q24 25 83 62q-101 59 -101 147q0 63 47 109q48 48 121 48q67 0 110 -41zM169 542q-22 -28 -22 -65
q0 -49 37 -82q22 -21 84 -53q53 46 53 119q0 53 -29 85q-26 27 -59 27q-39 0 -64 -31zM310 50q29 31 29 86q0 78 -137 149q-75 -54 -75 -130q0 -61 36 -99q33 -35 79 -35q41 0 68 29z" />
    <glyph glyph-name="uniF739" unicode="&#xf739;" horiz-adv-x="486" 
d="M388 381q46 -65 46 -160q0 -254 -250 -350q-75 -30 -149 -33l-5 31q233 42 302 240l-37 -16q-44 -21 -80 -21q-65 0 -113 46q-52 50 -52 127q0 93 63 153q57 55 132 55q92 0 143 -72zM161 379q-27 -39 -27 -97q0 -76 42 -118q37 -38 93 -38q35 0 69 17q8 27 8 73
q0 72 -22 126q-31 76 -98 76q-39 0 -65 -39z" />
    <glyph glyph-name="uniF724" unicode="&#xf724;" horiz-adv-x="473" 
d="M276 259q70 -22 100 -46q40 -33 40 -88q0 -54 -45 -92q-45 -37 -115 -43v-73h-33v72q-77 1 -142 35q-12 38 -27 119l29 6q46 -119 140 -127v171l-28 9q-122 38 -122 119q0 52 39 88q41 37 111 44v64h33v-62q48 0 115 -20l9 -44q7 -33 12 -63l-28 -8q-38 94 -108 102v-157
zM223 423q-82 -6 -82 -73q0 -55 82 -76v149zM256 22q86 6 86 76q0 58 -86 86v-162z" />
    <glyph glyph-name="uniF7A2" unicode="&#xf7a2;" horiz-adv-x="468" 
d="M428 118q-55 -78 -141 -94v-92h-34v90q-90 4 -146 62q-52 55 -52 131q0 113 96 181q47 33 102 44v80h34v-76h12q64 -1 99 -25q13 -10 13 -26q0 -14 -10 -26t-22 -12q-8 0 -14 8q-36 39 -78 42v-321q67 0 123 55zM253 405q-42 -2 -76 -35q-43 -42 -43 -116q0 -73 39 -119
q32 -39 80 -48v318z" />
    <glyph glyph-name="uniE023" unicode="&#xe023;" horiz-adv-x="529" 
d="M492 117q-19 -70 -40 -106q-66 -23 -127 -23q-111 0 -177 66q-58 57 -72 152h-66l13 35h50q0 40 3 61h-48l13 36h41q21 93 92 148t169 55q34 0 122 -22q3 -18 14 -114l-26 -6q-18 55 -41 79q-30 30 -84 30q-62 0 -104 -47q-41 -46 -54 -123h285l-14 -36h-275
q-3 -30 0 -61h256l-13 -35h-240q14 -86 55 -134q43 -50 105 -50q78 0 138 106z" />
    <glyph glyph-name="uniE09F" unicode="&#xe09f;" horiz-adv-x="486" 
d="M201 345q21 110 92 171q55 48 104 48q19 0 36 -12q18 -13 18 -29q0 -14 -14 -31t-25 -11q-52 31 -61 31q-23 0 -36 -23q-16 -29 -36 -184h105v-38h-111l-19 -127q-28 -177 -122 -252q-44 -35 -82 -35q-21 0 -38 12q-17 13 -17 29q0 15 13 30q11 14 21 14q3 0 26 -15
t39 -15q22 0 34 24q19 32 38 175l21 160h-79v38h85z" />
    <glyph glyph-name="uniE0DD" unicode="&#xe0dd;" horiz-adv-x="481" 
d="M197 248v-11q-1 -81 -78 -149q64 5 124 -23q66 -31 99 -31q45 0 45 41q0 10 -5 27q-6 10 1 20q18 26 39 26t21 -35q0 -63 -72 -110q-44 -28 -90 -28q-35 0 -123 47q-39 22 -60 22q-22 0 -38 -39q-4 -11 -14 -11q-12 0 -18 11q-7 14 5 32q9 17 39 51q39 43 39 116
q0 14 -3 44h-77v37h74q-4 30 -4 59q0 92 83 154q52 42 103 42q63 0 88 -36q10 -15 4 -31q-8 -14 -19 -22q-12 -10 -26 1q-42 40 -86 40q-68 0 -68 -88q0 -11 15 -119h154v-37h-152z" />
    <glyph glyph-name="uniE101" unicode="&#xe101;" horiz-adv-x="489" 
d="M463 505q-52 -7 -85 -60q-36 -55 -93 -160h120v-35h-127v-73h128v-35h-128v-47q0 -40 13 -52q15 -13 70 -16v-27h-244v27q57 3 71 17q12 11 12 52v46h-131v35h131v42q0 20 -1 31h-130v35h118l-91 163q-29 51 -81 57v27h198v-28l-28 -4q-31 -4 -19 -27q44 -86 93 -170
q57 105 80 158q8 19 4 27q-5 8 -26 12l-27 4v28h173v-27z" />
    <glyph glyph-name="uniE08B" unicode="&#xe08b;" horiz-adv-x="528" 
d="M493 127q-18 -68 -41 -115q-77 -22 -134 -22l-10 -58h-32l10 60q-27 1 -54 8l-12 -68h-33l13 78q-80 29 -123 101q-38 65 -38 147q0 117 73 195q70 75 182 85l11 59h32l-10 -58h7q14 0 48 -4l11 62h32l-12 -66q53 -12 55 -13q8 -45 15 -113l-24 -6q-25 71 -53 89
l-81 -467q51 4 83 31q26 23 60 84zM376 500q-22 7 -56 9l-82 -470q25 -12 55 -15zM288 507q-75 -9 -117 -78q-39 -65 -39 -164q0 -147 77 -210z" />
    <glyph glyph-name="uniE0A1" unicode="&#xe0a1;" horiz-adv-x="483" 
d="M411 400q-14 53 -27 70q-17 24 -92 24h-57q-18 0 -22 -4q-5 -4 -5 -20v-171q126 0 201 8v-53q-33 3 -201 8v-93h122v-34h-122v-31q0 -51 14 -62q13 -11 74 -15v-27h-243v27q51 3 63 15t12 62v31h-80v34h80v252q0 50 -12 63q-13 14 -63 18v27h378q2 -57 8 -125z" />
    <glyph glyph-name="uniE0A7" unicode="&#xe0a7;" horiz-adv-x="481" 
d="M193 195q-15 -61 -74 -107q63 5 125 -24q66 -30 100 -30q44 0 44 41q0 17 -5 27q-6 10 1 20q19 27 38 27q22 0 22 -35q0 -64 -72 -111q-46 -29 -88 -29q-34 0 -124 48q-41 22 -60 22q-22 0 -38 -39q-5 -11 -15 -11q-11 0 -17 11q-7 14 4 32q15 24 40 51q38 44 38 107h-82
v36h82q0 16 -5 53h-78v36h74l-1 29q0 87 82 150q52 42 104 42q63 0 88 -36q10 -15 4 -32q-8 -14 -19 -22q-13 -9 -26 1q-42 40 -87 40q-68 0 -68 -88q0 -31 10 -84h164v-36h-160q4 -31 4 -53h154v-36h-159z" />
    <glyph glyph-name="uniE0B4" unicode="&#xe0b4;" horiz-adv-x="519" 
d="M467 304h-97l-29 -134h91l-9 -61h-96l-37 -173h-39l38 173h-109l-37 -173h-39l39 173h-105l11 61h108l28 134h-101l9 60h106l33 152h38l-33 -152h107l33 152h39l-32 -152h92zM224 304l-29 -134h108l29 134h-108z" />
    <glyph glyph-name="uniF642" unicode="&#xf642;" horiz-adv-x="710" 
d="M198 -30l-31 23l341 561l32 -23zM287 487q32 -45 32 -104t-32 -104q-37 -52 -100 -52q-64 0 -101 53q-32 44 -32 103t32 104q38 52 102 52q62 0 99 -52zM138 463q-11 -34 -11 -80q0 -128 61 -128q59 0 59 128t-60 128q-33 0 -49 -48zM627 250q32 -45 32 -104t-32 -104
q-37 -53 -100 -53q-64 0 -101 53q-32 44 -32 103q0 60 32 105q38 52 102 52q62 0 99 -52zM478 226q-11 -34 -11 -80q0 -128 61 -128q59 0 59 128t-60 128q-33 0 -49 -48z" />
    <glyph glyph-name="uniF628" unicode="&#xf628;" horiz-adv-x="1009" 
d="M198 -30l-31 23l341 562l32 -23zM287 487q32 -45 32 -104t-32 -104q-37 -53 -100 -53q-64 0 -101 53q-32 45 -32 104t32 104q38 53 102 53q62 0 99 -53zM138 463q-11 -34 -11 -79q0 -130 61 -130q59 0 59 129q0 128 -60 128q-33 0 -49 -48zM627 250q32 -46 32 -104
q0 -59 -32 -104q-37 -53 -100 -53q-64 0 -101 53q-32 44 -32 103t32 104q38 53 102 53q62 0 99 -52zM478 225q-11 -34 -11 -79q0 -128 61 -128q59 0 59 127q0 128 -60 128q-33 0 -49 -48zM926 250q32 -44 32 -104q0 -59 -32 -104q-37 -53 -100 -53q-64 0 -101 53
q-32 44 -32 103t32 104q38 53 102 53q62 0 99 -52zM777 225q-11 -34 -11 -79q0 -128 61 -128q59 0 59 127q0 128 -60 128q-33 0 -49 -48z" />
    <glyph glyph-name="uniE091" unicode="&#xe091;" horiz-adv-x="711" 
d="M167 257q-4 0 -4 -3v-150q0 -9 7 -18q77 -80 188 -80q118 0 197 90h44q-92 -107 -242 -107q-127 0 -216 81q-90 80 -90 194q0 115 90 196q89 81 216 81t216 -81q90 -81 90 -196v-7h-496zM551 427q0 11 -8 19q-76 78 -185 78q-111 0 -187 -81q-8 -6 -8 -19v-148q0 -4 4 -4
h381q3 0 3 4v151z" />
    <glyph glyph-name="uniF639" unicode="&#xf639;" horiz-adv-x="493" 
d="M405 531q45 -87 45 -219q0 -128 -45 -217q-55 -107 -158 -107q-104 0 -158 102q-46 87 -46 221q0 128 46 217q55 107 159 107q103 0 157 -104zM132 313q0 -123 25 -199q30 -94 91 -94q113 0 113 292q0 291 -115 291q-114 0 -114 -290z" />
    <glyph glyph-name="uniF6DC" unicode="&#xf6dc;" horiz-adv-x="338" 
d="M40 0v25q67 5 82 20q13 13 13 68v387q0 35 -7 44q-8 9 -40 12l-49 3v24q85 15 177 52v-522q0 -55 14 -68q15 -15 81 -20v-25h-271z" />
    <glyph glyph-name="uniF63A" unicode="&#xf63a;" horiz-adv-x="465" 
d="M438 131q0 -2 -35 -131h-373v21q107 107 161 171q125 150 125 244q0 132 -118 132q-74 0 -135 -92l-23 19l58 81q52 59 135 59q70 0 117 -44q50 -46 50 -122q0 -98 -133 -245l-138 -151h185q43 0 58 9q17 12 39 57z" />
    <glyph glyph-name="uniF63B" unicode="&#xf63b;" horiz-adv-x="452" 
d="M269 379q65 -13 104 -56q37 -42 37 -98q0 -111 -105 -181q-83 -56 -157 -56q-63 0 -100 34q-19 18 -16 36q1 17 22 33q13 10 24 0q57 -52 123 -52q53 0 86 36q38 40 37 117q0 64 -42 101q-36 32 -85 32q-29 0 -64 -11l-6 25q159 52 159 143q0 46 -27 72q-25 23 -66 23
q-70 0 -121 -80l-20 19l43 63q51 56 127 56h1q66 0 107 -37q40 -37 40 -94q0 -39 -30 -68q-25 -25 -71 -55v-2z" />
    <glyph glyph-name="uniF63C" unicode="&#xf63c;" horiz-adv-x="497" 
d="M369 179v-72q0 -52 13 -64q12 -12 72 -17v-26h-256v26q65 5 78 17t13 64v72h-260v26q187 278 301 427h39v-407h96v-46h-96zM289 520h-2q-120 -166 -195 -295h197v295z" />
    <glyph glyph-name="uniF63D" unicode="&#xf63d;" horiz-adv-x="454" 
d="M104 367q90 32 115 32q90 0 145 -56q48 -50 48 -118q0 -93 -89 -166q-83 -69 -174 -71q-67 0 -103 36q-19 19 -17 34q2 16 22 33q14 12 27 0q56 -51 123 -51q59 0 94 44q33 41 33 104q0 70 -40 110q-43 44 -123 44q-57 0 -102 -19l38 300h285l7 -8l-26 -65h-237z" />
    <glyph glyph-name="uniF63E" unicode="&#xf63e;" horiz-adv-x="495" 
d="M211 376q36 17 62 17q79 0 130 -54q50 -53 50 -131q0 -92 -58 -155q-59 -65 -150 -65q-85 0 -142 66q-60 69 -60 182q0 148 89 254q69 82 169 118q58 21 128 33l5 -30q-54 -10 -108 -35q-148 -70 -183 -232zM138 312q-6 -25 -6 -73q0 -96 36 -156q37 -62 96 -62
q103 0 103 151q0 68 -32 114q-37 52 -101 52q-51 0 -96 -26z" />
    <glyph glyph-name="uniF63F" unicode="&#xf63f;" horiz-adv-x="464" 
d="M438 611l-282 -613l-75 -10l-7 11q163 258 295 551h-217q-50 0 -64 -11q-13 -11 -31 -61h-27q4 26 18 145h382z" />
    <glyph glyph-name="uniF640" unicode="&#xf640;" horiz-adv-x="475" 
d="M363 592q45 -43 45 -105q0 -46 -27 -79q-20 -23 -82 -64q133 -77 133 -175q0 -81 -67 -134q-59 -47 -131 -47q-82 0 -136 44q-56 47 -56 125q0 52 45 95q30 30 91 63q-111 59 -111 156q0 65 49 113q52 51 130 51q70 0 117 -43zM165 571q-23 -28 -23 -68q0 -51 39 -88
q26 -25 92 -57q61 46 61 125q0 59 -31 92q-27 28 -68 28q-44 0 -70 -32zM322 53q30 33 30 91q0 83 -148 156q-82 -50 -82 -137q0 -67 37 -106q34 -36 86 -36q48 0 77 32z" />
    <glyph glyph-name="uniF641" unicode="&#xf641;" horiz-adv-x="488" 
d="M392 561q51 -71 51 -176q0 -132 -67 -232q-63 -94 -169 -136q-76 -32 -140 -32l-4 28q109 18 184 91q76 73 101 186l-70 -35q-32 -16 -58 -16q-79 0 -129 52t-50 131t54 143q60 70 152 70q90 0 145 -74zM151 552q-23 -41 -23 -95q0 -69 35 -114q37 -49 98 -49q55 0 90 31
q4 32 4 65q0 82 -24 138q-33 74 -100 74q-52 0 -80 -50z" />
    <glyph glyph-name="uniE201" unicode="&#xe201;" horiz-adv-x="493" 
d="M382 569q68 -86 68 -257q0 -128 -45 -217q-55 -107 -158 -107q-64 0 -112 41l-35 -72l-29 19l39 80q-68 86 -68 255q0 128 46 217q56 107 160 107q63 0 108 -39l32 67l30 -15zM328 542q-26 59 -82 59q-120 0 -120 -289q0 -101 22 -180zM164 85q29 -64 84 -64q62 0 93 88
q26 76 26 203q0 108 -21 185z" />
    <glyph glyph-name="uniE08D" unicode="&#xe08d;" horiz-adv-x="480" 
d="M292 352q142 -51 142 -167q0 -71 -45 -118q-46 -46 -126 -56v-87h-35v85q-92 0 -155 41q-10 31 -28 131l30 8q42 -135 153 -148v243l-35 16q-126 52 -126 153q0 62 41 106q44 47 120 56v78h35v-76q49 0 90 -13l34 -8l21 -126l-28 -6q-16 53 -35 77q-28 35 -82 43v-221z
M228 584q-45 -4 -70 -35q-22 -27 -22 -65q0 -72 92 -108v208zM263 42q45 6 71 37q25 29 25 71q0 80 -84 117l-12 5v-230z" />
    <glyph glyph-name="uniE089" unicode="&#xe089;" horiz-adv-x="479" 
d="M434 196q-64 -84 -149 -98v-98h-35v96q-87 2 -144 64q-55 58 -55 138q0 112 93 184q48 35 106 49v84h35v-80q7 1 18 1q63 0 101 -27q14 -8 14 -25q0 -15 -12 -28q-12 -14 -24 -14q-6 0 -15 9q-37 35 -82 42v-334q67 -2 131 60zM250 494q-46 -1 -80 -37q-41 -43 -41 -119
q0 -78 41 -127q33 -39 80 -49v332z" />
    <glyph glyph-name="uniE022" unicode="&#xe022;" horiz-adv-x="574" 
d="M537 131q-23 -79 -47 -118q-69 -25 -140 -25q-119 -1 -191 76q-68 71 -81 190h-71l13 36h55q-1 17 3 62h-48l13 36h41q23 114 100 181q78 67 190 67q38 0 134 -25l17 -123l-27 -7q-19 61 -47 89q-33 31 -92 31q-74 0 -124 -60q-47 -56 -62 -153h327l-13 -36h-318
q-3 -39 -1 -62h301l-13 -36h-284q29 -230 184 -230q89 0 155 119z" />
    <glyph glyph-name="uniE09E" unicode="&#xe09e;" horiz-adv-x="480" 
d="M196 415q21 118 95 182q62 55 112 55q19 0 38 -13q21 -15 20 -31q0 -13 -13 -29q-14 -18 -25 -12q-49 32 -72 32q-24 0 -40 -30q-19 -43 -39 -199h113l-1 -39h-118l-30 -203q-25 -161 -116 -229q-49 -37 -88 -37q-19 0 -37 13q-17 12 -17 24q0 13 13 31q14 18 22 18
q2 0 27 -15t43 -15q30 0 41 35q12 34 32 188l25 190h-88v39h94z" />
    <glyph glyph-name="uniE0DC" unicode="&#xe0dc;" horiz-adv-x="482" 
d="M201 295q1 -8 1 -22q0 -93 -86 -174q46 0 108 -27q82 -38 121 -38q57 0 57 46q0 18 -7 32q-4 10 3 22q17 26 36 26q23 0 23 -41q0 -65 -77 -116q-47 -31 -90 -31q-42 0 -135 54q-41 24 -63 24q-25 0 -41 -43q-4 -12 -12 -12q-12 0 -18 13q-6 15 6 35q9 15 47 58
q42 46 42 135q0 17 -3 59h-88v38h83q-5 63 -5 82q0 109 83 175q50 43 104 45q67 0 97 -41q10 -14 4 -30q-7 -13 -19 -24q-13 -9 -28 3q-46 40 -93 40q-72 0 -72 -95q0 -41 19 -155h174v-38h-171z" />
    <glyph glyph-name="uniE100" unicode="&#xe100;" horiz-adv-x="480" 
d="M473 596q-38 -4 -55 -18q-13 -11 -37 -53q-39 -67 -99 -198h134v-36h-141v-77h142v-37h-142v-69q0 -51 14 -63q14 -13 76 -17v-28h-257v28q62 4 76 17q13 12 13 63v69h-141v37h141v42q0 23 -1 35h-139v36h129q-39 90 -94 199q-22 43 -36 54t-49 16v27h207v-27l-29 -5
q-21 -3 -26 -10q-5 -6 1 -22q25 -60 97 -211q58 119 86 198q8 23 5 31q-4 10 -27 14l-31 5v27h183v-27z" />
    <glyph glyph-name="uniE08A" unicode="&#xe08a;" horiz-adv-x="568" 
d="M530 149q-20 -75 -43 -124q-79 -25 -152 -25l-11 -66h-32l12 68q-26 1 -61 10l-13 -78h-33l16 89q-87 33 -134 115q-42 73 -42 166q0 131 78 219q77 87 200 99l11 66h32l-10 -65h7q16 0 54 -4l12 69h31l-12 -75q80 -16 66 -14q14 -101 16 -121l-26 -7q-26 77 -64 97
l-90 -535q99 5 163 125zM402 581q-30 9 -61 9l-91 -537q29 -14 60 -17zM309 588q-87 -10 -134 -88q-44 -73 -44 -184q0 -174 90 -246z" />
    <glyph glyph-name="uniE0A0" unicode="&#xe0a0;" horiz-adv-x="483" 
d="M422 477q-14 61 -31 82q-23 30 -95 30h-62q-21 0 -26 -4q-5 -5 -5 -25v-216q133 0 213 9v-56q-66 7 -213 9v-115h146v-35h-146v-36q0 -60 14 -74q15 -15 80 -19v-27h-255v27q53 4 67 20q13 15 13 73v36h-88v35h88v309q0 60 -12 75q-13 17 -67 21v27h398q0 -36 9 -142z
" />
    <glyph glyph-name="uniE0A6" unicode="&#xe0a6;" horiz-adv-x="486" 
d="M203 241q-11 -75 -84 -142q48 0 108 -27q82 -38 120 -38q57 0 57 43q0 20 -6 33q-5 12 2 22q21 28 38 28q22 0 22 -41q0 -64 -77 -115q-49 -31 -96 -31q-36 0 -130 54q-40 22 -61 22q-24 0 -41 -42q-4 -12 -12 -12q-12 0 -18 13q-7 14 5 34q8 14 48 59q42 44 42 140h-91
v36h89l-7 66h-82v36h79l-1 36q0 108 83 175q51 43 103 45q67 0 97 -41q10 -14 4 -30q-7 -14 -19 -23q-14 -10 -27 3q-46 40 -93 40q-71 0 -71 -96q0 -51 11 -109h169v-36h-164q6 -46 6 -66h158v-36h-161z" />
    <glyph glyph-name="uniE0B3" unicode="&#xe0b3;" horiz-adv-x="482" 
d="M451 395h-97l-30 -136h92l-9 -58h-96l-37 -174h-39l38 174h-109l-37 -174h-39l39 174h-105l11 58h108l28 136h-101l9 58h105l34 155h38l-33 -155h107l33 155h39l-32 -155h92zM208 395l-29 -136h108l29 136h-108z" />
    <glyph glyph-name="uniF643" unicode="&#xf643;" horiz-adv-x="486" 
d="M388 389q57 -65 57 -167q0 -108 -61 -173q-57 -61 -140 -61q-89 0 -145 62q-58 64 -58 168t58 170q58 65 145 65q88 0 144 -64zM156 360q-36 -53 -36 -140q0 -88 37 -141q35 -50 86 -50q54 0 88 51q35 53 35 140q0 89 -36 142q-34 50 -88 50q-52 0 -86 -52z" />
    <glyph glyph-name="uniF644" unicode="&#xf644;" horiz-adv-x="486" 
d="M96 0v28l64 6q33 4 42 15q8 10 8 48v223q0 39 -7 50t-35 12l-62 3v26q85 12 183 42v-356q0 -38 9 -48q9 -11 45 -15l61 -6v-28h-308z" />
    <glyph glyph-name="uniF645" unicode="&#xf645;" horiz-adv-x="486" 
d="M416 0h-357v21q107 78 149 119q84 82 84 154q0 97 -93 97q-55 0 -113 -81l-21 19l50 72q53 52 119 52t106 -41q38 -39 38 -100q0 -65 -67 -125q-7 -8 -132 -118v-2h161q35 0 49 10q12 9 29 43l24 -3z" />
    <glyph glyph-name="uniF646" unicode="&#xf646;" horiz-adv-x="486" 
d="M269 211q60 -10 97 -53q35 -40 35 -92q0 -105 -101 -175q-79 -54 -143 -54q-49 0 -83 30q-19 18 -12 38q6 16 20 26q12 10 26 -1q49 -43 101 -43q45 0 75 35q34 40 34 109q0 62 -38 96q-32 29 -76 29q-30 0 -58 -10l-7 24q142 58 142 141q0 86 -81 86q-52 0 -98 -66
l-19 18l42 58q44 46 107 46h1q58 0 93 -35q35 -34 35 -90q0 -36 -28 -64q-26 -24 -64 -51v-2z" />
    <glyph glyph-name="uniF647" unicode="&#xf647;" horiz-adv-x="486" 
d="M450 36h-84v-193h-79v193h-256v35l293 382h42v-362h94zM287 350h-2q-73 -94 -189 -259h191v259z" />
    <glyph glyph-name="uniF648" unicode="&#xf648;" horiz-adv-x="486" 
d="M144 255q101 -1 167 -40q81 -49 81 -146q0 -94 -87 -158q-93 -72 -221 -74l-4 30q230 39 230 187q0 132 -211 132l37 246l255 21l-14 -72l-213 -19z" />
    <glyph glyph-name="uniF649" unicode="&#xf649;" horiz-adv-x="486" 
d="M432 575q-73 -16 -126 -60q-116 -64 -153 -178l57 24q45 18 63 18q72 0 120 -48q50 -50 50 -132q0 -90 -58 -150q-58 -61 -144 -61q-79 0 -133 57q-62 65 -62 179q0 118 75 214q67 87 177 133q61 25 127 35zM144 302q-7 -34 -7 -72q0 -96 36 -153q35 -54 88 -54
q41 0 67 30q31 34 31 102t-28 112q-35 56 -109 56q-34 0 -78 -21z" />
    <glyph glyph-name="uniF64A" unicode="&#xf64a;" horiz-adv-x="486" 
d="M445 429l-314 -578l-75 -15l-7 13q158 221 320 519h-309v73h376z" />
    <glyph glyph-name="uniF64B" unicode="&#xf64b;" horiz-adv-x="486" 
d="M361 565q43 -40 43 -101q0 -42 -26 -73q-25 -27 -74 -64q125 -75 125 -164q0 -80 -63 -131q-56 -44 -127 -44q-79 0 -129 42q-53 44 -53 118q0 53 42 93q23 22 85 61q-103 56 -103 146q0 63 47 109q49 49 122 49q68 0 111 -41zM177 545q-22 -27 -22 -66q0 -48 38 -83
q23 -22 86 -55q52 44 52 122q0 56 -29 86q-24 26 -59 26q-41 0 -66 -30zM321 48q28 31 28 88q0 79 -139 150q-74 -53 -74 -131q0 -64 36 -102q32 -34 78 -34q44 0 71 29z" />
    <glyph glyph-name="uniF64C" unicode="&#xf64c;" horiz-adv-x="486" 
d="M388 380q46 -64 46 -160q0 -252 -253 -352q-73 -29 -148 -31l-5 27q234 42 304 244l-37 -16q-44 -21 -81 -21q-65 0 -113 46q-52 50 -52 127q0 93 63 154q58 55 133 55q92 0 143 -73zM158 378q-25 -40 -25 -97q0 -75 42 -119q37 -39 93 -39q38 0 70 18q8 27 8 74
q0 75 -21 128q-31 77 -100 77q-41 0 -67 -42z" />
    <glyph glyph-name="uniF653" unicode="&#xf653;" horiz-adv-x="486" 
d="M282 258q70 -22 100 -46q40 -33 40 -87q0 -55 -45 -92q-44 -37 -115 -43v-73h-33v72q-76 1 -141 35q-12 38 -27 119l29 5q48 -117 139 -125v170l-27 9q-122 37 -122 119q0 52 39 88q41 37 110 44v64h33v-62q49 -2 115 -20l9 -44q7 -32 12 -63l-28 -8q-37 93 -108 102
v-157zM229 422q-81 -6 -81 -72q0 -55 81 -76v148zM262 23q86 6 86 75q0 58 -86 86v-161z" />
    <glyph glyph-name="uniF654" unicode="&#xf654;" horiz-adv-x="486" 
d="M436 118q-57 -78 -141 -94v-92h-34v90q-89 4 -145 63q-52 54 -52 130q0 113 96 181q47 34 101 44v80h34v-76h12q62 -1 99 -25q13 -10 13 -26q0 -14 -10 -26t-22 -12q-8 0 -14 8q-37 40 -78 43v-323q67 0 123 55zM261 406q-42 -2 -75 -35q-43 -42 -43 -117q0 -73 38 -119
q33 -40 80 -49v320z" />
    <glyph glyph-name="uniF64E" unicode="&#xf64e;" horiz-adv-x="486" 
d="M463 115q-21 -77 -38 -106q-57 -21 -116 -21q-204 0 -232 219h-62l13 35h46q0 38 3 57h-45l13 36h38q19 94 86 150q66 56 158 56q30 0 114 -22q4 -23 14 -115l-27 -5q-16 55 -37 78q-27 30 -78 30q-113 0 -142 -172h260l-13 -36h-251q-2 -36 0 -57h233l-13 -35h-217
q25 -185 145 -185q66 0 122 105z" />
    <glyph glyph-name="uniF64F" unicode="&#xf64f;" horiz-adv-x="486" 
d="M200 345q21 110 92 171q55 48 104 48q18 0 36 -12t18 -28q0 -15 -14 -31q-14 -18 -25 -12q-53 32 -61 32q-24 0 -36 -23q-15 -25 -36 -185h105v-38h-111l-19 -127q-27 -176 -122 -251q-43 -36 -82 -36q-21 0 -38 12q-17 13 -17 29t13 31q11 14 21 14q3 0 26 -15
q23 -16 39 -16q22 0 34 24q18 32 38 175l21 160h-79v38h85z" />
    <glyph glyph-name="uniF651" unicode="&#xf651;" horiz-adv-x="486" 
d="M199 248v-11q-1 -82 -79 -149q64 5 124 -23q66 -31 99 -31q45 0 45 41q0 10 -5 27q-6 10 1 20q18 26 39 26t21 -35q0 -63 -72 -110q-44 -28 -90 -28q-33 0 -123 47q-39 22 -59 22q-22 0 -38 -39q-4 -11 -14 -11q-12 0 -18 12q-7 13 5 31q9 17 39 51q39 43 39 116
q0 14 -3 44h-77v37h74q-4 30 -4 59q0 91 82 155q52 41 103 41q62 0 89 -36q11 -16 3 -31q-5 -13 -18 -22q-12 -10 -26 1q-43 41 -87 41q-68 0 -68 -88q0 9 15 -120h154v-37h-151z" />
    <glyph glyph-name="uniF652" unicode="&#xf652;" horiz-adv-x="486" 
d="M460 506q-52 -7 -85 -60q-43 -70 -93 -160h126v-35h-133v-71h134v-35h-134v-51q0 -40 13 -52q14 -12 70 -16v-26h-243v26q56 4 70 17q12 11 12 52v50h-135v35h135v71h-136v35h124l-89 163q-30 51 -81 57v26h197v-27l-27 -4q-30 -5 -19 -27l90 -171q58 109 81 159
q8 18 4 26q-5 9 -26 13l-27 4v27h172v-26z" />
    <glyph glyph-name="uniF64D" unicode="&#xf64d;" horiz-adv-x="486" 
d="M447 126q-16 -74 -36 -114q-66 -22 -117 -22l-9 -59h-29l10 61q-23 1 -47 8l-12 -69h-29l12 78q-144 60 -144 250q0 119 66 196q62 74 161 84l9 59h30l-9 -58h6q12 0 42 -4l10 62h28l-10 -66q52 -15 50 -14q9 -53 14 -113l-24 -5q-19 69 -47 89l-72 -465q46 4 72 29
q21 21 51 82zM346 500q-19 6 -49 8l-73 -468q20 -11 47 -14zM268 506q-63 -10 -98 -78q-34 -65 -34 -163q0 -154 62 -209z" />
    <glyph glyph-name="uniE0A2" unicode="&#xe0a2;" horiz-adv-x="486" 
d="M411 400q-14 53 -27 70q-17 24 -87 24h-57q-18 0 -22 -4q-5 -4 -5 -20v-170q121 0 196 8v-53q-59 5 -196 7v-93h120v-35h-120v-30q0 -50 14 -62q13 -11 74 -15v-27h-243v27q51 4 63 15q12 12 12 62v30h-78v35h78v253q0 50 -12 63t-63 17v27h373q2 -57 8 -124z" />
    <glyph glyph-name="uniE0A8" unicode="&#xe0a8;" horiz-adv-x="486" 
d="M193 191q-17 -58 -73 -103q63 5 125 -24q68 -30 100 -30q43 0 43 41q0 17 -5 27q-6 11 1 20q17 27 38 27q22 0 22 -35q0 -64 -72 -111q-43 -29 -87 -29q-34 0 -124 48q-41 22 -60 22q-22 0 -38 -39q-5 -11 -15 -11q-11 0 -17 11q-7 14 4 32q15 24 40 51q34 39 38 103h-81
v36h81q0 21 -5 58h-77v35h74l-1 29q0 88 82 150q52 42 103 42q63 0 88 -36q10 -15 4 -32q-8 -14 -19 -22q-13 -9 -26 1q-42 40 -87 40q-67 0 -67 -88q0 -31 10 -84h162v-35h-159q5 -36 4 -58h154v-36h-160z" />
    <glyph glyph-name="uniF650" unicode="&#xf650;" horiz-adv-x="486" 
d="M439 304h-90l-30 -134h85l-9 -61h-89l-38 -173h-38l37 173h-108l-37 -173h-39l39 173h-97l11 61h100l28 134h-93l9 60h98l33 152h38l-33 -152h107l33 152h39l-33 -152h86zM203 304l-29 -134h108l28 134h-107z" />
    <glyph glyph-name="a.superior" horiz-adv-x="305" 
d="M232 269q-34 1 -44 39q-62 -39 -78 -39q-33 0 -55 24q-22 22 -22 52q0 43 48 61q92 34 105 44v10q0 55 -50 55q-32 0 -47 -53q-5 -15 -21 -15q-11 0 -21 8q-10 9 -10 20q0 15 20 28q48 34 98 43q88 0 88 -89v-108q0 -34 21 -34q11 0 24 6l7 -19zM186 423q-12 -6 -62 -27
q-29 -16 -29 -40q0 -44 44 -44q27 0 47 20v91z" />
    <glyph glyph-name="uniF6EA" unicode="&#xf6ea;" horiz-adv-x="349" 
d="M172 541q11 4 24 4q52 0 89 -36q37 -37 37 -89q0 -66 -50 -110q-47 -41 -113 -41q-41 0 -94 20v325q0 27 -6 33q-6 5 -40 9v19q53 6 105 22v-175zM124 348q0 -14 4 -23q13 -29 49 -29q33 -1 55 28q23 30 23 80q0 49 -27 78q-25 27 -64 27q-23 0 -40 -9v-152z" />
    <glyph glyph-name="uniF6EB" unicode="&#xf6eb;" horiz-adv-x="355" 
d="M338 295q-58 -7 -110 -26v33l-45 -25q-13 -8 -28 -8q-47 0 -84 31q-44 37 -44 100q0 61 47 103t118 42q22 0 36 -6v74q0 27 -7 33q-7 5 -42 9v20q48 6 109 22v-349q0 -19 4 -24q4 -4 17 -5l29 -2v-22zM228 486q-18 32 -59 32q-25 0 -45 -19q-30 -27 -30 -86q0 -50 28 -79
q24 -24 56 -24q23 0 50 18v158z" />
    <glyph glyph-name="uniF6EC" unicode="&#xf6ec;" horiz-adv-x="292" 
d="M234 517q29 -29 30 -69q0 -23 -17 -24q-27 -5 -161 -11q0 -46 29 -72q26 -23 65 -23q35 0 70 29l12 -15q-46 -62 -107 -62q-60 0 -95 39q-33 36 -33 90q0 61 42 105q41 41 95 41q41 0 70 -28zM187 444q14 0 14 15q0 23 -14 42q-15 19 -36 19h-1q-20 0 -37 -20
q-19 -23 -23 -59z" />
    <glyph glyph-name="uniE090" unicode="&#xe090;" horiz-adv-x="292" 
d="M159 570l-81 97l2 6q31 13 59 7l43 -102zM234 517q29 -29 30 -69q0 -23 -17 -24q-27 -5 -161 -11q0 -46 29 -72q26 -23 65 -23q35 0 70 29l12 -15q-46 -62 -107 -62q-60 0 -95 39q-33 36 -33 90q0 61 42 105q41 41 95 41q41 0 70 -28zM187 444q14 0 14 15q0 23 -14 42
q-15 19 -36 19h-1q-20 0 -37 -20q-19 -23 -23 -59z" />
    <glyph glyph-name="uniE0A3" unicode="&#xe0a3;" horiz-adv-x="306" 
d="M309 533q-13 -27 -28 -34l-35 1q18 -21 18 -51q0 -46 -37 -73q-34 -26 -81 -26q-10 0 -30 4q-19 -13 -19 -26q0 -21 38 -21l72 1q92 0 92 -76q0 -48 -50 -85q-51 -37 -114 -37q-52 0 -85 24q-31 21 -32 51q0 21 16 35l56 41q-36 10 -51 36q-9 12 -7 25q38 15 60 39
q-59 22 -59 81q0 49 41 78q35 25 78 25q38 0 68 -16q54 4 85 9zM111 504q-15 -20 -15 -52q0 -80 57 -80q50 0 50 71q0 80 -58 80q-20 0 -34 -19zM103 244q-29 -25 -29 -45q0 -23 25 -40t60 -17q41 0 66 20q23 19 23 48t-28 41q-17 7 -61 7q-41 0 -56 -14z" />
    <glyph glyph-name="uniF637" unicode="&#xf637;" horiz-adv-x="372" 
d="M206 277v22q29 5 35 11q6 7 6 33v100q0 61 -57 61q-31 0 -62 -27v-134q0 -26 6 -33q6 -6 33 -11v-22h-147v22q34 5 41 11q8 7 8 32v273q0 27 -7 33q-7 5 -42 9v20q38 4 108 22v-195l36 23q29 19 54 19q40 0 65 -25q24 -25 24 -66v-112q0 -26 6 -33q7 -7 37 -11v-22h-144z
" />
    <glyph glyph-name="uniF6ED" unicode="&#xf6ed;" horiz-adv-x="194" 
d="M124 678q12 -13 12 -30q0 -40 -42 -40q-17 0 -29 11q-13 12 -13 29t13 30q13 12 30 12t29 -12zM20 277v22q35 5 42 11q8 7 8 32v123q0 24 -6 30q-7 6 -38 10v20q34 4 101 22h2v-204q0 -26 7 -32q7 -7 42 -12v-22h-158z" />
    <glyph glyph-name="uniF6EE" unicode="&#xf6ee;" horiz-adv-x="192" 
d="M17 277v22q35 5 42 11q8 7 8 32v272q0 27 -7 33q-7 5 -44 9v20q42 4 110 22v-356q0 -25 8 -32q7 -6 43 -11v-22h-160z" />
    <glyph glyph-name="uniF6EF" unicode="&#xf6ef;" horiz-adv-x="543" 
d="M376 277v21q29 5 35 12q6 6 6 33v98q0 63 -55 63q-26 0 -61 -28q1 -5 1 -16v-117q0 -26 6 -33t34 -12v-21h-141v21q29 5 35 12t6 33v99q0 62 -54 62q-23 0 -60 -27v-134q0 -26 6 -33t31 -12v-21h-147v21q35 5 43 12t8 33v118q0 27 -6 33q-6 7 -38 11v19q46 7 101 22l2 1
v-44l36 23q30 21 55 21q56 0 76 -49l37 26q35 23 59 23q38 0 62 -25q24 -26 24 -70v-109q0 -26 6 -33q7 -7 36 -12v-21h-143z" />
    <glyph glyph-name="uni207F" unicode="&#x207f;" horiz-adv-x="371" 
d="M206 277v21q29 5 35 11q6 7 6 33v101q0 62 -57 62q-26 0 -61 -28v-135q0 -26 6 -33q6 -6 33 -11v-21h-148v21q35 5 42 11q8 7 8 32v120q0 27 -6 33t-36 11v19q45 7 98 22l3 1v-45l34 24q33 21 56 21q40 0 64 -24q24 -25 24 -69v-112q0 -26 6 -33q7 -7 37 -11v-21h-144z
" />
    <glyph glyph-name="o.superior" horiz-adv-x="334" 
d="M267 505q39 -38 39 -94q0 -65 -45 -105q-40 -36 -93 -36q-64 0 -104 42q-37 38 -37 91q0 66 48 107q41 35 93 35q60 0 99 -40zM116 493q-20 -28 -20 -74q0 -53 22 -88q22 -34 54 -34q65 0 65 99q0 54 -20 87q-21 35 -58 35q-25 0 -43 -25z" />
    <glyph glyph-name="uniF6F1" unicode="&#xf6f1;" horiz-adv-x="262" 
d="M130 485q21 33 47 54q12 8 24 8q17 0 30 -10t13 -22q0 -24 -21 -39q-10 -7 -19 0q-17 14 -31 14q-22 0 -45 -42v-105q0 -26 8 -32q8 -7 46 -12v-22h-162v22q34 5 41 12q8 6 8 32v118q0 27 -6 33q-6 5 -38 11v19q44 5 101 22l2 1v-62h2z" />
    <glyph glyph-name="uniF6F2" unicode="&#xf6f2;" horiz-adv-x="265" 
d="M202 460q-30 61 -67 61q-42 0 -42 -35q0 -25 57 -47q85 -34 85 -83q0 -43 -37 -67q-30 -19 -74 -19q-49 0 -83 22q-8 24 -10 77l21 3q27 -77 80 -77q45 0 45 38q0 28 -59 52q-77 32 -77 78q0 34 26 58q28 25 77 25q30 0 62 -12q13 -26 15 -69z" />
    <glyph glyph-name="uniF6F3" unicode="&#xf6f3;" horiz-adv-x="228" 
d="M160 276q-19 -7 -29 -7q-64 0 -64 72v166h-44l-1 12l21 20h24v39l48 46l11 -3v-82h74q5 -5 3 -16q-1 -12 -7 -16h-70v-140q0 -56 36 -56q16 0 39 10l7 -22z" />
    <glyph glyph-name="uni2070" unicode="&#x2070;" horiz-adv-x="341" 
d="M277 700q30 -51 30 -123q0 -73 -31 -123q-37 -60 -106 -60q-70 0 -106 60q-30 50 -30 123t30 123q36 60 107 60q69 0 106 -60zM106 577q0 -154 65 -154q64 0 64 154t-65 154q-64 0 -64 -154z" />
    <glyph glyph-name="one.superior" horiz-adv-x="341" 
d="M76 402v23q42 3 53 13q13 10 13 46v178q0 29 -6 36t-31 9l-30 1v23q65 7 133 29v-276q0 -35 12 -46q11 -8 53 -13v-23h-197z" />
    <glyph glyph-name="two.superior" horiz-adv-x="341" 
d="M306 490q-13 -44 -23 -89h-243v22q171 140 171 214q0 73 -67 73q-44 0 -85 -55l-17 18l32 43q36 45 97 45q45 0 76 -28q34 -30 34 -79q0 -59 -106 -152l-52 -47v-2h91q30 0 42 7q13 8 28 37z" />
    <glyph glyph-name="three.superior" horiz-adv-x="341" 
d="M206 612q87 -16 87 -83q0 -61 -68 -102q-54 -33 -100 -33q-40 0 -68 21q-16 13 -11 28q4 14 18 24q9 8 21 -1q43 -33 76 -33q64 0 64 75q0 32 -24 51q-22 16 -53 16q-20 0 -41 -7l-6 24q99 32 99 78t-52 46q-43 0 -75 -50l-17 16l30 41q33 37 86 37h1q42 0 69 -23
q25 -22 25 -54q0 -27 -19 -41q-22 -17 -43 -28z" />
    <glyph glyph-name="uni2074" unicode="&#x2074;" horiz-adv-x="341" 
d="M252 500v-28q0 -29 11 -37q9 -7 44 -10v-23h-180v23q42 3 52 10q12 8 12 37v28h-162v24q119 158 184 236h39v-222h59v-38h-59zM191 686h-3q-51 -65 -108 -148h111v148z" />
    <glyph glyph-name="uni2075" unicode="&#x2075;" horiz-adv-x="341" 
d="M100 610q47 17 72 17q57 0 91 -29q30 -27 30 -66q0 -54 -57 -97q-55 -41 -110 -41q-41 0 -69 21q-12 11 -9 28q5 15 18 24q11 7 22 -2q41 -32 75 -32q64 0 64 74q0 33 -24 54q-26 23 -70 23q-34 0 -69 -11l27 180h185l-12 -52h-147z" />
    <glyph glyph-name="uni2076" unicode="&#x2076;" horiz-adv-x="341" 
d="M147 623q24 11 40 11q56 0 88 -32q30 -30 30 -80q0 -53 -38 -90q-39 -38 -97 -38q-57 0 -95 38q-40 41 -40 107q0 80 53 138q44 48 108 67q19 6 87 19l6 -26q-39 -7 -72 -22q-83 -37 -103 -108zM108 580q-3 -15 -3 -39q0 -53 20 -86q21 -34 54 -34q60 0 60 82
q0 42 -21 67t-58 25q-24 0 -52 -15z" />
    <glyph glyph-name="uni2077" unicode="&#x2077;" horiz-adv-x="341" 
d="M301 746l-167 -347l-55 -5l-6 9q75 113 173 298h-131q-23 0 -31 -8q-7 -6 -18 -33h-25q9 52 14 93h242z" />
    <glyph glyph-name="uni2078" unicode="&#x2078;" horiz-adv-x="341" 
d="M252 735q31 -25 31 -60q0 -29 -19 -49q-24 -20 -42 -32q77 -37 77 -96q0 -49 -43 -78q-39 -26 -89 -26q-53 0 -87 26q-37 27 -37 71q0 30 27 57q21 17 48 31q-63 30 -63 84q1 40 34 68q34 29 87 29q45 0 76 -25zM127 718q-14 -14 -14 -35q0 -44 85 -77q31 20 31 63
q0 30 -19 49q-18 16 -42 16q-25 0 -41 -16zM219 436q19 17 19 45q0 46 -97 86q-41 -22 -41 -72q0 -32 23 -53q22 -21 51 -21q27 0 45 15z" />
    <glyph glyph-name="uni2079" unicode="&#x2079;" horiz-adv-x="341" 
d="M267 717q34 -41 34 -106q0 -142 -147 -199q-46 -19 -98 -19l-4 23q146 26 177 142l-41 -19q-21 -9 -36 -9q-51 0 -83 31q-31 30 -31 75q0 47 35 83q39 41 100 41q58 0 94 -43zM119 709q-15 -22 -15 -54q0 -36 20 -59q21 -25 55 -25q32 0 51 14q2 11 2 35q0 113 -71 113
q-26 0 -42 -24z" />
    <glyph glyph-name="uniF6E8" unicode="&#xf6e8;" horiz-adv-x="178" 
d="M52 406q-14 15 -14 38q0 22 15 37q14 15 35 15q22 0 37 -15q14 -15 14 -37q0 -52 -52 -52q-21 0 -35 14z" />
    <glyph glyph-name="uniF6E2" unicode="&#xf6e2;" horiz-adv-x="177" 
d="M121 490q26 -26 26 -64q0 -83 -111 -112l-9 25q65 26 65 66t-48 50q-14 2 -14 25q0 33 40 33q27 0 51 -23z" />
    <glyph glyph-name="uniF6E4" unicode="&#xf6e4;" horiz-adv-x="341" 
d="M208 607q104 -31 104 -100q0 -46 -35 -75q-34 -29 -89 -34v-57h-30v55q-64 1 -107 29q-9 28 -20 92l23 5q29 -86 104 -96v130l-18 6q-95 28 -95 97q0 40 29 67q30 28 84 33v50h30v-48q28 0 88 -16q12 -51 17 -85l-24 -5q-25 71 -81 78v-120zM158 733q-61 -6 -61 -54
q0 -43 61 -58v112zM188 426q65 4 65 57q0 46 -65 66v-123z" />
    <glyph glyph-name="uniF6E0" unicode="&#xf6e0;" horiz-adv-x="341" 
d="M310 498q-41 -55 -103 -64v-66h-30v64q-66 2 -107 44q-38 38 -38 94q0 78 64 123q39 28 81 35v56h30v-53q3 1 10 1q42 0 73 -17q8 -8 8 -20q0 -11 -8 -21q-9 -9 -18 -9q-6 0 -12 6q-30 25 -53 28v-221q48 2 91 39zM177 700q-29 -1 -53 -24q-29 -29 -29 -80q0 -95 82 -115
v219z" />
    <glyph glyph-name="uniF6E6" unicode="&#xf6e6;" horiz-adv-x="259" 
d="M37 539v50h186v-50h-186z" />
    <glyph glyph-name="uni207D" unicode="&#x207d;" horiz-adv-x="245" 
d="M193 285q-149 88 -149 275v1q0 184 149 274l15 -20q-97 -84 -97 -255t97 -256z" />
    <glyph glyph-name="uni207E" unicode="&#x207e;" horiz-adv-x="245" 
d="M51 285l-15 19q97 85 97 256t-97 255l15 20q149 -87 149 -276q0 -184 -149 -274z" />
    <glyph glyph-name="uni2080" unicode="&#x2080;" horiz-adv-x="341" 
d="M277 196q30 -51 30 -124t-31 -123q-37 -60 -106 -60q-70 0 -106 60q-30 50 -30 123q0 74 30 124q36 60 107 60q69 0 106 -60zM106 72q0 -154 65 -154q64 0 64 154q0 155 -65 155q-64 0 -64 -155z" />
    <glyph glyph-name="uni2081" unicode="&#x2081;" horiz-adv-x="341" 
d="M76 -103v23q42 3 53 13q13 10 13 46v178q0 29 -6 36t-31 9l-30 1v23q61 7 133 30v-277q0 -35 12 -46q11 -8 53 -13v-23h-197z" />
    <glyph glyph-name="uni2082" unicode="&#x2082;" horiz-adv-x="341" 
d="M306 -14q-13 -44 -23 -89h-243v22q171 140 171 213t-67 73q-44 0 -85 -55l-17 18l32 43q36 45 97 45q45 0 76 -28q34 -30 34 -79q0 -58 -106 -151l-52 -47v-2h91q30 0 42 7q13 8 28 37z" />
    <glyph glyph-name="uni2083" unicode="&#x2083;" horiz-adv-x="341" 
d="M206 107q87 -16 87 -83q0 -61 -68 -101q-54 -33 -99 -33q-44 0 -69 21q-15 12 -10 28t17 23q10 7 21 -1q44 -32 76 -32q64 0 64 74q0 67 -77 67q-20 0 -41 -7l-6 25q99 31 99 78q0 46 -52 46q-43 0 -75 -50l-16 16l29 41q32 36 86 36h1q43 0 69 -22t26 -54q0 -25 -19 -41
q-32 -23 -43 -29v-2z" />
    <glyph glyph-name="uni2084" unicode="&#x2084;" horiz-adv-x="341" 
d="M252 -5v-28q0 -29 11 -37q9 -7 44 -10v-23h-180v23q42 3 52 10q12 8 12 37v28h-162v23q105 143 184 238h39v-223h59v-38h-59zM191 181h-3q-51 -65 -108 -148h111v148z" />
    <glyph glyph-name="uni2085" unicode="&#x2085;" horiz-adv-x="341" 
d="M100 105q47 17 72 17q57 0 91 -29q30 -27 30 -66q0 -53 -57 -97q-56 -40 -110 -40q-41 0 -69 21q-12 11 -9 27q5 14 18 24q11 7 22 -2q39 -31 75 -31q64 0 64 73q0 33 -24 54q-26 23 -70 23q-34 0 -69 -11l27 180h185l-12 -52h-147z" />
    <glyph glyph-name="uni2086" unicode="&#x2086;" horiz-adv-x="341" 
d="M147 118q24 11 40 11q56 0 88 -32q30 -30 30 -80q0 -53 -38 -90q-39 -38 -97 -38q-57 0 -95 38q-40 41 -40 107q0 80 53 138q44 48 108 67q19 6 87 19l6 -26q-39 -7 -72 -22q-83 -37 -103 -108zM108 75q-3 -15 -3 -39q0 -53 20 -86q21 -34 54 -34q60 0 60 82q0 42 -21 67
t-58 25q-24 0 -52 -15z" />
    <glyph glyph-name="uni2087" unicode="&#x2087;" horiz-adv-x="341" 
d="M301 241l-167 -347l-55 -5l-6 9q75 113 173 298h-131q-23 0 -31 -8q-7 -6 -18 -33h-25q9 52 14 93h242z" />
    <glyph glyph-name="uni2088" unicode="&#x2088;" horiz-adv-x="341" 
d="M252 230q31 -25 31 -60q0 -27 -19 -49q-20 -17 -42 -31q77 -41 77 -97q0 -48 -44 -78q-38 -26 -88 -26q-53 0 -88 26q-36 27 -36 71q0 32 27 57q14 12 47 31q-62 33 -62 84q0 40 33 68q34 29 88 29q45 0 76 -25zM112 178q0 -44 86 -77q30 20 31 63q0 30 -20 49
q-17 16 -41 16q-54 0 -56 -51zM219 -68q19 17 19 45q0 44 -97 86q-41 -24 -41 -72q0 -32 23 -53q22 -21 51 -21q27 0 45 15z" />
    <glyph glyph-name="uni2089" unicode="&#x2089;" horiz-adv-x="341" 
d="M267 212q34 -41 34 -106q0 -142 -147 -199q-46 -19 -98 -19l-4 23q146 26 177 142l-41 -19q-21 -9 -36 -9q-51 0 -83 31q-31 30 -31 75q0 47 35 83q39 41 100 41q58 0 94 -43zM119 204q-15 -22 -15 -54q0 -36 20 -59q21 -25 55 -25q32 0 51 14q2 11 2 35q0 113 -71 113
q-26 0 -42 -24z" />
    <glyph glyph-name="uniF6E7" unicode="&#xf6e7;" horiz-adv-x="178" 
d="M52 -99q-14 15 -14 38q0 22 15 37q14 15 35 15q22 0 37 -15q14 -15 14 -37q0 -52 -52 -52q-21 0 -35 14z" />
    <glyph glyph-name="uniF6E1" unicode="&#xf6e1;" horiz-adv-x="177" 
d="M121 -15q26 -26 26 -64q0 -83 -111 -112l-9 25q65 26 65 66t-48 50q-14 2 -14 25q0 33 40 33q27 0 51 -23z" />
    <glyph glyph-name="uniF6E3" unicode="&#xf6e3;" horiz-adv-x="341" 
d="M208 102q104 -31 104 -100q0 -46 -35 -75q-34 -29 -89 -34v-57h-30v55q-64 1 -107 29q-9 28 -20 92l23 5q29 -86 104 -96v130l-18 6q-95 28 -95 97q0 40 29 67q30 28 84 33v50h30v-48q28 0 88 -16q11 -45 17 -84l-24 -6q-25 71 -81 78v-120zM158 228q-61 -6 -61 -54
q0 -43 61 -58v112zM188 -79q65 4 65 57q0 46 -65 66v-123z" />
    <glyph glyph-name="uniF6DF" unicode="&#xf6df;" horiz-adv-x="341" 
d="M310 -7q-41 -55 -103 -64v-66h-30v64q-66 2 -107 44q-38 38 -38 94q0 78 64 123q39 28 81 35l-1 56h30v-53q3 1 10 1q42 0 73 -17q8 -8 8 -20q0 -11 -8 -21q-9 -9 -18 -9q-6 0 -12 6q-30 25 -53 28v-221q50 2 91 39zM177 195q-29 -1 -53 -24q-29 -29 -29 -80
q0 -95 82 -115v219z" />
    <glyph glyph-name="uniF6E5" unicode="&#xf6e5;" horiz-adv-x="259" 
d="M37 34v50h186v-50h-186z" />
    <glyph glyph-name="uni208D" unicode="&#x208d;" horiz-adv-x="245" 
d="M193 -220q-149 88 -149 275v1q0 184 149 274l15 -20q-97 -84 -97 -255t97 -256z" />
    <glyph glyph-name="uni208E" unicode="&#x208e;" horiz-adv-x="245" 
d="M51 -220l-15 19q97 85 97 256t-97 255l15 20q149 -87 149 -276q0 -184 -149 -274z" />
    <glyph glyph-name="uniF661" unicode="&#xf661;" horiz-adv-x="341" 
d="M277 575q30 -51 30 -123q0 -73 -31 -123q-37 -60 -106 -60q-70 0 -106 60q-30 50 -30 123t30 123q36 60 107 60q69 0 106 -60zM106 452q0 -154 65 -154q64 0 64 154t-65 154q-64 0 -64 -154z" />
    <glyph glyph-name="uniF662" unicode="&#xf662;" horiz-adv-x="341" 
d="M76 277v23q42 3 53 13q13 10 13 46v178q0 29 -6 36t-31 9l-30 1v23q65 7 133 29v-276q0 -35 12 -46q11 -8 53 -13v-23h-197z" />
    <glyph glyph-name="uniF663" unicode="&#xf663;" horiz-adv-x="341" 
d="M306 366q-13 -44 -23 -89h-243v22q171 140 171 213t-67 73q-44 0 -85 -55l-17 18l32 43q36 45 97 45q45 0 76 -28q34 -30 34 -79q0 -58 -106 -151l-52 -47v-2h91q30 0 42 7q13 8 28 37z" />
    <glyph glyph-name="uniF664" unicode="&#xf664;" horiz-adv-x="341" 
d="M206 487q87 -16 87 -84q0 -61 -68 -101q-55 -33 -100 -33q-40 0 -68 21q-16 13 -11 28q4 14 18 24q9 8 21 -1q40 -33 76 -33q64 0 64 74q0 33 -24 52q-22 16 -53 16q-12 0 -42 -7l-6 24q99 31 99 78q0 46 -52 46q-43 0 -75 -50l-16 16l29 41q33 37 86 37h1q42 0 69 -23
q26 -22 26 -54q0 -25 -19 -41q-27 -20 -42 -28v-2z" />
    <glyph glyph-name="uniF665" unicode="&#xf665;" horiz-adv-x="341" 
d="M252 375v-28q0 -29 11 -37q9 -7 44 -10v-23h-180v23q42 3 52 10q12 8 12 37v28h-162v24q119 158 184 236h39v-222h59v-38h-59zM191 561h-3q-51 -65 -108 -148h111v148z" />
    <glyph glyph-name="uniF666" unicode="&#xf666;" horiz-adv-x="341" 
d="M100 485q47 17 72 17q57 0 91 -29q30 -27 30 -66q0 -53 -57 -97q-56 -40 -110 -40q-41 0 -69 21q-12 11 -9 27q5 14 18 24q11 7 22 -2q39 -31 75 -31q64 0 64 73q0 33 -24 54q-26 23 -70 23q-34 0 -69 -11l27 180h185l-12 -52h-147z" />
    <glyph glyph-name="uniF667" unicode="&#xf667;" horiz-adv-x="341" 
d="M147 498q24 11 40 11q56 0 88 -32q30 -30 30 -80q0 -53 -38 -90q-39 -38 -97 -38q-57 0 -95 38q-40 41 -40 107q0 80 53 138q44 48 108 67q19 6 87 19l6 -26q-39 -7 -72 -22q-83 -37 -103 -108zM108 455q-3 -15 -3 -39q0 -53 20 -86q21 -34 54 -34q60 0 60 82
q0 42 -21 67t-58 25q-24 0 -52 -15z" />
    <glyph glyph-name="uniF668" unicode="&#xf668;" horiz-adv-x="341" 
d="M301 621l-167 -347l-55 -5l-6 10q75 111 173 297h-131q-23 0 -31 -8q-7 -6 -18 -33h-25q9 52 14 93h242z" />
    <glyph glyph-name="uniF669" unicode="&#xf669;" horiz-adv-x="341" 
d="M252 610q31 -25 31 -60q0 -29 -19 -48q-15 -15 -42 -32q77 -40 77 -96q0 -49 -43 -78q-39 -26 -89 -26q-53 0 -87 26q-37 27 -37 71q0 29 27 56q18 16 48 32q-63 30 -63 83q1 40 34 68q34 29 87 29q45 0 76 -25zM127 593q-14 -14 -14 -35q0 -44 85 -77q31 20 31 63
q0 30 -19 49q-18 16 -42 16q-25 0 -41 -16zM219 312q19 17 19 45q0 44 -97 86q-41 -24 -41 -72q0 -32 23 -53q22 -21 50 -21t46 15z" />
    <glyph glyph-name="uniF66A" unicode="&#xf66a;" horiz-adv-x="341" 
d="M267 592q34 -41 34 -106q0 -142 -147 -199q-46 -19 -98 -19l-4 23q146 26 177 142l-41 -19q-21 -9 -36 -9q-51 0 -83 31q-31 30 -31 74q0 47 35 84q39 41 100 41q58 0 94 -43zM119 584q-15 -22 -15 -55q0 -36 20 -59q21 -24 55 -24q31 0 51 13q2 11 2 35q0 114 -71 114
q-26 0 -42 -24z" />
    <glyph glyph-name="uniF66C" unicode="&#xf66c;" horiz-adv-x="178" 
d="M52 281q-14 15 -14 38q0 22 15 37q14 15 35 15q22 0 37 -15q14 -15 14 -37q0 -52 -52 -52q-21 0 -35 14z" />
    <glyph glyph-name="uniF66B" unicode="&#xf66b;" horiz-adv-x="177" 
d="M121 365q26 -26 26 -64q0 -83 -111 -112l-9 25q65 26 65 66t-48 50q-14 2 -14 25q0 33 40 33q27 0 51 -23z" />
    <glyph glyph-name="uniF62F" unicode="&#xf62f;" horiz-adv-x="341" 
d="M208 482q104 -33 104 -101q0 -45 -35 -75q-35 -28 -89 -33v-57h-30v55q-64 1 -107 29q-9 28 -20 92l23 4q30 -87 104 -95v130l-18 5q-95 30 -95 98q0 40 29 67q30 28 84 33v50h30v-48q35 -2 88 -16q12 -51 17 -85l-24 -5q-25 71 -81 78v-120zM158 608q-61 -6 -61 -54
q0 -43 61 -58v112zM188 301q65 4 65 57q0 46 -65 66v-123z" />
    <glyph glyph-name="uniF62E" unicode="&#xf62e;" horiz-adv-x="341" 
d="M310 373q-41 -55 -103 -64v-66h-30v64q-66 2 -107 44q-38 38 -38 94q0 76 64 123q39 28 81 35v57h30v-54q3 1 10 1q42 0 73 -17q8 -8 8 -20q0 -11 -8 -21q-9 -9 -18 -9q-6 0 -12 6q-30 25 -53 28v-221q48 2 91 39zM177 576q-29 -1 -53 -24q-29 -29 -29 -81q0 -95 82 -115
v220z" />
    <glyph glyph-name="uniF630" unicode="&#xf630;" horiz-adv-x="259" 
d="M37 414v50h186v-50h-186z" />
    <glyph glyph-name="uniF631" unicode="&#xf631;" horiz-adv-x="245" 
d="M193 160q-149 88 -149 275v1q0 184 149 274l15 -20q-97 -84 -97 -255t97 -256z" />
    <glyph glyph-name="uniF632" unicode="&#xf632;" horiz-adv-x="245" 
d="M51 160l-15 19q97 85 97 256t-97 255l15 20q149 -87 149 -276q0 -184 -149 -274z" />
    <glyph glyph-name="uniF655" unicode="&#xf655;" horiz-adv-x="341" 
d="M277 299q30 -51 30 -124t-31 -123q-37 -60 -106 -60q-70 0 -106 60q-30 50 -30 123q0 74 30 124q36 60 107 60q69 0 106 -60zM106 175q0 -154 65 -154q64 0 64 154q0 155 -65 155q-64 0 -64 -155z" />
    <glyph glyph-name="uniF656" unicode="&#xf656;" horiz-adv-x="341" 
d="M76 0v23q42 4 53 13q13 10 13 46v178q0 29 -6 36t-31 9l-30 1v23q61 7 133 30v-277q0 -35 12 -46q11 -8 53 -13v-23h-197z" />
    <glyph glyph-name="uniF657" unicode="&#xf657;" horiz-adv-x="341" 
d="M306 89q-12 -40 -23 -89h-243v22q171 140 171 213t-67 73q-44 0 -85 -55l-17 18l32 43q36 45 97 45q45 0 76 -28q34 -30 34 -79q0 -58 -106 -151l-52 -47v-2h91q30 0 42 7q13 8 28 37z" />
    <glyph glyph-name="uniF658" unicode="&#xf658;" horiz-adv-x="341" 
d="M206 211q87 -16 87 -84q0 -61 -68 -101q-55 -33 -100 -33q-43 0 -68 21q-16 13 -11 28t18 23q9 8 21 -1q42 -32 76 -32q64 -2 64 74q0 33 -24 51q-22 16 -54 16q-20 0 -41 -7l-6 25q99 33 99 79q0 45 -52 45q-43 0 -75 -50l-16 17l29 40q33 37 86 37h1q42 0 69 -23
q26 -22 26 -54q0 -25 -18 -41q-27 -19 -43 -28v-2z" />
    <glyph glyph-name="uniF659" unicode="&#xf659;" horiz-adv-x="341" 
d="M252 98v-28q0 -29 11 -37q9 -8 44 -10v-23h-180v23q42 3 52 10q12 8 12 37v28h-162v24q112 149 184 237h39v-223h59v-38h-59zM191 285h-3q-46 -59 -108 -149h111v149z" />
    <glyph glyph-name="uniF65A" unicode="&#xf65a;" horiz-adv-x="341" 
d="M100 208q47 17 72 17q57 0 91 -29q30 -27 30 -66q0 -54 -57 -97q-55 -41 -110 -41q-41 0 -69 21q-12 11 -9 28q5 13 18 23q11 7 22 -1q37 -32 75 -32q64 0 64 73q0 34 -24 55q-26 23 -70 23q-34 0 -69 -11l27 181h185l-12 -52h-147z" />
    <glyph glyph-name="uniF65B" unicode="&#xf65b;" horiz-adv-x="341" 
d="M147 221q24 11 40 11q56 0 88 -32q30 -30 30 -80q0 -53 -38 -90q-39 -38 -97 -38q-57 0 -95 38q-40 41 -40 107q0 80 53 138q44 48 108 67q19 6 87 19l6 -26q-39 -7 -72 -22q-83 -37 -103 -108zM108 178q-3 -15 -3 -39q0 -53 20 -86q21 -34 54 -34q60 0 60 82
q0 42 -21 67t-58 25q-24 0 -52 -15z" />
    <glyph glyph-name="uniF65C" unicode="&#xf65c;" horiz-adv-x="341" 
d="M301 345l-167 -347l-55 -5l-6 9q75 113 173 298h-131q-23 0 -31 -8q-7 -6 -18 -33h-25q9 52 14 93h242z" />
    <glyph glyph-name="uniF65D" unicode="&#xf65d;" horiz-adv-x="341" 
d="M252 334q31 -26 31 -61q0 -28 -19 -48q-9 -9 -42 -32q77 -41 77 -96q0 -49 -44 -78q-38 -26 -88 -26q-53 0 -87 26q-37 26 -37 70q0 30 27 57q18 14 48 32q-63 30 -63 84q1 40 34 68q34 29 87 29q45 0 76 -25zM167 333q-24 0 -40 -16q-14 -15 -14 -36q0 -43 85 -76
q31 20 31 63q0 30 -19 49q-17 16 -41 16h-2zM238 80q-1 45 -97 86q-41 -24 -41 -72q0 -32 23 -53q21 -21 50 -21q63 0 65 60z" />
    <glyph glyph-name="uniF65E" unicode="&#xf65e;" horiz-adv-x="341" 
d="M267 316q34 -41 34 -107q0 -142 -147 -199q-46 -19 -98 -19l-4 23q146 26 177 142l-41 -19q-21 -9 -36 -9q-51 0 -83 31q-31 30 -31 75q0 47 35 84q39 41 100 41q58 0 94 -43zM119 308q-15 -22 -15 -55q0 -36 20 -59q21 -25 55 -25q32 0 51 14q2 11 2 35q0 114 -71 114
q-26 0 -42 -24z" />
    <glyph glyph-name="uniF660" unicode="&#xf660;" horiz-adv-x="178" 
d="M52 4q-14 15 -14 38q0 22 15 37q14 15 35 15q22 0 37 -15q14 -15 14 -37q0 -52 -52 -52q-21 0 -35 14z" />
    <glyph glyph-name="uniF65F" unicode="&#xf65f;" horiz-adv-x="177" 
d="M121 88q26 -26 26 -64q0 -83 -111 -112l-9 25q65 26 65 66t-48 50q-14 2 -14 25q0 33 40 33q27 0 51 -23z" />
    <glyph glyph-name="uniF62A" unicode="&#xf62a;" horiz-adv-x="341" 
d="M208 205q104 -31 104 -100q0 -46 -35 -75q-34 -29 -89 -34v-57h-30v55q-64 1 -107 29q-9 28 -20 92l23 5q29 -86 104 -96v130l-18 6q-95 28 -95 97q0 40 29 67q30 28 84 33l1 51h29v-49q33 0 88 -16q9 -31 17 -84l-23 -5q-25 70 -82 77v-119zM158 331q-61 -6 -61 -54
q0 -43 61 -58v112zM188 24q65 4 65 57q0 46 -65 66v-123z" />
    <glyph glyph-name="uniF629" unicode="&#xf629;" horiz-adv-x="341" 
d="M310 96q-41 -55 -103 -64v-66h-30v64q-66 2 -107 44q-38 38 -38 94q0 78 64 123q39 28 81 35l-1 56h30v-53q3 1 10 1q42 0 73 -17q8 -8 8 -20q0 -11 -8 -21q-9 -9 -18 -9q-6 0 -12 6q-30 25 -53 28v-221q49 2 91 38zM177 298q-29 -1 -53 -24q-29 -29 -29 -80
q0 -95 82 -115v219z" />
    <glyph glyph-name="uniF62B" unicode="&#xf62b;" horiz-adv-x="259" 
d="M37 138v50h186v-50h-186z" />
    <glyph glyph-name="uniF62C" unicode="&#xf62c;" horiz-adv-x="245" 
d="M193 -117q-149 88 -149 275v1q0 184 149 274l15 -20q-97 -84 -97 -255t97 -256z" />
    <glyph glyph-name="uniF62D" unicode="&#xf62d;" horiz-adv-x="245" 
d="M51 -117l-15 19q97 85 97 256t-97 255l15 20q149 -87 149 -276q0 -184 -149 -274z" />
    <glyph glyph-name="uni25B7" unicode="&#x25b7;" horiz-adv-x="606" 
d="M131 110l311 150l-312 145zM75 26q2 465 1 465l487 -230v-2l-486 -235z" />
    <glyph glyph-name="uni25C0" unicode="&#x25c0;" horiz-adv-x="606" 
d="M531 488q-2 -465 0 -465h-2l-486 229v2l486 236z" />
    <glyph glyph-name="uni25C1" unicode="&#x25c1;" horiz-adv-x="606" 
d="M476 405l-312 -150l312 -145v295zM531 489q-2 -465 0 -465h-2l-485 229v2l485 236z" />
    <glyph glyph-name="uni25C9" unicode="&#x25c9;" horiz-adv-x="454" 
d="M358 395q53 -54 53 -132t-53 -132q-53 -55 -130 -55q-78 0 -132 55q-53 54 -53 132t53 133q54 54 133 54q76 0 129 -55zM137 358q-35 -39 -35 -95q0 -57 35 -96q36 -40 91 -40q54 0 89 41q35 39 35 95t-35 95q-36 41 -90 41t-90 -41zM178 315q-19 -21 -19 -52t19 -52
q20 -22 50 -22q29 0 48 22t19 52t-19 52q-20 22 -49 22t-49 -22z" />
    <glyph glyph-name="uni25C6" unicode="&#x25c6;" horiz-adv-x="469" 
d="M232 454l202 -205l-197 -199l-202 205z" />
    <glyph glyph-name="filledbox" unicode="&#x25a0;" horiz-adv-x="407" 
d="M345 398v-291h-284v291h284z" />
    <glyph glyph-name="uniE05C" unicode="&#xe05c;" horiz-adv-x="563" 
d="M293 650q113 0 169 -42q64 -48 64 -141q0 -90 -61 -146q-52 -48 -134 -58q-23 -3 -45 -1l-74 19v-157q0 -63 16 -78q15 -13 83 -18v-28h-271v28q60 5 74 20t14 77v400q0 65 -13 80q-12 13 -69 17v28h247zM212 314q31 -12 73 -12q59 0 97 33q48 43 48 129q0 77 -45 118
q-40 36 -106 36q-44 0 -56 -12q-11 -10 -11 -47v-245zM-100 548q50 24 50 55q0 40 -54 40q-12 0 -12 24q0 15 12 26q13 11 32 11q28 0 51 -22q25 -25 25 -62q0 -77 -94 -98z" />
    <glyph glyph-name="uniE0F8" unicode="&#xe0f8;" horiz-adv-x="691" 
d="M428 0v28q47 6 58 16t1 39l-55 154h-213q-31 -88 -44 -129q-16 -47 -5 -61t68 -19v-28h-218v28q50 7 67 22q20 18 45 82l207 524l31 9l96 -267l97 -269q23 -63 42 -80q18 -16 68 -21v-28h-245zM330 535h-2l-94 -255h184zM440 -157q-27 -29 -69 -29q-33 0 -54 21t-21 57
q0 28 16 62l57 21l8 -7q-9 -27 -9 -51q0 -53 38 -53q13 0 25 3z" />
    <glyph glyph-name="uniE0E0" unicode="&#xe0e0;" horiz-adv-x="691" 
d="M428 0v28q47 6 58 16t1 39l-55 154h-214q-24 -67 -43 -129q-16 -47 -5 -61t67 -19v-28h-217v28q50 7 67 22q20 17 45 82l207 524l31 9l96 -267l97 -269q23 -63 42 -80q18 -16 68 -21v-28h-245zM330 535h-2l-94 -255h184zM440 -157q-25 -29 -68 -29q-34 0 -54 21
q-21 21 -21 58q0 25 15 61l57 21l8 -7q-9 -27 -9 -51q0 -53 38 -53q13 0 25 3zM99 545q50 24 50 55q0 40 -54 40q-12 0 -12 24q0 15 12 26q13 11 32 11q28 0 51 -22q25 -25 25 -62q0 -77 -94 -98z" />
    <glyph glyph-name="uniE0E1" unicode="&#xe0e1;" horiz-adv-x="691" 
d="M428 0v28q47 6 58 16t1 39l-55 154h-213q-31 -88 -44 -129q-16 -47 -5 -61t68 -19v-28h-218v28q50 7 67 22q20 17 45 82l207 524l31 8l96 -266l97 -269q23 -63 42 -80q18 -16 68 -21v-28h-245zM330 535h-2l-94 -255h184zM440 -157q-25 -29 -68 -29q-34 0 -54 21
q-21 21 -21 58q0 25 15 61l57 21l8 -7q-9 -27 -9 -51q0 -53 38 -53q13 0 25 3zM175 523q-94 21 -94 99q0 37 26 62q23 22 50 22q44 0 44 -37q0 -25 -12 -25q-54 2 -54 -39q0 -29 51 -53z" />
    <glyph glyph-name="uniE0E2" unicode="&#xe0e2;" horiz-adv-x="691" 
d="M428 0v28q47 6 58 16t1 39l-55 154h-213q-31 -88 -44 -129q-16 -47 -5 -61t68 -19v-28h-218v28q49 7 67 22q20 18 45 82l207 524l31 9l96 -267l97 -269q23 -63 42 -80q18 -16 68 -21v-28h-245zM330 535h-2l-94 -255h184zM440 -157q-25 -29 -68 -29q-34 0 -54 21
q-21 21 -21 58q0 25 15 61l57 21l8 -7q-9 -27 -9 -51q0 -53 38 -53q13 0 25 3zM177 524q-61 134 -76 162l2 8q36 18 74 12q20 -118 29 -177zM-25 550q50 24 50 54q0 42 -53 40q-12 0 -12 25q0 37 43 37q28 0 50 -22q25 -25 25 -62q0 -44 -35 -71q-25 -21 -58 -27z" />
    <glyph glyph-name="uniE0E3" unicode="&#xe0e3;" horiz-adv-x="691" 
d="M428 0v28q47 6 58 16t1 39l-55 154h-213q-31 -88 -44 -129q-16 -47 -5 -61q10 -14 67 -19v-28h-218v28q50 7 67 22q21 18 46 82l207 524l31 9l96 -267l97 -269q23 -63 42 -80q18 -16 68 -21v-28h-245zM330 535h-2l-94 -255h184zM440 -157q-25 -29 -68 -29q-34 0 -54 21
q-21 21 -21 58q0 25 15 61l57 21l8 -7q-9 -27 -9 -51q0 -53 38 -53q13 0 25 3zM178 523q-52 111 -78 162l2 8q34 15 74 12l32 -177zM43 523q-92 21 -92 99q0 37 25 61q23 22 50 22q43 0 43 -36q0 -25 -12 -25q-53 2 -53 -40q0 -28 50 -51z" />
    <glyph glyph-name="uniE0E4" unicode="&#xe0e4;" horiz-adv-x="691" 
d="M428 0v28q47 6 58 16t1 39l-55 154h-213q-31 -88 -44 -129q-16 -47 -5 -61t68 -19v-28h-218v28q49 7 67 22q20 18 45 82l207 524l31 9l193 -536q23 -63 42 -80q18 -16 68 -21v-28h-245zM330 535h-2l-94 -255h184zM440 -157q-25 -29 -68 -29q-34 0 -54 21q-21 21 -21 57
q0 26 15 62l57 21l8 -7q-9 -36 -9 -51q0 -53 38 -53q13 0 25 3zM142 523l-29 6q30 88 50 165q31 17 77 12l3 -9zM-16 549q50 23 50 56q0 41 -53 39q-12 0 -12 26q0 36 44 36q27 0 50 -22q25 -25 25 -62q0 -78 -93 -99z" />
    <glyph glyph-name="uni2767" unicode="&#x2767;" horiz-adv-x="1058" 
d="M224 478q14 71 77 71q31 0 52 -19q23 -21 23 -55q0 -41 -38 -92q-12 -14 -32 -35q86 -72 171 -76q-17 33 -17 67q0 69 56 112q50 37 115 37q99 0 140 -68q28 -47 28 -148q0 -91 19 -129q18 -36 53 -36q22 0 38 14t16 35q0 44 -31 66q-12 7 -4 16q14 18 39 18q27 0 47 -21
q22 -23 22 -58q0 -53 -48 -82q-40 -25 -92 -25q-25 0 -111 -47q-120 -62 -200 -62q-82 0 -138 59q-48 49 -48 100q0 79 82 113v2q-94 27 -160 83l-50 -53q38 -12 38 -53q0 -29 -38 -82q-40 -57 -40 -104q0 -44 27 -65q8 -5 7 -11t-9 -5q-120 13 -120 129q0 23 11 59
q3 13 -10 13q-17 0 -28 -13q-10 -7 -10 6q0 53 45 93q39 36 80 38q44 39 71 70q-88 81 -88 196q0 75 43 124q37 42 80 42q38 0 44 -38q11 -7 15 -18q0 1 -11 -21q-7 16 -35 16q-29 0 -55 -26q-33 -34 -33 -92q0 -30 5 -45h2zM291 511q-50 0 -50 -86q13 -29 40 -56
q44 48 44 96q0 46 -34 46z" />
    <glyph glyph-name="uni2766" unicode="&#x2766;" horiz-adv-x="813" 
d="M697 634q14 -18 14 -40q0 -66 23 -66q10 0 20 8q6 2 10 -2t0 -12q-16 -38 -62 -38q-29 0 -46 24q-13 16 -15 56q-3 42 -44 42t-112 -34l-43 -93q-31 -71 -32 -106q-2 0 9 -4q6 -2 14 5q56 56 107 56q50 0 96 -40q51 -46 51 -112q0 -76 -45 -132q-32 -38 -111 -91
q-68 -44 -129 -172q-50 -106 -125 -106q-34 0 -61 24q-27 25 -27 59q0 25 16 49q19 25 24 -2q3 -17 22 -35q23 -22 54 -22q64 0 64 73q0 44 -27 71q-26 25 -111 68q-156 78 -156 173q0 57 31 109q46 79 125 79q29 0 67 -22q10 -6 31 -22q16 -12 21 -13q13 -2 14 7
q7 55 43 123l31 57q-23 -9 -52 -22q-144 -59 -225 -59q-47 0 -77 24q-33 25 -33 66q0 39 28 64q23 20 43 20q19 11 35 11q10 0 22 -6q3 -4 2 -10q-1 -7 -9 -8q-37 -5 -37 -46q0 -28 20 -46q21 -18 52 -18q60 0 129 25q13 5 33 14q-34 21 -34 58q0 33 24 56q26 25 65 25
q42 0 61 -31q16 -26 10 -59l31 13q78 34 114 34q37 0 57 -24zM402 575q31 7 47 18q4 16 4 23q0 46 -39 46q-38 0 -38 -42q0 -36 26 -45z" />
    <glyph glyph-name="uniE0E5" unicode="&#xe0e5;" horiz-adv-x="691" 
d="M428 0v28q47 6 58 16t1 39l-55 154h-213q-31 -88 -44 -129q-16 -47 -5 -61t68 -19v-28h-219v28q50 7 67 22q21 18 46 82l207 523l31 9l96 -266l97 -269q23 -63 42 -80q18 -16 68 -21v-28h-245zM330 534h-2q-16 -41 -47 -128l-47 -126h184zM440 -157q-25 -29 -68 -29
q-34 0 -54 21q-21 21 -21 57q0 26 15 62l57 21l8 -7q-9 -36 -9 -51q0 -53 38 -53q13 0 25 3zM135 509l-29 6q27 83 48 165q28 21 78 12l3 -8zM50 509q-93 18 -93 99q0 37 25 61q23 22 50 22q44 0 44 -36q0 -25 -13 -25q-53 2 -53 -40q0 -28 50 -52z" />
    <glyph glyph-name="uniE0E6" unicode="&#xe0e6;" horiz-adv-x="691" 
d="M428 0v28q47 6 58 16t1 39l-55 154h-213l-45 -129q-16 -47 -4 -61q10 -14 67 -19v-28h-217v28q50 7 67 22q20 17 45 82l207 524l31 8l96 -266l97 -269q23 -63 42 -80q18 -16 68 -21v-28h-245zM330 534h-2q-16 -41 -47 -128l-47 -126h184zM440 -157q-25 -29 -68 -29
q-34 0 -54 21q-21 21 -21 57q0 26 15 62l57 21l8 -7q-9 -36 -9 -51q0 -53 38 -53q13 0 25 3zM130 720q34 -17 47 -17q20 0 44 44l22 -17q-30 -83 -74 -83q-17 0 -61 22q-28 14 -40 14q-20 0 -41 -47l-25 15q29 87 77 87q15 0 51 -18zM83 516q41 9 41 33q0 30 -44 34
q-8 0 -8 16q0 31 41 31q24 0 44 -16q22 -19 22 -49q0 -67 -89 -76z" />
    <glyph glyph-name="uniE0E7" unicode="&#xe0e7;" horiz-adv-x="691" 
d="M428 0v28q47 6 58 16t1 39l-55 154h-213l-44 -129q-16 -47 -5 -61t68 -19v-28h-218v28q50 7 67 22q20 18 45 82l207 524l31 8l96 -266l97 -269q23 -63 42 -80q18 -16 68 -21v-28h-245zM330 534h-2q-3 -7 -93 -254h183zM440 -157q-25 -29 -68 -29q-34 0 -54 21
q-21 21 -21 58q0 25 15 61l57 21l8 -7q-9 -27 -9 -51q0 -53 38 -53q13 0 25 3zM96 742q15 0 52 -19q34 -17 46 -17q21 0 45 45l22 -17q-29 -84 -75 -84q-17 0 -61 22q-28 14 -38 14q-22 0 -42 -46l-25 14q29 88 74 88h2zM165 492q-88 10 -88 76q0 30 23 49q20 17 44 17
q41 0 41 -31q0 -17 -8 -17q-44 -4 -44 -32q0 -21 39 -34z" />
    <glyph glyph-name="uniE0F9" unicode="&#xe0f9;" horiz-adv-x="766" 
d="M729 622q-62 -5 -76 -19q-14 -15 -14 -76v-404q0 -62 14 -77q13 -13 75 -18v-28h-268v28q65 5 79 18q15 15 15 77v199h-341v-199q0 -62 14 -76t76 -19v-28h-263v28q61 5 74 18q14 15 14 77v404q0 62 -14 77q-14 13 -76 18v28h259v-28q-58 -5 -70 -19q-14 -14 -14 -76
v-162h341v162q0 61 -14 76q-13 14 -72 19v28h261v-28zM479 -157q-27 -29 -69 -29q-33 0 -54 21t-21 57q0 28 16 62l57 21l8 -7q-9 -27 -9 -51q0 -53 38 -53q13 0 25 3z" />
    <glyph glyph-name="uniE0E8" unicode="&#xe0e8;" horiz-adv-x="766" 
d="M729 622q-62 -5 -76 -19q-14 -15 -14 -77v-403q0 -62 14 -77q13 -13 75 -18v-28h-268v28q65 5 79 18q15 15 15 77v199h-341v-199q0 -62 14 -76t76 -19v-28h-263v28q61 5 74 18q14 15 14 77v403q0 63 -14 77q-13 14 -76 19v28h259v-28q-58 -5 -70 -19q-14 -15 -14 -77
v-161h341v161q0 62 -14 77q-13 14 -72 19v28h261v-28zM477 -157q-25 -29 -68 -29q-34 0 -54 21q-22 21 -22 58q0 27 16 61l57 21l8 -7q-9 -27 -9 -51q0 -53 38 -53q13 0 25 3zM-116 548q50 24 50 55q0 40 -54 40q-12 0 -12 24q0 15 12 26q13 11 32 11q28 0 51 -22
q25 -25 25 -62q0 -77 -94 -98z" />
    <glyph glyph-name="uniE0E9" unicode="&#xe0e9;" horiz-adv-x="766" 
d="M729 622q-62 -5 -76 -19q-14 -15 -14 -76v-404q0 -62 14 -77q13 -13 75 -18v-28h-268v28q65 5 79 18q15 15 15 77v199h-341v-199q0 -62 14 -76t76 -19v-28h-263v28q61 5 74 18q14 15 14 77v404q0 62 -14 77q-14 13 -76 18v28h259v-28q-58 -5 -70 -19q-14 -14 -14 -76
v-162h341v162q0 61 -14 76q-13 14 -72 19v28h261v-28zM484 -157q-27 -29 -69 -29q-34 0 -54 21q-21 21 -21 58q0 25 15 61l57 21l9 -7q-9 -27 -9 -51q0 -53 38 -53q14 0 24 3zM-26 523q-94 21 -94 99q0 37 25 62q23 22 51 22q44 0 44 -37q0 -25 -12 -25q-54 2 -54 -39
q0 -29 51 -53z" />
    <glyph glyph-name="uniE0EA" unicode="&#xe0ea;" horiz-adv-x="766" 
d="M729 623q-62 -5 -76 -19q-14 -15 -14 -77v-404q0 -62 14 -77q13 -13 75 -18v-28h-268v28q65 5 79 18q15 15 15 77v199h-341v-199q0 -62 14 -76t76 -19v-28h-263v28q61 5 74 18q14 15 14 77v404q0 62 -14 77q-14 14 -76 19v27h259v-27q-58 -5 -70 -19q-14 -15 -14 -77
v-162h341v162q0 62 -14 77q-13 14 -72 19v27h261v-27zM477 -157q-25 -29 -68 -29q-34 0 -54 21q-22 21 -22 58q0 27 16 61l57 21l8 -7q-9 -27 -9 -51q0 -53 38 -53q13 0 25 3zM-33 524q-61 134 -76 162l2 8q36 18 74 12l30 -177zM-235 550q50 24 50 54q0 42 -53 40
q-12 0 -12 25q0 37 43 37q28 0 50 -22q25 -25 25 -62q0 -44 -35 -71q-25 -21 -58 -27z" />
    <glyph glyph-name="uniE0EB" unicode="&#xe0eb;" horiz-adv-x="766" 
d="M729 622q-62 -5 -76 -19t-14 -76v-404q0 -62 14 -77q13 -13 75 -18v-28h-268v28q65 5 79 18q15 15 15 77v199h-341v-199q0 -62 14 -76t76 -19v-28h-263v28q61 5 74 18q14 15 14 77v404q0 62 -14 77q-14 13 -76 18v28h260v-28q-58 -5 -71 -19q-14 -14 -14 -76v-162h341
v162q0 62 -14 76q-13 14 -72 19v28h261v-28zM479 -157q-25 -29 -68 -29q-34 0 -54 21q-21 21 -21 58q0 25 15 61l57 21l8 -7q-9 -36 -9 -51q0 -53 38 -53q13 0 25 3zM-37 523q-52 111 -78 162l2 8q34 15 74 12l32 -177zM-172 523q-92 18 -92 98q0 37 25 62q23 22 50 22
q43 0 43 -36q0 -25 -12 -25q-53 2 -53 -40q0 -30 50 -51z" />
    <glyph glyph-name="uniE0EC" unicode="&#xe0ec;" horiz-adv-x="766" 
d="M729 622q-62 -5 -76 -19q-14 -15 -14 -77v-403q0 -62 14 -77q13 -13 75 -18v-28h-268v28q65 5 79 18q15 15 15 77v199h-341v-199q0 -62 14 -76t76 -19v-28h-263v28q61 5 74 18q14 15 14 77v403q0 62 -14 77q-14 14 -76 19v28h260v-28q-59 -5 -71 -19q-14 -15 -14 -77
v-161h341v161q0 62 -14 77q-13 14 -72 19v28h261v-28zM479 -157q-25 -29 -68 -29q-34 0 -54 21q-21 21 -21 58q0 25 15 61l57 21l8 -7q-9 -36 -9 -51q0 -53 38 -53q13 0 25 3zM-91 523l-29 6q26 75 50 165q36 20 77 11l3 -8zM-248 550q50 22 50 55q0 41 -53 39q-13 0 -13 25
q0 36 44 36q27 0 50 -22q25 -24 25 -61q0 -78 -93 -99z" />
    <glyph glyph-name="uniE0ED" unicode="&#xe0ed;" horiz-adv-x="766" 
d="M729 623q-62 -5 -76 -19q-14 -15 -14 -77v-404q0 -62 14 -77q13 -13 75 -18v-28h-268v28q65 5 79 18q15 15 15 77v199h-341v-199q0 -62 14 -76t76 -19v-28h-263v28q61 5 74 18q14 15 14 77v404q0 62 -14 77q-14 14 -76 19v27h259v-27q-58 -5 -70 -19q-14 -15 -14 -77
v-162h341v162q0 62 -14 77q-13 14 -72 19v27h261v-27zM484 -157q-27 -29 -69 -29q-34 0 -54 21q-21 21 -21 57q0 26 15 62l58 21l8 -7q-9 -27 -9 -51q0 -53 38 -53q13 0 25 3zM-89 523l-29 6q33 99 48 166q35 20 78 11l3 -7zM-173 524q-93 18 -93 98q0 37 25 62q23 22 50 22
q44 0 44 -36q0 -23 -13 -26q-53 2 -53 -40q0 -29 50 -51z" />
    <glyph glyph-name="uniE0EE" unicode="&#xe0ee;" horiz-adv-x="766" 
d="M729 622q-62 -5 -76 -19q-14 -15 -14 -77v-403q0 -62 14 -77q13 -13 75 -18v-28h-268v28q65 5 79 18q15 15 15 77v199h-341v-199q0 -62 14 -76t76 -19v-28h-263v28q61 5 74 18q14 15 14 77v403q0 62 -14 77q-14 14 -76 19v28h259v-28q-58 -5 -70 -19q-14 -15 -14 -77
v-161h341v161q0 62 -14 77q-13 14 -72 19v28h261v-28zM484 -157q-27 -29 -69 -29q-34 0 -54 21q-21 21 -21 57q0 26 15 62l58 21l8 -7q-9 -27 -9 -51q0 -53 38 -53q13 0 25 3zM-79 723q31 -17 46 -17q21 0 45 44l22 -17q-30 -83 -75 -83q-17 0 -61 22q-25 14 -39 14
q-21 0 -42 -46l-24 15q30 88 76 86q15 0 52 -18zM-127 519q41 9 41 33q0 30 -44 34q-8 0 -8 16q0 31 41 31q24 0 44 -17q22 -19 22 -48q0 -67 -89 -76z" />
    <glyph glyph-name="uni27A2" unicode="&#x27a2;" horiz-adv-x="566" 
d="M168 263h289l-358 209zM124 263l-90 291h2l495 -291v-1l-495 -289l-2 2z" />
    <glyph glyph-name="uniE0EF" unicode="&#xe0ef;" horiz-adv-x="766" 
d="M729 623q-62 -5 -76 -19q-14 -15 -14 -77v-404q0 -62 14 -77q13 -13 75 -18v-28h-268v28q65 5 79 18q15 15 15 77v199h-341v-199q0 -62 14 -76t76 -19v-28h-263v28q61 5 74 18q14 15 14 77v404q0 62 -14 77q-14 14 -76 19v27h259v-27q-58 -5 -70 -19q-14 -15 -14 -77
v-162h341v162q0 62 -14 77q-13 14 -72 19v27h261v-27zM484 -157q-27 -29 -69 -29q-34 0 -54 21q-21 21 -21 57q0 26 15 62l58 21l8 -7q-9 -27 -9 -51q0 -53 38 -53q13 0 25 3zM-80 723q34 -17 47 -17q20 0 45 45l21 -17q-29 -84 -74 -84q-19 0 -61 23q-28 14 -38 14
q-20 0 -42 -46l-25 14q31 88 76 86q15 0 51 -18zM-62 493q-88 10 -88 76q0 30 23 49q19 16 44 16q41 0 41 -31q0 -16 -8 -16q-44 -4 -44 -33q0 -20 39 -33z" />
    <glyph glyph-name="uniE0FA" unicode="&#xe0fa;" horiz-adv-x="757" 
d="M701 0h-243l-5 18q135 207 135 345q0 121 -55 194q-56 74 -150 74q-95 0 -150 -72t-55 -199q0 -99 57 -210q18 -35 45 -78l34 -54l-7 -18h-244l-17 146l27 1q17 -49 33 -63q13 -12 44 -12h89q-76 78 -100 112q-62 87 -62 177q0 133 89 220q87 84 218 84q132 0 217 -82
q87 -84 87 -219q0 -89 -63 -179q-21 -29 -53 -65l-44 -48h84q35 0 47 11q14 13 32 64l28 -1zM478 -166q-27 -29 -69 -29q-33 0 -54 21t-21 57q0 28 16 62l57 21l8 -7q-9 -27 -9 -51q0 -53 38 -53q13 0 25 3z" />
    <glyph glyph-name="uniE0F0" unicode="&#xe0f0;" horiz-adv-x="757" 
d="M701 0h-243l-5 18q135 207 135 345q0 121 -55 194q-56 74 -151 74t-149 -72q-55 -73 -55 -199q0 -99 56 -210q18 -35 45 -78l34 -54l-6 -18h-244l-17 146l27 1q17 -48 32 -63q13 -12 44 -12h90q-76 78 -100 112q-62 87 -62 177q0 133 89 220q87 84 217 84q133 0 218 -82
q87 -84 87 -219q0 -89 -63 -179q-21 -29 -53 -65l-44 -48h84q35 0 47 11q14 13 32 64l28 -1zM479 -166q-27 -29 -69 -29q-75 0 -75 78q0 26 15 62l58 21l8 -7q-9 -27 -9 -51q0 -53 38 -53q13 0 25 3zM-32 538q50 24 50 55q0 40 -54 40q-12 0 -12 24q0 15 12 26q13 11 32 11
q28 0 51 -22q25 -25 25 -62q0 -77 -94 -98z" />
    <glyph glyph-name="uniE0F1" unicode="&#xe0f1;" horiz-adv-x="757" 
d="M701 0h-243l-5 18q135 207 135 345q0 121 -55 194q-56 74 -151 74t-149 -72q-55 -73 -55 -199q0 -99 56 -210q19 -36 46 -78l34 -54l-7 -18h-244l-17 146l27 1q17 -49 33 -63q13 -12 44 -12h89q-76 78 -100 112q-62 87 -62 177q0 133 89 220q87 84 217 84q133 0 218 -82
q87 -84 87 -219q0 -89 -63 -179q-21 -29 -53 -65l-44 -48h84q35 0 47 11q14 13 32 64l28 -1zM479 -166q-27 -29 -69 -29q-75 0 -75 78q0 26 15 62l58 21l8 -7q-9 -27 -9 -51q0 -53 38 -53q13 0 25 3zM39 514q-94 18 -94 98q0 37 25 62q23 22 51 22q44 0 44 -36
q0 -23 -12 -26q-54 2 -54 -39q0 -29 51 -53z" />
    <glyph glyph-name="uniE0F2" unicode="&#xe0f2;" horiz-adv-x="757" 
d="M701 0h-243l-5 18q135 207 135 346q0 121 -55 194q-56 74 -151 74t-149 -72q-55 -73 -55 -200q0 -99 56 -210q19 -36 46 -78l34 -54l-7 -18h-244l-17 146l27 1q18 -48 33 -62q13 -13 44 -13h89q-76 78 -100 112q-62 87 -62 177q0 134 89 220q87 85 217 85q133 0 218 -83
q87 -84 87 -218q0 -89 -63 -179q-21 -30 -53 -66l-44 -48h84q35 0 47 11q14 13 32 64l28 -1zM479 -166q-27 -29 -69 -29q-75 0 -75 78q0 26 15 62l58 21l8 -7q-9 -27 -9 -51q0 -53 38 -53q13 0 25 3zM22 513q-55 124 -76 163l2 7q32 16 74 13q20 -118 29 -177zM-180 540
q50 24 50 54q0 42 -53 40q-12 0 -12 25q0 37 43 37q28 0 50 -22q25 -25 25 -62q0 -78 -93 -99z" />
    <glyph glyph-name="uni2733" unicode="&#x2733;" horiz-adv-x="640" 
d="M353 543l-20 -243l158 186l48 -48l-187 -157l244 20v-68l-244 21l187 -158l-48 -48l-158 186l20 -243h-67l20 243l-157 -186l-48 48l186 158l-243 -21v68l243 -20l-186 157l48 48l157 -186l-20 243h67z" />
    <glyph glyph-name="uniE0F3" unicode="&#xe0f3;" horiz-adv-x="757" 
d="M701 0h-243l-5 18q135 207 135 345q0 122 -55 195q-56 74 -151 74t-149 -73q-55 -72 -55 -199q0 -99 56 -210q19 -36 46 -78l34 -54l-7 -18h-244l-17 146l27 1q17 -49 33 -63q13 -12 44 -12h89q-76 78 -100 112q-62 87 -62 177q0 134 89 220q87 84 217 84q133 0 218 -82
q87 -84 87 -219q0 -88 -63 -178q-21 -30 -53 -66l-44 -48h84q35 0 47 11q14 13 32 64l28 -1zM479 -166q-27 -29 -69 -29q-75 0 -75 78q0 26 15 62l58 21l8 -7q-9 -27 -9 -51q0 -53 38 -53q13 0 25 3zM26 513q-55 119 -78 162l2 8q34 15 74 12q12 -65 31 -177zM-109 513
q-92 18 -92 98q0 37 25 62q23 22 50 22q43 0 43 -36q0 -25 -12 -25q-53 2 -53 -40q0 -30 50 -51z" />
    <glyph glyph-name="uni2734" unicode="&#x2734;" horiz-adv-x="598" 
d="M333 348l146 110l11 -11l-111 -147l182 -25v-16l-182 -25l111 -146l-11 -11l-146 110l-26 -182h-15l-27 180l-144 -108l-12 11l108 144l-179 27v16l181 25l-110 147l12 11l146 -110l25 181h15z" />
    <glyph glyph-name="uni2713" unicode="&#x2713;" horiz-adv-x="681" 
d="M640 618l5 -7q-223 -250 -472 -667h-12q-29 25 -77 121q-47 95 -47 126q25 44 69 63h2q20 -103 67 -226q167 320 331 526q33 40 134 64z" />
    <glyph glyph-name="arrowleft" unicode="&#x2190;" horiz-adv-x="652" 
d="M144 226l231 -207l-36 -47l-308 282l308 281l36 -47l-231 -207h475v-55h-475z" />
    <glyph glyph-name="arrowright" unicode="&#x2192;" horiz-adv-x="652" 
d="M507 281l-232 207l37 47l307 -282l-307 -281l-37 47l232 207h-476v55h476z" />
    <glyph glyph-name="uniE0FC" unicode="&#xe0fc;" horiz-adv-x="877" 
d="M270 243q97 -89 101 -238l-1 -1q-137 181 -340 255v2q210 79 340 256l1 -1q0 -112 -101 -240l571 14v-60z" />
    <glyph glyph-name="uniE0FE" unicode="&#xe0fe;" horiz-adv-x="877" 
d="M601 277q-97 89 -101 238l1 2q138 -183 340 -256v-2q-210 -77 -340 -256l-1 2q0 113 101 239l-571 -13v60z" />
    <glyph glyph-name="uniE0FD" unicode="&#xe0fd;" horiz-adv-x="631" 
d="M335 224v-240l-1 -2l-300 271l300 271l1 -2v-239h262v-59h-262z" />
    <glyph glyph-name="uniE0FF" unicode="&#xe0ff;" horiz-adv-x="631" 
d="M296 283v239l1 2l300 -270l-300 -272l-1 2v240h-262v59h262z" />
    <glyph glyph-name="uniE0F4" unicode="&#xe0f4;" horiz-adv-x="757" 
d="M701 0h-243l-5 18q135 207 135 345q0 121 -55 194q-56 74 -151 74t-149 -72q-55 -73 -55 -199q0 -99 56 -210q19 -36 46 -78l34 -54l-7 -18h-244l-17 146l27 1q17 -49 33 -63q13 -12 44 -12h89q-76 78 -100 112q-62 87 -62 177q0 133 89 220q87 84 217 84q133 0 218 -82
q87 -84 87 -219q0 -89 -63 -179q-21 -29 -53 -65l-44 -48h84q35 0 47 11q14 13 32 64l28 -1zM479 -166q-27 -29 -69 -29q-34 0 -54 21q-21 21 -21 57q0 26 15 62l57 21l8 -7q-9 -36 -9 -51q0 -53 39 -53q14 0 24 3zM27 513l-29 6q26 75 50 165q36 20 77 11l3 -8zM-130 540
q50 24 50 55q0 42 -53 40q-13 0 -13 25q0 36 43 36q27 0 50 -22q26 -25 26 -62q0 -77 -93 -99z" />
    <glyph glyph-name="uniE0F5" unicode="&#xe0f5;" horiz-adv-x="757" 
d="M701 0h-244l-5 18q136 208 136 345q0 121 -55 194q-56 74 -151 74t-150 -72q-54 -72 -54 -199q0 -99 56 -210q18 -35 45 -78l34 -54l-6 -18h-244l-17 146l27 1q17 -49 33 -63q13 -12 44 -12h89q-76 78 -100 112q-62 87 -62 177q0 133 89 220q87 84 217 84q132 0 218 -82
q87 -84 87 -219q0 -89 -63 -179q-21 -29 -53 -65l-44 -48h84q35 0 47 11q14 13 32 64l28 -1zM477 -166q-27 -29 -69 -29q-34 0 -54 21q-21 21 -21 57q0 26 15 62l57 21l8 -7q-9 -36 -9 -51q0 -53 39 -53q13 0 25 3zM26 513l-29 6q27 83 48 165q23 17 78 12l3 -8zM-59 514
q-93 18 -93 98q0 37 25 62q23 22 50 22q44 0 44 -36q0 -23 -12 -26q-54 2 -54 -39q0 -29 51 -52z" />
    <glyph glyph-name="uniE0F6" unicode="&#xe0f6;" horiz-adv-x="757" 
d="M701 0h-243l-5 18q135 207 135 345q0 121 -55 194q-56 74 -151 74t-149 -72q-55 -73 -55 -199q0 -99 56 -210q19 -36 46 -78l34 -54l-7 -18h-244l-17 146l27 1q17 -49 33 -63q13 -12 44 -12h89q-76 78 -100 112q-62 87 -62 177q0 133 89 220q87 84 217 84q133 0 218 -82
q87 -84 87 -218q0 -89 -63 -179q-21 -30 -53 -66l-44 -48h84q35 0 47 11q14 13 32 64l28 -1zM479 -166q-27 -29 -69 -29q-34 0 -54 21q-21 21 -21 57q0 26 15 62l57 21l8 -7q-9 -36 -9 -51q0 -53 39 -53q14 0 24 3zM-53 722q15 0 51 -18q34 -17 47 -17q20 0 44 44l22 -17
q-30 -83 -74 -83q-16 0 -62 22q-28 14 -39 14q-21 0 -42 -47l-24 15q29 87 75 87h2zM-49 500q41 9 41 33q0 30 -44 34q-8 0 -8 16q0 31 41 31q24 0 44 -16q22 -19 22 -49q0 -67 -89 -76z" />
    <glyph glyph-name="uniE0F7" unicode="&#xe0f7;" horiz-adv-x="757" 
d="M701 0h-243l-5 18q135 207 135 345q0 121 -55 194q-56 74 -151 74t-149 -72q-55 -73 -55 -200q0 -98 56 -209q19 -36 46 -78l34 -54l-7 -18h-244l-17 145l27 2q17 -49 33 -63q13 -12 44 -12h89q-77 79 -100 111q-62 87 -62 177q0 134 89 220q87 85 217 85q133 0 218 -83
q87 -84 87 -218q0 -89 -63 -179q-21 -29 -53 -65l-44 -48h84q35 0 47 11q14 13 32 64l28 -2zM479 -166q-27 -29 -69 -29q-34 0 -54 21q-21 21 -21 57q0 26 15 62l57 21l8 -7q-9 -36 -9 -51q0 -53 39 -53q14 0 24 3zM-1 699q34 -17 46 -17q21 0 45 45l22 -17q-29 -84 -75 -84
q-20 0 -60 23q-26 13 -38 13q-22 0 -42 -45l-25 14q29 86 75 86q15 0 52 -18zM15 468q-87 9 -87 76q0 30 23 49q20 17 44 17q41 0 41 -31q0 -17 -9 -17q-43 -4 -43 -32q0 -21 39 -34z" />
    <glyph glyph-name="uni021A.aalt" horiz-adv-x="510" 
d="M446 336q-13 56 -27 74q-18 22 -78 22h-45v-321q0 -54 12 -67q12 -12 67 -16v-28h-236v28q52 4 64 16q12 13 12 66v322h-32q-71 0 -89 -25q-16 -24 -26 -71h-28q1 26 5 81l4 65h21q12 -18 39 -19h298q23 0 37 19h21q0 -65 9 -144zM300 -57q23 -23 23 -57q0 -78 -106 -106
l-10 29q61 26 61 55q0 30 -46 41q-15 4 -15 23q0 37 43 37q29 0 50 -22z" />
    <glyph glyph-name="uni021B.aalt" horiz-adv-x="510" 
d="M446 336q-13 56 -27 74q-18 22 -78 22h-45v-321q0 -54 12 -67q12 -12 67 -16v-28h-236v28q52 4 64 16q12 13 12 66v322h-32q-71 0 -89 -25q-16 -24 -26 -71h-28q1 26 5 81l4 65h21q12 -18 39 -19h298q23 0 37 19h21q0 -65 9 -144zM300 -57q23 -23 23 -57q0 -78 -106 -106
l-10 29q61 26 61 55q0 30 -46 41q-15 4 -15 23q0 37 43 37q29 0 50 -22z" />
    <glyph glyph-name="uni0237" unicode="&#x237;" horiz-adv-x="256" 
d="M34 412q84 13 146 39v-340q0 -97 -23 -161q-46 -130 -121 -196q-16 -11 -26 -11q-11 0 -23 13q-13 14 -13 31q0 19 21 23q54 13 73 38q16 20 25 72q8 57 8 193v195q0 51 -10 63q-10 11 -57 18v23z" />
    <glyph glyph-name="uni2610" unicode="&#x2610;" horiz-adv-x="846" 
d="M751 649v-627l-56 -54h-613v632l52 49h617zM124 12h553v568h-553v-568z" />
    <glyph glyph-name="uni2611" unicode="&#x2611;" horiz-adv-x="846" 
d="M751 649v-627l-56 -54h-613v632l52 49h617zM124 12h553v568h-553v-568zM624 547l2 -4q-78 -85 -286 -486h-6q-21 18 -75 113q-54 96 -54 117q19 41 59 52h2q15 -83 77 -203q117 286 177 368q25 33 104 43z" />
    <glyph glyph-name="uniF633" unicode="&#xf633;" horiz-adv-x="753" 
d="M556 37q-94 -55 -204 -55q-126 0 -209 76q-91 84 -91 229q1 168 119 273q109 98 262 98q129 0 207 -77q73 -72 73 -180q0 -103 -68 -175q-68 -74 -168 -74q-36 0 -45 20q-7 15 0 52l11 57l-2 1q-27 -41 -80 -84q-58 -46 -90 -46q-48 0 -48 84q0 112 80 189q78 73 161 74
q15 0 50 -8q19 -4 34 -4q-26 -106 -48 -228q-7 -39 -4 -52q4 -13 23 -13q56 2 99 54q47 58 47 153q0 101 -67 161q-65 57 -170 57q-139 0 -226 -91q-86 -91 -86 -232q0 -112 60 -184q71 -85 209 -85q96 0 160 38zM357 429q-58 -64 -58 -169q0 -44 21 -44q46 0 132 121
q14 48 25 111q-24 11 -55 11q-37 0 -65 -30z" />
    <glyph glyph-name="uniF6BC" unicode="&#xf6bc;" horiz-adv-x="922" 
d="M50 314v51h822v-51h-822z" />
    <glyph glyph-name="uniF6BB" unicode="&#xf6bb;" horiz-adv-x="520" 
d="M50 314v51h419v-51h-419z" />
    <glyph glyph-name="uniF6B4" unicode="&#xf6b4;" horiz-adv-x="276" 
d="M178 649q16 -17 16 -43q0 -25 -16 -41q-17 -17 -41 -17q-25 0 -41 17q-16 16 -16 41q0 26 16 43q16 16 42 16q24 0 40 -16zM85 19q0 23 7 79q10 88 29 359q4 5 18 5t18 -5q21 -305 28 -359q7 -70 7 -79q0 -30 -54 -30q-53 0 -53 30z" />
    <glyph glyph-name="uniF6B6" unicode="&#xf6b6;" horiz-adv-x="444" 
d="M207 152q-104 133 -158 183q59 59 159 184l22 -15l-93 -169l93 -167zM373 152q-99 126 -158 183q69 72 158 184l23 -15l-93 -169l93 -167z" />
    <glyph glyph-name="uniF6B7" unicode="&#xf6b7;" horiz-adv-x="445" 
d="M72 519q96 -122 158 -184q-59 -57 -158 -183l-23 15l94 168l-94 169zM237 519q96 -122 158 -184q-59 -57 -158 -183l-23 15l93 168l-93 169z" />
    <glyph glyph-name="uniF6B8" unicode="&#xf6b8;" horiz-adv-x="279" 
d="M207 152q-93 120 -158 183q76 79 158 184l23 -15l-94 -169l94 -167z" />
    </font>
</defs>
</svg>
